<svg width="827" height="285" viewBox="0 0 827 285" fill="none" xmlns="http://www.w3.org/2000/svg">
<path d="M0 0H826.2L794.859 176.564H31.3404L0 0Z" fill="#244638"/>
<path d="M31.3405 176.564L177.596 219.77V176.564H31.3405Z" fill="#153226"/>
<path d="M794.859 176.564L648.733 219.77V176.564H794.859Z" fill="#153226"/>
<path d="M177.596 219.77L65.2604 259.493V186.624L177.596 219.77Z" fill="#244638"/>
<path d="M648.733 219.77L760.94 259.493V186.624L648.733 219.77Z" fill="#244638"/>
<path d="M121.364 239.631V284.772L65.2604 259.493L121.364 239.631Z" fill="#153226"/>
<path d="M704.836 239.631V284.772L760.94 259.493L704.836 239.631Z" fill="#153226"/>
<path d="M129.438 131.25L129.812 127.562C108.583 132.229 93.9167 125.917 85.8125 108.625C79.1042 91.7917 81.8333 75.625 94 60.125C106.833 47.3333 125.698 43.0521 150.594 47.2812C151.344 57.6146 151.229 67.1562 150.25 75.9062C144.167 73.9688 136.552 73.3854 127.406 74.1562C118.802 75.9688 113.458 79.7812 111.375 85.5938C109.5 95.2396 111.781 101.604 118.219 104.688C124.302 105.792 128.854 104.99 131.875 102.281C130.271 101.99 127.688 102.052 124.125 102.469L123.969 86.5938C138.844 86.5104 148.708 86.2917 153.562 85.9375C153.667 102.667 153.469 117.552 152.969 130.594C147.719 131.344 139.875 131.562 129.438 131.25ZM222.875 54.125C228.854 58.8542 233.104 65.2917 235.625 73.4375C236.938 78.375 237.531 83.2917 237.406 88.1875C234.719 117 219.604 131.042 192.062 130.312C180.667 130.271 171.281 125.51 163.906 116.031C160.406 110.406 158.333 104.302 157.688 97.7188C157.042 90.6354 157.885 83.3854 160.219 75.9688C163.198 67.9062 167.219 61.6667 172.281 57.25C188.156 43.1042 205.021 42.0625 222.875 54.125ZM185.625 94.4062C187.146 98.9896 190.531 101.333 195.781 101.438C200.406 101.708 204.115 100.302 206.906 97.2188C209.969 93.2812 210.677 89.3333 209.031 85.375C206.76 80.3333 203.375 77.8646 198.875 77.9688C193.208 78.4271 189.083 81.3333 186.5 86.6875C185.312 89.4375 185.021 92.0104 185.625 94.4062ZM237.312 50.5938C255.542 45.5521 271.844 44.4896 286.219 47.4062C298.615 51.0938 305.594 59.9792 307.156 74.0625C307.24 92.3125 298.927 102.792 282.219 105.5C278.24 106.146 274.99 106.646 272.469 107C272.573 115.917 272.969 123.948 273.656 131.094C263.865 131.49 254.667 131.76 246.062 131.906C245.708 108.406 245.698 89.1042 246.031 74L238.719 74.875L237.312 50.5938ZM271.312 85.2188C279.021 84.8021 283.156 82.4688 283.719 78.2188C283.76 75.1771 282.823 72.9688 280.906 71.5938C277.385 69.5312 274.115 69.2292 271.094 70.6875C270.49 75.5625 270.562 80.4062 271.312 85.2188ZM341.375 130.188C342.812 119.021 343.396 110.698 343.125 105.219L335.375 105.562C334.833 111.208 334.594 119.01 334.656 128.969C326.49 129.698 317.417 129.938 307.438 129.688C309.542 90.375 310.417 62.9062 310.062 47.2812C319.667 46.6979 328.427 46.4688 336.344 46.5938C336.469 53.2188 336.312 64.5833 335.875 80.6875L343.781 79.8125C343.823 77.3958 344.24 66.8021 345.031 48.0312C353.594 47.4479 362.427 46.9479 371.531 46.5312C370.573 79.7812 370.219 107.75 370.469 130.438C362.573 130.771 352.875 130.688 341.375 130.188ZM442.562 46.5C441.688 56.625 441.271 65.2292 441.312 72.3125L410.438 72.5312L410.688 79.4688L432.219 78.8125L432.812 98.7188C427.312 99.1979 420.177 99.5729 411.406 99.8438L411.531 105.969C420.698 106.01 430.885 105.688 442.094 105C442.365 115.5 442.781 123.74 443.344 129.719C432.448 129.99 412.719 130.458 384.156 131.125C384.531 108.438 384.531 88.9688 384.156 72.7188L377.156 72.875L376.5 47.4375C388.917 47.4375 410.938 47.125 442.562 46.5ZM447.75 75.875C448.354 65.7917 448.812 57.1979 449.125 50.0938C464.854 46.3854 478.927 45.0521 491.344 46.0938C497.823 46.9479 503.74 49.1458 509.094 52.6875C514.656 56.3958 518.26 60.4375 519.906 64.8125C523.281 77.9167 518.031 89.5938 504.156 99.8438C509.927 106.656 515.312 112.062 520.312 116.062L499.406 135.25L482.281 111.719C482.219 118.844 482.188 125.354 482.188 131.25C470.417 131.854 461.604 131.677 455.75 130.719C455.604 122.24 455.875 103.521 456.562 74.5625L447.75 75.875ZM482.5 71.2188C482.167 75.6146 482.115 80.3021 482.344 85.2812L486.812 83.9688C491.938 81.5104 494.49 78.7292 494.469 75.625C494.406 73.0417 493.104 71.5729 490.562 71.2188C488.542 70.5312 485.854 70.5312 482.5 71.2188ZM574.125 99.6562L573.719 129.844C547.448 133.073 529.51 126.5 519.906 110.125C515.01 99.9375 514.208 88.6667 517.5 76.3125C525.792 54.1875 544.51 44.7812 573.656 48.0938L573.844 81.3438C563.573 78.5312 555.885 79.0208 550.781 82.8125C545.677 86.5833 544.865 91.2604 548.344 96.8438C552.698 101.76 561.292 102.698 574.125 99.6562ZM642.625 54.125C648.604 58.8542 652.854 65.2917 655.375 73.4375C656.688 78.375 657.281 83.2917 657.156 88.1875C654.469 117 639.354 131.042 611.812 130.312C600.417 130.271 591.031 125.51 583.656 116.031C580.156 110.406 578.083 104.302 577.438 97.7188C576.792 90.6354 577.635 83.3854 579.969 75.9688C582.948 67.9062 586.969 61.6667 592.031 57.25C607.906 43.1042 624.771 42.0625 642.625 54.125ZM605.375 94.4062C606.896 98.9896 610.281 101.333 615.531 101.438C620.156 101.708 623.865 100.302 626.656 97.2188C629.719 93.2812 630.427 89.3333 628.781 85.375C626.51 80.3333 623.125 77.8646 618.625 77.9688C612.958 78.4271 608.833 81.3333 606.25 86.6875C605.062 89.4375 604.771 92.0104 605.375 94.4062ZM663.438 48.4375L693.875 45.2812C698.854 54.4896 706.344 64.4271 716.344 75.0938C716.052 69.8646 715.708 60.7396 715.312 47.7188C725.417 47.3646 734.844 46.6979 743.594 45.7188C743.573 77.7396 743.312 106.125 742.812 130.875C737.792 130.875 731.469 131.042 723.844 131.375C716.49 121.021 707.5 109.969 696.875 98.2188L697.219 131.375C688.635 131.021 679.969 131.115 671.219 131.656C671.719 115.073 671.802 96.0417 671.469 74.5625L662.781 75.2812L663.438 48.4375Z" fill="#FFFEE6"/>
</svg>
