<svg width="489" height="658" viewBox="0 0 489 658" fill="none" xmlns="http://www.w3.org/2000/svg">
<path d="M-200.548 744.028C-202.479 744.028 -202.479 744.028 -200.548 744.028C-204.411 742.186 -204.411 742.186 -206.342 742.186C-208.274 740.345 -208.274 740.345 -210.206 738.503C-212.137 736.662 -214.069 734.82 -214.069 732.978C-214.069 731.137 -216 731.137 -216 729.295C-216 727.454 -216 727.454 -216 725.612C-216 723.77 -216 721.929 -216 721.929C-216 721.929 -216 720.087 -214.069 720.087C-214.069 720.087 -214.069 720.087 -212.137 720.087C-212.137 720.087 -212.137 720.087 -210.206 720.087C-208.274 720.087 -206.343 718.246 -204.411 718.246H-202.479C-200.548 718.246 -198.616 716.404 -198.616 716.404C-194.753 714.562 -190.89 712.721 -187.027 710.879C-185.096 710.879 -185.096 709.038 -183.164 709.038C-181.233 707.196 -177.37 705.355 -175.438 705.355C-171.575 703.513 -167.712 701.671 -163.849 699.83C-158.055 696.147 -154.192 694.305 -150.329 690.622C-142.603 685.097 -134.877 679.572 -129.082 674.048C-125.219 670.364 -121.356 668.523 -119.425 664.84C-115.562 661.157 -111.699 659.315 -109.767 655.632C-105.904 651.949 -103.973 650.107 -100.11 646.424C-96.2466 644.582 -94.3151 640.899 -90.4521 639.058C-86.589 637.216 -84.6575 633.533 -82.726 631.691C-78.863 628.008 -75 624.325 -71.137 622.483C-67.274 618.8 -63.411 615.117 -59.5479 613.275C-57.6164 611.434 -55.6849 609.592 -53.7534 607.751C-51.8219 605.909 -49.8904 604.067 -47.9589 602.226C-42.1644 596.701 -36.3699 589.335 -30.5753 583.81C-24.7808 576.444 -18.9863 569.077 -13.1918 563.553C-11.2603 561.711 -9.32877 558.028 -7.39726 556.186L-5.46579 554.345C-3.53428 552.503 -3.53426 550.662 -1.60275 550.662C0.328755 548.82 0.32873 546.978 2.26024 545.137C4.19174 543.295 6.12329 539.612 8.0548 535.929C9.9863 532.246 11.9178 530.404 13.8493 526.721L23.5069 511.988C25.4384 508.305 27.3699 506.464 29.3014 504.622C31.2329 500.939 33.1644 499.097 37.0274 493.572L38.9589 491.731V489.889V488.048C40.8904 486.206 40.8904 484.364 42.8219 482.523C44.7534 480.681 46.6849 478.84 46.6849 475.157C46.6849 473.315 48.6165 473.315 48.6165 471.473C50.548 467.79 52.4795 465.949 54.411 462.265L56.3425 460.424L58.274 456.741C60.2055 454.899 62.137 451.216 64.0685 449.374C66 447.533 67.9315 443.85 69.863 442.008L71.7945 440.166C73.726 436.483 75.6575 432.8 79.5205 429.117C81.452 427.275 81.4521 425.434 83.3836 423.592C85.3151 421.751 85.3151 419.909 87.2466 418.067C89.1781 416.226 91.1096 412.543 91.1096 410.701C91.1096 410.701 91.1096 408.86 93.0411 408.86C93.0411 407.018 94.9726 407.018 94.9726 405.176C96.9041 403.335 96.9041 399.652 98.8356 397.81C100.767 394.127 102.699 390.444 104.63 386.761C104.63 384.919 106.562 383.077 106.562 381.236C106.562 381.236 106.562 381.236 106.562 379.394V377.553V375.711C108.493 372.028 110.425 366.503 112.356 364.661C114.288 362.82 114.288 360.978 116.219 359.137C114.288 360.978 114.288 362.82 112.356 362.82C108.493 366.503 104.63 372.028 100.767 375.711C98.8356 377.553 98.8356 379.394 96.9041 379.394L94.9726 381.236V383.077C93.0411 384.919 91.1096 386.761 91.1096 388.602C89.1781 390.444 87.2466 392.285 87.2466 395.968C85.3151 397.81 83.3836 401.493 83.3836 403.335C81.4521 405.176 81.452 407.018 79.5205 408.86C77.589 410.701 75.6575 414.384 75.6575 416.226C73.726 418.067 73.726 419.909 71.7945 423.592C69.863 425.434 69.863 427.275 67.9315 430.959C66 432.8 64.0685 434.642 62.1369 438.325C60.2054 440.166 58.274 442.008 58.274 443.85V445.691C56.3425 449.374 54.4109 451.216 50.5479 454.899C48.6164 456.741 48.6164 458.582 46.6849 460.424L44.7534 462.265C42.8219 464.107 42.8219 465.949 40.8904 465.949C40.8904 467.79 38.9589 467.79 37.0274 469.632L35.0959 471.473L33.1644 475.157C31.2328 476.998 29.3014 478.84 27.3698 480.681L25.4384 482.523C25.4384 484.364 23.5069 484.364 23.5069 486.206L21.5753 488.048C21.5753 489.889 19.6439 489.889 17.7123 491.731C15.7808 493.572 15.7808 493.572 13.8493 495.414L11.9178 497.256C11.9178 497.256 11.9178 497.256 9.98632 499.097L8.0548 500.939C6.12329 502.78 6.12326 502.78 4.19176 504.622C2.26025 506.464 0.328755 506.463 -1.60275 508.305H-3.53427C-7.39729 510.147 -9.32874 511.988 -11.2602 513.83C-13.1918 515.671 -17.0548 517.513 -18.9863 517.513C-20.9178 519.355 -24.7809 519.355 -26.7124 521.196C-30.5754 523.038 -32.5069 523.038 -36.3699 523.038C-38.3014 523.038 -42.1644 524.879 -44.0959 524.879C-47.9589 524.879 -49.8904 524.879 -53.7534 526.721C-55.6849 526.721 -59.548 526.721 -61.4795 526.721H-63.411C-65.3425 526.721 -69.2055 526.721 -71.137 526.721C-75 526.721 -76.9315 526.721 -80.7945 524.879C-84.6575 524.879 -86.589 523.038 -90.4521 523.038C-92.3836 523.038 -96.2466 521.196 -98.1781 519.355C-100.11 517.513 -103.973 515.671 -105.904 515.671C-107.836 513.83 -109.767 511.988 -113.63 510.147C-117.493 506.463 -123.288 502.78 -127.151 499.097C-131.014 495.414 -134.877 489.889 -136.808 484.364C-138.74 482.523 -138.74 480.681 -140.671 476.998C-140.671 476.998 -140.671 475.157 -142.603 475.157C-142.603 473.315 -144.534 473.315 -144.534 471.473C-144.534 469.632 -144.534 469.632 -146.466 467.79C-146.466 465.949 -146.466 465.949 -146.466 464.107C-146.466 460.424 -146.466 458.582 -146.466 454.899V453.058V451.216C-146.466 449.374 -146.466 447.533 -146.466 447.533C-146.466 443.85 -146.466 442.008 -144.534 438.325C-144.534 436.483 -142.603 432.8 -142.603 430.959C-142.603 429.117 -140.671 425.434 -138.74 423.592C-136.808 421.751 -136.808 418.067 -134.877 416.226C-132.945 414.384 -132.945 410.701 -131.014 408.86C-129.082 407.018 -127.151 403.335 -127.151 401.493C-125.219 399.652 -123.288 397.81 -121.356 394.127C-119.425 392.285 -115.562 388.602 -113.63 386.761L-111.699 384.919C-113.63 384.919 -115.562 384.919 -119.425 383.077C-121.356 383.077 -125.219 381.236 -129.082 379.394C-131.014 379.394 -132.945 377.553 -132.945 377.553C-134.877 377.553 -136.808 375.711 -136.808 373.869C-138.74 373.869 -138.74 372.028 -140.671 372.028C-142.603 370.186 -144.534 370.186 -144.534 368.345C-146.466 366.503 -148.397 364.661 -152.26 360.978C-154.192 359.137 -156.123 355.454 -159.986 353.612C-161.918 351.77 -161.918 349.929 -163.849 349.929C-163.849 348.087 -165.781 348.087 -165.781 346.246C-167.712 344.404 -169.644 340.721 -171.575 338.879C-171.575 337.038 -173.507 335.196 -173.507 333.355C-173.507 331.513 -175.438 329.671 -175.438 327.83C-177.37 324.147 -177.37 320.463 -177.37 318.622C-177.37 316.78 -177.37 314.939 -177.37 313.097C-177.37 311.256 -177.37 311.256 -177.37 309.414V307.572C-177.37 305.731 -177.37 302.048 -177.37 300.206C-177.37 296.523 -177.37 292.84 -177.37 289.157C-177.37 285.473 -175.438 283.632 -173.507 279.949C-171.575 276.265 -171.575 274.424 -169.644 270.741C-167.712 267.058 -165.781 265.216 -163.849 263.374C-161.918 261.533 -159.986 257.85 -156.123 256.008C-154.192 254.166 -152.26 252.325 -148.397 250.483C-146.466 248.642 -142.603 246.8 -140.671 244.959C-138.74 243.117 -136.808 243.117 -136.808 243.117C-134.877 243.117 -132.945 241.275 -132.945 241.275C-129.082 239.434 -127.151 239.434 -123.288 237.592C-119.425 235.751 -117.493 235.751 -113.63 233.909C-109.767 232.067 -107.836 232.067 -103.973 232.067C-102.041 232.067 -98.1781 232.067 -96.2466 232.067H-94.3151H-92.3836C-88.5206 232.067 -86.5891 232.067 -84.6575 232.067C-82.726 232.067 -78.863 232.067 -76.9315 232.067C-73.0685 232.067 -67.274 233.909 -63.411 233.909C-61.4795 233.909 -57.6165 235.751 -55.685 235.751H-53.7534C-51.8219 235.751 -49.8904 235.751 -47.9589 237.592H-46.0274H-44.0959V235.751C-38.3014 237.592 -34.4383 237.592 -28.6438 239.434C-24.7808 239.434 -22.8493 241.275 -18.9863 243.117C-15.1233 244.959 -13.1918 244.959 -9.32878 246.8C-7.39727 248.642 -3.53426 248.642 -1.60275 250.483H0.328768C2.26027 250.483 4.19177 252.325 6.12328 252.325C8.05478 252.325 8.05481 252.325 9.98632 254.166L13.8493 256.008H15.7808C19.6438 257.85 25.4383 259.691 29.3014 261.533C37.0274 265.216 42.8219 267.058 48.6165 270.741C50.548 270.741 50.5479 272.582 52.4794 272.582C54.411 272.582 54.411 274.424 56.3425 274.424H58.274C60.2055 274.424 62.1369 276.265 62.1369 276.265C64.0685 276.265 64.0685 278.107 66 278.107H67.9315H69.863C71.7945 279.949 73.726 279.949 75.6575 281.79L79.5205 283.632H81.452C87.2466 285.473 91.1096 287.315 96.9041 290.998C98.8356 292.84 102.699 292.84 106.562 294.681C108.493 294.681 110.425 296.523 112.356 296.523C114.288 296.523 114.288 298.364 116.219 298.364C118.151 300.206 122.014 300.206 123.945 302.048C125.877 302.048 125.877 303.889 127.808 303.889L125.877 302.048C122.014 300.206 118.151 296.523 114.288 294.681L112.356 292.84C108.493 290.998 104.63 287.315 98.8356 285.473H96.9041C93.0411 283.632 87.2466 279.949 81.452 276.265C79.5205 276.265 77.589 274.424 75.6575 274.424C71.7945 272.582 69.863 270.741 66 268.899C62.137 267.058 56.3425 263.374 52.4794 261.533C48.6164 259.691 46.6849 257.85 42.8219 256.008L38.9589 254.166C37.0274 252.325 35.0959 252.325 35.0959 250.483C31.2329 248.642 29.3014 246.8 25.4384 244.959C17.7123 239.434 8.05478 233.909 -1.60275 226.543C-5.46577 224.701 -9.32877 221.018 -15.1233 217.335C-17.0548 215.493 -20.9178 213.652 -22.8493 211.81C-24.7808 209.968 -26.7123 208.127 -28.6438 206.285C-32.5068 202.602 -36.3699 198.919 -40.2329 195.236C-42.1644 193.394 -44.0959 191.553 -46.0274 189.711C-47.9589 187.869 -47.9589 186.028 -49.8904 186.028L-51.8219 184.186C-53.7534 182.345 -55.6849 180.503 -57.6164 178.661C-59.5479 176.82 -61.4795 174.978 -63.411 171.295C-69.2055 165.77 -71.137 163.929 -73.0685 162.087C-75 160.246 -75 156.562 -76.9315 154.721C-78.863 152.879 -78.863 149.196 -78.863 147.355C-78.863 145.513 -80.7945 141.83 -80.7945 139.988C-80.7945 136.305 -80.7945 134.463 -80.7945 130.78C-80.7945 127.097 -80.7945 125.256 -80.7945 123.414C-80.7945 121.572 -80.7945 117.889 -80.7945 116.048C-80.7945 112.364 -78.863 110.523 -78.863 108.681C-78.863 106.84 -76.9315 103.157 -75 101.315C-73.0685 95.7902 -71.137 93.9486 -71.137 92.107C-69.2055 88.4239 -67.274 86.5823 -67.274 84.7407C-65.3425 82.8991 -63.411 81.0575 -63.411 77.3744C-59.548 73.6912 -55.6849 68.1665 -51.8219 64.4833C-49.8904 62.6417 -47.9589 60.8001 -46.0274 58.9585C-44.0959 57.1169 -40.2329 55.2754 -38.3014 55.2754C-36.3699 53.4338 -34.4384 53.4338 -30.5753 51.5922C-24.7808 53.4338 -22.8493 51.5922 -18.9863 51.5922C-17.0548 51.5922 -13.1918 51.5922 -11.2602 51.5922C-7.39724 51.5922 -5.46578 51.5922 -3.53427 51.5922C-1.60276 51.5922 0.32873 51.5922 2.26024 51.5922H4.19176H6.12328C8.05478 51.5922 8.05481 51.5922 9.98632 51.5922H11.9178H13.8493C15.7808 51.5922 15.7808 51.5922 17.7123 51.5922C19.6439 51.5922 19.6438 51.5922 21.5753 51.5922C23.5068 51.5922 27.3699 53.4338 29.3014 55.2754C31.2329 55.2754 33.1644 57.1169 35.0959 57.1169C35.0959 57.1169 37.0274 57.1169 37.0274 58.9585C38.9589 60.8001 40.8904 60.8001 44.7534 62.6417C46.6849 64.4833 48.6164 64.4833 50.5479 66.3249C52.4794 68.1664 54.411 70.008 56.3425 71.8496C58.274 73.6912 60.2054 75.5328 62.1369 77.3744C64.0685 79.216 64.0685 81.0575 66 82.8991C66 81.0575 66 79.216 66 77.3744C66 71.8496 67.9315 64.4833 69.863 58.9585C71.7945 57.1169 71.7945 53.4338 73.726 49.7506C75.6575 46.0674 77.589 44.2259 79.5205 40.5427C81.452 38.7011 83.3836 35.0179 87.2466 33.1763C89.1781 31.3348 93.0411 27.6516 94.9726 25.81C96.9041 23.9684 98.8356 22.1268 100.767 20.2853C102.699 18.4437 102.699 18.4437 104.63 16.6021C110.425 16.6021 110.425 14.7605 112.356 14.7605C114.288 12.9189 116.219 12.9189 118.151 11.0773L122.014 9.23575L123.945 7.39417H125.877L127.808 5.55259H129.74C131.671 5.55259 131.671 3.711 133.603 3.711C135.534 3.711 137.466 1.86942 137.466 1.86942C139.397 1.86942 141.329 0.027832 143.26 0.027832C145.192 0.027832 145.192 0.027832 147.123 0.027832C149.055 0.027832 150.986 0.027832 152.918 0.027832C156.781 0.027832 160.644 0.027832 164.507 0.027832C166.438 0.027832 166.438 0.027832 168.37 0.027832H170.301C172.233 0.027832 174.164 0.027832 174.164 0.027832C176.096 0.027832 178.027 0.0278322 179.959 1.86942C181.89 1.86942 183.822 3.711 185.753 3.711C187.685 5.55258 191.548 5.55259 195.411 7.39417C199.274 9.23575 201.205 11.0773 203.137 12.9189C205.068 14.7605 205.068 14.7605 207 16.6021C208.932 18.4437 208.932 18.4437 210.863 20.2853C212.795 22.1268 214.726 25.81 216.658 27.6516C216.658 29.4932 218.589 29.4932 218.589 31.3348C218.589 33.1763 220.521 35.0179 222.452 36.8595C224.384 38.7011 226.315 42.3843 226.315 46.0674C228.247 49.7506 228.247 51.5922 230.178 55.2754C230.178 58.9585 232.11 60.8001 232.11 64.4833C232.11 68.1665 232.11 71.8496 232.11 75.5328C232.11 79.216 232.11 82.8991 232.11 86.5823C232.11 88.4239 232.11 92.1071 230.178 93.9486V95.7902C230.178 99.4734 228.247 103.157 228.247 104.998C228.247 106.84 226.315 108.681 226.315 112.364C226.315 114.206 226.315 114.206 226.315 114.206C226.315 117.889 224.384 119.731 224.384 123.414C224.384 127.097 222.452 128.939 222.452 130.78V132.622C218.589 138.147 218.589 141.83 216.658 143.671C214.726 147.355 214.726 151.038 212.795 152.879C210.863 154.721 210.863 158.404 208.931 160.246V162.087C207 165.77 205.068 169.454 205.068 173.137C203.137 174.978 203.137 178.662 201.205 180.503C199.274 184.186 199.274 187.869 197.342 189.711C195.411 193.394 195.411 195.236 193.479 200.761V202.602C193.479 204.444 191.548 208.127 189.616 211.81C189.616 213.652 187.685 215.493 187.685 217.335C187.685 219.176 185.753 221.018 185.753 222.86V224.701V226.543C185.753 228.384 183.822 230.226 183.822 232.067L181.89 233.909C179.959 237.592 179.959 241.275 178.027 243.117C178.027 244.959 178.027 244.959 176.096 246.8C176.096 248.642 174.164 250.483 174.164 252.325C174.164 254.166 172.233 257.85 172.233 259.691C172.233 261.533 170.301 263.374 170.301 265.216C168.37 268.899 168.37 272.582 166.438 276.265C166.438 278.107 164.507 281.79 164.507 285.473V287.315C164.507 289.157 164.507 290.998 162.575 292.84C162.575 294.681 162.575 296.523 160.644 298.364C160.644 300.206 160.644 300.206 160.644 302.048C160.644 300.206 162.575 300.206 162.575 298.364C162.575 296.523 164.507 294.681 164.507 294.681V292.84C164.507 290.998 166.438 290.998 166.438 289.157V287.315V285.473L168.37 283.632C168.37 281.79 170.301 279.949 170.301 279.949C170.301 278.107 172.233 278.107 172.233 276.265C172.233 274.424 174.164 274.424 174.164 272.582C174.164 270.741 176.096 270.741 176.096 268.899V267.058C176.096 267.058 176.096 265.216 178.027 265.216C178.027 263.374 179.959 263.374 179.959 261.533C179.959 261.533 179.959 259.691 181.89 259.691C181.89 257.85 183.822 256.008 183.822 256.008V254.166V252.325C187.685 246.8 189.616 243.117 191.548 239.434C193.479 235.751 195.411 232.067 197.342 228.384L199.274 232.067C199.274 230.226 201.205 230.226 201.205 228.384C201.205 226.543 203.137 226.543 203.137 224.701C205.068 222.86 205.068 219.176 207 217.335C208.932 213.652 212.795 208.127 214.726 204.444C216.658 202.602 216.658 200.761 218.589 198.919C220.521 195.236 222.452 193.394 224.384 189.711C226.315 187.869 226.315 186.028 228.247 182.345L230.178 180.503C230.178 178.662 232.11 178.662 232.11 176.82C232.11 174.978 234.041 174.978 234.041 173.137L235.973 171.295L237.904 169.454C237.904 167.612 239.836 167.612 239.836 165.77L241.767 162.087C241.767 160.246 243.699 158.404 243.699 158.404C243.699 156.562 245.63 156.562 245.63 154.721C245.63 152.879 247.562 152.879 247.562 151.038C249.493 149.196 249.493 147.355 251.425 145.513C253.356 143.671 255.288 141.83 257.219 139.988L259.151 138.147C261.082 134.463 264.945 130.78 268.808 127.097C270.74 125.256 272.671 123.414 274.603 121.572C276.534 119.731 278.466 117.889 280.397 116.048C282.329 114.206 284.26 112.364 288.123 110.523C290.055 108.681 291.986 106.84 295.849 104.998C299.712 103.157 305.507 99.4734 309.37 97.6318C313.233 97.6318 315.164 95.7902 317.096 95.7902C319.027 95.7902 320.959 93.9486 324.822 93.9486C326.753 93.9486 330.616 92.107 332.548 92.107L334.479 90.2655C336.411 90.2655 338.342 88.4239 340.274 88.4239C344.137 88.4239 346.068 88.4239 348 88.4239H351.863C353.795 88.4239 355.726 88.4239 357.658 86.5823C359.589 86.5823 363.452 86.5823 365.384 86.5823C369.247 88.4239 373.11 88.4239 375.041 88.4239C375.041 88.4239 375.041 88.4239 376.973 88.4239C378.904 88.4239 380.836 88.4239 382.767 88.4239C386.63 90.2655 388.562 90.2655 392.425 90.2655C394.356 90.2655 398.219 92.1071 400.151 93.9486C402.082 95.7902 404.014 95.7902 407.877 97.6318C409.808 99.4734 411.74 101.315 413.671 101.315C415.603 103.157 417.534 104.998 419.466 106.84C421.397 108.681 423.329 110.523 425.26 114.206C425.26 114.206 427.192 116.048 427.192 117.889C427.192 119.731 429.123 119.731 429.123 121.572C431.055 123.414 431.055 125.256 431.055 128.939C431.055 130.78 432.986 134.463 432.986 136.305C432.986 138.147 432.986 141.83 434.918 143.671C434.918 145.513 434.918 149.196 434.918 151.038C434.918 152.879 434.918 156.562 434.918 158.404C434.918 160.246 434.918 162.087 434.918 165.77V167.612C434.918 169.454 434.918 173.137 434.918 174.978C434.918 176.82 432.986 180.503 432.986 182.345C432.986 184.186 431.055 187.869 431.055 189.711C429.123 191.553 429.123 195.236 427.192 197.077C425.26 200.761 423.329 202.602 421.397 204.444C419.466 208.127 415.603 211.81 413.671 215.493C411.74 217.335 411.74 219.176 409.808 219.176C411.74 219.176 413.671 219.176 415.603 219.176C417.534 219.176 417.534 219.176 419.466 219.176C423.329 219.176 425.26 219.176 429.123 221.018C432.986 221.018 436.849 222.86 438.781 224.701C442.644 226.543 444.575 226.543 448.438 228.384C450.37 228.384 450.37 230.226 452.301 230.226C450.37 235.751 450.37 235.751 452.301 237.592C454.233 239.434 458.096 241.275 460.027 243.117C463.89 244.959 465.822 248.642 467.753 250.483C469.685 252.325 473.548 256.008 475.479 257.85C477.411 259.691 479.342 263.374 481.274 265.216C481.274 267.058 483.205 268.899 483.205 268.899V270.741C483.205 272.582 485.137 274.424 485.137 274.424C487.068 279.949 489 287.315 489 292.84C489 296.523 489 298.364 489 302.048C489 305.731 487.068 307.572 487.068 311.256C485.137 318.622 481.274 324.147 477.411 327.83C475.479 331.513 473.548 333.355 471.616 337.038C469.685 340.721 467.753 342.562 465.822 344.404C463.89 346.246 461.959 348.087 460.027 351.77C454.233 360.978 452.301 362.82 450.37 364.661C446.507 366.503 444.575 368.345 442.644 370.186C440.712 372.028 436.849 373.869 432.986 375.711C431.055 377.553 427.192 379.394 423.329 379.394C419.466 381.236 415.603 383.077 411.74 383.077C407.877 383.077 404.014 384.919 402.082 384.919C398.219 384.919 396.288 384.919 392.425 384.919C388.562 384.919 384.699 384.919 382.767 384.919C378.904 384.919 375.041 384.919 373.11 384.919H371.178C369.247 384.919 365.384 384.919 363.452 384.919C359.589 384.919 357.658 384.919 353.795 383.077C349.932 383.077 348 381.236 344.137 381.236C340.274 381.236 336.411 379.394 334.479 379.394C330.616 379.394 328.685 377.553 324.822 377.553C322.89 377.553 319.027 375.711 317.096 375.711H315.164C311.301 375.711 309.37 373.869 305.507 373.869H303.575C301.644 373.869 297.781 372.028 295.849 372.028C291.986 370.186 290.055 370.186 286.192 368.345C282.329 366.503 280.397 366.503 276.534 364.661C274.603 364.661 270.74 362.82 268.808 362.82C266.877 360.978 263.014 360.978 261.082 359.137C259.151 359.137 259.151 357.295 257.219 357.295C255.288 355.454 251.425 355.454 249.493 353.612C247.562 353.612 245.63 351.77 245.63 351.77C243.699 351.77 243.699 351.77 241.767 349.929C237.904 348.087 235.973 348.087 232.11 346.246L228.247 344.404H226.315C224.384 344.404 222.452 342.562 222.452 342.562C220.521 342.562 218.589 340.721 216.658 340.721H214.726C210.863 338.879 207 338.879 203.137 337.038C201.205 337.038 199.274 335.196 197.342 335.196C193.479 335.196 191.548 333.355 187.685 333.355C185.753 333.355 181.89 331.513 178.027 329.671C178.027 329.671 178.027 329.671 176.096 329.671C174.164 329.671 174.164 327.83 172.233 327.83C174.164 329.671 176.096 331.513 178.027 331.513C179.959 333.355 181.89 333.355 183.822 335.196H185.753C187.685 335.196 189.616 337.038 189.616 337.038L191.548 338.879H193.479C195.411 338.879 195.411 340.721 197.342 340.721C199.274 342.563 201.205 342.562 205.068 344.404L207 346.246C210.863 348.087 214.726 349.929 218.589 351.77C220.521 353.612 224.384 353.612 226.315 355.454C232.11 359.137 239.836 360.978 247.562 364.661C257.219 368.345 266.877 373.869 276.534 379.394L278.466 381.236H280.397C284.26 383.077 288.123 384.919 291.986 386.761C293.918 388.602 295.849 388.602 297.781 390.444C301.644 392.285 303.575 394.127 307.438 395.968C309.37 397.81 313.233 397.81 315.164 399.652C317.096 401.493 319.027 401.493 320.959 403.335C324.822 405.176 330.616 408.86 334.479 410.701C340.274 414.384 344.137 418.067 348 419.909C349.932 421.751 351.863 423.592 353.795 425.434C355.726 427.275 357.658 429.117 359.589 430.959C363.452 434.642 367.315 438.325 371.178 442.008C375.041 447.533 378.904 451.216 380.836 454.899C386.63 462.265 390.493 471.473 396.288 482.523C398.219 484.364 398.219 488.048 398.219 489.889C398.219 491.731 398.219 493.572 400.151 493.572C400.151 495.414 400.151 495.414 400.151 497.256C400.151 499.097 400.151 502.78 400.151 504.622C400.151 506.464 400.151 506.463 400.151 508.305C400.151 510.147 400.151 510.147 400.151 511.988C400.151 513.83 398.219 517.513 398.219 519.355C398.219 521.196 396.288 524.879 396.288 526.721C396.288 528.562 394.356 532.246 392.425 534.087C390.493 535.929 390.493 539.612 388.562 541.454C386.63 543.295 384.699 545.137 382.767 546.978C375.041 548.82 373.11 550.662 371.178 552.503L369.247 554.345C367.315 556.186 365.384 558.028 363.452 559.869C361.521 561.711 359.589 563.553 357.658 565.394C355.726 565.394 353.795 567.236 351.863 569.077C349.932 570.919 346.068 570.919 344.137 572.761C342.205 572.761 338.342 574.602 336.411 574.602C334.479 574.602 330.616 576.444 328.685 576.444C326.753 576.444 324.822 576.444 322.89 576.444H320.959C319.027 576.444 317.096 576.444 315.164 576.444C315.164 576.444 315.164 576.444 313.233 576.444C311.301 576.444 307.438 576.444 305.507 574.602C303.575 574.602 303.575 574.602 301.644 574.602C299.712 574.602 299.712 574.602 297.781 574.602C293.918 572.76 288.123 570.919 282.329 569.077C276.534 567.236 272.671 563.553 268.808 559.869C266.877 558.028 264.945 556.186 263.014 554.345C263.014 556.186 263.014 556.186 263.014 556.186C263.014 559.869 263.014 563.553 261.082 565.394C261.082 569.077 259.151 570.919 259.151 574.602C259.151 578.285 257.219 580.127 255.288 583.81C253.356 589.335 249.493 594.859 245.63 600.384C243.699 602.226 241.767 605.909 239.836 607.751C237.904 609.592 235.973 613.275 232.11 615.117C226.315 620.642 220.521 624.325 216.658 628.008C214.726 628.008 214.726 629.85 212.795 629.85C210.863 629.85 208.932 631.691 207 631.691C203.137 633.533 201.205 633.533 197.342 635.374C193.479 637.216 191.548 637.216 187.685 639.058C183.822 639.058 181.89 640.899 178.027 640.899C176.096 640.899 176.096 640.899 174.164 640.899H172.233C170.301 640.899 168.37 640.899 166.438 640.899C162.575 640.899 160.644 639.058 156.781 639.058C152.918 639.058 150.986 637.216 147.123 635.374C143.26 633.533 141.329 633.533 137.466 631.691C135.534 629.85 131.671 628.008 129.74 626.166C127.808 624.325 123.945 622.483 122.014 620.642C118.151 616.959 114.288 613.275 112.356 611.434C110.425 607.751 108.493 605.909 104.63 600.384C102.699 598.543 102.699 594.86 100.767 593.018C98.8356 589.335 98.8356 587.493 98.8356 583.81C98.8356 580.127 96.9041 578.285 96.9041 574.602C96.9041 570.919 96.9041 569.077 94.9726 567.236C94.9726 565.394 94.9726 563.553 94.9726 561.711C94.9726 559.869 94.9726 558.028 94.9726 556.186C94.9726 552.503 94.9726 548.82 94.9726 546.978C94.9726 543.295 94.9726 541.454 94.9726 537.77C94.9726 534.087 94.9726 530.404 96.9041 528.562C96.9041 521.196 100.767 515.671 100.767 510.147C102.699 506.463 102.699 502.78 104.63 499.097C104.63 497.256 106.562 493.572 106.562 491.731C108.493 484.364 110.425 478.84 112.356 473.315C112.356 471.473 114.288 467.79 114.288 464.107C114.288 460.424 116.219 458.582 116.219 454.899C116.219 453.058 118.151 451.216 118.151 449.374V447.533L120.082 443.85V442.008C120.082 440.166 122.014 438.325 122.014 436.483C123.945 430.959 125.877 423.592 127.808 418.067C129.74 414.384 129.74 412.543 131.671 408.86V405.176C131.671 403.335 133.603 401.493 133.603 399.652C135.534 395.968 135.534 390.444 137.466 386.761C137.466 384.919 137.466 384.919 137.466 383.077C135.534 384.919 135.534 386.761 133.603 388.602C133.603 390.444 131.671 392.285 131.671 392.285C131.671 392.285 131.671 394.127 129.74 394.127C127.808 395.968 127.808 397.81 127.808 397.81C125.877 399.652 125.877 401.493 123.945 403.335C122.014 405.176 122.014 407.018 120.082 408.86C118.151 410.701 118.151 412.543 116.219 414.384V416.226C114.288 418.067 114.288 419.909 112.356 419.909C110.425 421.751 110.425 423.592 108.493 423.592V425.434C106.562 429.117 104.63 432.8 102.699 434.642L100.767 436.483C100.767 438.325 98.8356 438.325 98.8356 440.166L96.9041 442.008C94.9726 443.85 94.9726 445.691 93.0411 447.533V449.374C91.1096 453.058 89.1781 456.741 87.2466 458.582L85.3151 460.424C83.3836 462.265 81.452 465.949 79.5205 469.632C79.5205 471.473 77.5891 471.473 77.5891 473.315V475.157C75.6575 476.998 75.6575 478.84 73.726 480.681C71.7945 482.523 71.7945 484.364 69.863 486.206C69.863 486.206 69.863 488.048 67.9315 488.048C67.9315 488.048 67.9315 489.889 66 489.889C64.0685 493.572 62.137 497.256 58.274 500.939C56.3425 502.78 56.3425 504.622 54.411 506.463C52.4795 508.305 52.4794 510.147 50.5479 511.988C48.6164 513.83 48.6164 515.671 46.6849 517.513C44.7534 519.355 44.7534 521.196 42.8219 523.038C38.9589 528.562 37.0274 530.404 35.0959 534.087C33.1644 537.77 29.3014 541.454 27.3698 545.137C25.4383 548.82 21.5754 552.503 19.6439 554.345C17.7124 556.186 17.7123 558.028 15.7808 558.028C13.8493 559.869 13.8493 559.869 11.9178 561.711C11.9178 563.553 9.98632 563.553 9.98632 565.394C8.05481 567.236 6.12326 569.077 4.19176 570.919C4.19176 572.761 2.26024 572.76 2.26024 574.602C0.32873 576.444 -1.60276 578.285 -3.53427 581.968L-5.46579 583.81C-7.3973 585.652 -9.32874 589.335 -11.2602 591.176C-13.1918 593.018 -13.1918 594.86 -15.1233 594.86C-17.0548 596.701 -18.9863 598.543 -18.9863 600.384C-24.7808 607.751 -30.5754 615.117 -36.3699 620.642C-42.1644 628.008 -47.9589 633.533 -51.8219 639.058V640.899C-53.7534 642.741 -57.6164 646.424 -61.4795 650.107C-65.3425 653.79 -67.274 657.473 -71.137 659.315C-75 662.998 -76.9315 664.84 -80.7945 666.681L-82.726 668.523L-84.6575 670.364C-86.5891 672.206 -90.4521 674.048 -92.3836 677.731C-96.2466 681.414 -100.11 683.256 -103.973 686.939C-105.904 688.78 -105.904 688.78 -107.836 690.622C-109.767 692.464 -111.699 694.305 -113.63 696.147C-117.493 699.83 -121.356 701.671 -125.219 703.513L-129.082 705.355H-131.014C-132.945 707.196 -134.877 707.196 -136.808 709.038C-140.671 710.879 -144.534 714.562 -148.397 716.404C-150.329 718.246 -152.26 718.246 -154.192 720.087C-156.123 720.087 -156.123 721.929 -158.055 721.929C-161.918 723.77 -163.849 725.612 -167.712 727.454C-169.644 727.454 -169.644 729.295 -171.575 729.295C-171.575 729.295 -173.507 729.295 -173.507 731.137C-175.438 731.137 -177.37 732.978 -177.37 732.978H-179.301H-181.233C-183.164 732.978 -183.164 734.82 -185.096 734.82C-185.096 734.82 -185.096 734.82 -187.027 736.662H-188.959C-198.616 744.028 -200.548 744.028 -200.548 744.028Z" fill="#153226" fill-opacity="0.48"/>
</svg>
