<?xml version="1.0" encoding="UTF-8"?>
<svg id="Layer_2" data-name="Layer 2" xmlns="http://www.w3.org/2000/svg" viewBox="0 0 575.72 815.56">
  <defs>
    <style>
      .cls-1 {
        fill: #9fcf33;
      }

      .cls-2 {
        fill: #84b22a;
      }

      .cls-3 {
        fill: #c8db95;
      }

      .cls-4 {
        fill: #3d6d00;
      }

      .cls-5 {
        fill: #6d982f;
      }

      .cls-6 {
        fill: #a1b564;
      }

      .cls-7 {
        fill: #457206;
      }

      .cls-8 {
        fill: #569600;
      }
    </style>
  </defs>
  <g id="Layer_2-2" data-name="Layer 2">
    <path class="cls-7" d="m556.68,690.32l-33.05-2.73c-.19,0-.35-.05-.49-.14-2.29-1-18.35-7.98-14.64-17.1,4.57-12.03,22.27-6.83,33.73,5.93,5.36,6.03,15.59,14.06,14.45,14.05h0Z"/>
    <path class="cls-8" d="m555.6,691.32l-34.97-3.06c-.2,0-.33.05-.39.15-1.87.59-14.32,5.8-3.14,17.32,14.53,14.78,30.37,12.22,33.33-.49,1.13-6.28,6.39-13.89,5.17-13.91h0Z"/>
    <path class="cls-5" d="m312.53,101.34c.29,11.57,11.13,22.2,16.35,21.81,13.67-.77,2.56-14.44,2.56-14.44,0,0,12.04,13.1,18.17,3.6,2.48-3.74-6.21-15.51-19.99-20.1,11.83-1.65,13.29-12.19,8.17-17-12.88-11.66-17.39-.42-17.39-.42,0,0,2.97-12.12-12.32-16.14-5.59-1.49-9.97,6-4.86,16.88-2.92-4.07-5.54-8.14-7.65-12.06-1.29-2.32-2.29-4.64-3.07-6.82-.79-2.17-1.49-4.49-1.99-6.66.09-.14-.04-.43-.04-.43-1.58-.3-3.46-.6-5.05-.9.12.29.04.43.25.58.82,2.61,1.74,5.07,2.94,7.54s2.61,5.08,4.2,7.4c2.41,3.92,5.19,7.7,8.27,11.48-10.67-6.87-20.37-6.37-20.56-2.03-.79,12.43,14.75,15,14.75,15,0,0-15-.98-5.94,12.68,3.7,5.23,17.03,8.08,23.2.03Z"/>
    <path class="cls-3" d="m311.82,92.98c.02,5.56,5.3,10.73,8.04,10.6,6.52-.54,1.2-7.16,1.2-7.16,0,0,5.79,6.34,8.79,1.67,1.1-1.89-3.04-7.49-9.73-9.73,5.73-.69,6.42-5.95,3.86-8.17-6.21-5.61-8.46-.21-8.46-.21,0,0,1.33-5.85-5.82-7.8-2.61-.61-2.26,8.47-.92,10.24-5.12-3.4-12.36-5.21-12.66-3.17-.31,6.15,7.05,7.23,7.05,7.23,0,0-7.41-.49-2.97,6.13,2.01,2.65,8.53,4.16,11.62.38h0Z"/>
    <path class="cls-5" d="m488.97,64.89c.22,6.65,6.35,12.77,9.44,12.5,7.95-.52,1.37-8.38,1.37-8.38,0,0,7.04,7.57,10.53,2.1,1.34-2.3-3.57-8.99-11.5-11.51,6.73-.96,7.63-7.03,4.76-9.65-7.46-6.85-9.87-.22-9.87-.22,0,0,1.7-6.93-7.11-9.45-3.3-.89-5.83,3.43-2.8,9.81-1.58-2.33-3.16-4.65-4.45-6.97-.7-1.31-1.32-2.76-1.82-3.92-.41-1.3-.83-2.61-1.24-3.91,0,0,.08-.14-.13-.29-1.08-.15-1.88-.3-2.96-.46l.12.29c.33,1.45.95,2.9,1.58,4.35.62,1.45,1.53,2.9,2.24,4.21,1.37,2.18,2.95,4.5,4.7,6.54-6.13-4.09-11.65-3.7-11.91-1.24-.4,7.23,8.5,8.59,8.5,8.59,0,0-8.74-.64-3.41,7.35,2.53,3.2,10.18,4.7,13.96.25h0Z"/>
    <path class="cls-3" d="m488.39,59.92c.11,3.37,3.13,6.33,4.48,6.04,3.71-.27.61-4.1.61-4.1,0,0,3.48,3.69,5.09.92.59-1.02-1.67-4.26-5.62-5.61,3.2-.42,3.71-3.34,2.2-4.82-3.44-3.25-4.71-.04-4.71-.04,0,0,.76-3.37-3.36-4.42-1.51-.45-1.32,4.83-.44,5.86-3.03-1.93-7.15-2.99-7.24-1.81-.26,3.52,4.11,4.13,4.11,4.13,0,0-4.25-.32-1.73,3.51,1.04,1.77,4.96,2.67,6.61.34Z"/>
    <path class="cls-5" d="m89.26,328.44c.23,6.65,6.35,12.77,9.45,12.5,7.94-.52,1.36-8.37,1.36-8.37,0,0,7.04,7.57,10.53,2.1,1.35-2.3-3.56-8.99-11.5-11.51,6.74-.96,7.64-7.03,4.76-9.65-7.46-6.85-9.86-.22-9.86-.22,0,0,1.69-6.93-7.12-9.45-3.3-.89-5.82,3.43-2.79,9.81-1.58-2.32-3.16-4.65-4.45-6.97-.7-1.31-1.33-2.76-1.82-3.92-.42-1.3-.83-2.61-1.24-3.91,0,0,.08-.14-.13-.29-1.08-.15-1.88-.3-2.96-.46l.12.29c.33,1.45.95,2.9,1.57,4.35.63,1.45,1.54,2.9,2.25,4.21,1.37,2.18,2.95,4.5,4.7,6.54-6.13-4.09-11.65-3.7-11.91-1.24-.4,7.22,8.5,8.59,8.5,8.59,0,0-8.74-.64-3.42,7.35,2.63,3.05,10.39,4.85,13.96.25h0Z"/>
    <path class="cls-3" d="m88.98,323.39c.11,3.37,3.13,6.33,4.48,6.04,3.71-.27.61-4.1.61-4.1,0,0,3.48,3.69,5.09.92.59-1.02-1.67-4.26-5.63-5.61,3.21-.42,3.72-3.34,2.21-4.82-3.44-3.25-4.72-.03-4.72-.03,0,0,.77-3.37-3.35-4.42-1.52-.45-1.32,4.83-.44,5.86-3.03-1.93-7.15-2.98-7.24-1.81-.26,3.52,4.11,4.13,4.11,4.13,0,0-4.25-.32-1.74,3.51,1.05,1.77,4.76,2.53,6.62.34h0Z"/>
    <path class="cls-5" d="m338.49,760.84c5.61-2.56,13.25.96,14.33,4.15,2.89,8.12-6.37,4.87-6.37,4.87,0,0,9.22,3.83,6.15,9.59-1.35,2.3-8.95.22-14.36-6.61,2.03,7.1-2.63,10.53-6.01,8.77-8.8-4.54-4.31-9.72-4.31-9.72,0,0-5.03,4.59-10.82-3.11-2.12-2.91.4-7.23,6.97-6.89-2.59-.6-5.18-1.2-7.65-1.5-1.38-.16-2.84-.17-4.01-.18-1.26.14-2.51.27-3.76.41,0,0-.09.14-.3-.01-.58-1.01-1.04-1.74-1.62-2.75h.29c1.34-.28,2.81-.27,4.27-.26s3.05.31,4.43.47c2.38.45,4.97,1.05,7.39,1.93-5.96-4.38-7.95-10.03-6.02-11.32,5.82-3.43,10.68,4.85,10.68,4.85,0,0-4.19-8.42,4.67-6.47,3.71,1.18,8.37,8.3,6.05,13.78h0Z"/>
    <path class="cls-3" d="m334.29,762.47c2.83-1.3,6.53.49,6.86,1.96,1.33,3.82-3.13,2.32-3.13,2.32,0,0,4.5,1.94,2.89,4.71-.59,1.02-4.21.12-6.98-3.27,1,3.37-1.19,5.12-3.04,4.22-4.12-2.08-2.01-4.7-2.01-4.7,0,0-2.45,2.18-5.05-1.5-1-1.33,3.42-3.35,4.64-2.9-2.85-2.22-5.45-5.91-4.52-6.49,2.78-1.73,5.13,2.39,5.13,2.39,0,0-2.05-4.12,2.16-3.21,1.89.31,4.07,3.69,3.05,6.47h0Z"/>
    <path class="cls-5" d="m187.88,145.64c5.61-2.56,13.25.97,14.32,4.15,2.9,8.12-6.37,4.87-6.37,4.87,0,0,9.23,3.83,6.15,9.59-1.34,2.3-8.94.22-14.35-6.61,2.02,7.1-2.63,10.53-6.01,8.77-8.8-4.55-4.31-9.72-4.31-9.72,0,0-5.03,4.59-10.82-3.12-2.12-2.91.4-7.22,6.97-6.89-2.59-.6-5.18-1.19-7.65-1.5-1.38-.15-2.84-.17-4.01-.17-1.25.14-2.51.27-3.76.41,0,0-.09.14-.3,0-.58-1.02-1.04-1.74-1.62-2.76h.3c1.33-.28,2.8-.27,4.26-.26,1.46,0,3.05.31,4.43.47,2.38.45,4.97,1.05,7.39,1.93-5.96-4.38-7.95-10.03-6.02-11.32,5.82-3.43,10.68,4.85,10.68,4.85,0,0-4.19-8.42,4.67-6.47,3.63,1.33,8.37,8.3,6.05,13.78h0Z"/>
    <path class="cls-3" d="m183.57,147.45c2.83-1.3,6.53.49,6.86,1.96,1.34,3.82-3.12,2.32-3.12,2.32,0,0,4.5,1.94,2.89,4.71-.6,1.02-4.22.12-6.98-3.28,1,3.38-1.2,5.12-3.05,4.23-4.12-2.08-2.01-4.71-2.01-4.71,0,0-2.45,2.18-5.05-1.5-1-1.33,3.43-3.35,4.65-2.9-2.86-2.22-5.46-5.9-4.53-6.48,2.79-1.74,5.13,2.38,5.13,2.38,0,0-2.05-4.12,2.16-3.21,1.89.31,4.07,3.7,3.05,6.47h0Z"/>
    <path class="cls-5" d="m137.54,627.5c.3,11.57,11.13,22.2,16.35,21.8,13.67-.77,2.56-14.44,2.56-14.44,0,0,12.03,13.1,18.17,3.6,2.48-3.74-6.22-15.51-19.99-20.09,11.83-1.65,13.29-12.19,8.16-17-12.87-11.66-17.38-.42-17.38-.42,0,0,2.97-12.12-12.32-16.14-5.59-1.49-9.97,6-4.86,16.88-2.91-4.07-5.53-8.14-7.65-12.05-1.29-2.32-2.28-4.64-3.07-6.82-.79-2.17-1.49-4.49-1.98-6.66.08-.14-.04-.43-.04-.43-1.59-.3-3.47-.6-5.06-.9.13.29.04.43.25.58.83,2.61,1.74,5.07,2.94,7.54,1.21,2.47,2.62,5.08,4.2,7.4,2.41,3.92,5.2,7.7,8.28,11.48-10.68-6.87-20.38-6.37-20.56-2.03-.8,12.42,14.74,15,14.74,15,0,0-15-.98-5.94,12.68,3.58,4.94,16.82,7.93,23.2.03h0Z"/>
    <path class="cls-3" d="m136.74,618.86c.03,5.56,5.31,10.72,8.05,10.6,6.52-.54,1.2-7.16,1.2-7.16,0,0,5.79,6.34,8.79,1.67,1.1-1.89-3.05-7.49-9.73-9.73,5.73-.69,6.42-5.95,3.86-8.17-6.21-5.61-8.46-.21-8.46-.21,0,0,1.32-5.85-5.82-7.8-2.61-.61-2.26,8.47-.92,10.24-5.13-3.41-12.36-5.21-12.66-3.17-.32,6.15,7.05,7.22,7.05,7.22,0,0-7.41-.49-2.97,6.13,2.22,2.8,8.53,4.16,11.61.38h0Z"/>
    <path class="cls-4" d="m69.4,370.03c.29,11.57,11.12,22.2,16.35,21.8,13.67-.77,2.56-14.44,2.56-14.44,0,0,12.03,13.1,18.17,3.6,2.47-3.74-6.22-15.51-20-20.1,11.84-1.65,13.3-12.19,8.17-17-12.87-11.66-17.39-.42-17.39-.42,0,0,2.97-12.12-12.31-16.14-5.6-1.49-9.97,6-4.87,16.88-2.91-4.07-5.53-8.14-7.64-12.05-1.29-2.32-2.29-4.64-3.07-6.82-.79-2.17-1.49-4.49-1.99-6.66.09-.14-.04-.43-.04-.43-1.58-.3-3.46-.6-5.05-.9.12.29.04.43.25.58.82,2.61,1.73,5.07,2.94,7.54,1.2,2.47,2.61,5.08,4.19,7.4,2.41,3.92,5.2,7.7,8.28,11.48-10.67-6.87-20.37-6.37-20.56-2.03-.79,12.43,14.75,15,14.75,15,0,0-15-.98-5.94,12.68,3.58,4.94,16.82,7.93,23.2.03h0Z"/>
    <path class="cls-6" d="m68.59,361.4c.03,5.57,5.31,10.73,8.05,10.6,6.53-.54,1.2-7.17,1.2-7.17,0,0,5.79,6.34,8.8,1.68,1.1-1.9-3.05-7.49-9.74-9.74,5.73-.69,6.42-5.96,3.86-8.17-6.21-5.61-8.46-.21-8.46-.21,0,0,1.33-5.85-5.82-7.8-2.61-.6-2.26,8.48-.92,10.24-5.13-3.41-12.36-5.22-12.66-3.17-.32,6.15,7.05,7.23,7.05,7.23,0,0-7.41-.49-2.97,6.13,2.14,2.94,8.53,4.16,11.61.38h0Z"/>
    <path class="cls-4" d="m246.16,105.24c9.71-4.55,23.06,1.76,24.93,7.12,5.09,13.91-10.9,8.59-10.9,8.59,0,0,15.9,6.48,10.6,16.56-2.06,4.03-15.47.32-25.04-11.46,3.59,12.46-4.54,18.32-10.67,15.24-15.06-7.92-7.63-17.11-7.63-17.11,0,0-8.81,8.03-18.54-5.49-3.58-4.94.8-12.42,11.96-11.91-4.6-1.19-9.07-2.09-13.2-2.55-2.47-.31-4.81-.33-6.94-.2s-4.35.4-6.36.82c-.08.14-.37.14-.37.14-.92-1.45-1.96-3.19-2.87-4.65.29,0,.38-.14.58,0,2.51-.27,4.94-.4,7.49-.23,2.55.16,5.3.47,7.89,1.07,4.26.76,8.56,1.94,12.99,3.42-10.17-7.74-13.82-17.59-10.3-19.59,9.97-6,18.61,8.38,18.61,8.38,0,0-7.09-14.51,8.03-11.21,5.59,1.49,13.53,13.54,9.74,23.05h0Z"/>
    <path class="cls-6" d="m238.64,108.07c4.59-2.31,11.06.81,12.1,3.6,2.3,6.75-5.4,4.21-5.4,4.21,0,0,7.65,3.13,5.07,8.09-1.1,1.89-7.45.09-12.1-5.65,1.83,6.01-2.22,8.91-5.12,7.28-7.23-3.86-3.72-8.37-3.72-8.37,0,0-4.26,3.77-8.87-2.55-1.59-2.35,6.04-5.81,8.06-5.21-4.96-3.7-9.48-10.17-7.92-11.33,4.94-2.89,8.91,4.02,8.91,4.02,0,0-3.51-7.2,3.81-5.54,3.02.9,7,6.79,5.18,11.46h0Z"/>
    <path class="cls-4" d="m389.8,763.9c.29,11.56,11.12,22.2,16.35,21.8,13.67-.76,2.56-14.43,2.56-14.43,0,0,12.03,13.09,18.16,3.6,2.48-3.74-6.21-15.51-19.99-20.1,11.84-1.64,13.29-12.18,8.17-16.99-12.87-11.66-17.39-.42-17.39-.42,0,0,2.97-12.12-12.31-16.13-5.6-1.49-9.97,6-4.87,16.88-2.91-4.07-5.53-8.13-7.65-12.05-1.28-2.32-2.28-4.64-3.06-6.82-.79-2.17-1.49-4.49-1.99-6.66.09-.14-.04-.43-.04-.43-1.58-.3-3.46-.6-5.05-.9.12.29.04.43.25.58.82,2.61,1.73,5.07,2.94,7.54,1.2,2.47,2.61,5.08,4.19,7.4,2.41,3.92,5.2,7.7,8.28,11.48-10.67-6.87-20.37-6.37-20.56-2.03-.79,12.42,14.75,15,14.75,15,0,0-15-.98-5.94,12.67,3.58,4.94,16.9,7.79,23.2.03v-.02Z"/>
    <path class="cls-6" d="m389,755.26c.02,5.56,5.31,10.72,8.04,10.6,6.53-.54,1.2-7.17,1.2-7.17,0,0,5.79,6.34,8.79,1.68,1.11-1.9-3.04-7.49-9.73-9.74,5.73-.69,6.42-5.95,3.86-8.17-6.21-5.6-8.46-.2-8.46-.2,0,0,1.33-5.85-5.82-7.81-2.61-.6-2.26,8.48-.92,10.24-5.12-3.4-12.35-5.21-12.65-3.16-.32,6.14,7.04,7.22,7.04,7.22,0,0-7.4-.49-2.97,6.13,2.22,2.8,8.53,4.16,11.62.38h0Z"/>
    <path class="cls-4" d="m53.58,571.66c-8.87,10.71-1.03,27.84,7.02,31.05,20.95,8.4,15.13-11.71,15.13-11.71,0,0,7.61,20.12,24.3,15.61,6.49-1.9,3.17-18.54-13.76-31.84,18.78,6.43,29.3-2.47,25.53-9.98-9.83-19.39-25.25-11.87-25.25-11.87,0,0,13.98-9.17-5.51-23.25-7.02-4.99-19.48-1.05-20.34,12.42-1-5.55-1.71-11.09-1.69-16.33-.08-2.99.27-5.69.71-8.53.64-2.69,1.21-5.23,2.49-7.47.09-.15.17-.3.35-.6-2.22-1.36-4.64-2.88-6.86-4.24-.08.15-.25.45-.34.6-.73,2.84-1.34,5.98-1.56,8.97-.31,3.14-.02,6.29.18,9.58.58,5.24,1.67,10.64,3.06,16.04-10.27-13.4-25.05-19.51-29.07-15.65-11.12,10.99,10.12,23.58,10.12,23.58,0,0-21.59-10.95-18.79,7.64,1.17,7.35,18.74,19.01,34.28,15.98h0Z"/>
    <path class="cls-6" d="m59.17,563.79c-4.17,5.15-.46,13.18,3.43,14.7,9.95,3.93,7.31-5.43,7.31-5.43,0,0,3.65,9.66,11.54,7.35,3.18-.86,1.47-8.73-6.52-15.01,8.98,3.03,14.03-1.08,12.22-4.65-4.59-9.07-11.97-5.58-11.97-5.58,0,0,6.62-4.25-2.6-10.98-3.38-2.4-10.02,6-9.18,8.67-4.94-6.41-14.24-13-16.03-10.94-5.35,5.14,4.88,11.15,4.88,11.15,0,0-10.36-5.27-8.95,3.64.08,2.96,8.49,8.51,15.87,7.09h0Z"/>
    <path class="cls-2" d="m136.93,220.74l-21.79-45.45c-.12-.28-.33-.42-.45-.7-2.46-2.67-20.15-21.51-29.89-11.46-12.71,13.07,3.58,35.23,26.3,44.66,10.78,4.71,26.69,14.91,25.83,12.95Z"/>
    <path class="cls-1" d="m138.13,218.04l-23.14-50.39c-.13-.31-.27-.62-.18-.77-.08-3.08-.76-24.52,19.45-14.24,26.4,13.44,31.64,38.17,17.85,50.01-6.88,5.61-13.07,17.56-13.98,15.39h0Z"/>
    <path class="cls-3" d="m135.49,220.22l-12.59-26.41c-.2-.14-.12-.28-.32-.42-1.39-1.54-11.63-12.5-17.38-6.73-7.4,7.56,2.05,20.32,15.21,25.89,6.19,2.71,15.57,8.79,15.08,7.67Z"/>
    <path class="cls-3" d="m136.19,218.72l-13.38-29.34c-.22-.16-.13-.31-.05-.46-.17-1.85-.51-14.2,11.2-8.34,15.23,7.76,18.39,22.15,10.29,28.83-4.14,3.5-7.54,10.55-8.06,9.31h0Z"/>
    <path class="cls-2" d="m126.94,220.34l-16.72,38.21c-.09.15-.17.31-.04.62.3,3.28,2.87,25.5,22.75,28.1,25.68,3.3,27.76-19.48,11.23-41.1-8.24-10.57-16.65-27.39-17.22-25.84h0Z"/>
    <path class="cls-1" d="m132.55,229.09l-16.86,38.67c-.09.16-.18.31-.27.47-2.35,1.39-19.18,11.29-31.99-7.99-16.62-24.71-1.99-39.54,22.22-34.33,11.24,2.2,27.48,1.61,26.9,3.19h0Z"/>
    <path class="cls-3" d="m129.25,219.94l-9.72,22.07c-.06.11-.05.26.04.47.18,1.88,1.79,14.87,13.07,16.26,15.02,1.91,16.04-11.36,6.39-23.83-4.56-6.15-9.25-15.9-9.78-14.97h0Z"/>
    <path class="cls-3" d="m132.52,225.04l-9.81,22.32-.18.31c-1.37.77-11.16,6.49-18.58-4.66-9.68-14.34-1.08-22.93,12.81-19.91,6.73,1.35,16.29,1,15.76,1.94Z"/>
    <path class="cls-2" d="m55.58,219.32c.04-.57.29-.99.75-1.27,30.19-11.59,80.01,10.41,82.12,11.28,1.41.58,2.52,2.16,2.23,3.15-.08,1.14-1.41,1.4-2.82.82-.49-.15-49.61-21.85-78.22-10.96-1.12.41-2.74-.31-3.52-1.46-.34-.43-.58-1-.54-1.57h0Z"/>
    <path class="cls-2" d="m132.77,214.15l50.24,13.82c.28,0,.49.14.69.28,3.13,1.95,25.26,15.74,16.11,26.19-11.89,13.56-37.08,1.52-49.98-18.06-6.34-9.52-19.22-22.93-17.06-22.23h0Z"/>
    <path class="cls-1" d="m135.01,209.31l52.42,15.07c.3,0,.51.15.81.16,3.14-.26,24-2.67,11.14-20.35-16.73-22.93-41.75-24.74-51.15-10.01-4.59,6.92-15.48,14.36-13.22,15.13h0Z"/>
    <path class="cls-3" d="m133.43,216.06l29.08,7.99c.2.14.28,0,.48.14,1.92,1.12,14.65,9.06,9.26,15.17-6.74,7.87-21.48.86-29.03-10.45-3.57-5.52-11.05-13.13-9.79-12.85h0Z"/>
    <path class="cls-3" d="m134.71,213.27l30.33,8.7c.22.15.3,0,.51.15,1.87-.12,14.03-1.46,6.51-11.8-9.68-13.34-24.12-14.27-29.57-5.87-2.68,4.12-9.09,8.5-7.78,8.81h0Z"/>
    <path class="cls-2" d="m410.18,54.53l-35.31-24.09c-.2-.14-.41-.28-.69-.28-2.56-.98-19.87-6.48-16.77,5.95,3.94,16.26,22.91,25.19,36.17,21.24,6.55-1.84,18.02-1.85,16.6-2.82Z"/>
    <path class="cls-1" d="m413.77,47.45l-35.29-24.07c-.21-.14-.41-.28-.61-.42-1.91-2.06-13.82-16.49-1.9-18.67,15.53-2.97,31.05,11.63,33.21,26.09,1.04,6.82,6.01,18.04,4.59,17.07h0Z"/>
    <path class="cls-3" d="m410.48,51.47l-20.5-13.98-.2-.14c-1.46-.42-11.45-3.8-9.81,3.44,2.34,9.43,13.26,14.59,20.91,12.35,3.58-1.19,10.41-1.12,9.6-1.67Z"/>
    <path class="cls-3" d="m412.56,47.38l-20.49-13.98-.2-.14c-.98-1.24-8.03-9.49-1.15-10.92,9.03-1.68,17.99,6.73,19.27,15.06.48,3.96,3.39,10.53,2.57,9.98Z"/>
    <path class="cls-2" d="m407.73,46.5l16.03,34.32c.09.19.2.33.33.42,1.93,2.11,15.09,16.48,22.49,8.89,9.88-9.78-2.37-26.64-19.45-33.94-8.16-3.3-20.02-11.1-19.4-9.7h0Z"/>
    <path class="cls-1" d="m406.89,48.55l17.02,37.99.26.62c.22,2.32.29,18.35-14.84,10.45-19.83-10.43-23.6-29.14-12.94-37.63,5.01-3.94,9.84-12.98,10.5-11.43h0Z"/>
    <path class="cls-3" d="m408.93,46.91l9.28,19.89.13.28c1.06,1.13,8.77,9.58,13.13,5.17,5.68-5.65-1.29-15.34-11.18-19.64-4.88-2.01-11.81-6.4-11.36-5.7Z"/>
    <path class="cls-3" d="m408.46,48.11l9.86,22.02.13.31c.12,1.39.07,10.64-8.67,6.05-11.39-5.85-13.73-16.83-7.51-21.83,2.83-2.28,5.71-7.33,6.19-6.55h0Z"/>
    <path class="cls-2" d="m374.09,88.88c-.38-.52-.66-1.21-.46-1.55,3.42-29.24,37.54-39.01,39.05-39.34.86-.33,2.36.54,3.12,1.57.75,1.03.41,2.23-.44,2.56-.34,0-34.12,9.77-37.25,37.3-.24,1.02-1.1,1.36-2.47.83-.7-.52-1.17-.87-1.55-1.38h0Z"/>
    <path class="cls-2" d="m411.78,38.51l26.34-15.48c.09-.15.38-.14.38-.14,2.39.03,19.05-.21,22.84,13.57,4.97,17.97-11.69,21.34-28.99,11.72-8.47-4.58-21.81-9.08-20.57-9.66h0Z"/>
    <path class="cls-1" d="m414.63,43.39l27.35-16.39c.09-.16.18-.31.27-.47.75-1.89,6.52-15.39-9.13-23.01-20.29-9.89-29.77,2.46-23.64,19.75,2.95,8.56,3.87,20.73,5.15,20.11h0Z"/>
    <path class="cls-3" d="m411.31,41.79l15.34-8.9s.08-.15.3,0c1.27-.13,10.9-.16,13.24,7.77,2.76,10.32-6.78,12.29-16.83,6.79-5.02-2.75-12.52-5.38-12.05-5.67h0Z"/>
    <path class="cls-3" d="m412.95,44.6l15.94-9.43s.08-.16.17-.31c.62-1.1,3.82-8.95-5.25-13.33-11.76-5.68-17.29,1.36-13.68,11.51,1.59,4.92,2.33,11.87,2.82,11.56h0Z"/>
    <path class="cls-2" d="m228.79,689.78l31.38,43.42c.12.28.32.42.53.56,2.89,2.36,23.36,18.5,29.14,5.53,7.42-16.66-12.76-36.64-35.01-41.68-10.68-2.31-27.26-9.63-26.04-7.83Z"/>
    <path class="cls-1" d="m225.8,693.77l32.91,47.37c.13.3.34.45.47.75.89,3.15,7.07,25.36-13.11,19.12-26.02-8.11-37.01-32.92-28-48.05,4.18-7.27,6.45-21.15,7.73-19.19Z"/>
    <path class="cls-3" d="m229.69,691.25l18.2,25.14c.2.14.12.28.32.41,1.75,1.39,13.67,10.7,16.95,3.34,4.38-9.68-7.37-21.18-20.28-24.06-6.31-1.44-16.04-5.79-15.19-4.82h0Z"/>
    <path class="cls-3" d="m227.97,693.53l19.09,27.43c.21.15.12.3.34.45.46,1.8,4.17,14.7-7.6,11.11-15.05-4.67-21.48-19.1-16.23-27.7,2.18-4.3,3.5-12.36,4.4-11.3h0Z"/>
    <path class="cls-2" d="m237.12,692.71l4.61-43.27c.08-.15-.05-.45-.17-.75-1.12-3.32-9.02-25.84-26.62-24.11-22.74,2.27-18.69,26.24.83,44.84,9.75,9.3,21.31,24.94,21.35,23.29h0Z"/>
    <path class="cls-1" d="m233.17,686.34l4.79-45.44c.09-.16.18-.31.27-.47,1.55-2.19,13.95-16.41,30,1.01,20.85,22.7,11.89,41.86-10.36,42.05-10.71.18-24.74,4.58-24.7,2.85h0Z"/>
    <path class="cls-3" d="m234.89,692.91l2.63-25.11c.08-.15-.13-.3-.04-.45-.69-1.97-5.31-14.97-15.29-13.9-13.16,1.34-10.85,15.22.45,26.05,5.4,5.34,12.25,14.46,12.25,13.41h0Z"/>
    <path class="cls-3" d="m232.61,689.22l2.73-26.33c.06-.11.12-.21.18-.31,1.01-1.25,8.1-9.37,17.38.7,12.15,13.26,6.87,24.24-6,24.4-6.28.08-14.29,2.66-14.29,1.55h0Z"/>
    <path class="cls-2" d="m304.21,676.92c.17.75-.09,1.2-.35,1.65-24.24,20.16-75.39,6.76-77.53,6.28-1.54-.47-2.87-1.84-3.08-3.05-.13-1.35.82-1.95,2.23-1.78.51.16,50.93,13.25,73.89-5.72.73-.74,2.57-.27,3.77.8.56.61.81,1.21,1.07,1.82h0Z"/>
    <path class="cls-2" d="m230.37,701.7l-48.16-4.01c-.29,0-.49-.14-.78-.15-3.27-1.29-26.62-11.54-21.31-24.8,6.64-17.41,32.2-9.91,49.18,8.6,8.02,8.83,23,20.52,21.07,20.36h0Z"/>
    <path class="cls-1" d="m228.87,703.13l-50.99-4.5c-.31,0-.61,0-.7.14-2.64.89-20.75,8.49-4.53,25.14,21.26,21.78,44.04,17.78,48.48-.76,2.09-9.04,9.78-19.85,7.74-20.03h0Z"/>
    <path class="cls-3" d="m230.3,698.57l-27.82-2.25c-.21-.14-.29,0-.49-.14-1.89-.72-15.36-6.69-12.47-14.43,3.91-9.94,18.74-5.76,28.47,5.03,4.7,5.19,13.38,11.94,12.31,11.79h0Z"/>
    <path class="cls-3" d="m229.4,699.35l-29.45-2.53c-.22-.16-.31,0-.39.15-1.56.59-11.98,4.91-2.48,14.55,12.39,12.59,25.63,10.31,28.06-.41.92-5.36,5.39-11.6,4.26-11.77h0Z"/>
    <path class="cls-7" d="m47.6,412.77l21.61,29.98c.21.14.13.27.33.41,1.95,1.53,16.15,12.78,20.04,3.92,5.17-11.46-8.7-25.18-24.14-28.63-7.21-1.86-18.81-6.92-17.84-5.68h0Z"/>
    <path class="cls-8" d="m45.57,415.46l22.67,32.74c.22.15.13.3.26.6.6,2.1,4.73,17.41-9.01,13.04-17.83-5.61-25.5-22.61-19.22-32.99,2.69-5.2,4.27-14.75,5.3-13.39h0Z"/>
    <path class="cls-3" d="m48.13,413.61l12.52,17.44.2.14c1.14.97,9.37,7.38,11.62,2.19,2.88-6.7-5.02-14.61-13.87-16.63-4.36-.87-11-3.69-10.47-3.13h0Z"/>
    <path class="cls-3" d="m46.93,415.2l13.13,19.01.13.3c.43,1.35,2.85,10.21-5.25,7.56-10.46-3.28-14.76-13.05-11.26-19.14,1.92-2.82,2.69-8.34,3.25-7.74h0Z"/>
    <path class="cls-7" d="m53.43,414.62l3.19-29.75c.09-.15-.13-.3-.04-.45-.82-2.27-6.16-17.68-18.32-16.49-15.72,1.6-12.78,18.04.62,31.01,6.46,6.1,14.47,16.89,14.55,15.69h0Z"/>
    <path class="cls-8" d="m50.72,410.2l3.31-31.23c.09-.16.18-.31.18-.31,1.11-1.41,9.57-11.41,20.79.74,14.54,15.66,8.11,28.69-7.24,28.81-7.61.22-17.13,3.26-17.04,1.99h0Z"/>
    <path class="cls-3" d="m51.74,414.9l1.76-17.28s.09-.15-.12-.3c-.43-1.36-3.47-10.27-10.49-9.61-8.99.94-7.5,10.43.29,17.9,3.94,3.66,8.52,9.89,8.56,9.29h0Z"/>
    <path class="cls-3" d="m50.17,412.39l1.84-18.14.09-.16c.75-.78,5.58-6.56,11.9.47,8.26,9.11,4.62,16.64-4.14,16.69-4.11.11-9.73,1.77-9.69,1.14Z"/>
    <path class="cls-7" d="m99.54,403.77c.05.45.09.9-.3,1.05-16.65,13.78-51.82,4.63-53.36,4.16-1.03-.31-2.01-1.23-2.09-2.13-.09-.9.55-1.5,1.58-1.18.3,0,35.17,9.14,50.79-3.89.56-.44,1.67-.28,2.44.48.56.61.82,1.21.94,1.51h0Z"/>
    <path class="cls-7" d="m48.72,420.82l-33.04-2.73c-.19,0-.35-.05-.49-.15-2.29-1-18.35-7.98-14.64-17.1,4.57-12.03,22.27-6.83,33.73,5.93,5.56,6.17,15.8,14.2,14.44,14.04h0Z"/>
    <path class="cls-8" d="m47.65,421.81l-34.97-3.06c-.21,0-.34.05-.39.15-1.87.59-14.33,5.8-3.14,17.32,14.53,14.78,30.37,12.22,33.33-.49,1.22-6.43,6.6-13.74,5.17-13.91h0Z"/>
    <path class="cls-3" d="m48.59,418.68l-19.27-1.61h-.29c-1.39-.57-10.57-4.57-8.51-9.96,2.68-6.91,12.8-4.02,19.64,3.41,3.31,3.65,9.21,8.3,8.43,8.15h0Z"/>
    <path class="cls-3" d="m47.98,419.26l-20.38-1.8h-.31c-1.08.29-8.28,3.27-1.78,10.1,8.5,8.71,17.65,7.14,19.39-.21.87-3.67,3.91-7.93,3.08-8.1h0Z"/>
    <path class="cls-7" d="m308.21,736.14l21.61,29.97c.2.14.12.28.32.42,1.95,1.53,16.15,12.78,20.05,3.92,5.16-11.46-8.71-25.18-24.15-28.64-7.21-1.86-18.73-7.05-17.83-5.67h0Z"/>
    <path class="cls-8" d="m306.17,738.82l22.68,32.74c.21.15.13.3.25.6.6,2.1,4.73,17.41-9.01,13.04-17.83-5.61-25.5-22.6-19.22-32.99,2.78-5.35,4.36-14.9,5.3-13.39h0Z"/>
    <path class="cls-3" d="m308.92,737.09l12.52,17.43.21.14c1.14.98,9.36,7.38,11.61,2.19,2.88-6.7-5.02-14.61-13.86-16.62-4.37-.88-11.13-3.97-10.48-3.14Z"/>
    <path class="cls-3" d="m307.73,738.7l13.12,19,.13.3c.43,1.35,2.86,10.2-5.25,7.56-10.45-3.28-14.75-13.05-11.25-19.13,1.71-2.97,2.57-8.64,3.25-7.73Z"/>
    <path class="cls-7" d="m314.04,737.99l3.18-29.76c.09-.15-.13-.3-.04-.45-.81-2.27-6.16-17.68-18.32-16.49-15.72,1.6-12.77,18.04.62,31.01,6.47,6.1,14.47,16.89,14.56,15.69h0Z"/>
    <path class="cls-8" d="m311.33,733.57l3.31-31.22c.09-.16.17-.31.17-.31,1.11-1.41,9.57-11.41,20.8.74,14.53,15.66,8.1,28.69-7.25,28.81-7.52.06-17.12,3.25-17.03,1.99h0Z"/>
    <path class="cls-3" d="m312.34,738.26l1.77-17.28s.08-.15-.13-.3c-.43-1.36-3.46-10.27-10.49-9.61-8.99.94-7.5,10.44.29,17.91,3.94,3.66,8.52,9.88,8.56,9.28h0Z"/>
    <path class="cls-3" d="m310.78,735.75l1.83-18.14.09-.16c.75-.78,5.58-6.56,11.9.47,8.26,9.11,4.63,16.65-4.13,16.69-4.12.11-9.74,1.78-9.69,1.14Z"/>
    <path class="cls-7" d="m360.15,727.13c.04.45.08.9-.3,1.05-16.66,13.78-51.83,4.63-53.37,4.16-1.02-.31-2.01-1.22-2.09-2.13-.09-.9.56-1.49,1.58-1.18.3,0,35.17,9.15,50.8-3.89.55-.45,1.67-.28,2.44.48.55.61.89,1.06.94,1.51h0Z"/>
    <path class="cls-7" d="m309.33,744.19l-33.04-2.73c-.19,0-.36-.06-.5-.15-2.29-1-18.35-7.98-14.64-17.1,4.57-12.03,22.28-6.83,33.73,5.93,5.57,6.17,15.8,14.2,14.45,14.05h0Z"/>
    <path class="cls-8" d="m308.25,745.18l-34.97-3.06c-.2,0-.33.04-.39.15-1.87.59-14.32,5.8-3.14,17.31,14.53,14.78,30.37,12.22,33.33-.49,1.44-6.28,6.6-13.74,5.17-13.91h0Z"/>
    <path class="cls-3" d="m309.19,742.05l-19.27-1.61h-.28c-1.4-.57-10.57-4.56-8.51-9.95,2.67-6.92,12.8-4.03,19.63,3.41,3.31,3.65,9.21,8.3,8.43,8.15Z"/>
    <path class="cls-3" d="m308.59,742.63l-20.39-1.8h-.3c-1.09.29-8.29,3.26-1.79,10.1,8.5,8.71,17.65,7.14,19.39-.21.87-3.67,3.91-7.93,3.09-8.09h0Z"/>
    <path class="cls-7" d="m553.94,110.49l-33.04-2.73c-.19,0-.35-.05-.49-.14-2.29-1-18.35-7.98-14.64-17.1,4.57-12.03,22.27-6.83,33.73,5.93,5.36,6.03,15.59,14.06,14.44,14.05h0Z"/>
    <path class="cls-8" d="m552.87,111.48l-34.97-3.06c-.21,0-.34.05-.4.15-1.86.59-14.32,5.81-3.13,17.31,14.53,14.78,30.37,12.22,33.32-.49,1.22-6.43,6.39-13.89,5.18-13.91Z"/>
    <path class="cls-2" d="m67.47,474.21l-7.7,30.1c-.08.15-.17.3.05.46.52,2.31,4.49,18.91,18.14,19.09,17.9.23,16.79-17.11,3.49-31.84-6.32-7.13-13.9-19.03-13.98-17.81h0Z"/>
    <path class="cls-1" d="m70.97,479.75l-7.88,31.05c-.09.16-.17.31-.26.47-1.42,1.4-12.06,10.28-22.89-3.14-13.89-17.41-5.24-29.96,11.63-28.32,8.42.58,19.49-1.33,19.4-.07h0Z"/>
    <path class="cls-3" d="m69.3,473.93l-4.43,17.4s-.09.15.13.31c.22,1.23,2.64,10.91,10.52,11.01,10.3.13,9.66-9.98,2-18.5-3.81-4.03-8.18-10.82-8.22-10.21h0Z"/>
    <path class="cls-3" d="m71.33,477.13l-4.54,17.95-.09.16c-.75.78-7.08,5.91-13.27-1.91-8.04-10.05-3.03-17.25,6.75-16.34,4.69.53,11.19-.49,11.15.14h0Z"/>
    <path class="cls-2" d="m73.61,468.44l32.54-7.58c.09-.16.39-.15.39-.15,1.41-1.39,10.76-11.31-3.41-21.38-18.43-12.94-31.51-4.64-29.64,11.23.92,7.7-1.07,18.34.12,17.88h0Z"/>
    <path class="cls-1" d="m72.02,465.82l30.78-6.93c.08-.14.29,0,.58,0,2.37.46,19.48,3.81,19.76,15.85.52,15.61-17.3,14.97-32.48,3.33-7.61-5.53-19.76-11.84-18.64-12.25Z"/>
    <path class="cls-3" d="m73.01,470.74l18.89-4.31s.09-.16.31,0c.75-.78,6.26-6.67-1.97-12.42-10.64-7.51-18.31-2.74-17.04,6.53.08,4.24-.98,10.5-.19,10.19h0Z"/>
    <path class="cls-3" d="m72.11,469.27l17.87-3.94h.29c1.37.16,11.28,2.29,11.35,9.16.29,9.02-10.04,8.61-18.73,1.92-4.5-3.35-11.53-6.87-10.78-7.14Z"/>
    <path class="cls-2" d="m122.32,503.41c-.35.12-.7.23-1.17.11-27.66-6.95-52.61-31.75-53.8-32.82-.61-.71-.79-1.66-.09-1.89.7-.23,1.7-.11,2.51.72.3.36,24.95,24.8,51.03,31.28.93.24,1.81.95,1.8,1.78.03.35-.13.59-.28.83h0Z"/>
    <path class="cls-2" d="m74.62,472.97l-32.01-27.29c-.2-.14-.41-.28-.33-.42-1.35-2.12-11.26-17.24,1.39-17.51,16.77-.37,30.09,15.35,29.58,28.95-.26,6.31,2.52,17.28,1.37,16.28h0Z"/>
    <path class="cls-1" d="m71.4,478.66l-31.55-26.49c-.21-.14-.41-.28-.61-.42-2.48-1.12-19.12-8.65-18.38,2.94,1.18,15.14,18.87,25.68,33.22,24.2,6.84-.88,18.46.74,17.32-.22h0Z"/>
    <path class="cls-3" d="m72.88,473.16l-18.52-15.8s-.21-.14-.13-.28c-.78-1.13-6.53-10.05.84-10.24,9.69-.17,17.39,8.91,17.09,16.77-.01,3.93,1.55,10.13.72,9.56h0Z"/>
    <path class="cls-3" d="m71,476.46l-18.25-15.33-.21-.14c-1.3-.7-11-5.03-10.74,1.66.75,8.73,11.02,14.98,19.28,14.11,3.83-.64,10.74.25,9.92-.3h0Z"/>
    <path class="cls-2" d="m470.28,757.15l38.23,18.9c.2.15.49.15.49.15,2.45.32,19.6,2.93,13.4-10.34-8.22-17.27-27.61-23.04-38.4-15.64-4.97,3.49-15.26,6.06-13.72,6.93Z"/>
    <path class="cls-1" d="m467.56,762.86l37.47,18.12c.2.14.41.27.61.41,2.07,1.8,16.87,14.76,6.94,19.84-12.82,6.54-30.52-5.92-36.41-20.83-2.71-7.39-10.12-18.37-8.61-17.54h0Z"/>
    <path class="cls-3" d="m469.97,760.46l22.13,11.07c.14.09.24.09.29,0,1.37.16,11.37,1.56,7.73-6.16-4.64-10.01-16.08-13.41-22.14-9.08-2.78,2.24-8.72,3.88-8.01,4.17Z"/>
    <path class="cls-3" d="m468.38,763.81l21.68,10.59.4.28c1.34,1.1,9.74,8.55,3.96,11.49-7.41,3.73-17.68-3.46-21.07-12.08-1.45-4.24-5.66-10.56-4.97-10.28h0Z"/>
    <path class="cls-2" d="m471.77,767.43l-23.33-32.92c-.2-.13-.32-.41-.32-.41-2.08-1.81-17.63-14.19-22.01-4.49-5.82,12.56,9.31,27.54,26.14,31.57,7.99,2.01,20.5,7.49,19.52,6.25h0Z"/>
    <path class="cls-1" d="m473.96,764.56l-24.5-35.97c-.21-.15-.12-.3-.25-.6-.73-2.41-4.99-19.1,10-14.26,19.82,6.4,27.75,25.08,20.66,36.38-3.17,5.51-4.88,15.82-5.91,14.46h0Z"/>
    <path class="cls-3" d="m470.97,766.34l-13.54-19.08s-.2-.14-.12-.28c-1.34-1.11-10.09-8.07-12.8-2.61-3.48,7.24,5.35,15.98,15.17,18.28,4.77,1.15,11.94,4.52,11.29,3.69Z"/>
    <path class="cls-3" d="m472.22,764.69l-14.21-20.85-.13-.3c-.42-1.36-2.94-11.12,5.9-8.16,11.4,3.74,16.09,14.43,12.03,20.97-1.79,3.12-2.91,9.24-3.59,8.34h0Z"/>
    <path class="cls-2" d="m493.8,712.79c.38.53.77,1.06,1.05,1.77,4.59,33.13-23.88,52.1-25.05,52.97-.74.7-2.15.16-3.26-.9-1.11-1.07-1.1-2.3-.36-3,.44-.17,28.37-18.79,23.92-50.34-.09-1.06.64-1.76,1.91-1.57.82.36,1.3.71,1.79,1.07h0Z"/>
    <path class="cls-2" d="m469.03,773.68l-19.49,23.47c-.09.15-.17.31-.39.15-2.19.59-16.95,4.9-24.01-9.77-9.28-18.87,4.65-26.6,22.98-19.85,8.65,3.21,21.74,5.08,20.91,6Z"/>
    <path class="cls-1" d="m465.03,767.19l-19.78,23.96c-.09.15-.18.31-.27.47-.31,2.21-1.75,18.01,13.75,22.64,20.37,5.96,25.66-9.48,15.71-26.7-4.59-8.44-8.56-21.31-9.41-20.37h0Z"/>
    <path class="cls-3" d="m469.32,770.44l-11.35,13.48-.09.16c-1.18.45-9.91,2.81-13.96-5.76-5.4-11.06,2.63-15.45,13.27-11.44,5.06,1.92,12.48,2.95,12.13,3.56h0Z"/>
    <path class="cls-3" d="m467.02,766.69l-11.53,13.78c-.06.11-.12.21-.18.32-.09,1.26-.9,10.43,7.91,13.08,11.78,3.47,14.9-5.35,9.1-15.56-2.6-4.78-4.94-12.24-5.3-11.62h0Z"/>
    <path class="cls-4" d="m538.21,71.66c.29,11.57,11.12,22.2,16.35,21.8,13.67-.77,2.56-14.44,2.56-14.44,0,0,12.03,13.1,18.17,3.6,2.48-3.74-6.22-15.51-20-20.1,11.84-1.65,13.3-12.19,8.17-17-12.87-11.66-17.38-.42-17.38-.42,0,0,2.96-12.12-12.32-16.14-5.59-1.49-9.97,6-4.86,16.88-2.92-4.07-5.54-8.14-7.65-12.05-1.29-2.32-2.29-4.64-3.07-6.82-.79-2.17-1.49-4.49-1.99-6.66.09-.14-.04-.43-.04-.43-1.58-.3-3.46-.6-5.05-.9.12.29.04.43.25.58.83,2.61,1.74,5.07,2.94,7.54,1.2,2.47,2.62,5.08,4.2,7.4,2.41,3.92,5.19,7.7,8.27,11.48-10.67-6.87-20.37-6.37-20.55-2.03-.8,12.43,14.74,15,14.74,15,0,0-15-.98-5.94,12.68,3.58,4.94,16.82,7.93,23.2.03h0Z"/>
    <path class="cls-4" d="m338.21,42.8c1.66-2.87-4.58-7.18-6.24-4.32-1.75,3.02,4.49,7.33,6.24,4.32Z"/>
    <path class="cls-4" d="m358.33,71.14c1.66-2.86-4.57-7.16-6.22-4.3-1.66,2.86,4.57,7.16,6.22,4.3Z"/>
    <path class="cls-4" d="m269.67,67.85c.08-.15-.33-.42-.41-.28-.09.15.32.42.41.28Z"/>
    <path class="cls-4" d="m288.16,124.99c-.13-.33.09-.17,0,0-.32,0-.1.17,0,0Z"/>
    <path class="cls-4" d="m262.98,74.84l1.53.42c.31,0,.39-.16.69-.17.39-.16.78-.33,1.05-.79l.84-.94c.17-.31.35-.62.23-.93-.04-.46-.16-.76-.28-1.07s-.46-.76-.58-1.06c-.34-.45-.55-.6-.97-.9-.21-.15-.42-.3-.85-.59-.51-.14-1.02-.28-1.62-.27-.3,0-.39.16-.69.17-.39.16-.78.33-1.05.79l-.41,1.24c-.18.31-.36.62-.23.93.03.46-.06.62.28,1.07.12.3.45.76.58,1.06.33.45.54.6.96.9.09-.16.31,0,.52.14Z"/>
    <path class="cls-4" d="m211.82,174.58c2.27-3.92-6.04-9.65-8.3-5.74-1.98,3.91,6.12,9.5,8.3,5.74Z"/>
    <path class="cls-4" d="m281.12,138.12c2.27-3.91-6.04-9.65-8.3-5.74-2.18,3.76,6.12,9.5,8.3,5.74Z"/>
    <path class="cls-4" d="m173.63,114.29c2.26-3.92-6.04-9.65-8.31-5.74-2.18,3.76,6.12,9.5,8.31,5.74Z"/>
    <path class="cls-4" d="m60.68,298.25c2.27-3.93-6.05-9.68-8.32-5.75-2.27,3.92,6.05,9.68,8.32,5.75Z"/>
    <path class="cls-4" d="m116.04,300.22c2.27-3.92-6.05-9.68-8.32-5.75s6.05,9.68,8.32,5.75Z"/>
    <path class="cls-4" d="m111.17,427.59c-.91-1.52-1.53-3.04-2.44-4.55,2,1.18,4.1,1.13,5.08-.59,2.32-4.05-6.16-9.99-8.48-5.94-1.24,2.18.55,4.75,2.98,6.23l2.56,4.86c.13.3.43.3.3,0h0Z"/>
    <path class="cls-4" d="m111.95,402.56c2.27-3.92-6.04-9.68-8.31-5.75-2.27,3.92,6.04,9.68,8.31,5.75Z"/>
    <path class="cls-4" d="m27.99,522.02c2.27-3.92-6.05-9.68-8.32-5.75-2.27,3.92,6.04,9.68,8.32,5.75Z"/>
    <path class="cls-4" d="m110.92,525.15c2.27-3.92-6.04-9.65-8.3-5.74-2.18,3.77,6.12,9.5,8.3,5.74Z"/>
    <path class="cls-4" d="m126.55,555.68c2.27-3.92-6.04-9.68-8.31-5.75-2.28,3.92,6.04,9.68,8.31,5.75Z"/>
    <path class="cls-4" d="m103.07,633.57c2.27-3.91-6.03-9.65-8.3-5.74-1.97,3.91,6.12,9.5,8.3,5.74Z"/>
    <path class="cls-4" d="m182.49,645.45l.73.29c.51.14.81.13,1.2-.03,1.59-.19,3.26-.54,4.64-.88.3,0,.48-.32.57-.47.18-.31.26-.47.44-.78.06-.61-.1-1.37-.43-1.82-.55-.6-1.09-1.2-1.82-1.48-.72-.29-1.32-.27-1.92-.26l-4.4,1.48c-.39.16-.95.64-.92,1.09.03.46.19,1.22.52,1.67.25.61.88,1.05,1.39,1.19h0Z"/>
    <path class="cls-4" d="m144.33,667.15c1.14-1.96-3.02-4.84-4.15-2.88-1.35,1.82,3.02,4.84,4.15,2.88Z"/>
    <path class="cls-4" d="m354.06,700.26c.5.13.91.41,1.4.55.21.14.29,0,.5.13.29,0,.5.13.58-.01.19,0,.32-.05.38-.16.29,0,.38-.15.46-.3.09-.15.18-.3.18-.3.08-.15-.12-.29-.04-.43-.12-.29-.03-.43-.23-.57-.12-.29-.33-.43-.45-.72-.32-.43-.73-.71-1.06-1.14-.41-.28-.82-.56-1.02-.7-.41-.28-.7-.27-1.29-.26-.19,0-.39,0-.58.01-.38.15-.46.3-.63.6-.09.15-.26.44-.14.73-.09.15.03.43.15.72s.44.71.77,1.14c.2.14.61.42,1.02.7h0Z"/>
    <path class="cls-4" d="m332.53,691.31c2.27-3.91-6.03-9.65-8.3-5.74-1.97,3.91,6.12,9.5,8.3,5.74Z"/>
    <path class="cls-4" d="m362.79,791.77c2.27-3.93-6.04-9.68-8.31-5.76-2.27,3.93,6.04,9.68,8.31,5.76Z"/>
    <path class="cls-4" d="m411.48,796.64c2.27-3.93-6.04-9.68-8.31-5.76-2.27,3.93,6.04,9.68,8.31,5.76Z"/>
    <path class="cls-4" d="m442.58,708.13c2.27-3.92-6.04-9.68-8.31-5.75-2.28,3.92,6.04,9.68,8.31,5.75Z"/>
    <path class="cls-4" d="m421.56,710.88c1.74-3.02-4.7-7.47-6.44-4.45-1.75,3.02,4.69,7.47,6.44,4.45Z"/>
    <path class="cls-4" d="m505.29,104.18c.27-.46-.57-1.04-.84-.58-.47.31.58,1.04.84.58Z"/>
    <path class="cls-4" d="m474.06,83.31c2.27-3.92-6.03-9.65-8.3-5.74-1.97,3.91,6.12,9.5,8.3,5.74Z"/>
    <path class="cls-4" d="m489.42,108.69c2.27-3.93-6.05-9.68-8.32-5.75-2.27,3.93,6.05,9.68,8.32,5.75Z"/>
    <path class="cls-4" d="m491.32,21.8c2.27-3.92-6.03-9.65-8.3-5.74-2.18,3.76,6.12,9.5,8.3,5.74Z"/>
    <path class="cls-4" d="m497.41,91.79c2.27-3.92-6.03-9.65-8.3-5.74-1.97,3.91,6.12,9.5,8.3,5.74Z"/>
    <path class="cls-4" d="m317.28,52.55c2.27-3.92-6.04-9.67-8.31-5.75-2.18,3.77,6.04,9.67,8.31,5.75Z"/>
    <path class="cls-4" d="m355.23,87.72c2.27-3.92-6.04-9.68-8.32-5.75-2.27,3.92,6.05,9.68,8.32,5.75Z"/>
    <path class="cls-4" d="m350.82,20.43c2.27-3.92-6.04-9.65-8.3-5.74-2.18,3.76,6.12,9.5,8.3,5.74Z"/>
    <path class="cls-4" d="m197.81,616.78c2.27-3.92-6.04-9.67-8.31-5.75-2.18,3.77,6.04,9.67,8.31,5.75Z"/>
    <path class="cls-1" d="m347.22,46.58c2.27-3.91-6.04-9.65-8.31-5.74-1.97,3.91,6.13,9.5,8.31,5.74Z"/>
    <path class="cls-1" d="m322.28,32.19c2.27-3.92-6.04-9.65-8.3-5.74-1.98,3.91,6.12,9.5,8.3,5.74Z"/>
    <path class="cls-1" d="m266.48,82.96c2.27-3.92-6.05-9.68-8.32-5.75-2.27,3.92,6.05,9.68,8.32,5.75Z"/>
    <path class="cls-1" d="m278.88,133.35c2.27-3.93-6.04-9.68-8.31-5.75-2.07,4.07,6.04,9.68,8.31,5.75Z"/>
    <path class="cls-1" d="m218.7,160.08c2.27-3.92-6.04-9.68-8.31-5.75s6.04,9.68,8.31,5.75Z"/>
    <path class="cls-1" d="m194.29,104.5c2.27-3.92-6.05-9.68-8.32-5.75-2.27,3.93,6.05,9.68,8.32,5.75Z"/>
    <path class="cls-1" d="m164.11,142.03c2.27-3.91-6.04-9.65-8.3-5.74-1.98,3.91,6.12,9.5,8.3,5.74Z"/>
    <path class="cls-1" d="m74.01,289.43c2.27-3.92-6.04-9.65-8.3-5.74-1.98,3.91,6.12,9.5,8.3,5.74Z"/>
    <path class="cls-1" d="m104.61,285.38c2.27-3.92-6.05-9.68-8.32-5.75-2.06,4.07,6.05,9.68,8.32,5.75Z"/>
    <path class="cls-1" d="m120.5,387.74c2.27-3.91-6.03-9.65-8.3-5.74-2.18,3.76,6.12,9.5,8.3,5.74Z"/>
    <path class="cls-1" d="m93.76,393.81c2.27-3.93-6.05-9.68-8.32-5.75-2.27,3.92,6.05,9.68,8.32,5.75Z"/>
    <path class="cls-1" d="m24.48,481.76c2.27-3.92-6.04-9.68-8.32-5.75-2.06,4.07,6.05,9.68,8.32,5.75Z"/>
    <path class="cls-1" d="m115.42,526.02c2.28-3.93-6.04-9.68-8.31-5.75s6.04,9.68,8.31,5.75Z"/>
    <path class="cls-1" d="m125.39,575c2.27-3.92-6.04-9.67-8.3-5.75-2.19,3.77,6.03,9.67,8.3,5.75Z"/>
    <path class="cls-1" d="m101.61,604.49c2.27-3.91-6.03-9.65-8.3-5.74-1.97,3.91,6.12,9.5,8.3,5.74Z"/>
    <path class="cls-1" d="m86.95,624.26c2.26-3.91-6.04-9.65-8.31-5.74-2.18,3.77,6.13,9.5,8.31,5.74Z"/>
    <path class="cls-1" d="m83.63,584.12c2.27-3.92-6.04-9.67-8.31-5.74-2.18,3.77,6.04,9.67,8.31,5.74Z"/>
    <path class="cls-1" d="m193.48,636.14c.52.14,1.03.29,1.55.43.31,0,.4-.17.7-.17.39-.17.79-.33.97-.65.36-.63,1.02-1.27,1.38-1.91.18-.32.36-.63.24-.94-.04-.47.05-.62-.29-1.08-.12-.31-.46-.77-.58-1.08-.34-.46-.55-.61-.98-.91-.22-.15-.43-.3-.86-.6-.52-.14-1.03-.29-1.55-.43-.31,0-.4.17-.7.17-.39.17-.79.33-1.06.81-.36.63-.59,1.57-.95,2.21-.18.32-.27.47-.24.94.04.47-.05.62.29,1.09.12.31.24.62.58,1.08.13.31.55.61.98.91-.12-.31.31,0,.52.14h0Z"/>
    <path class="cls-1" d="m155.13,670.35c2.27-3.92-6.03-9.65-8.3-5.74-2.18,3.76,6.12,9.5,8.3,5.74Z"/>
    <path class="cls-1" d="m297.26,689.18c2.27-3.92-6.04-9.65-8.3-5.74-2.18,3.77,6.12,9.5,8.3,5.74Z"/>
    <path class="cls-1" d="m345.28,706.91c2.26-3.91-6.04-9.65-8.31-5.74-2.18,3.76,6.12,9.5,8.31,5.74Z"/>
    <path class="cls-1" d="m358.99,758.06c2.27-3.91-6.03-9.65-8.3-5.74-2.18,3.77,6.12,9.51,8.3,5.74Z"/>
    <path class="cls-1" d="m377.81,722.44c2.26-3.91-6.04-9.65-8.31-5.74-2.18,3.77,6.13,9.5,8.31,5.74Z"/>
    <path class="cls-1" d="m401.64,787.68c2.27-3.91-6.03-9.65-8.3-5.73-2.18,3.76,6.12,9.5,8.3,5.73Z"/>
    <path class="cls-1" d="m375.27,787.45c2.27-3.91-6.03-9.65-8.3-5.73-2.18,3.76,6.12,9.5,8.3,5.73Z"/>
    <path class="cls-1" d="m435.61,717.58c2.27-3.92-6.03-9.65-8.3-5.74-2.18,3.77,6.12,9.5,8.3,5.74Z"/>
    <path class="cls-1" d="m490.08,689.08c2.27-3.93-6.04-9.68-8.31-5.75-2.07,4.07,6.04,9.68,8.31,5.75Z"/>
    <path class="cls-1" d="m506.71,736.7c1.22-2.11-3.34-5.26-4.56-3.16-1.22,2.11,3.34,5.27,4.56,3.16Z"/>
    <path class="cls-1" d="m483.59,31.98c.42.29.72.28,1.31.27.59,0,1.27-.18,1.86-.19.29,0,.59,0,.68-.17.29,0,.38-.16.56-.46.08-.15.17-.3.14-.75.09-.15-.04-.45-.16-.74-.2-.14-.12-.3-.33-.44-.12-.3-.53-.58-.95-.87-.21-.14-.42-.29-.42-.29-.41-.29-.71-.28-1-.27-.59.02-1.39-.11-1.99-.1-.29,0-.59.01-.67.17-.3,0-.48.31-.56.46-.09.15-.27.45-.14.75-.09.15.03.45.15.74.08.2.16.4.24.59.33.44.54.58.95.87l.33.44h0Z"/>
    <path class="cls-1" d="m473.12,91.01c2.26-3.92-6.04-9.65-8.31-5.74-2.18,3.77,6.13,9.5,8.31,5.74Z"/>
    <path class="cls-1" d="m460.78,25.71c2.27-3.93-6.04-9.68-8.31-5.75s6.04,9.68,8.31,5.75Z"/>
    <path class="cls-1" d="m371.07,75.12c1.04-1.81-2.9-4.53-3.94-2.72-1.05,1.81,2.89,4.53,3.94,2.72Z"/>
    <path class="cls-1" d="m220.3,88.01c2.27-3.91-6.04-9.65-8.3-5.74-2.18,3.76,6.12,9.5,8.3,5.74Z"/>
  </g>
</svg>