<?xml version="1.0" encoding="UTF-8"?>
<svg id="Layer_2" data-name="Layer 2" xmlns="http://www.w3.org/2000/svg" viewBox="0 0 2061.36 815.55">
  <defs>
    <style>
      .cls-1 {
        fill: #9fcf33;
      }

      .cls-2 {
        fill: #84b22a;
      }

      .cls-3 {
        fill: #c8db95;
      }

      .cls-4 {
        fill: #3d6d00;
      }

      .cls-5 {
        fill: #6d982f;
      }

      .cls-6 {
        fill: #a1b564;
      }

      .cls-7 {
        fill: #457206;
      }

      .cls-8 {
        fill: #569600;
      }
    </style>
  </defs>
  <g id="Layer_1-2" data-name="Layer 1">
    <path class="cls-7" d="m2042.33,690.31l-33.05-2.73q-.28,0-.49-.14c-2.29-1-18.35-7.98-14.64-17.1,4.57-12.03,22.27-6.83,33.73,5.93,5.36,6.03,15.59,14.06,14.45,14.05Z"/>
    <path class="cls-8" d="m2041.25,691.31l-34.97-3.06q-.3,0-.39.15c-1.87.59-14.32,5.8-3.14,17.32,14.53,14.78,30.37,12.22,33.33-.49,1.13-6.28,6.39-13.89,5.17-13.91Z"/>
    <path class="cls-5" d="m1798.18,101.33c.29,11.57,11.13,22.2,16.35,21.81,13.67-.77,2.56-14.44,2.56-14.44,0,0,12.04,13.1,18.17,3.6,2.48-3.74-6.21-15.51-19.99-20.1,11.83-1.65,13.29-12.19,8.17-17-12.88-11.66-17.39-.42-17.39-.42,0,0,2.97-12.12-12.32-16.14-5.59-1.49-9.97,6-4.86,16.88-2.92-4.07-5.54-8.14-7.65-12.06-1.29-2.32-2.29-4.64-3.07-6.82-.79-2.17-1.49-4.49-1.99-6.66.09-.14-.04-.43-.04-.43-1.58-.3-3.46-.6-5.05-.9.12.29.04.43.25.58.82,2.61,1.74,5.07,2.94,7.54,1.2,2.47,2.61,5.08,4.2,7.4,2.41,3.92,5.19,7.7,8.27,11.48-10.67-6.87-20.37-6.37-20.56-2.03-.79,12.43,14.75,15,14.75,15,0,0-15-.98-5.94,12.68,3.7,5.23,17.03,8.08,23.2.03Z"/>
    <path class="cls-3" d="m1797.47,92.97c.02,5.56,5.3,10.73,8.04,10.6,6.52-.54,1.2-7.16,1.2-7.16,0,0,5.79,6.34,8.79,1.67,1.1-1.89-3.04-7.49-9.73-9.73,5.73-.69,6.42-5.95,3.86-8.17-6.21-5.61-8.46-.21-8.46-.21,0,0,1.33-5.85-5.82-7.8-2.61-.61-2.26,8.47-.92,10.24-5.12-3.4-12.36-5.21-12.66-3.17-.31,6.15,7.05,7.23,7.05,7.23,0,0-7.41-.49-2.97,6.13,2.01,2.65,8.53,4.16,11.62.38Z"/>
    <path class="cls-5" d="m1974.62,64.88c.22,6.65,6.35,12.77,9.44,12.5,7.95-.52,1.37-8.38,1.37-8.38,0,0,7.04,7.57,10.53,2.1,1.34-2.3-3.57-8.99-11.5-11.51,6.73-.96,7.63-7.03,4.76-9.65-7.46-6.85-9.87-.22-9.87-.22,0,0,1.7-6.93-7.11-9.45-3.3-.89-5.83,3.43-2.8,9.81-1.58-2.33-3.16-4.65-4.45-6.97-.7-1.31-1.32-2.76-1.82-3.92-.41-1.3-.83-2.61-1.24-3.91,0,0,.08-.14-.13-.29-1.08-.15-1.88-.3-2.96-.46l.12.29c.33,1.45.95,2.9,1.58,4.35.62,1.45,1.53,2.9,2.24,4.21,1.37,2.18,2.95,4.5,4.7,6.54-6.13-4.09-11.65-3.7-11.91-1.24-.4,7.23,8.5,8.59,8.5,8.59,0,0-8.74-.64-3.41,7.35,2.53,3.2,10.18,4.7,13.96.25Z"/>
    <path class="cls-3" d="m1974.04,59.91c.11,3.37,3.13,6.33,4.48,6.04,3.71-.27.61-4.1.61-4.1,0,0,3.48,3.69,5.09.92.59-1.02-1.67-4.26-5.62-5.61,3.2-.42,3.71-3.34,2.2-4.82-3.44-3.25-4.71-.04-4.71-.04,0,0,.76-3.37-3.36-4.42-1.51-.45-1.32,4.83-.44,5.86-3.03-1.93-7.15-2.99-7.24-1.81-.26,3.52,4.11,4.13,4.11,4.13,0,0-4.25-.32-1.73,3.51,1.04,1.77,4.96,2.67,6.61.34Z"/>
    <path class="cls-5" d="m1574.91,328.43c.23,6.65,6.35,12.77,9.45,12.5,7.94-.52,1.36-8.37,1.36-8.37,0,0,7.04,7.57,10.53,2.1,1.35-2.3-3.56-8.99-11.5-11.51,6.74-.96,7.64-7.03,4.76-9.65-7.46-6.85-9.86-.22-9.86-.22,0,0,1.69-6.93-7.12-9.45-3.3-.89-5.82,3.43-2.79,9.81-1.58-2.32-3.16-4.65-4.45-6.97-.7-1.31-1.33-2.76-1.82-3.92-.42-1.3-.83-2.61-1.24-3.91,0,0,.08-.14-.13-.29-1.08-.15-1.88-.3-2.96-.46l.12.29c.33,1.45.95,2.9,1.57,4.35.63,1.45,1.54,2.9,2.25,4.21,1.37,2.18,2.95,4.5,4.7,6.54-6.13-4.09-11.65-3.7-11.91-1.24-.4,7.22,8.5,8.59,8.5,8.59,0,0-8.74-.64-3.42,7.35,2.63,3.05,10.39,4.85,13.96.25Z"/>
    <path class="cls-3" d="m1574.63,323.38c.11,3.37,3.13,6.33,4.48,6.04,3.71-.27.61-4.1.61-4.1,0,0,3.48,3.69,5.09.92.59-1.02-1.67-4.26-5.63-5.61,3.21-.42,3.72-3.34,2.21-4.82-3.44-3.25-4.72-.03-4.72-.03,0,0,.77-3.37-3.35-4.42-1.52-.45-1.32,4.83-.44,5.86-3.03-1.93-7.15-2.98-7.24-1.81-.26,3.52,4.11,4.13,4.11,4.13,0,0-4.25-.32-1.74,3.51,1.05,1.77,4.76,2.53,6.62.34Z"/>
    <path class="cls-5" d="m1824.14,760.83c5.61-2.56,13.25.96,14.33,4.15,2.89,8.12-6.37,4.87-6.37,4.87,0,0,9.22,3.83,6.15,9.59-1.35,2.3-8.95.22-14.36-6.61,2.03,7.1-2.63,10.53-6.01,8.77-8.8-4.54-4.31-9.72-4.31-9.72,0,0-5.03,4.59-10.82-3.11-2.12-2.91.4-7.23,6.97-6.89-2.59-.6-5.18-1.2-7.65-1.5-1.38-.16-2.84-.17-4.01-.18-1.26.14-2.51.27-3.76.41,0,0-.09.14-.3-.01-.58-1.01-1.04-1.74-1.62-2.75h.29c1.34-.28,2.81-.27,4.27-.26,1.46.01,3.05.31,4.43.47,2.38.45,4.97,1.05,7.39,1.93-5.96-4.38-7.95-10.03-6.02-11.32,5.82-3.43,10.68,4.85,10.68,4.85,0,0-4.19-8.42,4.67-6.47,3.71,1.18,8.37,8.3,6.05,13.78Z"/>
    <path class="cls-3" d="m1819.94,762.46c2.83-1.3,6.53.49,6.86,1.96,1.33,3.82-3.13,2.32-3.13,2.32,0,0,4.5,1.94,2.89,4.71-.59,1.02-4.21.12-6.98-3.27,1,3.37-1.19,5.12-3.04,4.22-4.12-2.08-2.01-4.7-2.01-4.7,0,0-2.45,2.18-5.05-1.5-1-1.33,3.42-3.35,4.64-2.9-2.85-2.22-5.45-5.91-4.52-6.49,2.78-1.73,5.13,2.39,5.13,2.39,0,0-2.05-4.12,2.16-3.21,1.89.31,4.07,3.69,3.05,6.47Z"/>
    <path class="cls-5" d="m1673.53,145.63c5.61-2.56,13.25.97,14.32,4.15,2.9,8.12-6.37,4.87-6.37,4.87,0,0,9.23,3.83,6.15,9.59-1.34,2.3-8.94.22-14.35-6.61,2.02,7.1-2.63,10.53-6.01,8.77-8.8-4.55-4.31-9.72-4.31-9.72,0,0-5.03,4.59-10.82-3.12-2.12-2.91.4-7.22,6.97-6.89-2.59-.6-5.18-1.19-7.65-1.5-1.38-.15-2.84-.17-4.01-.17-1.25.14-2.51.27-3.76.41,0,0-.09.14-.3,0-.58-1.02-1.04-1.74-1.62-2.76h.3c1.33-.28,2.8-.27,4.26-.26,1.46,0,3.05.31,4.43.47,2.38.45,4.97,1.05,7.39,1.93-5.96-4.38-7.95-10.03-6.02-11.32,5.82-3.43,10.68,4.85,10.68,4.85,0,0-4.19-8.42,4.67-6.47,3.63,1.33,8.37,8.3,6.05,13.78Z"/>
    <path class="cls-3" d="m1669.22,147.44c2.83-1.3,6.53.49,6.86,1.96,1.34,3.82-3.12,2.32-3.12,2.32,0,0,4.5,1.94,2.89,4.71-.6,1.02-4.22.12-6.98-3.28,1,3.38-1.2,5.12-3.05,4.23-4.12-2.08-2.01-4.71-2.01-4.71,0,0-2.45,2.18-5.05-1.5-1-1.33,3.43-3.35,4.65-2.9-2.86-2.22-5.46-5.9-4.53-6.48,2.79-1.74,5.13,2.38,5.13,2.38,0,0-2.05-4.12,2.16-3.21,1.89.31,4.07,3.7,3.05,6.47Z"/>
    <path class="cls-5" d="m1623.19,627.49c.3,11.57,11.13,22.2,16.35,21.8,13.67-.77,2.56-14.44,2.56-14.44,0,0,12.03,13.1,18.17,3.6,2.48-3.74-6.22-15.51-19.99-20.09,11.83-1.65,13.29-12.19,8.16-17-12.87-11.66-17.38-.42-17.38-.42,0,0,2.97-12.12-12.32-16.14-5.59-1.49-9.97,6-4.86,16.88-2.91-4.07-5.53-8.14-7.65-12.05-1.29-2.32-2.28-4.64-3.07-6.82-.79-2.17-1.49-4.49-1.98-6.66.08-.14-.04-.43-.04-.43-1.59-.3-3.47-.6-5.06-.9.13.29.04.43.25.58.83,2.61,1.74,5.07,2.94,7.54,1.21,2.47,2.62,5.08,4.2,7.4,2.41,3.92,5.2,7.7,8.28,11.48-10.68-6.87-20.38-6.37-20.56-2.03-.8,12.42,14.74,15,14.74,15,0,0-15-.98-5.94,12.68,3.58,4.94,16.82,7.93,23.2.03Z"/>
    <path class="cls-3" d="m1622.39,618.85c.03,5.56,5.31,10.72,8.05,10.6,6.52-.54,1.2-7.16,1.2-7.16,0,0,5.79,6.34,8.79,1.67,1.1-1.89-3.05-7.49-9.73-9.73,5.73-.69,6.42-5.95,3.86-8.17-6.21-5.61-8.46-.21-8.46-.21,0,0,1.32-5.85-5.82-7.8-2.61-.61-2.26,8.47-.92,10.24-5.13-3.41-12.36-5.21-12.66-3.17-.32,6.15,7.05,7.22,7.05,7.22,0,0-7.41-.49-2.97,6.13,2.22,2.8,8.53,4.16,11.61.38Z"/>
    <path class="cls-4" d="m1555.05,370.02c.29,11.57,11.12,22.2,16.35,21.8,13.67-.77,2.56-14.44,2.56-14.44,0,0,12.03,13.1,18.17,3.6,2.47-3.74-6.22-15.51-20-20.1,11.84-1.65,13.3-12.19,8.17-17-12.87-11.66-17.39-.42-17.39-.42,0,0,2.97-12.12-12.31-16.14-5.6-1.49-9.97,6-4.87,16.88-2.91-4.07-5.53-8.14-7.64-12.05-1.29-2.32-2.29-4.64-3.07-6.82-.79-2.17-1.49-4.49-1.99-6.66.09-.14-.04-.43-.04-.43-1.58-.3-3.46-.6-5.05-.9.12.29.04.43.25.58.82,2.61,1.73,5.07,2.94,7.54,1.2,2.47,2.61,5.08,4.19,7.4,2.41,3.92,5.2,7.7,8.28,11.48-10.67-6.87-20.37-6.37-20.56-2.03-.79,12.43,14.75,15,14.75,15,0,0-15-.98-5.94,12.68,3.58,4.94,16.82,7.93,23.2.03Z"/>
    <path class="cls-6" d="m1554.24,361.39c.03,5.57,5.31,10.73,8.05,10.6,6.53-.54,1.2-7.17,1.2-7.17,0,0,5.79,6.34,8.8,1.68,1.1-1.9-3.05-7.49-9.74-9.74,5.73-.69,6.42-5.96,3.86-8.17-6.21-5.61-8.46-.21-8.46-.21,0,0,1.33-5.85-5.82-7.8-2.61-.6-2.26,8.48-.92,10.24-5.13-3.41-12.36-5.22-12.66-3.17-.32,6.15,7.05,7.23,7.05,7.23,0,0-7.41-.49-2.97,6.13,2.14,2.94,8.53,4.16,11.61.38Z"/>
    <path class="cls-4" d="m1731.81,105.23c9.71-4.55,23.06,1.76,24.93,7.12,5.09,13.91-10.9,8.59-10.9,8.59,0,0,15.9,6.48,10.6,16.56-2.06,4.03-15.47.32-25.04-11.46,3.59,12.46-4.54,18.32-10.67,15.24-15.06-7.92-7.63-17.11-7.63-17.11,0,0-8.81,8.03-18.54-5.49-3.58-4.94.8-12.42,11.96-11.91-4.6-1.19-9.07-2.09-13.2-2.55-2.47-.31-4.81-.33-6.94-.2s-4.35.4-6.36.82c-.08.14-.37.14-.37.14-.92-1.45-1.96-3.19-2.87-4.65.29,0,.38-.14.58,0,2.51-.27,4.94-.4,7.49-.23,2.55.16,5.3.47,7.89,1.07,4.26.76,8.56,1.94,12.99,3.42-10.17-7.74-13.82-17.59-10.3-19.59,9.97-6,18.61,8.38,18.61,8.38,0,0-7.09-14.51,8.03-11.21,5.59,1.49,13.53,13.54,9.74,23.05Z"/>
    <path class="cls-6" d="m1724.29,108.06c4.59-2.31,11.06.81,12.1,3.6,2.3,6.75-5.4,4.21-5.4,4.21,0,0,7.65,3.13,5.07,8.09-1.1,1.89-7.45.09-12.1-5.65,1.83,6.01-2.22,8.91-5.12,7.28-7.23-3.86-3.72-8.37-3.72-8.37,0,0-4.26,3.77-8.87-2.55-1.59-2.35,6.04-5.81,8.06-5.21-4.96-3.7-9.48-10.17-7.92-11.33,4.94-2.89,8.91,4.02,8.91,4.02,0,0-3.51-7.2,3.81-5.54,3.02.9,7,6.79,5.18,11.46Z"/>
    <path class="cls-4" d="m1875.45,763.89c.29,11.56,11.12,22.2,16.35,21.8,13.67-.76,2.56-14.43,2.56-14.43,0,0,12.03,13.09,18.16,3.6,2.48-3.74-6.21-15.51-19.99-20.1,11.84-1.64,13.29-12.18,8.17-16.99-12.87-11.66-17.39-.42-17.39-.42,0,0,2.97-12.12-12.31-16.13-5.6-1.49-9.97,6-4.87,16.88-2.91-4.07-5.53-8.13-7.65-12.05-1.28-2.32-2.28-4.64-3.06-6.82-.79-2.17-1.49-4.49-1.99-6.66.09-.14-.04-.43-.04-.43-1.58-.3-3.46-.6-5.05-.9.12.29.04.43.25.58.82,2.61,1.73,5.07,2.94,7.54,1.2,2.47,2.61,5.08,4.19,7.4,2.41,3.92,5.2,7.7,8.28,11.48-10.67-6.87-20.37-6.37-20.56-2.03-.79,12.42,14.75,15,14.75,15,0,0-15-.98-5.94,12.67,3.58,4.94,16.9,7.79,23.2.03Z"/>
    <path class="cls-6" d="m1874.65,755.25c.02,5.56,5.31,10.72,8.04,10.6,6.53-.54,1.2-7.17,1.2-7.17,0,0,5.79,6.34,8.79,1.68,1.11-1.9-3.04-7.49-9.73-9.74,5.73-.69,6.42-5.95,3.86-8.17-6.21-5.6-8.46-.2-8.46-.2,0,0,1.33-5.85-5.82-7.81-2.61-.6-2.26,8.48-.92,10.24-5.12-3.4-12.35-5.21-12.65-3.16-.32,6.14,7.04,7.22,7.04,7.22,0,0-7.4-.49-2.97,6.13,2.22,2.8,8.53,4.16,11.62.38Z"/>
    <path class="cls-4" d="m1539.23,571.65c-8.87,10.71-1.03,27.84,7.02,31.05,20.95,8.4,15.13-11.71,15.13-11.71,0,0,7.61,20.12,24.3,15.61,6.49-1.9,3.17-18.54-13.76-31.84,18.78,6.43,29.3-2.47,25.53-9.98-9.83-19.39-25.25-11.87-25.25-11.87,0,0,13.98-9.17-5.51-23.25-7.02-4.99-19.48-1.05-20.34,12.42-1-5.55-1.71-11.09-1.69-16.33-.08-2.99.27-5.69.71-8.53.64-2.69,1.21-5.23,2.49-7.47.09-.15.17-.3.35-.6-2.22-1.36-4.64-2.88-6.86-4.24-.08.15-.25.45-.34.6-.73,2.84-1.34,5.98-1.56,8.97-.31,3.14-.02,6.29.18,9.58.58,5.24,1.67,10.64,3.06,16.04-10.27-13.4-25.05-19.51-29.07-15.65-11.12,10.99,10.12,23.58,10.12,23.58,0,0-21.59-10.95-18.79,7.64,1.17,7.35,18.74,19.01,34.28,15.98Z"/>
    <path class="cls-6" d="m1544.82,563.78c-4.17,5.15-.46,13.18,3.43,14.7,9.95,3.93,7.31-5.43,7.31-5.43,0,0,3.65,9.66,11.54,7.35,3.18-.86,1.47-8.73-6.52-15.01,8.98,3.03,14.03-1.08,12.22-4.65-4.59-9.07-11.97-5.58-11.97-5.58,0,0,6.62-4.25-2.6-10.98-3.38-2.4-10.02,6-9.18,8.67-4.94-6.41-14.24-13-16.03-10.94-5.35,5.14,4.88,11.15,4.88,11.15,0,0-10.36-5.27-8.95,3.64.08,2.96,8.49,8.51,15.87,7.09Z"/>
    <path class="cls-2" d="m1622.58,220.73l-21.79-45.45c-.12-.28-.33-.42-.45-.7-2.46-2.67-20.15-21.51-29.89-11.46-12.71,13.07,3.58,35.23,26.3,44.66,10.78,4.71,26.69,14.91,25.83,12.95Z"/>
    <path class="cls-1" d="m1623.78,218.03l-23.14-50.39c-.13-.31-.27-.62-.18-.77-.08-3.08-.76-24.52,19.45-14.24,26.4,13.44,31.64,38.17,17.85,50.01-6.88,5.61-13.07,17.56-13.98,15.39Z"/>
    <path class="cls-3" d="m1621.14,220.21l-12.59-26.41c-.2-.14-.12-.28-.32-.42-1.39-1.54-11.63-12.5-17.38-6.73-7.4,7.56,2.05,20.32,15.21,25.89,6.19,2.71,15.57,8.79,15.08,7.67Z"/>
    <path class="cls-3" d="m1621.84,218.71l-13.38-29.34c-.22-.16-.13-.31-.05-.46-.17-1.85-.51-14.2,11.2-8.34,15.23,7.76,18.39,22.15,10.29,28.83-4.14,3.5-7.54,10.55-8.06,9.31Z"/>
    <path class="cls-2" d="m1612.59,220.33l-16.72,38.21c-.09.15-.17.31-.04.62.3,3.28,2.87,25.5,22.75,28.1,25.68,3.3,27.76-19.48,11.23-41.1-8.24-10.57-16.65-27.39-17.22-25.84Z"/>
    <path class="cls-1" d="m1618.2,229.08l-16.86,38.67c-.09.16-.18.31-.27.47-2.35,1.39-19.18,11.29-31.99-7.99-16.62-24.71-1.99-39.54,22.22-34.33,11.24,2.2,27.48,1.61,26.9,3.19Z"/>
    <path class="cls-3" d="m1614.9,219.93l-9.72,22.07q-.09.16.04.47c.18,1.88,1.79,14.87,13.07,16.26,15.02,1.91,16.04-11.36,6.39-23.83-4.56-6.15-9.25-15.9-9.78-14.97Z"/>
    <path class="cls-3" d="m1618.17,225.03l-9.81,22.32-.18.31c-1.37.77-11.16,6.49-18.58-4.66-9.68-14.34-1.08-22.93,12.81-19.91,6.73,1.35,16.29,1,15.76,1.94Z"/>
    <path class="cls-2" d="m1541.23,219.31c.04-.57.29-.99.75-1.27,30.19-11.59,80.01,10.41,82.12,11.28,1.41.58,2.52,2.16,2.23,3.15-.08,1.14-1.41,1.4-2.82.82-.49-.15-49.61-21.85-78.22-10.96-1.12.41-2.74-.31-3.52-1.46-.34-.43-.58-1-.54-1.57Z"/>
    <path class="cls-2" d="m1618.42,214.14l50.24,13.82c.28,0,.49.14.69.28,3.13,1.95,25.26,15.74,16.11,26.19-11.89,13.56-37.08,1.52-49.98-18.06-6.34-9.52-19.22-22.93-17.06-22.23Z"/>
    <path class="cls-1" d="m1620.66,209.3l52.42,15.07c.3,0,.51.15.81.16,3.14-.26,24-2.67,11.14-20.35-16.73-22.93-41.75-24.74-51.15-10.01-4.59,6.92-15.48,14.36-13.22,15.13Z"/>
    <path class="cls-3" d="m1619.08,216.05l29.08,7.99c.2.14.28,0,.48.14,1.92,1.12,14.65,9.06,9.26,15.17-6.74,7.87-21.48.86-29.03-10.45-3.57-5.52-11.05-13.13-9.79-12.85Z"/>
    <path class="cls-3" d="m1620.36,213.26l30.33,8.7c.22.15.3,0,.51.15,1.87-.12,14.03-1.46,6.51-11.8-9.68-13.34-24.12-14.27-29.57-5.87-2.68,4.12-9.09,8.5-7.78,8.81Z"/>
    <path class="cls-2" d="m1895.83,54.52l-35.31-24.09c-.2-.14-.41-.28-.69-.28-2.56-.98-19.87-6.48-16.77,5.95,3.94,16.26,22.91,25.19,36.17,21.24,6.55-1.84,18.02-1.85,16.6-2.82Z"/>
    <path class="cls-1" d="m1899.42,47.44l-35.29-24.07c-.21-.14-.41-.28-.61-.42-1.91-2.06-13.82-16.49-1.9-18.67,15.53-2.97,31.05,11.63,33.21,26.09,1.04,6.82,6.01,18.04,4.59,17.07Z"/>
    <path class="cls-3" d="m1896.13,51.46l-20.5-13.98-.2-.14c-1.46-.42-11.45-3.8-9.81,3.44,2.34,9.43,13.26,14.59,20.91,12.35,3.58-1.19,10.41-1.12,9.6-1.67Z"/>
    <path class="cls-3" d="m1898.21,47.37l-20.49-13.98-.2-.14c-.98-1.24-8.03-9.49-1.15-10.92,9.03-1.68,17.99,6.73,19.27,15.06.48,3.96,3.39,10.53,2.57,9.98Z"/>
    <path class="cls-2" d="m1893.38,46.49l16.03,34.32q.13.28.33.42c1.93,2.11,15.09,16.48,22.49,8.89,9.88-9.78-2.37-26.64-19.45-33.94-8.16-3.3-20.02-11.1-19.4-9.7Z"/>
    <path class="cls-1" d="m1892.54,48.54l17.02,37.99.26.62c.22,2.32.29,18.35-14.84,10.45-19.83-10.43-23.6-29.14-12.94-37.63,5.01-3.94,9.84-12.98,10.5-11.43Z"/>
    <path class="cls-3" d="m1894.58,46.9l9.28,19.89.13.28c1.06,1.13,8.77,9.58,13.13,5.17,5.68-5.65-1.29-15.34-11.18-19.64-4.88-2.01-11.81-6.4-11.36-5.7Z"/>
    <path class="cls-3" d="m1894.11,48.1l9.86,22.02.13.31c.12,1.39.07,10.64-8.67,6.05-11.39-5.85-13.73-16.83-7.51-21.83,2.83-2.28,5.71-7.33,6.19-6.55Z"/>
    <path class="cls-2" d="m1859.74,88.87c-.38-.52-.66-1.21-.46-1.55,3.42-29.24,37.54-39.01,39.05-39.34.86-.33,2.36.54,3.12,1.57.75,1.03.41,2.23-.44,2.56-.34,0-34.12,9.77-37.25,37.3-.24,1.02-1.1,1.36-2.47.83-.7-.52-1.17-.87-1.55-1.38Z"/>
    <path class="cls-2" d="m1897.43,38.5l26.34-15.48c.09-.15.38-.14.38-.14,2.39.03,19.05-.21,22.84,13.57,4.97,17.97-11.69,21.34-28.99,11.72-8.47-4.58-21.81-9.08-20.57-9.66Z"/>
    <path class="cls-1" d="m1900.28,43.38l27.35-16.39c.09-.16.18-.31.27-.47.75-1.89,6.52-15.39-9.13-23.01-20.29-9.89-29.77,2.46-23.64,19.75,2.95,8.56,3.87,20.73,5.15,20.11Z"/>
    <path class="cls-3" d="m1896.96,41.78l15.34-8.9s.08-.15.3,0c1.27-.13,10.9-.16,13.24,7.77,2.76,10.32-6.78,12.29-16.83,6.79-5.02-2.75-12.52-5.38-12.05-5.67Z"/>
    <path class="cls-3" d="m1898.6,44.59l15.94-9.43s.08-.16.17-.31c.62-1.1,3.82-8.95-5.25-13.33-11.76-5.68-17.29,1.36-13.68,11.51,1.59,4.92,2.33,11.87,2.82,11.56Z"/>
    <path class="cls-2" d="m1714.44,689.77l31.38,43.42c.12.28.32.42.53.56,2.89,2.36,23.36,18.5,29.14,5.53,7.42-16.66-12.76-36.64-35.01-41.68-10.68-2.31-27.26-9.63-26.04-7.83Z"/>
    <path class="cls-1" d="m1711.45,693.76l32.91,47.37c.13.3.34.45.47.75.89,3.15,7.07,25.36-13.11,19.12-26.02-8.11-37.01-32.92-28-48.05,4.18-7.27,6.45-21.15,7.73-19.19Z"/>
    <path class="cls-3" d="m1715.34,691.24l18.2,25.14c.2.14.12.28.32.41,1.75,1.39,13.67,10.7,16.95,3.34,4.38-9.68-7.37-21.18-20.28-24.06-6.31-1.44-16.04-5.79-15.19-4.82Z"/>
    <path class="cls-3" d="m1713.62,693.52l19.09,27.43c.21.15.12.3.34.45.46,1.8,4.17,14.7-7.6,11.11-15.05-4.67-21.48-19.1-16.23-27.7,2.18-4.3,3.5-12.36,4.4-11.3Z"/>
    <path class="cls-2" d="m1722.77,692.7l4.61-43.27c.08-.15-.05-.45-.17-.75-1.12-3.32-9.02-25.84-26.62-24.11-22.74,2.27-18.69,26.24.83,44.84,9.75,9.3,21.31,24.94,21.35,23.29Z"/>
    <path class="cls-1" d="m1718.82,686.33l4.79-45.44c.09-.16.18-.31.27-.47,1.55-2.19,13.95-16.41,30,1.01,20.85,22.7,11.89,41.86-10.36,42.05-10.71.18-24.74,4.58-24.7,2.85Z"/>
    <path class="cls-3" d="m1720.54,692.9l2.63-25.11c.08-.15-.13-.3-.04-.45-.69-1.97-5.31-14.97-15.29-13.9-13.16,1.34-10.85,15.22.45,26.05,5.4,5.34,12.25,14.46,12.25,13.41Z"/>
    <path class="cls-3" d="m1718.26,689.21l2.73-26.33q.09-.16.18-.31c1.01-1.25,8.1-9.37,17.38.7,12.15,13.26,6.87,24.24-6,24.4-6.28.08-14.29,2.66-14.29,1.55Z"/>
    <path class="cls-2" d="m1789.86,676.91c.17.75-.09,1.2-.35,1.65-24.24,20.16-75.39,6.76-77.53,6.28-1.54-.47-2.87-1.84-3.08-3.05-.13-1.35.82-1.95,2.23-1.78.51.16,50.93,13.25,73.89-5.72.73-.74,2.57-.27,3.77.8.56.61.81,1.21,1.07,1.82Z"/>
    <path class="cls-2" d="m1716.02,701.69l-48.16-4.01c-.29,0-.49-.14-.78-.15-3.27-1.29-26.62-11.54-21.31-24.8,6.64-17.41,32.2-9.91,49.18,8.6,8.02,8.83,23,20.52,21.07,20.36Z"/>
    <path class="cls-1" d="m1714.52,703.12l-50.99-4.5c-.31,0-.61,0-.7.14-2.64.89-20.75,8.49-4.53,25.14,21.26,21.78,44.04,17.78,48.48-.76,2.09-9.04,9.78-19.85,7.74-20.03Z"/>
    <path class="cls-3" d="m1715.95,698.56l-27.82-2.25c-.21-.14-.29,0-.49-.14-1.89-.72-15.36-6.69-12.47-14.43,3.91-9.94,18.74-5.76,28.47,5.03,4.7,5.19,13.38,11.94,12.31,11.79Z"/>
    <path class="cls-3" d="m1715.05,699.34l-29.45-2.53c-.22-.16-.31,0-.39.15-1.56.59-11.98,4.91-2.48,14.55,12.39,12.59,25.63,10.31,28.06-.41.92-5.36,5.39-11.6,4.26-11.77Z"/>
    <path class="cls-7" d="m1533.25,412.76l21.61,29.98c.21.14.13.27.33.41,1.95,1.53,16.15,12.78,20.04,3.92,5.17-11.46-8.7-25.18-24.14-28.63-7.21-1.86-18.81-6.92-17.84-5.68Z"/>
    <path class="cls-8" d="m1531.22,415.45l22.67,32.74c.22.15.13.3.26.6.6,2.1,4.73,17.41-9.01,13.04-17.83-5.61-25.5-22.61-19.22-32.99,2.69-5.2,4.27-14.75,5.3-13.39Z"/>
    <path class="cls-3" d="m1533.78,413.6l12.52,17.44.2.14c1.14.97,9.37,7.38,11.62,2.19,2.88-6.7-5.02-14.61-13.87-16.63-4.36-.87-11-3.69-10.47-3.13Z"/>
    <path class="cls-3" d="m1532.58,415.19l13.13,19.01.13.3c.43,1.35,2.85,10.21-5.25,7.56-10.46-3.28-14.76-13.05-11.26-19.14,1.92-2.82,2.69-8.34,3.25-7.74Z"/>
    <path class="cls-7" d="m1539.08,414.61l3.19-29.75c.09-.15-.13-.3-.04-.45-.82-2.27-6.16-17.68-18.32-16.49-15.72,1.6-12.78,18.04.62,31.01,6.46,6.1,14.47,16.89,14.55,15.69Z"/>
    <path class="cls-8" d="m1536.37,410.19l3.31-31.23c.09-.16.18-.31.18-.31,1.11-1.41,9.57-11.41,20.79.74,14.54,15.66,8.11,28.69-7.24,28.81-7.61.22-17.13,3.26-17.04,1.99Z"/>
    <path class="cls-3" d="m1537.39,414.89l1.76-17.28s.09-.15-.12-.3c-.43-1.36-3.47-10.27-10.49-9.61-8.99.94-7.5,10.43.29,17.9,3.94,3.66,8.52,9.89,8.56,9.29Z"/>
    <path class="cls-3" d="m1535.82,412.38l1.84-18.14.09-.16c.75-.78,5.58-6.56,11.9.47,8.26,9.11,4.62,16.64-4.14,16.69-4.11.11-9.73,1.77-9.69,1.14Z"/>
    <path class="cls-7" d="m1585.19,403.76c.05.45.09.9-.3,1.05-16.65,13.78-51.82,4.63-53.36,4.16-1.03-.31-2.01-1.23-2.09-2.13-.09-.9.55-1.5,1.58-1.18.3,0,35.17,9.14,50.79-3.89.56-.44,1.67-.28,2.44.48.56.61.82,1.21.94,1.51Z"/>
    <path class="cls-7" d="m1534.37,420.81l-33.04-2.73q-.28,0-.49-.15c-2.29-1-18.35-7.98-14.64-17.1,4.57-12.03,22.27-6.83,33.73,5.93,5.56,6.17,15.8,14.2,14.44,14.04Z"/>
    <path class="cls-8" d="m1533.3,421.8l-34.97-3.06q-.31,0-.39.15c-1.87.59-14.33,5.8-3.14,17.32,14.53,14.78,30.37,12.22,33.33-.49,1.22-6.43,6.6-13.74,5.17-13.91Z"/>
    <path class="cls-3" d="m1534.24,418.67l-19.27-1.61h-.29c-1.39-.57-10.57-4.57-8.51-9.96,2.68-6.91,12.8-4.02,19.64,3.41,3.31,3.65,9.21,8.3,8.43,8.15Z"/>
    <path class="cls-3" d="m1533.63,419.25l-20.38-1.8h-.31c-1.08.29-8.28,3.27-1.78,10.1,8.5,8.71,17.65,7.14,19.39-.21.87-3.67,3.91-7.93,3.08-8.1Z"/>
    <path class="cls-7" d="m1793.86,736.13l21.61,29.97c.2.14.12.28.32.42,1.95,1.53,16.15,12.78,20.05,3.92,5.16-11.46-8.71-25.18-24.15-28.64-7.21-1.86-18.73-7.05-17.83-5.67Z"/>
    <path class="cls-8" d="m1791.82,738.81l22.68,32.74c.21.15.13.3.25.6.6,2.1,4.73,17.41-9.01,13.04-17.83-5.61-25.5-22.6-19.22-32.99,2.78-5.35,4.36-14.9,5.3-13.39Z"/>
    <path class="cls-3" d="m1794.57,737.08l12.52,17.43.21.14c1.14.98,9.36,7.38,11.61,2.19,2.88-6.7-5.02-14.61-13.86-16.62-4.37-.88-11.13-3.97-10.48-3.14Z"/>
    <path class="cls-3" d="m1793.38,738.69l13.12,19,.13.3c.43,1.35,2.86,10.2-5.25,7.56-10.45-3.28-14.75-13.05-11.25-19.13,1.71-2.97,2.57-8.64,3.25-7.73Z"/>
    <path class="cls-7" d="m1799.69,737.98l3.18-29.76c.09-.15-.13-.3-.04-.45-.81-2.27-6.16-17.68-18.32-16.49-15.72,1.6-12.77,18.04.62,31.01,6.47,6.1,14.47,16.89,14.56,15.69Z"/>
    <path class="cls-8" d="m1796.98,733.56l3.31-31.22c.09-.16.17-.31.17-.31,1.11-1.41,9.57-11.41,20.8.74,14.53,15.66,8.1,28.69-7.25,28.81-7.52.06-17.12,3.25-17.03,1.99Z"/>
    <path class="cls-3" d="m1797.99,738.25l1.77-17.28s.08-.15-.13-.3c-.43-1.36-3.46-10.27-10.49-9.61-8.99.94-7.5,10.44.29,17.91,3.94,3.66,8.52,9.88,8.56,9.28Z"/>
    <path class="cls-3" d="m1796.43,735.74l1.83-18.14.09-.16c.75-.78,5.58-6.56,11.9.47,8.26,9.11,4.63,16.65-4.13,16.69-4.12.11-9.74,1.78-9.69,1.14Z"/>
    <path class="cls-7" d="m1845.8,727.12c.04.45.08.9-.3,1.05-16.66,13.78-51.83,4.63-53.37,4.16-1.02-.31-2.01-1.22-2.09-2.13-.09-.9.56-1.49,1.58-1.18.3,0,35.17,9.15,50.8-3.89.55-.45,1.67-.28,2.44.48.55.61.89,1.06.94,1.51Z"/>
    <path class="cls-7" d="m1794.98,744.18l-33.04-2.73q-.29-.01-.5-.15c-2.29-1-18.35-7.98-14.64-17.1,4.57-12.03,22.28-6.83,33.73,5.93,5.57,6.17,15.8,14.2,14.45,14.05Z"/>
    <path class="cls-8" d="m1793.9,745.17l-34.97-3.06q-.3-.01-.39.15c-1.87.59-14.32,5.8-3.14,17.31,14.53,14.78,30.37,12.22,33.33-.49,1.44-6.28,6.6-13.74,5.17-13.91Z"/>
    <path class="cls-3" d="m1794.84,742.04l-19.27-1.61h-.28c-1.4-.57-10.57-4.56-8.51-9.95,2.67-6.92,12.8-4.03,19.63,3.41,3.31,3.65,9.21,8.3,8.43,8.15Z"/>
    <path class="cls-3" d="m1794.24,742.62l-20.39-1.8h-.3c-1.09.29-8.29,3.26-1.79,10.1,8.5,8.71,17.65,7.14,19.39-.21.87-3.67,3.91-7.93,3.09-8.09Z"/>
    <path class="cls-7" d="m2039.59,110.48l-33.04-2.73q-.28,0-.49-.14c-2.29-1-18.35-7.98-14.64-17.1,4.57-12.03,22.27-6.83,33.73,5.93,5.36,6.03,15.59,14.06,14.44,14.05Z"/>
    <path class="cls-8" d="m2038.52,111.47l-34.97-3.06q-.31,0-.4.15c-1.86.59-14.32,5.81-3.13,17.31,14.53,14.78,30.37,12.22,33.32-.49,1.22-6.43,6.39-13.89,5.18-13.91Z"/>
    <path class="cls-2" d="m1553.12,474.2l-7.7,30.1c-.08.15-.17.3.05.46.52,2.31,4.49,18.91,18.14,19.09,17.9.23,16.79-17.11,3.49-31.84-6.32-7.13-13.9-19.03-13.98-17.81Z"/>
    <path class="cls-1" d="m1556.62,479.74l-7.88,31.05c-.09.16-.17.31-.26.47-1.42,1.4-12.06,10.28-22.89-3.14-13.89-17.41-5.24-29.96,11.63-28.32,8.42.58,19.49-1.33,19.4-.07Z"/>
    <path class="cls-3" d="m1554.95,473.92l-4.43,17.4s-.09.15.13.31c.22,1.23,2.64,10.91,10.52,11.01,10.3.13,9.66-9.98,2-18.5-3.81-4.03-8.18-10.82-8.22-10.21Z"/>
    <path class="cls-3" d="m1556.98,477.12l-4.54,17.95-.09.16c-.75.78-7.08,5.91-13.27-1.91-8.04-10.05-3.03-17.25,6.75-16.34,4.69.53,11.19-.49,11.15.14Z"/>
    <path class="cls-2" d="m1559.26,468.43l32.54-7.58c.09-.16.39-.15.39-.15,1.41-1.39,10.76-11.31-3.41-21.38-18.43-12.94-31.51-4.64-29.64,11.23.92,7.7-1.07,18.34.12,17.88Z"/>
    <path class="cls-1" d="m1557.67,465.81l30.78-6.93c.08-.14.29,0,.58,0,2.37.46,19.48,3.81,19.76,15.85.52,15.61-17.3,14.97-32.48,3.33-7.61-5.53-19.76-11.84-18.64-12.25Z"/>
    <path class="cls-3" d="m1558.66,470.73l18.89-4.31s.09-.16.31,0c.75-.78,6.26-6.67-1.97-12.42-10.64-7.51-18.31-2.74-17.04,6.53.08,4.24-.98,10.5-.19,10.19Z"/>
    <path class="cls-3" d="m1557.76,469.26l17.87-3.94h.29c1.37.16,11.28,2.29,11.35,9.16.29,9.02-10.04,8.61-18.73,1.92-4.5-3.35-11.53-6.87-10.78-7.14Z"/>
    <path class="cls-2" d="m1607.97,503.4c-.35.12-.7.23-1.17.11-27.66-6.95-52.61-31.75-53.8-32.82-.61-.71-.79-1.66-.09-1.89.7-.23,1.7-.11,2.51.72.3.36,24.95,24.8,51.03,31.28.93.24,1.81.95,1.8,1.78.03.35-.13.59-.28.83Z"/>
    <path class="cls-2" d="m1560.27,472.96l-32.01-27.29c-.2-.14-.41-.28-.33-.42-1.35-2.12-11.26-17.24,1.39-17.51,16.77-.37,30.09,15.35,29.58,28.95-.26,6.31,2.52,17.28,1.37,16.28Z"/>
    <path class="cls-1" d="m1557.05,478.65l-31.55-26.49c-.21-.14-.41-.28-.61-.42-2.48-1.12-19.12-8.65-18.38,2.94,1.18,15.14,18.87,25.68,33.22,24.2,6.84-.88,18.46.74,17.32-.22Z"/>
    <path class="cls-3" d="m1558.53,473.15l-18.52-15.8s-.21-.14-.13-.28c-.78-1.13-6.53-10.05.84-10.24,9.69-.17,17.39,8.91,17.09,16.77-.01,3.93,1.55,10.13.72,9.56Z"/>
    <path class="cls-3" d="m1556.65,476.45l-18.25-15.33-.21-.14c-1.3-.7-11-5.03-10.74,1.66.75,8.73,11.02,14.98,19.28,14.11,3.83-.64,10.74.25,9.92-.3Z"/>
    <path class="cls-2" d="m1955.93,757.14l38.23,18.9c.2.15.49.15.49.15,2.45.32,19.6,2.93,13.4-10.34-8.22-17.27-27.61-23.04-38.4-15.64-4.97,3.49-15.26,6.06-13.72,6.93Z"/>
    <path class="cls-1" d="m1953.21,762.85l37.47,18.12c.2.14.41.27.61.41,2.07,1.8,16.87,14.76,6.94,19.84-12.82,6.54-30.52-5.92-36.41-20.83-2.71-7.39-10.12-18.37-8.61-17.54Z"/>
    <path class="cls-3" d="m1955.62,760.45l22.13,11.07q.21.14.29,0c1.37.16,11.37,1.56,7.73-6.16-4.64-10.01-16.08-13.41-22.14-9.08-2.78,2.24-8.72,3.88-8.01,4.17Z"/>
    <path class="cls-3" d="m1954.03,763.8l21.68,10.59.4.28c1.34,1.1,9.74,8.55,3.96,11.49-7.41,3.73-17.68-3.46-21.07-12.08-1.45-4.24-5.66-10.56-4.97-10.28Z"/>
    <path class="cls-2" d="m1957.42,767.42l-23.33-32.92c-.2-.13-.32-.41-.32-.41-2.08-1.81-17.63-14.19-22.01-4.49-5.82,12.56,9.31,27.54,26.14,31.57,7.99,2.01,20.5,7.49,19.52,6.25Z"/>
    <path class="cls-1" d="m1959.61,764.55l-24.5-35.97c-.21-.15-.12-.3-.25-.6-.73-2.41-4.99-19.1,10-14.26,19.82,6.4,27.75,25.08,20.66,36.38-3.17,5.51-4.88,15.82-5.91,14.46Z"/>
    <path class="cls-3" d="m1956.62,766.33l-13.54-19.08s-.2-.14-.12-.28c-1.34-1.11-10.09-8.07-12.8-2.61-3.48,7.24,5.35,15.98,15.17,18.28,4.77,1.15,11.94,4.52,11.29,3.69Z"/>
    <path class="cls-3" d="m1957.87,764.68l-14.21-20.85-.13-.3c-.42-1.36-2.94-11.12,5.9-8.16,11.4,3.74,16.09,14.43,12.03,20.97-1.79,3.12-2.91,9.24-3.59,8.34Z"/>
    <path class="cls-2" d="m1979.45,712.78c.38.53.77,1.06,1.05,1.77,4.59,33.13-23.88,52.1-25.05,52.97-.74.7-2.15.16-3.26-.9-1.11-1.07-1.1-2.3-.36-3,.44-.17,28.37-18.79,23.92-50.34-.09-1.06.64-1.76,1.91-1.57.82.36,1.3.71,1.79,1.07Z"/>
    <path class="cls-2" d="m1954.68,773.67l-19.49,23.47c-.09.15-.17.31-.39.15-2.19.59-16.95,4.9-24.01-9.77-9.28-18.87,4.65-26.6,22.98-19.85,8.65,3.21,21.74,5.08,20.91,6Z"/>
    <path class="cls-1" d="m1950.68,767.18l-19.78,23.96c-.09.15-.18.31-.27.47-.31,2.21-1.75,18.01,13.75,22.64,20.37,5.96,25.66-9.48,15.71-26.7-4.59-8.44-8.56-21.31-9.41-20.37Z"/>
    <path class="cls-3" d="m1954.97,770.43l-11.35,13.48-.09.16c-1.18.45-9.91,2.81-13.96-5.76-5.4-11.06,2.63-15.45,13.27-11.44,5.06,1.92,12.48,2.95,12.13,3.56Z"/>
    <path class="cls-3" d="m1952.67,766.68l-11.53,13.78q-.09.16-.18.32c-.09,1.26-.9,10.43,7.91,13.08,11.78,3.47,14.9-5.35,9.1-15.56-2.6-4.78-4.94-12.24-5.3-11.62Z"/>
    <path class="cls-4" d="m2023.86,71.65c.29,11.57,11.12,22.2,16.35,21.8,13.67-.77,2.56-14.44,2.56-14.44,0,0,12.03,13.1,18.17,3.6,2.48-3.74-6.22-15.51-20-20.1,11.84-1.65,13.3-12.19,8.17-17-12.87-11.66-17.38-.42-17.38-.42,0,0,2.96-12.12-12.32-16.14-5.59-1.49-9.97,6-4.86,16.88-2.92-4.07-5.54-8.14-7.65-12.05-1.29-2.32-2.29-4.64-3.07-6.82-.79-2.17-1.49-4.49-1.99-6.66.09-.14-.04-.43-.04-.43-1.58-.3-3.46-.6-5.05-.9.12.29.04.43.25.58.83,2.61,1.74,5.07,2.94,7.54,1.2,2.47,2.62,5.08,4.2,7.4,2.41,3.92,5.19,7.7,8.27,11.48-10.67-6.87-20.37-6.37-20.55-2.03-.8,12.43,14.74,15,14.74,15,0,0-15-.98-5.94,12.68,3.58,4.94,16.82,7.93,23.2.03Z"/>
    <path class="cls-4" d="m1823.86,42.79c1.66-2.87-4.58-7.18-6.24-4.32-1.75,3.02,4.49,7.33,6.24,4.32Z"/>
    <path class="cls-4" d="m1843.98,71.13c1.66-2.86-4.57-7.16-6.22-4.3-1.66,2.86,4.57,7.16,6.22,4.3Z"/>
    <path class="cls-4" d="m1755.32,67.84c.08-.15-.33-.42-.41-.28-.09.15.32.42.41.28Z"/>
    <path class="cls-4" d="m1773.81,124.98c-.13-.33.09-.17,0,0-.32,0-.1.17,0,0Z"/>
    <path class="cls-4" d="m1748.63,74.83c.51.14,1.02.28,1.53.42.31,0,.39-.16.69-.17.39-.16.78-.33,1.05-.79l.84-.94c.17-.31.35-.62.23-.93-.04-.46-.16-.76-.28-1.07s-.46-.76-.58-1.06c-.34-.45-.55-.6-.97-.9-.21-.15-.42-.3-.85-.59-.51-.14-1.02-.28-1.62-.27-.3,0-.39.16-.69.17-.39.16-.78.33-1.05.79l-.41,1.24c-.18.31-.36.62-.23.93.03.46-.06.62.28,1.07.12.3.45.76.58,1.06.33.45.54.6.96.9.09-.16.31,0,.52.14Z"/>
    <path class="cls-4" d="m1697.47,174.57c2.27-3.92-6.04-9.65-8.3-5.74-1.98,3.91,6.12,9.5,8.3,5.74Z"/>
    <path class="cls-4" d="m1766.77,138.11c2.27-3.91-6.04-9.65-8.3-5.74-2.18,3.76,6.12,9.5,8.3,5.74Z"/>
    <path class="cls-4" d="m1659.28,114.28c2.26-3.92-6.04-9.65-8.31-5.74-2.18,3.76,6.12,9.5,8.31,5.74Z"/>
    <path class="cls-4" d="m1546.33,298.24c2.27-3.93-6.05-9.68-8.32-5.75-2.27,3.92,6.05,9.68,8.32,5.75Z"/>
    <path class="cls-4" d="m1601.69,300.21c2.27-3.92-6.05-9.68-8.32-5.75s6.05,9.68,8.32,5.75Z"/>
    <path class="cls-4" d="m1596.82,427.58c-.91-1.52-1.53-3.04-2.44-4.55,2,1.18,4.1,1.13,5.08-.59,2.32-4.05-6.16-9.99-8.48-5.94-1.24,2.18.55,4.75,2.98,6.23l2.56,4.86c.13.3.43.3.3,0Z"/>
    <path class="cls-4" d="m1597.6,402.55c2.27-3.92-6.04-9.68-8.31-5.75-2.27,3.92,6.04,9.68,8.31,5.75Z"/>
    <path class="cls-4" d="m1513.64,522.01c2.27-3.92-6.05-9.68-8.32-5.75-2.27,3.92,6.04,9.68,8.32,5.75Z"/>
    <path class="cls-4" d="m1596.57,525.14c2.27-3.92-6.04-9.65-8.3-5.74-2.18,3.77,6.12,9.5,8.3,5.74Z"/>
    <path class="cls-4" d="m1612.2,555.67c2.27-3.92-6.04-9.68-8.31-5.75-2.28,3.92,6.04,9.68,8.31,5.75Z"/>
    <path class="cls-4" d="m1588.72,633.56c2.27-3.91-6.03-9.65-8.3-5.74-1.97,3.91,6.12,9.5,8.3,5.74Z"/>
    <path class="cls-4" d="m1668.14,645.44l.73.29c.51.14.81.13,1.2-.03,1.59-.19,3.26-.54,4.64-.88.3,0,.48-.32.57-.47.18-.31.26-.47.44-.78.06-.61-.1-1.37-.43-1.82-.55-.6-1.09-1.2-1.82-1.48-.72-.29-1.32-.27-1.92-.26l-4.4,1.48c-.39.16-.95.64-.92,1.09.03.46.19,1.22.52,1.67.25.61.88,1.05,1.39,1.19Z"/>
    <path class="cls-4" d="m1629.98,667.14c1.14-1.96-3.02-4.84-4.15-2.88-1.35,1.82,3.02,4.84,4.15,2.88Z"/>
    <path class="cls-4" d="m1839.71,700.25c.5.13.91.41,1.4.55.21.14.29,0,.5.13.29,0,.5.13.58-.01q.29,0,.38-.16c.29,0,.38-.15.46-.3.09-.15.18-.3.18-.3.08-.15-.12-.29-.04-.43-.12-.29-.03-.43-.23-.57-.12-.29-.33-.43-.45-.72-.32-.43-.73-.71-1.06-1.14-.41-.28-.82-.56-1.02-.7-.41-.28-.7-.27-1.29-.26q-.29,0-.58.01c-.38.15-.46.3-.63.6-.09.15-.26.44-.14.73-.09.15.03.43.15.72.12.29.44.71.77,1.14.2.14.61.42,1.02.7Z"/>
    <path class="cls-4" d="m1818.18,691.3c2.27-3.91-6.03-9.65-8.3-5.74-1.97,3.91,6.12,9.5,8.3,5.74Z"/>
    <path class="cls-4" d="m1848.44,791.76c2.27-3.93-6.04-9.68-8.31-5.76-2.27,3.93,6.04,9.68,8.31,5.76Z"/>
    <path class="cls-4" d="m1897.13,796.63c2.27-3.93-6.04-9.68-8.31-5.76-2.27,3.93,6.04,9.68,8.31,5.76Z"/>
    <path class="cls-4" d="m1928.23,708.12c2.27-3.92-6.04-9.68-8.31-5.75-2.28,3.92,6.04,9.68,8.31,5.75Z"/>
    <path class="cls-4" d="m1907.21,710.87c1.74-3.02-4.7-7.47-6.44-4.45-1.75,3.02,4.69,7.47,6.44,4.45Z"/>
    <path class="cls-4" d="m1990.94,104.17c.27-.46-.57-1.04-.84-.58-.47.31.58,1.04.84.58Z"/>
    <path class="cls-4" d="m1959.71,83.3c2.27-3.92-6.03-9.65-8.3-5.74-1.97,3.91,6.12,9.5,8.3,5.74Z"/>
    <path class="cls-4" d="m1975.07,108.68c2.27-3.93-6.05-9.68-8.32-5.75-2.27,3.93,6.05,9.68,8.32,5.75Z"/>
    <path class="cls-4" d="m1976.97,21.79c2.27-3.92-6.03-9.65-8.3-5.74-2.18,3.76,6.12,9.5,8.3,5.74Z"/>
    <path class="cls-4" d="m1983.06,91.78c2.27-3.92-6.03-9.65-8.3-5.74-1.97,3.91,6.12,9.5,8.3,5.74Z"/>
    <path class="cls-4" d="m1802.93,52.54c2.27-3.92-6.04-9.67-8.31-5.75-2.18,3.77,6.04,9.67,8.31,5.75Z"/>
    <path class="cls-4" d="m1840.88,87.71c2.27-3.92-6.04-9.68-8.32-5.75-2.27,3.92,6.05,9.68,8.32,5.75Z"/>
    <path class="cls-4" d="m1836.47,20.42c2.27-3.92-6.04-9.65-8.3-5.74-2.18,3.76,6.12,9.5,8.3,5.74Z"/>
    <path class="cls-4" d="m1683.46,616.77c2.27-3.92-6.04-9.67-8.31-5.75-2.18,3.77,6.04,9.67,8.31,5.75Z"/>
    <path class="cls-1" d="m1832.87,46.57c2.27-3.91-6.04-9.65-8.31-5.74-1.97,3.91,6.13,9.5,8.31,5.74Z"/>
    <path class="cls-1" d="m1807.93,32.18c2.27-3.92-6.04-9.65-8.3-5.74-1.98,3.91,6.12,9.5,8.3,5.74Z"/>
    <path class="cls-1" d="m1752.13,82.95c2.27-3.92-6.05-9.68-8.32-5.75-2.27,3.92,6.05,9.68,8.32,5.75Z"/>
    <path class="cls-1" d="m1764.53,133.34c2.27-3.93-6.04-9.68-8.31-5.75-2.07,4.07,6.04,9.68,8.31,5.75Z"/>
    <path class="cls-1" d="m1704.35,160.07c2.27-3.92-6.04-9.68-8.31-5.75s6.04,9.68,8.31,5.75Z"/>
    <path class="cls-1" d="m1679.94,104.49c2.27-3.92-6.05-9.68-8.32-5.75-2.27,3.93,6.05,9.68,8.32,5.75Z"/>
    <path class="cls-1" d="m1649.76,142.02c2.27-3.91-6.04-9.65-8.3-5.74-1.98,3.91,6.12,9.5,8.3,5.74Z"/>
    <path class="cls-1" d="m1559.66,289.42c2.27-3.92-6.04-9.65-8.3-5.74-1.98,3.91,6.12,9.5,8.3,5.74Z"/>
    <path class="cls-1" d="m1590.26,285.37c2.27-3.92-6.05-9.68-8.32-5.75-2.06,4.07,6.05,9.68,8.32,5.75Z"/>
    <path class="cls-1" d="m1606.15,387.73c2.27-3.91-6.03-9.65-8.3-5.74-2.18,3.76,6.12,9.5,8.3,5.74Z"/>
    <path class="cls-1" d="m1579.41,393.8c2.27-3.93-6.05-9.68-8.32-5.75-2.27,3.92,6.05,9.68,8.32,5.75Z"/>
    <path class="cls-1" d="m1510.13,481.75c2.27-3.92-6.04-9.68-8.32-5.75-2.06,4.07,6.05,9.68,8.32,5.75Z"/>
    <path class="cls-1" d="m1601.07,526.01c2.28-3.93-6.04-9.68-8.31-5.75-2.27,3.93,6.04,9.68,8.31,5.75Z"/>
    <path class="cls-1" d="m1611.04,574.99c2.27-3.92-6.04-9.67-8.3-5.75-2.19,3.77,6.03,9.67,8.3,5.75Z"/>
    <path class="cls-1" d="m1587.26,604.48c2.27-3.91-6.03-9.65-8.3-5.74-1.97,3.91,6.12,9.5,8.3,5.74Z"/>
    <path class="cls-1" d="m1572.6,624.25c2.26-3.91-6.04-9.65-8.31-5.74-2.18,3.77,6.13,9.5,8.31,5.74Z"/>
    <path class="cls-1" d="m1569.28,584.11c2.27-3.92-6.04-9.67-8.31-5.74-2.18,3.77,6.04,9.67,8.31,5.74Z"/>
    <path class="cls-1" d="m1679.13,636.13c.52.14,1.03.29,1.55.43.31,0,.4-.17.7-.17.39-.17.79-.33.97-.65.36-.63,1.02-1.27,1.38-1.91.18-.32.36-.63.24-.94-.04-.47.05-.62-.29-1.08-.12-.31-.46-.77-.58-1.08-.34-.46-.55-.61-.98-.91-.22-.15-.43-.3-.86-.6-.52-.14-1.03-.29-1.55-.43-.31,0-.4.17-.7.17-.39.17-.79.33-1.06.81-.36.63-.59,1.57-.95,2.21-.18.32-.27.47-.24.94.04.47-.05.62.29,1.09.12.31.24.62.58,1.08.13.31.55.61.98.91-.12-.31.31,0,.52.14Z"/>
    <path class="cls-1" d="m1640.78,670.34c2.27-3.92-6.03-9.65-8.3-5.74-2.18,3.76,6.12,9.5,8.3,5.74Z"/>
    <path class="cls-1" d="m1782.91,689.17c2.27-3.92-6.04-9.65-8.3-5.74-2.18,3.77,6.12,9.5,8.3,5.74Z"/>
    <path class="cls-1" d="m1830.93,706.9c2.26-3.91-6.04-9.65-8.31-5.74-2.18,3.76,6.12,9.5,8.31,5.74Z"/>
    <path class="cls-1" d="m1844.64,758.05c2.27-3.91-6.03-9.65-8.3-5.74-2.18,3.77,6.12,9.51,8.3,5.74Z"/>
    <path class="cls-1" d="m1863.46,722.43c2.26-3.91-6.04-9.65-8.31-5.74-2.18,3.77,6.13,9.5,8.31,5.74Z"/>
    <path class="cls-1" d="m1887.29,787.67c2.27-3.91-6.03-9.65-8.3-5.73-2.18,3.76,6.12,9.5,8.3,5.73Z"/>
    <path class="cls-1" d="m1860.92,787.44c2.27-3.91-6.03-9.65-8.3-5.73-2.18,3.76,6.12,9.5,8.3,5.73Z"/>
    <path class="cls-1" d="m1921.26,717.57c2.27-3.92-6.03-9.65-8.3-5.74-2.18,3.77,6.12,9.5,8.3,5.74Z"/>
    <path class="cls-1" d="m1975.73,689.07c2.27-3.93-6.04-9.68-8.31-5.75-2.07,4.07,6.04,9.68,8.31,5.75Z"/>
    <path class="cls-1" d="m1992.36,736.69c1.22-2.11-3.34-5.26-4.56-3.16-1.22,2.11,3.34,5.27,4.56,3.16Z"/>
    <path class="cls-1" d="m1969.24,31.97c.42.29.72.28,1.31.27.59-.01,1.27-.18,1.86-.19.29,0,.59-.01.68-.17.29,0,.38-.16.56-.46.08-.15.17-.3.14-.75.09-.15-.04-.45-.16-.74-.2-.14-.12-.3-.33-.44-.12-.3-.53-.58-.95-.87-.21-.14-.42-.29-.42-.29-.41-.29-.71-.28-1-.27-.59.02-1.39-.11-1.99-.1-.29,0-.59.01-.67.17-.3,0-.48.31-.56.46-.09.15-.27.45-.14.75-.09.15.03.45.15.74q.12.3.24.59c.33.44.54.58.95.87l.33.44Z"/>
    <path class="cls-1" d="m1958.77,91c2.26-3.92-6.04-9.65-8.31-5.74-2.18,3.77,6.13,9.5,8.31,5.74Z"/>
    <path class="cls-1" d="m1946.43,25.7c2.27-3.93-6.04-9.68-8.31-5.75-2.27,3.93,6.04,9.68,8.31,5.75Z"/>
    <path class="cls-1" d="m1856.72,75.11c1.04-1.81-2.9-4.53-3.94-2.72-1.05,1.81,2.89,4.53,3.94,2.72Z"/>
    <path class="cls-1" d="m1705.95,88c2.27-3.91-6.04-9.65-8.3-5.74-2.18,3.76,6.12,9.5,8.3,5.74Z"/>
    <path class="cls-7" d="m19.03,690.31l33.04-2.73q.29,0,.49-.14c2.29-1,18.35-7.98,14.65-17.1-4.57-12.03-22.28-6.83-33.73,5.93-5.36,6.03-15.59,14.06-14.45,14.05Z"/>
    <path class="cls-8" d="m20.11,691.31l34.97-3.06q.3,0,.39.15c1.87.59,14.32,5.8,3.14,17.32-14.53,14.78-30.37,12.22-33.33-.49-1.13-6.28-6.39-13.89-5.17-13.91Z"/>
    <path class="cls-5" d="m263.19,101.33c-.29,11.57-11.12,22.2-16.35,21.81-13.67-.77-2.56-14.44-2.56-14.44,0,0-12.04,13.1-18.17,3.61-2.48-3.74,6.22-15.52,19.99-20.1-11.83-1.65-13.29-12.19-8.17-17,12.88-11.66,17.39-.42,17.39-.42,0,0-2.97-12.12,12.32-16.14,5.6-1.49,9.97,6,4.87,16.88,2.91-4.07,5.53-8.14,7.65-12.06,1.29-2.32,2.28-4.64,3.07-6.82.79-2.17,1.49-4.49,1.98-6.67-.08-.14.04-.43.04-.43,1.59-.3,3.47-.6,5.05-.9-.12.29-.04.43-.25.58-.83,2.61-1.74,5.07-2.94,7.54-1.2,2.47-2.62,5.08-4.2,7.4-2.41,3.92-5.2,7.7-8.28,11.48,10.68-6.87,20.38-6.37,20.56-2.03.8,12.43-14.74,15-14.74,15,0,0,15-.98,5.94,12.68-3.7,5.23-17.03,8.08-23.2.03Z"/>
    <path class="cls-3" d="m263.91,92.97c-.02,5.56-5.31,10.72-8.04,10.6-6.52-.54-1.2-7.16-1.2-7.16,0,0-5.79,6.34-8.79,1.67-1.1-1.89,3.05-7.49,9.73-9.73-5.73-.69-6.42-5.95-3.86-8.17,6.21-5.61,8.46-.21,8.46-.21,0,0-1.32-5.85,5.82-7.8,2.61-.61,2.26,8.47.92,10.24,5.12-3.4,12.36-5.21,12.66-3.17.32,6.15-7.05,7.23-7.05,7.23,0,0,7.41-.49,2.97,6.13-2.01,2.65-8.53,4.16-11.61.38Z"/>
    <path class="cls-5" d="m86.74,64.88c-.23,6.65-6.35,12.77-9.45,12.5-7.94-.52-1.37-8.38-1.37-8.38,0,0-7.04,7.57-10.53,2.1-1.35-2.3,3.56-8.99,11.5-11.51-6.73-.96-7.63-7.03-4.76-9.65,7.46-6.85,9.86-.22,9.86-.22,0,0-1.7-6.93,7.12-9.45,3.3-.89,5.82,3.43,2.79,9.81,1.58-2.33,3.16-4.65,4.45-6.97.71-1.31,1.33-2.76,1.83-3.92.41-1.3.83-2.61,1.24-3.91,0,0-.08-.14.12-.29,1.09-.15,1.88-.3,2.97-.46l-.12.29c-.33,1.45-.95,2.9-1.57,4.35-.62,1.45-1.54,2.9-2.24,4.21-1.37,2.18-2.95,4.5-4.7,6.54,6.13-4.09,11.65-3.7,11.91-1.24.4,7.23-8.5,8.59-8.5,8.59,0,0,8.73-.64,3.41,7.35-2.54,3.2-10.18,4.7-13.96.25Z"/>
    <path class="cls-3" d="m87.32,59.91c-.11,3.37-3.14,6.33-4.49,6.04-3.71-.27-.6-4.1-.6-4.1,0,0-3.48,3.69-5.09.92-.59-1.02,1.67-4.26,5.62-5.61-3.2-.42-3.72-3.34-2.21-4.82,3.44-3.25,4.72-.04,4.72-.04,0,0-.77-3.37,3.35-4.42,1.51-.45,1.32,4.83.44,5.86,3.03-1.93,7.15-2.99,7.24-1.81.26,3.52-4.11,4.13-4.11,4.13,0,0,4.25-.32,1.74,3.51-1.05,1.77-4.96,2.67-6.61.34Z"/>
    <path class="cls-5" d="m486.46,328.43c-.23,6.65-6.35,12.77-9.44,12.5-7.94-.52-1.37-8.38-1.37-8.38,0,0-7.04,7.57-10.53,2.1-1.35-2.3,3.56-8.99,11.5-11.51-6.73-.96-7.63-7.03-4.76-9.65,7.46-6.85,9.86-.22,9.86-.22,0,0-1.7-6.93,7.11-9.45,3.3-.89,5.82,3.43,2.79,9.81,1.58-2.33,3.16-4.65,4.45-6.97.71-1.31,1.33-2.76,1.83-3.92.41-1.3.83-2.61,1.24-3.91,0,0-.08-.14.12-.29,1.09-.15,1.88-.3,2.97-.46l-.12.29c-.33,1.45-.95,2.9-1.57,4.35-.62,1.45-1.54,2.9-2.24,4.21-1.37,2.18-2.95,4.5-4.7,6.54,6.13-4.09,11.65-3.7,11.91-1.24.4,7.22-8.5,8.59-8.5,8.59,0,0,8.73-.64,3.41,7.35-2.62,3.05-10.39,4.85-13.96.25Z"/>
    <path class="cls-3" d="m486.75,323.38c-.11,3.37-3.14,6.33-4.49,6.04-3.71-.27-.6-4.1-.6-4.1,0,0-3.48,3.69-5.09.92-.59-1.02,1.67-4.26,5.62-5.61-3.2-.42-3.72-3.34-2.21-4.82,3.44-3.25,4.72-.03,4.72-.03,0,0-.77-3.37,3.35-4.42,1.51-.45,1.32,4.83.44,5.86,3.03-1.93,7.15-2.98,7.24-1.81.27,3.52-4.11,4.14-4.11,4.14,0,0,4.25-.32,1.74,3.51-1.05,1.77-4.75,2.53-6.61.34Z"/>
    <path class="cls-5" d="m237.22,760.83c-5.61-2.56-13.25.96-14.32,4.15-2.9,8.12,6.37,4.87,6.37,4.87,0,0-9.23,3.83-6.15,9.59,1.35,2.3,8.95.22,14.36-6.61-2.02,7.1,2.63,10.53,6.01,8.77,8.8-4.54,4.31-9.72,4.31-9.72,0,0,5.03,4.59,10.82-3.11,2.12-2.91-.4-7.23-6.96-6.89,2.59-.6,5.18-1.2,7.65-1.5,1.38-.16,2.84-.17,4.01-.18,1.25.14,2.51.27,3.76.41,0,0,.08.14.29,0,.58-1.02,1.04-1.75,1.62-2.76h-.29c-1.34-.28-2.8-.27-4.26-.26-1.46.01-3.05.31-4.43.47-2.38.45-4.97,1.05-7.39,1.93,5.96-4.38,7.95-10.03,6.02-11.32-5.82-3.43-10.69,4.85-10.69,4.85,0,0,4.19-8.42-4.66-6.47-3.72,1.18-8.37,8.3-6.05,13.78Z"/>
    <path class="cls-3" d="m241.42,762.46c-2.83-1.3-6.53.49-6.86,1.96-1.34,3.82,3.12,2.32,3.12,2.32,0,0-4.5,1.94-2.89,4.71.59,1.02,4.21.12,6.98-3.27-1,3.37,1.2,5.12,3.05,4.22,4.12-2.08,2.01-4.7,2.01-4.7,0,0,2.45,2.18,5.05-1.5,1.01-1.33-3.42-3.35-4.64-2.9,2.86-2.22,5.46-5.91,4.53-6.49-2.79-1.73-5.13,2.39-5.13,2.39,0,0,2.05-4.12-2.16-3.21-1.9.31-4.07,3.69-3.05,6.47Z"/>
    <path class="cls-5" d="m387.84,145.63c-5.61-2.56-13.25.96-14.32,4.15-2.9,8.12,6.37,4.87,6.37,4.87,0,0-9.22,3.83-6.15,9.59,1.34,2.3,8.94.22,14.35-6.61-2.02,7.1,2.63,10.53,6.01,8.77,8.8-4.55,4.31-9.72,4.31-9.72,0,0,5.03,4.59,10.82-3.12,2.12-2.91-.4-7.22-6.96-6.89,2.59-.6,5.18-1.2,7.64-1.5,1.38-.15,2.84-.17,4.01-.18,1.25.14,2.51.27,3.76.41,0,0,.08.14.29,0,.58-1.02,1.04-1.74,1.62-2.76h-.29c-1.34-.28-2.8-.27-4.27-.26-1.46.01-3.05.31-4.43.47-2.38.45-4.97,1.05-7.39,1.93,5.96-4.38,7.95-10.03,6.02-11.32-5.82-3.43-10.68,4.85-10.68,4.85,0,0,4.19-8.42-4.66-6.47-3.63,1.33-8.37,8.3-6.05,13.78Z"/>
    <path class="cls-3" d="m392.15,147.44c-2.83-1.3-6.53.49-6.86,1.96-1.33,3.82,3.12,2.32,3.12,2.32,0,0-4.5,1.94-2.89,4.71.59,1.02,4.21.11,6.98-3.28-1,3.38,1.2,5.12,3.05,4.23,4.12-2.08,2.01-4.7,2.01-4.7,0,0,2.45,2.18,5.05-1.5,1.01-1.33-3.42-3.35-4.64-2.9,2.86-2.22,5.46-5.9,4.53-6.48-2.79-1.74-5.13,2.38-5.13,2.38,0,0,2.05-4.12-2.16-3.21-1.89.31-4.07,3.7-3.05,6.47Z"/>
    <path class="cls-5" d="m438.17,627.49c-.29,11.57-11.12,22.2-16.35,21.8-13.67-.77-2.56-14.44-2.56-14.44,0,0-12.03,13.1-18.17,3.6-2.48-3.74,6.22-15.51,19.99-20.1-11.83-1.65-13.29-12.19-8.17-17,12.87-11.66,17.39-.42,17.39-.42,0,0-2.97-12.12,12.32-16.14,5.59-1.49,9.97,6,4.86,16.88,2.91-4.07,5.53-8.14,7.65-12.05,1.29-2.32,2.28-4.64,3.07-6.82.79-2.17,1.49-4.49,1.98-6.66-.08-.14.04-.43.04-.43,1.59-.3,3.47-.6,5.05-.9-.12.29-.04.43-.25.58-.83,2.61-1.74,5.07-2.94,7.54-1.2,2.47-2.62,5.08-4.2,7.4-2.41,3.92-5.2,7.7-8.28,11.48,10.68-6.87,20.38-6.37,20.56-2.03.8,12.42-14.74,15-14.74,15,0,0,15-.98,5.94,12.68-3.58,4.94-16.82,7.93-23.2.03Z"/>
    <path class="cls-3" d="m438.97,618.85c-.02,5.56-5.31,10.72-8.04,10.6-6.53-.54-1.2-7.16-1.2-7.16,0,0-5.79,6.34-8.79,1.67-1.1-1.89,3.05-7.49,9.73-9.73-5.73-.69-6.42-5.95-3.86-8.17,6.21-5.61,8.46-.21,8.46-.21,0,0-1.32-5.85,5.82-7.8,2.61-.61,2.26,8.47.92,10.24,5.12-3.4,12.36-5.21,12.66-3.17.31,6.15-7.05,7.22-7.05,7.22,0,0,7.4-.49,2.97,6.13-2.22,2.8-8.53,4.16-11.61.38Z"/>
    <path class="cls-4" d="m506.33,370.02c-.29,11.57-11.12,22.2-16.35,21.8-13.67-.77-2.56-14.44-2.56-14.44,0,0-12.03,13.1-18.17,3.6-2.48-3.74,6.22-15.51,19.99-20.1-11.83-1.65-13.29-12.19-8.17-17,12.88-11.66,17.39-.42,17.39-.42,0,0-2.97-12.12,12.32-16.14,5.6-1.49,9.97,6,4.87,16.88,2.91-4.07,5.53-8.14,7.65-12.05,1.29-2.32,2.28-4.64,3.07-6.82.79-2.17,1.49-4.49,1.98-6.66-.08-.14.04-.43.04-.43,1.59-.3,3.47-.6,5.05-.91-.12.29-.04.43-.25.58-.83,2.61-1.74,5.07-2.94,7.54-1.2,2.47-2.61,5.08-4.2,7.4-2.41,3.92-5.2,7.7-8.28,11.48,10.68-6.87,20.38-6.37,20.56-2.03.8,12.42-14.74,15-14.74,15,0,0,15-.98,5.94,12.68-3.58,4.94-16.82,7.93-23.2.03Z"/>
    <path class="cls-6" d="m507.13,361.39c-.02,5.57-5.31,10.73-8.04,10.6-6.53-.54-1.2-7.17-1.2-7.17,0,0-5.79,6.34-8.79,1.68-1.1-1.9,3.05-7.49,9.73-9.74-5.73-.69-6.42-5.96-3.86-8.17,6.21-5.61,8.46-.21,8.46-.21,0,0-1.32-5.85,5.82-7.8,2.61-.6,2.26,8.48.92,10.24,5.12-3.4,12.36-5.22,12.66-3.17.32,6.15-7.05,7.23-7.05,7.23,0,0,7.41-.49,2.97,6.13-2.14,2.94-8.53,4.16-11.62.38Z"/>
    <path class="cls-4" d="m329.57,105.24c-9.71-4.55-23.07,1.76-24.93,7.12-5.09,13.91,10.9,8.59,10.9,8.59,0,0-15.9,6.48-10.6,16.56,2.06,4.03,15.47.32,25.04-11.46-3.59,12.46,4.54,18.32,10.67,15.24,15.06-7.92,7.63-17.11,7.63-17.11,0,0,8.81,8.03,18.54-5.49,3.58-4.94-.8-12.42-11.95-11.91,4.59-1.19,9.06-2.09,13.2-2.55,2.46-.31,4.8-.32,6.94-.2,2.13.13,4.35.4,6.36.82.08.14.38.14.38.14.91-1.45,1.95-3.2,2.87-4.65-.29,0-.38-.14-.58,0-2.51-.27-4.93-.4-7.48-.23-2.55.16-5.31.47-7.89,1.07-4.26.75-8.56,1.94-12.99,3.42,10.17-7.74,13.81-17.59,10.3-19.59-9.97-6-18.61,8.38-18.61,8.38,0,0,7.1-14.51-8.02-11.21-5.6,1.49-13.54,13.54-9.74,23.05Z"/>
    <path class="cls-6" d="m337.09,108.06c-4.6-2.31-11.07.81-12.11,3.6-2.29,6.75,5.4,4.2,5.4,4.2,0,0-7.65,3.13-5.07,8.09,1.1,1.89,7.45.09,12.1-5.65-1.83,6.02,2.22,8.91,5.12,7.28,7.23-3.86,3.72-8.37,3.72-8.37,0,0,4.26,3.77,8.87-2.55,1.59-2.35-6.04-5.81-8.06-5.21,4.95-3.7,9.48-10.17,7.92-11.33-4.93-2.89-8.91,4.02-8.91,4.02,0,0,3.51-7.2-3.81-5.54-3.03.9-7.01,6.79-5.18,11.46Z"/>
    <path class="cls-4" d="m185.91,763.89c-.29,11.56-11.12,22.2-16.35,21.8-13.67-.76-2.56-14.43-2.56-14.43,0,0-12.03,13.09-18.17,3.6-2.48-3.74,6.22-15.51,19.99-20.1-11.83-1.64-13.29-12.18-8.17-16.99,12.87-11.66,17.39-.42,17.39-.42,0,0-2.97-12.12,12.32-16.13,5.59-1.49,9.97,6,4.87,16.88,2.91-4.07,5.53-8.13,7.65-12.05,1.29-2.32,2.28-4.64,3.07-6.82.79-2.17,1.49-4.49,1.98-6.66-.08-.14.04-.43.04-.43,1.59-.3,3.47-.6,5.05-.9-.12.29-.04.43-.25.58-.83,2.61-1.74,5.07-2.94,7.54-1.2,2.47-2.62,5.08-4.2,7.4-2.41,3.92-5.2,7.7-8.28,11.48,10.68-6.87,20.37-6.37,20.56-2.03.8,12.42-14.74,15-14.74,15,0,0,15-.98,5.94,12.67-3.58,4.94-16.9,7.79-23.2.03Z"/>
    <path class="cls-6" d="m186.71,755.25c-.02,5.56-5.31,10.72-8.04,10.6-6.53-.54-1.2-7.17-1.2-7.17,0,0-5.79,6.34-8.79,1.68-1.1-1.9,3.05-7.49,9.73-9.74-5.73-.69-6.42-5.95-3.86-8.17,6.21-5.6,8.46-.2,8.46-.2,0,0-1.32-5.85,5.82-7.81,2.61-.6,2.26,8.48.92,10.24,5.12-3.4,12.36-5.21,12.66-3.16.32,6.14-7.05,7.22-7.05,7.22,0,0,7.41-.49,2.97,6.13-2.22,2.8-8.53,4.16-11.61.38Z"/>
    <path class="cls-4" d="m522.15,571.65c8.86,10.71,1.03,27.84-7.02,31.04-20.95,8.4-15.13-11.71-15.13-11.71,0,0-7.61,20.12-24.3,15.61-6.49-1.9-3.17-18.54,13.76-31.84-18.78,6.43-29.3-2.47-25.53-9.98,9.83-19.39,25.25-11.87,25.25-11.87,0,0-13.97-9.17,5.51-23.25,7.02-4.99,19.48-1.05,20.34,12.42,1.01-5.55,1.71-11.09,1.7-16.33.08-2.99-.27-5.69-.71-8.53-.65-2.69-1.21-5.23-2.5-7.47-.09-.15-.17-.3-.34-.6,2.21-1.36,4.64-2.88,6.85-4.24.09.15.26.45.34.6.73,2.84,1.34,5.98,1.56,8.97.31,3.14.02,6.29-.18,9.58-.58,5.24-1.67,10.64-3.06,16.04,10.28-13.4,25.05-19.51,29.07-15.65,11.12,10.99-10.12,23.58-10.12,23.58,0,0,21.58-10.95,18.79,7.64-1.17,7.34-18.74,19.01-34.27,15.98Z"/>
    <path class="cls-6" d="m516.55,563.78c4.17,5.15.46,13.18-3.43,14.7-9.95,3.93-7.31-5.42-7.31-5.42,0,0-3.66,9.66-11.55,7.35-3.18-.86-1.47-8.73,6.52-15.02-8.97,3.03-14.03-1.08-12.22-4.65,4.59-9.07,11.98-5.58,11.98-5.58,0,0-6.62-4.25,2.59-10.98,3.38-2.4,10.02,6,9.18,8.67,4.94-6.41,14.24-13,16.03-10.94,5.36,5.14-4.88,11.15-4.88,11.15,0,0,10.37-5.27,8.95,3.64-.08,2.96-8.49,8.51-15.87,7.09Z"/>
    <path class="cls-2" d="m438.79,220.73l21.79-45.45c.12-.28.33-.42.45-.7,2.46-2.67,20.15-21.51,29.89-11.46,12.7,13.07-3.59,35.23-26.3,44.67-10.78,4.71-26.69,14.9-25.83,12.95Z"/>
    <path class="cls-1" d="m437.59,218.03l23.15-50.39c.13-.31.26-.62.17-.77.08-3.08.77-24.52-19.45-14.24-26.39,13.44-31.64,38.17-17.84,50.01,6.88,5.61,13.06,17.56,13.97,15.39Z"/>
    <path class="cls-3" d="m440.23,220.21l12.58-26.41c.21-.14.12-.28.33-.42,1.39-1.55,11.63-12.5,17.38-6.73,7.4,7.56-2.05,20.32-15.21,25.89-6.19,2.71-15.57,8.79-15.08,7.68Z"/>
    <path class="cls-3" d="m439.53,218.71l13.39-29.34c.22-.16.13-.31.04-.46.17-1.85.51-14.2-11.19-8.34-15.23,7.76-18.4,22.15-10.29,28.83,4.14,3.49,7.54,10.55,8.06,9.31Z"/>
    <path class="cls-2" d="m448.79,220.33l16.72,38.21c.09.16.18.31.04.62-.3,3.28-2.87,25.5-22.76,28.1-25.68,3.3-27.76-19.48-11.23-41.1,8.24-10.57,16.65-27.39,17.23-25.84Z"/>
    <path class="cls-1" d="m443.17,229.08l16.87,38.67c.09.16.18.31.27.47,2.35,1.39,19.18,11.29,31.99-7.99,16.61-24.71,1.99-39.54-22.22-34.33-11.24,2.2-27.49,1.61-26.91,3.19Z"/>
    <path class="cls-3" d="m446.47,219.93l9.73,22.07q.09.16-.04.47c-.17,1.88-1.79,14.87-13.07,16.26-15.01,1.91-16.04-11.36-6.39-23.83,4.56-6.15,9.25-15.9,9.78-14.97Z"/>
    <path class="cls-3" d="m443.21,225.03l9.81,22.32q.09.16.18.31c1.37.77,11.16,6.5,18.58-4.66,9.68-14.35,1.08-22.93-12.81-19.91-6.73,1.35-16.29,1-15.75,1.94Z"/>
    <path class="cls-2" d="m520.14,219.31c-.04-.57-.29-.99-.75-1.27-30.19-11.59-80.01,10.41-82.12,11.28-1.41.58-2.52,2.16-2.23,3.15.08,1.14,1.41,1.4,2.82.82.5-.15,49.61-21.85,78.23-10.96,1.12.41,2.73-.31,3.52-1.46.33-.43.58-1,.54-1.57Z"/>
    <path class="cls-2" d="m442.95,214.14l-50.24,13.82c-.29,0-.49.14-.69.28-3.13,1.95-25.26,15.74-16.11,26.19,11.89,13.56,37.08,1.52,49.98-18.06,6.33-9.52,19.21-22.94,17.06-22.23Z"/>
    <path class="cls-1" d="m440.72,209.3l-52.42,15.07c-.3,0-.51.15-.81.16-3.14-.26-24.01-2.67-11.14-20.35,16.73-22.93,41.75-24.74,51.15-10.01,4.59,6.92,15.47,14.36,13.22,15.13Z"/>
    <path class="cls-3" d="m442.29,216.05l-29.07,7.99c-.2.14-.29,0-.49.14-1.91,1.12-14.65,9.06-9.25,15.17,6.74,7.87,21.48.86,29.03-10.45,3.57-5.52,11.05-13.13,9.79-12.85Z"/>
    <path class="cls-3" d="m441.01,213.26l-30.33,8.7c-.21.15-.3,0-.51.15-1.87-.12-14.02-1.46-6.51-11.8,9.68-13.34,24.12-14.27,29.57-5.87,2.68,4.12,9.1,8.5,7.78,8.81Z"/>
    <path class="cls-2" d="m165.53,54.52l35.31-24.09c.2-.14.4-.28.69-.28,2.56-.98,19.86-6.48,16.77,5.95-3.94,16.26-22.9,25.19-36.17,21.24-6.55-1.84-18.02-1.85-16.6-2.82Z"/>
    <path class="cls-1" d="m161.94,47.44l35.29-24.07c.2-.14.41-.28.61-.42,1.91-2.06,13.81-16.49,1.9-18.67-15.53-2.97-31.06,11.63-33.21,26.09-1.04,6.82-6.01,18.04-4.59,17.07Z"/>
    <path class="cls-3" d="m165.23,51.46l20.49-13.98.2-.14c1.46-.42,11.46-3.8,9.81,3.44-2.33,9.43-13.26,14.59-20.91,12.35-3.58-1.19-10.41-1.12-9.6-1.67Z"/>
    <path class="cls-3" d="m163.14,47.37l20.49-13.98.2-.14c.97-1.24,8.03-9.49,1.15-10.92-9.03-1.68-17.99,6.73-19.27,15.06-.48,3.96-3.39,10.53-2.58,9.98Z"/>
    <path class="cls-2" d="m167.98,46.49l-16.04,34.32q-.12.28-.33.42c-1.93,2.11-15.08,16.48-22.49,8.89-9.87-9.78,2.38-26.64,19.45-33.94,8.17-3.3,20.02-11.1,19.41-9.7Z"/>
    <path class="cls-1" d="m168.82,48.54l-17.03,37.99q-.13.31-.26.62c-.22,2.32-.29,18.35,14.84,10.45,19.83-10.43,23.6-29.14,12.94-37.63-5.01-3.94-9.84-12.98-10.49-11.43Z"/>
    <path class="cls-3" d="m166.78,46.9l-9.29,19.89-.12.28c-1.07,1.13-8.77,9.58-13.13,5.17-5.68-5.65,1.29-15.34,11.18-19.64,4.88-2.01,11.82-6.4,11.37-5.7Z"/>
    <path class="cls-3" d="m167.25,48.1l-9.86,22.02-.13.31c-.13,1.39-.08,10.64,8.66,6.05,11.39-5.85,13.74-16.83,7.51-21.83-2.83-2.28-5.7-7.33-6.18-6.55Z"/>
    <path class="cls-2" d="m201.62,88.87c.38-.52.66-1.21.46-1.55-3.43-29.24-37.54-39.01-39.06-39.34-.85-.33-2.36.54-3.11,1.57-.75,1.03-.41,2.23.44,2.56.33,0,34.11,9.77,37.25,37.3.24,1.02,1.1,1.36,2.46.83.71-.52,1.18-.87,1.55-1.38Z"/>
    <path class="cls-2" d="m163.93,38.5l-26.34-15.48c-.09-.15-.38-.14-.38-.14-2.39.03-19.05-.21-22.83,13.57-4.97,17.97,11.69,21.34,28.98,11.72,8.48-4.58,21.81-9.08,20.57-9.66Z"/>
    <path class="cls-1" d="m161.08,43.38l-27.35-16.39c-.09-.16-.18-.31-.27-.47-.75-1.89-6.52-15.39,9.13-23.01,20.29-9.89,29.77,2.46,23.64,19.75-2.95,8.56-3.87,20.73-5.15,20.11Z"/>
    <path class="cls-3" d="m164.39,41.78l-15.34-8.9s-.09-.15-.3,0c-1.28-.13-10.9-.16-13.24,7.77-2.76,10.32,6.78,12.29,16.83,6.79,5.02-2.75,12.52-5.38,12.05-5.67Z"/>
    <path class="cls-3" d="m162.76,44.59l-15.94-9.43s-.09-.16-.18-.31c-.62-1.1-3.81-8.95,5.25-13.33,11.76-5.68,17.3,1.36,13.68,11.51-1.59,4.92-2.33,11.87-2.82,11.56Z"/>
    <path class="cls-2" d="m346.92,689.77l-31.38,43.42c-.12.28-.32.42-.53.56-2.89,2.36-23.36,18.5-29.14,5.53-7.42-16.66,12.76-36.64,35.01-41.68,10.68-2.31,27.26-9.63,26.04-7.83Z"/>
    <path class="cls-1" d="m349.91,693.76l-32.91,47.37c-.13.3-.34.45-.47.75-.89,3.15-7.07,25.36,13.11,19.12,26.02-8.11,37.01-32.92,28-48.05-4.18-7.27-6.45-21.15-7.73-19.19Z"/>
    <path class="cls-3" d="m346.02,691.24l-18.2,25.14c-.2.14-.12.28-.33.41-1.75,1.39-13.67,10.7-16.94,3.34-4.38-9.68,7.36-21.18,20.28-24.06,6.31-1.44,16.04-5.79,15.19-4.82Z"/>
    <path class="cls-3" d="m347.74,693.52l-19.09,27.43c-.21.15-.13.3-.34.45-.47,1.8-4.17,14.7,7.6,11.11,15.05-4.67,21.48-19.1,16.23-27.7-2.18-4.3-3.5-12.36-4.4-11.3Z"/>
    <path class="cls-2" d="m338.59,692.7l-4.61-43.26c-.09-.15.04-.45.17-.76,1.11-3.32,9.02-25.84,26.62-24.11,22.74,2.27,18.68,26.24-.83,44.84-9.76,9.3-21.31,24.94-21.35,23.29Z"/>
    <path class="cls-1" d="m342.54,686.33l-4.79-45.44c-.09-.16-.18-.31-.27-.47-1.55-2.19-13.96-16.41-30,1.01-20.86,22.7-11.9,41.86,10.36,42.05,10.71.18,24.74,4.58,24.69,2.85Z"/>
    <path class="cls-3" d="m340.82,692.9l-2.63-25.11c-.09-.15.13-.3.04-.45.68-1.97,5.3-14.97,15.29-13.9,13.15,1.34,10.85,15.22-.46,26.05-5.4,5.34-12.25,14.46-12.25,13.41Z"/>
    <path class="cls-3" d="m343.1,689.21l-2.73-26.33q-.09-.16-.18-.31c-1.02-1.25-8.11-9.37-17.38.7-12.15,13.26-6.87,24.24,6,24.4,6.28.08,14.29,2.66,14.29,1.55Z"/>
    <path class="cls-2" d="m271.5,676.91c-.17.75.09,1.2.34,1.65,24.25,20.16,75.39,6.76,77.53,6.28,1.54-.47,2.87-1.84,3.08-3.05.13-1.36-.82-1.95-2.23-1.78-.51.16-50.93,13.25-73.89-5.72-.73-.74-2.57-.27-3.77.8-.56.61-.81,1.21-1.07,1.82Z"/>
    <path class="cls-2" d="m345.34,701.69l48.16-4.01c.29,0,.49-.14.78-.15,3.28-1.29,26.62-11.54,21.31-24.81-6.63-17.41-32.2-9.91-49.18,8.6-8.02,8.83-23,20.52-21.07,20.36Z"/>
    <path class="cls-1" d="m346.84,703.12l50.99-4.5c.3,0,.61,0,.69.14,2.65.89,20.75,8.49,4.53,25.14-21.25,21.78-44.04,17.78-48.48-.76-2.09-9.04-9.78-19.85-7.74-20.03Z"/>
    <path class="cls-3" d="m345.41,698.56l27.82-2.25c.21-.14.29,0,.49-.14,1.88-.72,15.36-6.69,12.47-14.43-3.91-9.94-18.74-5.76-28.47,5.04-4.7,5.19-13.38,11.94-12.31,11.79Z"/>
    <path class="cls-3" d="m346.31,699.34l29.45-2.53c.22-.16.3,0,.39.15,1.56.59,11.98,4.91,2.48,14.55-12.4,12.59-25.63,10.31-28.07-.41-.92-5.36-5.39-11.6-4.26-11.77Z"/>
    <path class="cls-7" d="m528.12,412.76l-21.61,29.98c-.2.14-.12.28-.32.41-1.95,1.53-16.15,12.79-20.04,3.92-5.16-11.46,8.7-25.18,24.14-28.63,7.21-1.86,18.81-6.92,17.84-5.68Z"/>
    <path class="cls-8" d="m530.16,415.45l-22.68,32.74c-.21.15-.13.3-.26.6-.6,2.1-4.73,17.4,9.01,13.04,17.83-5.61,25.5-22.6,19.22-32.99-2.69-5.2-4.27-14.75-5.3-13.39Z"/>
    <path class="cls-3" d="m527.59,413.6l-12.52,17.44-.2.14c-1.14.97-9.37,7.38-11.62,2.19-2.87-6.7,5.02-14.61,13.87-16.63,4.36-.87,11.01-3.69,10.48-3.13Z"/>
    <path class="cls-3" d="m528.79,415.19l-13.13,19.01-.13.3c-.43,1.35-2.85,10.21,5.25,7.56,10.45-3.28,14.76-13.05,11.26-19.14-1.92-2.82-2.69-8.34-3.25-7.74Z"/>
    <path class="cls-7" d="m522.29,414.61l-3.19-29.75c-.09-.15.13-.3.04-.45.81-2.27,6.16-17.68,18.32-16.49,15.72,1.6,12.77,18.04-.62,31.01-6.46,6.1-14.47,16.89-14.55,15.69Z"/>
    <path class="cls-8" d="m525,410.19l-3.31-31.23c-.09-.16-.18-.31-.18-.31-1.11-1.41-9.57-11.41-20.79.74-14.54,15.66-8.1,28.69,7.24,28.81,7.61.22,17.12,3.26,17.03,1.99Z"/>
    <path class="cls-3" d="m523.98,414.88l-1.77-17.28s-.09-.15.13-.3c.43-1.36,3.46-10.27,10.48-9.61,8.99.94,7.5,10.43-.29,17.91-3.94,3.66-8.52,9.89-8.56,9.29Z"/>
    <path class="cls-3" d="m525.55,412.38l-1.84-18.14-.09-.16c-.75-.78-5.58-6.56-11.9.47-8.26,9.11-4.63,16.64,4.13,16.69,4.11.1,9.74,1.77,9.69,1.14Z"/>
    <path class="cls-7" d="m476.18,403.76c-.04.45-.09.9.3,1.05,16.66,13.78,51.82,4.63,53.36,4.16,1.03-.31,2.01-1.23,2.1-2.13s-.56-1.5-1.58-1.18c-.3,0-35.16,9.14-50.79-3.89-.56-.44-1.67-.28-2.44.48-.56.61-.81,1.21-.94,1.52Z"/>
    <path class="cls-7" d="m527,420.81l33.04-2.73q.29,0,.49-.15c2.29-1,18.35-7.98,14.65-17.1-4.57-12.03-22.28-6.83-33.73,5.93-5.56,6.17-15.8,14.2-14.45,14.04Z"/>
    <path class="cls-8" d="m528.07,421.8l34.97-3.06q.3,0,.39.15c1.87.59,14.32,5.8,3.14,17.32-14.53,14.78-30.37,12.22-33.33-.49-1.22-6.43-6.6-13.74-5.17-13.91Z"/>
    <path class="cls-3" d="m527.13,418.67l19.27-1.61h.29c1.39-.57,10.57-4.57,8.51-9.96-2.68-6.91-12.8-4.02-19.64,3.42-3.31,3.65-9.21,8.3-8.43,8.15Z"/>
    <path class="cls-3" d="m527.74,419.25l20.39-1.8h.3c1.08.29,8.29,3.27,1.79,10.1-8.5,8.71-17.65,7.14-19.39-.21-.87-3.67-3.91-7.93-3.08-8.1Z"/>
    <path class="cls-7" d="m267.5,736.13l-21.61,29.97c-.2.14-.12.28-.32.42-1.95,1.53-16.15,12.78-20.04,3.92-5.16-11.46,8.7-25.18,24.14-28.64,7.21-1.86,18.73-7.05,17.84-5.67Z"/>
    <path class="cls-8" d="m269.54,738.81l-22.68,32.74c-.21.15-.13.3-.25.6-.6,2.1-4.73,17.41,9.01,13.04,17.83-5.61,25.5-22.6,19.22-32.99-2.78-5.35-4.36-14.9-5.3-13.39Z"/>
    <path class="cls-3" d="m266.79,737.08l-12.52,17.43-.2.14c-1.14.98-9.36,7.38-11.62,2.19-2.87-6.7,5.02-14.61,13.87-16.62,4.36-.88,11.13-3.97,10.47-3.14Z"/>
    <path class="cls-3" d="m267.98,738.69l-13.13,19-.13.3c-.43,1.35-2.85,10.2,5.25,7.56,10.45-3.28,14.75-13.05,11.25-19.13-1.71-2.97-2.56-8.64-3.25-7.73Z"/>
    <path class="cls-7" d="m261.67,737.98l-3.18-29.76c-.09-.15.13-.3.04-.45.81-2.27,6.16-17.68,18.32-16.49,15.72,1.6,12.77,18.04-.63,31.01-6.46,6.1-14.47,16.89-14.55,15.69Z"/>
    <path class="cls-8" d="m264.38,733.56l-3.31-31.22c-.09-.16-.18-.31-.18-.31-1.11-1.41-9.57-11.41-20.79.74-14.54,15.66-8.11,28.69,7.24,28.81,7.52.06,17.12,3.25,17.03,1.99Z"/>
    <path class="cls-3" d="m263.37,738.25l-1.76-17.28s-.09-.15.13-.3c.43-1.36,3.46-10.27,10.49-9.61,8.99.94,7.5,10.44-.29,17.91-3.94,3.66-8.52,9.88-8.56,9.28Z"/>
    <path class="cls-3" d="m264.93,735.74l-1.83-18.14-.09-.16c-.75-.78-5.58-6.56-11.9.47-8.26,9.11-4.63,16.65,4.14,16.69,4.11.11,9.74,1.78,9.69,1.14Z"/>
    <path class="cls-7" d="m215.56,727.12c-.04.45-.08.9.3,1.05,16.66,13.78,51.82,4.63,53.36,4.16,1.03-.31,2.01-1.22,2.09-2.13.09-.9-.56-1.49-1.58-1.18-.3,0-35.16,9.14-50.79-3.89-.56-.44-1.67-.28-2.44.48-.56.61-.9,1.06-.94,1.51Z"/>
    <path class="cls-7" d="m266.38,744.18l33.04-2.73q.29-.01.49-.15c2.29-1,18.35-7.98,14.64-17.1-4.57-12.03-22.28-6.83-33.73,5.93-5.56,6.17-15.8,14.2-14.44,14.05Z"/>
    <path class="cls-8" d="m267.46,745.17l34.97-3.06q.3-.01.39.15c1.87.59,14.32,5.8,3.14,17.31-14.53,14.78-30.37,12.22-33.32-.49-1.44-6.28-6.6-13.74-5.17-13.91Z"/>
    <path class="cls-3" d="m266.52,742.04l19.27-1.61h.29c1.39-.57,10.57-4.56,8.51-9.95-2.68-6.92-12.8-4.03-19.63,3.41-3.31,3.65-9.21,8.3-8.43,8.15Z"/>
    <path class="cls-3" d="m267.12,742.62l20.39-1.8h.3c1.09.29,8.29,3.26,1.79,10.1-8.5,8.71-17.65,7.14-19.39-.21-.87-3.67-3.91-7.93-3.09-8.09Z"/>
    <path class="cls-7" d="m21.76,110.48l33.04-2.73q.29,0,.49-.14c2.29-1,18.35-7.98,14.65-17.1-4.57-12.03-22.28-6.83-33.73,5.93-5.36,6.03-15.59,14.06-14.45,14.05Z"/>
    <path class="cls-8" d="m22.84,111.47l34.97-3.06c.3,0,.3,0,.39.15,1.87.59,14.32,5.81,3.14,17.31-14.53,14.78-30.37,12.22-33.33-.49-1.22-6.43-6.39-13.89-5.17-13.91Z"/>
    <path class="cls-2" d="m508.26,474.2l7.69,30.1c.09.15.17.31-.04.46-.52,2.31-4.49,18.91-18.15,19.09-17.9.23-16.78-17.11-3.49-31.84,6.32-7.13,13.9-19.04,13.99-17.81Z"/>
    <path class="cls-1" d="m504.75,479.74l7.88,31.05c.09.16.18.31.27.47,1.42,1.41,12.06,10.28,22.89-3.14,13.88-17.41,5.23-29.96-11.64-28.32-8.41.58-19.49-1.33-19.4-.07Z"/>
    <path class="cls-3" d="m506.42,473.92l4.43,17.4s.09.15-.13.31c-.22,1.23-2.64,10.91-10.52,11.01-10.31.13-9.66-9.98-2-18.5,3.81-4.03,8.18-10.82,8.22-10.21Z"/>
    <path class="cls-3" d="m504.4,477.12l4.53,17.95.09.16c.75.78,7.09,5.91,13.27-1.91,8.04-10.05,3.03-17.25-6.74-16.34-4.69.53-11.19-.49-11.15.14Z"/>
    <path class="cls-2" d="m502.11,468.43l-32.54-7.58c-.09-.16-.4-.15-.4-.15-1.41-1.39-10.75-11.31,3.41-21.38,18.43-12.94,31.51-4.64,29.64,11.23-.92,7.7,1.08,18.34-.11,17.88Z"/>
    <path class="cls-1" d="m503.7,465.81l-30.77-6.93c-.08-.14-.29,0-.58,0-2.37.46-19.48,3.81-19.76,15.85-.52,15.61,17.29,14.97,32.48,3.33,7.61-5.53,19.76-11.84,18.64-12.25Z"/>
    <path class="cls-3" d="m502.71,470.73l-18.89-4.31s-.09-.16-.31,0c-.75-.77-6.26-6.66,1.97-12.42,10.64-7.51,18.31-2.74,17.04,6.53-.08,4.24.98,10.5.19,10.19Z"/>
    <path class="cls-3" d="m503.61,469.26l-17.87-3.94h-.29c-1.37.16-11.28,2.29-11.36,9.16-.28,9.02,10.04,8.61,18.74,1.92,4.49-3.35,11.53-6.87,10.78-7.15Z"/>
    <path class="cls-2" d="m453.41,503.4c.35.12.7.23,1.16.11,27.67-6.95,52.62-31.76,53.8-32.82.61-.71.79-1.66.09-1.89-.7-.23-1.71-.11-2.51.72-.3.35-24.95,24.8-51.03,31.28-.93.24-1.81.95-1.8,1.78-.03.36.12.59.28.83Z"/>
    <path class="cls-2" d="m501.1,472.96l32.01-27.29c.21-.14.41-.29.33-.42,1.36-2.12,11.26-17.24-1.39-17.51-16.77-.37-30.09,15.35-29.58,28.95.26,6.31-2.53,17.28-1.38,16.28Z"/>
    <path class="cls-1" d="m504.32,478.65l31.55-26.5c.2-.14.41-.28.61-.41,2.48-1.12,19.12-8.65,18.38,2.94-1.18,15.14-18.88,25.68-33.23,24.2-6.83-.88-18.45.74-17.32-.22Z"/>
    <path class="cls-3" d="m502.84,473.15l18.53-15.8s.21-.14.12-.28c.78-1.13,6.54-10.05-.84-10.24-9.69-.17-17.38,8.91-17.08,16.77,0,3.93-1.55,10.13-.73,9.56Z"/>
    <path class="cls-3" d="m504.72,476.45l18.26-15.33.2-.14c1.3-.7,11.01-5.03,10.74,1.66-.75,8.73-11.02,14.98-19.28,14.11-3.82-.64-10.73.25-9.92-.3Z"/>
    <path class="cls-2" d="m105.43,757.14l-38.23,18.9c-.21.15-.5.15-.5.15-2.44.32-19.6,2.93-13.4-10.34,8.23-17.27,27.62-23.04,38.4-15.64,4.98,3.49,15.26,6.06,13.73,6.93Z"/>
    <path class="cls-1" d="m108.15,762.85l-37.48,18.12c-.2.14-.41.27-.61.41-2.07,1.8-16.87,14.76-6.94,19.84,12.82,6.54,30.52-5.92,36.41-20.83,2.7-7.39,10.11-18.37,8.61-17.54Z"/>
    <path class="cls-3" d="m105.74,760.45l-22.14,11.07q-.21.14-.29,0c-1.37.16-11.36,1.56-7.72-6.16,4.63-10.01,16.08-13.41,22.14-9.08,2.78,2.24,8.72,3.88,8.01,4.17Z"/>
    <path class="cls-3" d="m107.33,763.8l-21.68,10.59-.41.28c-1.34,1.1-9.73,8.55-3.95,11.49,7.41,3.73,17.68-3.46,21.07-12.08,1.45-4.24,5.66-10.56,4.97-10.28Z"/>
    <path class="cls-2" d="m103.93,767.42l23.33-32.92c.2-.13.33-.41.33-.41,2.08-1.81,17.62-14.19,22.01-4.49,5.82,12.56-9.31,27.54-26.15,31.57-7.99,2.01-20.49,7.49-19.52,6.25Z"/>
    <path class="cls-1" d="m101.74,764.55l24.5-35.97c.21-.15.13-.3.26-.6.72-2.41,4.99-19.1-10-14.26-19.82,6.4-27.75,25.08-20.66,36.38,3.16,5.51,4.88,15.82,5.9,14.46Z"/>
    <path class="cls-3" d="m104.74,766.33l13.53-19.08s.2-.14.12-.28c1.34-1.11,10.09-8.07,12.8-2.61,3.48,7.24-5.35,15.98-15.17,18.28-4.77,1.15-11.94,4.52-11.29,3.69Z"/>
    <path class="cls-3" d="m103.49,764.68l14.21-20.85.13-.3c.43-1.36,2.94-11.12-5.9-8.16-11.4,3.74-16.09,14.43-12.03,20.97,1.8,3.12,2.91,9.24,3.59,8.34Z"/>
    <path class="cls-2" d="m81.91,712.78c-.38.53-.77,1.06-1.06,1.77-4.59,33.13,23.88,52.1,25.06,52.97.74.7,2.14.16,3.25-.9,1.11-1.07,1.1-2.3.36-3-.44-.17-28.38-18.79-23.92-50.34.09-1.06-.65-1.76-1.91-1.57-.82.36-1.31.71-1.79,1.07Z"/>
    <path class="cls-2" d="m106.67,773.67l19.49,23.47c.09.15.17.31.39.15,2.18.59,16.94,4.9,24.01-9.77,9.28-18.87-4.65-26.6-22.98-19.85-8.64,3.21-21.74,5.08-20.91,6Z"/>
    <path class="cls-1" d="m110.67,767.18l19.79,23.96c.09.15.18.31.27.47.31,2.21,1.75,18.01-13.75,22.64-20.37,5.96-25.66-9.48-15.72-26.7,4.6-8.44,8.57-21.31,9.41-20.37Z"/>
    <path class="cls-3" d="m106.39,770.43l11.35,13.48q.09.16.09.16c1.18.45,9.91,2.81,13.96-5.76,5.4-11.06-2.63-15.45-13.27-11.44-5.06,1.92-12.48,2.95-12.13,3.56Z"/>
    <path class="cls-3" d="m108.69,766.68l11.54,13.78q.09.16.18.32c.09,1.26.9,10.43-7.91,13.08-11.78,3.47-14.89-5.35-9.1-15.56,2.61-4.78,4.95-12.24,5.3-11.62Z"/>
    <path class="cls-4" d="m37.5,71.65c-.29,11.57-11.12,22.2-16.35,21.8-13.67-.77-2.56-14.44-2.56-14.44,0,0-12.03,13.1-18.17,3.6-2.48-3.74,6.22-15.51,19.99-20.1-11.83-1.65-13.29-12.19-8.17-17,12.87-11.66,17.39-.42,17.39-.42,0,0-2.97-12.12,12.32-16.14,5.6-1.49,9.97,6,4.87,16.88,2.91-4.07,5.53-8.14,7.65-12.05,1.29-2.32,2.28-4.64,3.07-6.82.79-2.17,1.49-4.49,1.98-6.66-.08-.14.04-.43.04-.43,1.59-.3,3.47-.6,5.05-.9-.12.29-.04.43-.25.58-.83,2.61-1.74,5.07-2.94,7.54-1.2,2.47-2.62,5.08-4.2,7.4-2.41,3.92-5.2,7.7-8.28,11.48,10.68-6.87,20.37-6.37,20.56-2.03.8,12.43-14.74,15-14.74,15,0,0,15-.98,5.94,12.68-3.58,4.94-16.82,7.93-23.2.03Z"/>
    <path class="cls-4" d="m237.52,42.79c-1.66-2.87,4.58-7.18,6.24-4.31,1.75,3.02-4.49,7.33-6.24,4.31Z"/>
    <path class="cls-4" d="m217.39,71.13c-1.66-2.86,4.57-7.16,6.22-4.3,1.66,2.86-4.57,7.16-6.22,4.3Z"/>
    <path class="cls-4" d="m306.06,67.84c-.09-.15.32-.43.41-.28s-.32.43-.41.28Z"/>
    <path class="cls-4" d="m287.57,124.98c.13-.33-.1-.17,0,0,.32,0,.1.17,0,0Z"/>
    <path class="cls-4" d="m312.75,74.83c-.51.14-1.02.28-1.54.42-.3,0-.39-.16-.69-.17-.39-.16-.78-.33-1.05-.79l-.83-.94c-.18-.31-.36-.62-.23-.93.03-.46.16-.76.28-1.07s.46-.76.58-1.06c.33-.45.55-.6.97-.9.21-.15.42-.3.85-.59.51-.14,1.02-.28,1.63-.27.3,0,.39.16.69.17.39.16.78.33,1.05.79l.41,1.24c.18.31.36.62.23.93-.03.46.05.61-.28,1.07-.12.3-.46.76-.58,1.06-.33.45-.55.6-.97.9-.09-.16-.3,0-.51.14Z"/>
    <path class="cls-4" d="m363.9,174.57c-2.27-3.92,6.04-9.65,8.3-5.74,1.97,3.91-6.12,9.5-8.3,5.74Z"/>
    <path class="cls-4" d="m294.6,138.11c-2.27-3.92,6.04-9.65,8.3-5.74,2.18,3.76-6.12,9.5-8.3,5.74Z"/>
    <path class="cls-4" d="m402.1,114.28c-2.27-3.92,6.04-9.65,8.3-5.74,2.18,3.76-6.12,9.5-8.3,5.74Z"/>
    <path class="cls-4" d="m515.05,298.24c-2.27-3.93,6.04-9.68,8.31-5.75s-6.04,9.68-8.31,5.75Z"/>
    <path class="cls-4" d="m459.69,300.21c-2.27-3.92,6.04-9.68,8.31-5.75,2.27,3.92-6.04,9.68-8.31,5.75Z"/>
    <path class="cls-4" d="m464.55,427.58c.92-1.51,1.53-3.04,2.45-4.55-2,1.18-4.1,1.13-5.08-.59-2.32-4.05,6.16-9.99,8.48-5.94,1.25,2.18-.55,4.75-2.97,6.23l-2.57,4.86c-.12.3-.42.3-.3,0Z"/>
    <path class="cls-4" d="m463.77,402.55c-2.27-3.93,6.04-9.68,8.31-5.75,2.27,3.93-6.04,9.68-8.31,5.75Z"/>
    <path class="cls-4" d="m547.74,522.01c-2.27-3.92,6.04-9.68,8.31-5.75,2.27,3.92-6.04,9.68-8.31,5.75Z"/>
    <path class="cls-4" d="m464.8,525.13c-2.27-3.92,6.04-9.65,8.3-5.74,2.18,3.77-6.12,9.5-8.3,5.74Z"/>
    <path class="cls-4" d="m449.17,555.67c-2.27-3.92,6.04-9.68,8.32-5.75,2.27,3.92-6.04,9.68-8.32,5.75Z"/>
    <path class="cls-4" d="m472.65,633.56c-2.27-3.92,6.04-9.65,8.3-5.74,1.97,3.91-6.12,9.5-8.3,5.74Z"/>
    <path class="cls-4" d="m393.21,645.44l-.72.29c-.51.14-.81.13-1.2-.03-1.59-.19-3.27-.54-4.64-.88-.3,0-.48-.32-.57-.47-.18-.31-.27-.47-.44-.78-.05-.61.1-1.37.43-1.82.55-.6,1.09-1.2,1.81-1.48.72-.29,1.32-.27,1.92-.26l4.4,1.48c.39.16.96.64.92,1.09-.03.46-.19,1.22-.52,1.67-.24.61-.88,1.05-1.39,1.19Z"/>
    <path class="cls-4" d="m431.38,667.14c-1.13-1.96,3.02-4.84,4.16-2.88,1.34,1.82-3.02,4.84-4.16,2.88Z"/>
    <path class="cls-4" d="m221.65,700.25c-.5.13-.91.41-1.4.55-.21.14-.29,0-.5.13-.29,0-.5.13-.58-.01q-.29,0-.38-.16c-.29,0-.38-.15-.46-.3-.09-.15-.17-.3-.17-.3-.09-.15.12-.29.03-.43.12-.29.03-.43.24-.57.12-.29.32-.43.44-.72.32-.43.73-.71,1.06-1.14.41-.28.82-.56,1.03-.7.41-.28.7-.27,1.28-.26q.29,0,.58.01c.38.15.46.3.64.6.09.15.26.44.14.73.09.15-.03.43-.15.72-.12.29-.44.71-.77,1.14-.21.14-.62.42-1.03.7Z"/>
    <path class="cls-4" d="m243.17,691.3c-2.27-3.91,6.04-9.65,8.3-5.74,1.97,3.91-6.12,9.5-8.3,5.74Z"/>
    <path class="cls-4" d="m212.91,791.76c-2.27-3.93,6.04-9.68,8.31-5.76,2.27,3.93-6.04,9.68-8.31,5.76Z"/>
    <path class="cls-4" d="m164.23,796.63c-2.27-3.93,6.04-9.68,8.31-5.76,2.27,3.93-6.04,9.68-8.31,5.76Z"/>
    <path class="cls-4" d="m133.13,708.12c-2.27-3.92,6.04-9.68,8.31-5.75s-6.04,9.68-8.31,5.75Z"/>
    <path class="cls-4" d="m154.15,710.87c-1.75-3.02,4.69-7.47,6.44-4.45,1.75,3.02-4.69,7.47-6.44,4.45Z"/>
    <path class="cls-4" d="m70.42,104.17c-.26-.46.57-1.04.84-.58.47.31-.57,1.04-.84.58Z"/>
    <path class="cls-4" d="m101.65,83.3c-2.27-3.92,6.04-9.65,8.3-5.74,1.97,3.91-6.12,9.5-8.3,5.74Z"/>
    <path class="cls-4" d="m86.29,108.68c-2.27-3.93,6.04-9.68,8.31-5.75,2.27,3.93-6.04,9.68-8.31,5.75Z"/>
    <path class="cls-4" d="m84.39,21.79c-2.27-3.92,6.04-9.65,8.3-5.74,2.18,3.76-6.12,9.5-8.3,5.74Z"/>
    <path class="cls-4" d="m78.29,91.78c-2.27-3.92,6.04-9.65,8.3-5.74,1.97,3.91-6.12,9.5-8.3,5.74Z"/>
    <path class="cls-4" d="m258.45,52.54c-2.27-3.92,6.04-9.67,8.31-5.75,2.18,3.77-6.04,9.67-8.31,5.75Z"/>
    <path class="cls-4" d="m220.5,87.71c-2.27-3.92,6.04-9.68,8.31-5.75,2.27,3.92-6.04,9.68-8.31,5.75Z"/>
    <path class="cls-4" d="m224.9,20.42c-2.27-3.92,6.04-9.65,8.3-5.74,2.18,3.76-6.12,9.5-8.3,5.74Z"/>
    <path class="cls-4" d="m377.9,616.77c-2.27-3.92,6.04-9.67,8.31-5.75,2.18,3.77-6.04,9.67-8.31,5.75Z"/>
    <path class="cls-1" d="m228.51,46.57c-2.27-3.91,6.03-9.65,8.3-5.74,1.97,3.91-6.12,9.5-8.3,5.74Z"/>
    <path class="cls-1" d="m253.44,32.18c-2.27-3.92,6.04-9.65,8.3-5.74,1.97,3.91-6.12,9.5-8.3,5.74Z"/>
    <path class="cls-1" d="m309.25,82.95c-2.27-3.92,6.04-9.68,8.31-5.75,2.27,3.93-6.04,9.68-8.31,5.75Z"/>
    <path class="cls-1" d="m296.84,133.34c-2.27-3.92,6.04-9.68,8.31-5.75,2.06,4.07-6.04,9.68-8.31,5.75Z"/>
    <path class="cls-1" d="m357.02,160.07c-2.27-3.92,6.04-9.68,8.31-5.75,2.27,3.92-6.04,9.68-8.31,5.75Z"/>
    <path class="cls-1" d="m381.44,104.49c-2.27-3.92,6.04-9.68,8.31-5.75s-6.04,9.68-8.31,5.75Z"/>
    <path class="cls-1" d="m411.61,142.02c-2.27-3.92,6.04-9.65,8.3-5.74,1.97,3.91-6.12,9.5-8.3,5.74Z"/>
    <path class="cls-1" d="m501.72,289.42c-2.27-3.91,6.04-9.65,8.3-5.74,1.97,3.91-6.12,9.5-8.3,5.74Z"/>
    <path class="cls-1" d="m471.12,285.37c-2.27-3.93,6.04-9.68,8.31-5.75,2.06,4.07-6.04,9.68-8.31,5.75Z"/>
    <path class="cls-1" d="m455.22,387.73c-2.27-3.91,6.04-9.65,8.3-5.74,2.18,3.77-6.12,9.5-8.3,5.74Z"/>
    <path class="cls-1" d="m481.97,393.8c-2.27-3.92,6.04-9.68,8.31-5.75,2.27,3.93-6.04,9.68-8.31,5.75Z"/>
    <path class="cls-1" d="m551.24,481.75c-2.27-3.92,6.04-9.68,8.31-5.75,2.06,4.07-6.04,9.68-8.31,5.75Z"/>
    <path class="cls-1" d="m460.3,526.01c-2.27-3.92,6.04-9.68,8.31-5.75,2.27,3.92-6.04,9.68-8.31,5.75Z"/>
    <path class="cls-1" d="m450.33,574.99c-2.27-3.92,6.04-9.67,8.31-5.75,2.18,3.77-6.04,9.67-8.31,5.75Z"/>
    <path class="cls-1" d="m474.11,604.48c-2.27-3.92,6.04-9.65,8.3-5.74,1.97,3.91-6.12,9.5-8.3,5.74Z"/>
    <path class="cls-1" d="m488.78,624.25c-2.27-3.92,6.04-9.65,8.3-5.74,2.18,3.76-6.12,9.5-8.3,5.74Z"/>
    <path class="cls-1" d="m492.1,584.11c-2.27-3.92,6.04-9.67,8.31-5.75,2.18,3.77-6.04,9.67-8.31,5.75Z"/>
    <path class="cls-1" d="m382.23,636.13c-.52.14-1.04.29-1.55.43-.3,0-.39-.17-.7-.17-.39-.16-.79-.33-.97-.65-.36-.63-1.02-1.27-1.38-1.91-.18-.32-.36-.63-.24-.94.03-.47-.06-.62.28-1.08.12-.31.46-.77.59-1.08.34-.46.55-.61.98-.91.21-.15.43-.3.86-.6.52-.14,1.04-.29,1.55-.43.3,0,.39.17.7.17.39.17.79.33,1.06.81.36.63.6,1.57.96,2.21.18.32.27.47.24.94-.04.47.05.62-.28,1.08-.12.31-.25.62-.59,1.08-.12.31-.55.61-.98.91.12-.31-.3,0-.52.14Z"/>
    <path class="cls-1" d="m420.58,670.34c-2.27-3.92,6.03-9.65,8.3-5.74,2.18,3.76-6.12,9.5-8.3,5.74Z"/>
    <path class="cls-1" d="m278.45,689.17c-2.27-3.92,6.04-9.65,8.3-5.74,2.18,3.77-6.12,9.5-8.3,5.74Z"/>
    <path class="cls-1" d="m230.43,706.9c-2.27-3.92,6.04-9.65,8.3-5.74,2.18,3.76-6.12,9.5-8.3,5.74Z"/>
    <path class="cls-1" d="m216.71,758.05c-2.27-3.91,6.04-9.65,8.3-5.74,2.18,3.77-6.12,9.51-8.3,5.74Z"/>
    <path class="cls-1" d="m197.9,722.43c-2.27-3.91,6.03-9.65,8.3-5.74,2.18,3.77-6.12,9.5-8.3,5.74Z"/>
    <path class="cls-1" d="m174.07,787.67c-2.27-3.91,6.03-9.65,8.3-5.73,2.18,3.76-6.12,9.5-8.3,5.73Z"/>
    <path class="cls-1" d="m200.43,787.44c-2.27-3.91,6.04-9.65,8.3-5.73,2.18,3.76-6.12,9.5-8.3,5.73Z"/>
    <path class="cls-1" d="m140.09,717.57c-2.27-3.92,6.04-9.65,8.3-5.74,2.18,3.76-6.12,9.5-8.3,5.74Z"/>
    <path class="cls-1" d="m85.63,689.07c-2.27-3.92,6.04-9.68,8.31-5.75,2.06,4.07-6.04,9.68-8.31,5.75Z"/>
    <path class="cls-1" d="m68.99,736.69c-1.22-2.11,3.35-5.26,4.57-3.16,1.22,2.11-3.35,5.27-4.57,3.16Z"/>
    <path class="cls-1" d="m92.11,31.97c-.42.29-.71.28-1.3.27-.59-.01-1.27-.18-1.86-.19-.3,0-.59-.01-.68-.17-.3,0-.38-.16-.56-.46-.09-.15-.18-.3-.14-.75-.09-.15.03-.45.15-.74.21-.14.12-.3.33-.44.12-.3.54-.58.95-.87.21-.14.42-.29.42-.29.42-.29.71-.28,1.01-.27.59.02,1.39-.11,1.98-.1.3,0,.59.01.68.17.3,0,.47.31.56.46.09.15.26.45.14.75.09.15-.03.45-.15.74q-.12.3-.24.59c-.33.44-.54.58-.95.87l-.33.44Z"/>
    <path class="cls-1" d="m102.59,91c-2.27-3.92,6.04-9.65,8.3-5.74,2.18,3.77-6.12,9.5-8.3,5.74Z"/>
    <path class="cls-1" d="m114.94,25.7c-2.27-3.92,6.04-9.68,8.31-5.75,2.27,3.93-6.04,9.68-8.31,5.75Z"/>
    <path class="cls-1" d="m204.66,75.11c-1.05-1.8,2.9-4.53,3.94-2.72s-2.9,4.53-3.94,2.72Z"/>
    <path class="cls-1" d="m355.42,88c-2.27-3.91,6.04-9.65,8.3-5.74,2.18,3.76-6.12,9.5-8.3,5.74Z"/>
  </g>
</svg>