<svg width="522" height="705" viewBox="0 0 522 705" fill="none" xmlns="http://www.w3.org/2000/svg">
<path d="M744 15.452C744 13.5205 744 13.5205 744 15.452C742.158 11.589 742.158 11.589 742.158 9.6575C740.317 7.72598 740.317 7.72592 738.475 5.79446C736.634 3.86294 734.792 1.93143 732.95 1.93143C731.109 1.93143 731.109 -3.19578e-05 729.267 -3.18773e-05C727.426 -3.17968e-05 727.426 -3.17968e-05 725.584 -3.17163e-05C723.743 -3.16358e-05 721.901 -3.15553e-05 721.901 -3.15553e-05C721.901 -3.15553e-05 720.059 -3.14748e-05 720.059 1.93143C720.059 1.93143 720.059 1.93149 720.059 3.86294C720.059 3.86294 720.059 3.86294 720.059 5.79446C720.059 7.72592 718.218 9.65744 718.218 11.589L718.218 13.5205C718.218 15.4521 716.376 17.3836 716.376 17.3836C714.535 21.2466 712.693 25.1096 710.851 28.9726C710.851 30.9041 709.01 30.9041 709.01 32.8355C707.168 34.7671 705.327 38.6301 705.327 40.5616C703.485 44.4246 701.644 48.2876 699.802 52.1507C696.119 57.9452 694.277 61.8082 690.594 65.6712C685.069 73.3972 679.545 81.1233 674.02 86.9178C670.337 90.7808 668.495 94.6438 664.812 96.5753C661.129 100.438 659.287 104.301 655.604 106.233C651.921 110.096 650.079 112.027 646.396 115.89C644.554 119.753 640.871 121.685 639.03 125.548C637.188 129.411 633.505 131.342 631.663 133.274C627.98 137.137 624.297 141 622.455 144.863C618.772 148.726 615.089 152.589 613.248 156.452C611.406 158.384 609.564 160.315 607.723 162.247C605.881 164.178 604.04 166.11 602.198 168.041C596.673 173.836 589.307 179.63 583.782 185.425C576.416 191.219 569.049 197.014 563.525 202.808C561.683 204.74 558 206.671 556.158 208.603L554.317 210.534C552.475 212.466 550.634 212.466 550.634 214.397C548.792 216.329 546.95 216.329 545.109 218.26C543.267 220.192 539.584 222.123 535.901 224.055C532.218 225.986 530.376 227.918 526.693 229.849L511.96 239.507C508.277 241.438 506.436 243.37 504.594 245.301C500.911 247.233 499.069 249.164 493.545 253.027L491.703 254.959L489.861 254.959L488.02 254.959C486.178 256.89 484.337 256.89 482.495 258.822C480.653 260.753 478.812 262.685 475.129 262.685C473.287 262.685 473.287 264.616 471.446 264.616C467.762 266.548 465.921 268.479 462.238 270.411L460.396 272.342L456.713 274.274C454.871 276.205 451.188 278.137 449.347 280.068C447.505 282 443.822 283.931 441.98 285.863L440.139 287.794C436.455 289.726 432.772 291.657 429.089 295.521C427.248 297.452 425.406 297.452 423.564 299.384C421.723 301.315 419.881 301.315 418.04 303.247C416.198 305.178 412.515 307.11 410.673 307.11C410.673 307.11 408.832 307.11 408.832 309.041C406.99 309.041 406.99 310.973 405.149 310.973C403.307 312.904 399.624 312.904 397.782 314.836C394.099 316.767 390.416 318.699 386.733 320.63C384.891 320.63 383.049 322.562 381.208 322.562C381.208 322.562 381.208 322.562 379.366 322.562L377.525 322.562L375.683 322.562C372 324.493 366.475 326.425 364.634 328.356C362.792 330.288 360.95 330.288 359.109 332.219C360.95 330.288 362.792 330.288 362.792 328.356C366.475 324.493 372 320.63 375.683 316.767C377.525 314.836 379.366 314.836 379.366 312.904L381.208 310.973L383.049 310.973C384.891 309.041 386.733 307.11 388.574 307.11C390.416 305.178 392.257 303.247 395.941 303.247C397.782 301.315 401.465 299.384 403.307 299.384C405.149 297.452 406.99 297.452 408.832 295.521C410.673 293.589 414.356 291.658 416.198 291.658C418.04 289.726 419.881 289.726 423.564 287.794C425.406 285.863 427.248 285.863 430.931 283.931C432.772 282 434.614 280.068 438.297 278.137C440.139 276.205 441.98 274.274 443.822 274.274L445.663 274.274C449.347 272.342 451.188 270.411 454.871 266.548C456.713 264.616 458.554 264.616 460.396 262.685L462.238 260.753C464.079 258.822 465.921 258.822 465.921 256.89C467.762 256.89 467.762 254.959 469.604 253.027L471.446 251.096L475.129 249.164C476.97 247.233 478.812 245.301 480.653 243.37L482.495 241.438C484.337 241.438 484.337 239.507 486.178 239.507L488.02 237.575C489.861 237.575 489.861 235.644 491.703 233.712C493.545 231.781 493.545 231.781 495.386 229.849L497.228 227.918C497.228 227.918 497.228 227.918 499.069 225.986L500.911 224.055C502.752 222.123 502.752 222.123 504.594 220.192C506.436 218.26 506.436 216.329 508.277 214.397L508.277 212.466C510.119 208.603 511.96 206.671 513.802 204.74C515.644 202.808 517.485 198.945 517.485 197.014C519.327 195.082 519.327 191.219 521.168 189.288C523.01 185.425 523.01 183.493 523.01 179.63C523.01 177.699 524.851 173.836 524.851 171.904C524.851 168.041 524.851 166.11 526.693 162.247C526.693 160.315 526.693 156.452 526.693 154.52L526.693 152.589C526.693 150.658 526.693 146.794 526.693 144.863C526.693 141 526.693 139.068 524.851 135.205C524.851 131.342 523.01 129.411 523.01 125.548C523.01 123.616 521.168 119.753 519.327 117.822C517.485 115.89 515.644 112.027 515.644 110.096C513.802 108.164 511.96 106.233 510.119 102.37C506.436 98.5068 502.752 92.7123 499.069 88.8493C495.386 84.9863 489.861 81.1232 484.337 79.1917C482.495 77.2602 480.653 77.2603 476.97 75.3288C476.97 75.3288 475.129 75.3288 475.129 73.3973C473.287 73.3973 473.287 71.4657 471.445 71.4657C469.604 71.4657 469.604 71.4657 467.762 69.5342C465.921 69.5342 465.921 69.5342 464.079 69.5342C460.396 69.5342 458.554 69.5342 454.871 69.5342L453.03 69.5342L451.188 69.5342C449.347 69.5342 447.505 69.5342 447.505 69.5342C443.822 69.5342 441.98 69.5342 438.297 71.4657C436.455 71.4657 432.772 73.3973 430.931 73.3973C429.089 73.3973 425.406 75.3287 423.564 77.2602C421.723 79.1918 418.04 79.1918 416.198 81.1233C414.356 83.0548 410.673 83.0548 408.832 84.9863C406.99 86.9178 403.307 88.8493 401.465 88.8493C399.624 90.7808 397.782 92.7123 394.099 94.6438C392.257 96.5753 388.574 100.438 386.733 102.37L384.891 104.301C384.891 102.37 384.891 100.438 383.049 96.5753C383.049 94.6438 381.208 90.7808 379.366 86.9178C379.366 84.9863 377.525 83.0547 377.525 83.0547C377.525 81.1232 375.683 79.1917 373.842 79.1917C373.842 77.2602 372 77.2603 372 75.3288C370.158 73.3973 370.158 71.4657 368.317 71.4657C366.475 69.5342 364.634 67.6027 360.95 63.7397C359.109 61.8082 355.426 59.8768 353.584 56.0137C351.743 54.0822 349.901 54.0822 349.901 52.1507C348.059 52.1507 348.059 50.2191 346.218 50.2191C344.376 48.2876 340.693 46.3561 338.851 44.4246C337.01 44.4246 335.168 42.4931 333.327 42.4931C331.485 42.4931 329.644 40.5616 327.802 40.5616C324.119 38.6301 320.436 38.6301 318.594 38.6301C316.752 38.6301 314.911 38.6301 313.069 38.6301C311.228 38.6301 311.228 38.6301 309.386 38.6301L307.545 38.6301C305.703 38.6301 302.02 38.6301 300.178 38.6301C296.495 38.6301 292.812 38.6301 289.129 38.6301C285.446 38.6301 283.604 40.5616 279.921 42.4932C276.238 44.4247 274.396 44.4247 270.713 46.3562C267.03 48.2877 265.188 50.2192 263.347 52.1507C261.505 54.0822 257.822 56.0137 255.98 59.8766C254.139 61.8082 252.297 63.7397 250.455 67.6027C248.614 69.5342 246.772 73.3973 244.931 75.3288C243.089 77.2603 243.089 79.1917 243.089 79.1917C243.089 81.1232 241.248 83.0547 241.248 83.0547C239.406 86.9178 239.406 88.8493 237.564 92.7123C235.723 96.5753 235.723 98.5068 233.881 102.37C232.04 106.233 232.04 108.164 232.04 112.027C232.04 113.959 232.04 117.822 232.04 119.753L232.04 121.685L232.04 123.616C232.04 127.479 232.04 129.411 232.04 131.342C232.04 133.274 232.04 137.137 232.04 139.068C232.04 142.932 233.881 148.726 233.881 152.589C233.881 154.52 235.723 158.384 235.723 160.315L235.723 162.247C235.723 164.178 235.723 166.11 237.564 168.041L237.564 169.973L237.564 171.904L235.723 171.904C237.564 177.699 237.564 181.562 239.406 187.356C239.406 191.219 241.248 193.151 243.089 197.014C244.931 200.877 244.931 202.808 246.772 206.671C248.614 208.603 248.614 212.466 250.455 214.397L250.455 216.329C250.455 218.26 252.297 220.192 252.297 222.123C252.297 224.055 252.297 224.055 254.139 225.986L255.98 229.849L255.98 231.781C257.822 235.644 259.663 241.438 261.505 245.301C265.188 253.027 267.03 258.822 270.713 264.616C270.713 266.548 272.554 266.548 272.554 268.479C272.554 270.411 274.396 270.411 274.396 272.342L274.396 274.274C274.396 276.205 276.238 278.137 276.238 278.137C276.238 280.068 278.079 280.068 278.079 282L278.079 283.932L278.079 285.863C279.921 287.794 279.921 289.726 281.762 291.658L283.604 295.521L283.604 297.452C285.446 303.247 287.287 307.11 290.97 312.904C292.812 314.836 292.812 318.699 294.653 322.562C294.653 324.493 296.495 326.425 296.495 328.356C296.495 330.288 298.337 330.288 298.337 332.219C300.178 334.151 300.178 338.014 302.02 339.945C302.02 341.877 303.861 341.877 303.861 343.808L302.02 341.877C300.178 338.014 296.495 334.151 294.653 330.288L292.812 328.356C290.97 324.493 287.287 320.63 285.446 314.836L285.446 312.904C283.604 309.041 279.921 303.247 276.238 297.452C276.238 295.521 274.396 293.589 274.396 291.658C272.554 287.795 270.713 285.863 268.871 282C267.03 278.137 263.347 272.342 261.505 268.479C259.663 264.616 257.822 262.685 255.98 258.822L254.139 254.959C252.297 253.027 252.297 251.096 250.455 251.096C248.614 247.233 246.772 245.301 244.931 241.438C239.406 233.712 233.881 224.055 226.515 214.397C224.673 210.534 220.99 206.671 217.307 200.877C215.465 198.945 213.624 195.082 211.782 193.151C209.941 191.219 208.099 189.288 206.257 187.356C202.574 183.493 198.891 179.63 195.208 175.767C193.366 173.836 191.525 171.904 189.683 169.973C187.842 168.041 186 168.041 186 166.11L184.158 164.178C182.317 162.247 180.475 160.315 178.634 158.384C176.792 156.452 174.95 154.521 171.267 152.589C165.743 146.794 163.901 144.863 162.059 142.931C160.218 141 156.535 141 154.693 139.068C152.851 137.137 149.168 137.137 147.327 137.137C145.485 137.137 141.802 135.205 139.96 135.205C136.277 135.205 134.436 135.205 130.752 135.205C127.069 135.205 125.228 135.205 123.386 135.205C121.545 135.206 117.861 135.206 116.02 135.206C112.337 135.206 110.495 137.137 108.653 137.137C106.812 137.137 103.129 139.068 101.287 141C95.7624 142.932 93.9208 144.863 92.0792 144.863C88.396 146.794 86.5544 148.726 84.7129 148.726C82.8713 150.658 81.0297 152.589 77.3465 152.589C73.6634 156.452 68.1386 160.315 64.4554 164.178C62.6138 166.11 60.7723 168.041 58.9307 169.973C57.0891 171.904 55.2475 175.767 55.2475 177.699C53.4059 179.63 53.4059 181.562 51.5643 185.425C53.4059 191.219 51.5643 193.151 51.5643 197.014C51.5643 198.945 51.5643 202.808 51.5643 204.74C51.5643 208.603 51.5643 210.534 51.5643 212.466C51.5643 214.397 51.5643 216.329 51.5643 218.26L51.5643 220.192L51.5643 222.123C51.5643 224.055 51.5643 224.055 51.5643 225.986L51.5643 227.918L51.5643 229.849C51.5643 231.781 51.5643 231.781 51.5643 233.712C51.5643 235.644 51.5643 235.644 51.5643 237.575C51.5643 239.507 53.4059 243.37 55.2475 245.301C55.2475 247.233 57.0891 249.164 57.0891 251.096C57.0891 251.096 57.0891 253.027 58.9307 253.027C60.7723 254.959 60.7723 256.89 62.6138 260.753C64.4554 262.685 64.4554 264.616 66.297 266.548C68.1386 268.479 69.9802 270.411 71.8218 272.342C73.6633 274.274 75.5049 276.205 77.3465 278.137C79.1881 280.068 81.0297 280.069 82.8713 282C81.0297 282 79.1881 282 77.3465 282C71.8218 282 64.4554 283.931 58.9307 285.863C57.0891 287.794 53.4059 287.794 49.7228 289.726C46.0396 291.658 44.198 293.589 40.5148 295.521C38.6732 297.452 34.9901 299.384 33.1485 303.247C31.3069 305.178 27.6237 309.041 25.7822 310.973C23.9406 312.904 22.099 314.836 20.2574 316.767C18.4158 318.699 18.4158 318.699 16.5742 320.63C16.5742 326.425 14.7327 326.425 14.7327 328.356C12.8911 330.288 12.8911 332.219 11.0495 334.151L9.2079 338.014L7.36632 339.945L7.36632 341.877L5.52474 343.808L5.52474 345.74C5.52474 347.671 3.68315 347.671 3.68315 349.603C3.68315 351.534 1.84157 353.466 1.84157 353.466C1.84157 355.397 -1.51972e-05 357.329 -1.51128e-05 359.26C-1.50283e-05 361.192 -1.50283e-05 361.192 -1.49439e-05 363.123C-1.48595e-05 365.055 -1.4775e-05 366.986 -1.46906e-05 368.918C-1.45218e-05 372.781 -1.43529e-05 376.644 -1.4184e-05 380.507C-1.40996e-05 382.438 -1.40996e-05 382.438 -1.40152e-05 384.37L-1.39308e-05 386.301C-1.38463e-05 388.233 -1.37619e-05 390.164 -1.37619e-05 390.164C-1.36775e-05 392.096 -1.34058e-05 394.027 1.84157 395.959C1.84157 397.89 3.68316 399.822 3.68316 401.753C5.52474 403.685 5.52474 407.548 7.36632 411.411C9.20791 415.274 11.0495 417.205 12.8911 419.137C14.7327 421.068 14.7327 421.068 16.5742 423C18.4158 424.932 18.4158 424.932 20.2574 426.863C22.099 428.795 25.7822 430.726 27.6238 432.658C29.4653 432.658 29.4653 434.589 31.3069 434.589C33.1485 434.589 34.9901 436.521 36.8317 438.452C38.6733 440.384 42.3564 442.315 46.0396 442.315C49.7228 444.247 51.5644 444.247 55.2475 446.178C58.9307 446.178 60.7723 448.11 64.4554 448.11C68.1386 448.11 71.8218 448.11 75.5049 448.11C79.1881 448.11 82.8713 448.11 86.5545 448.11C88.396 448.11 92.0792 448.11 93.9208 446.178L95.7624 446.178C99.4455 446.178 103.129 444.247 104.97 444.247C106.812 444.247 108.653 442.315 112.337 442.315C114.178 442.315 114.178 442.315 114.178 442.315C117.861 442.315 119.703 440.384 123.386 440.384C127.069 440.384 128.911 438.452 130.752 438.452L132.594 438.452C138.119 434.589 141.802 434.589 143.644 432.658C147.327 430.726 151.01 430.726 152.851 428.794C154.693 426.863 158.376 426.863 160.218 424.931L162.059 424.931C165.743 423 169.426 421.068 173.109 421.068C174.951 419.137 178.634 419.137 180.475 417.205C184.158 415.274 187.842 415.274 189.683 413.342C193.366 411.411 195.208 411.411 200.733 409.479L202.574 409.479C204.416 409.479 208.099 407.548 211.782 405.616C213.624 405.616 215.465 403.685 217.307 403.685C219.149 403.685 220.99 401.753 222.832 401.753L224.673 401.753L226.515 401.753C228.356 401.753 230.198 399.822 232.04 399.822L233.881 397.89C237.564 395.959 241.248 395.959 243.089 394.027C244.931 394.027 244.931 394.027 246.772 392.096C248.614 392.096 250.455 390.164 252.297 390.164C254.139 390.164 257.822 388.233 259.663 388.233C261.505 388.233 263.347 386.301 265.188 386.301C268.871 384.37 272.554 384.37 276.238 382.438C278.079 382.438 281.762 380.507 285.446 380.507L287.287 380.507C289.129 380.507 290.97 380.507 292.812 378.575C294.653 378.575 296.495 378.575 298.337 376.644C300.178 376.644 300.178 376.644 302.02 376.644C300.178 376.644 300.178 378.575 298.337 378.575C296.495 378.575 294.653 380.507 294.653 380.507L292.812 380.507C290.97 380.507 290.97 382.438 289.129 382.438L287.287 382.438L285.446 382.438L283.604 384.37C281.762 384.37 279.921 386.301 279.921 386.301C278.079 386.301 278.079 388.233 276.238 388.233C274.396 388.233 274.396 390.164 272.554 390.164C270.713 390.164 270.713 392.096 268.871 392.096L267.03 392.096C267.03 392.096 265.188 392.096 265.188 394.027C263.347 394.027 263.347 395.959 261.505 395.959C261.505 395.959 259.663 395.959 259.663 397.89C257.822 397.89 255.98 399.822 255.98 399.822L254.139 399.822L252.297 399.822C246.772 403.685 243.089 405.616 239.406 407.548C235.723 409.479 232.04 411.411 228.356 413.342L232.04 415.274C230.198 415.274 230.198 417.205 228.356 417.205C226.515 417.205 226.515 419.137 224.673 419.137C222.832 421.068 219.149 421.068 217.307 423C213.624 424.932 208.099 428.795 204.416 430.726C202.574 432.658 200.733 432.658 198.891 434.589C195.208 436.521 193.366 438.452 189.683 440.384C187.842 442.315 186 442.315 182.317 444.247L180.475 446.178C178.634 446.178 178.634 448.11 176.792 448.11C174.951 448.11 174.951 450.041 173.109 450.041L171.267 451.973L169.426 453.904C167.584 453.904 167.584 455.836 165.743 455.836L162.059 457.767C160.218 457.767 158.376 459.699 158.376 459.699C156.535 459.699 156.535 461.63 154.693 461.63C152.851 461.63 152.851 463.562 151.01 463.562C149.168 465.493 147.327 465.493 145.485 467.425C143.644 469.356 141.802 471.288 139.96 473.219L138.119 475.151C134.436 477.082 130.752 480.945 127.069 484.808C125.228 486.74 123.386 488.671 121.545 490.603C119.703 492.534 117.861 494.466 116.02 496.397C114.178 498.329 112.337 500.26 110.495 504.123C108.653 506.055 106.812 507.986 104.97 511.849C103.129 515.712 99.4455 521.507 97.604 525.37C97.604 529.233 95.7624 531.164 95.7624 533.096C95.7624 535.027 93.9208 536.959 93.9208 540.822C93.9208 542.753 92.0792 546.616 92.0792 548.548L90.2376 550.479C90.2376 552.411 88.396 554.342 88.396 556.274C88.396 560.137 88.396 562.068 88.396 564L88.396 567.863C88.396 569.795 88.396 571.726 86.5545 573.658C86.5545 575.589 86.5545 579.452 86.5545 581.384C88.396 585.247 88.396 589.11 88.396 591.041C88.396 591.041 88.396 591.041 88.396 592.973C88.396 594.904 88.396 596.836 88.396 598.767C90.2376 602.63 90.2376 604.562 90.2376 608.425C90.2376 610.356 92.0792 614.219 93.9208 616.151C95.7624 618.082 95.7624 620.014 97.604 623.877C99.4456 625.808 101.287 627.74 101.287 629.671C103.129 631.603 104.97 633.534 106.812 635.466C108.653 637.397 110.495 639.329 114.178 641.26C114.178 641.26 116.02 643.192 117.861 643.192C119.703 643.192 119.703 645.123 121.545 645.123C123.386 647.055 125.228 647.055 128.911 647.055C130.752 647.055 134.436 648.986 136.277 648.986C138.119 648.986 141.802 648.986 143.644 650.918C145.485 650.918 149.168 650.918 151.01 650.918C152.851 650.918 156.535 650.918 158.376 650.918C160.218 650.918 162.059 650.918 165.743 650.918L167.584 650.918C169.426 650.918 173.109 650.918 174.95 650.918C176.792 650.918 180.475 648.986 182.317 648.986C184.158 648.986 187.842 647.055 189.683 647.055C191.525 645.123 195.208 645.123 197.05 643.192C200.733 641.26 202.574 639.329 204.416 637.397C208.099 635.466 211.782 631.603 215.465 629.671C217.307 627.74 219.149 627.74 219.149 625.808C219.149 627.74 219.149 629.671 219.149 631.603C219.149 633.534 219.149 633.534 219.149 635.466C219.149 639.329 219.149 641.26 220.99 645.123C220.99 648.986 222.832 652.849 224.673 654.781C226.515 658.644 226.515 660.575 228.356 664.438C228.356 666.37 230.198 666.37 230.198 668.301C235.723 666.37 235.723 666.37 237.564 668.301C239.406 670.233 241.248 674.096 243.089 676.027C244.931 679.89 248.614 681.822 250.455 683.753C252.297 685.685 255.98 689.548 257.822 691.479C259.663 693.411 263.347 695.342 265.188 697.274C267.03 697.274 268.871 699.205 268.871 699.205L270.713 699.205C272.554 699.205 274.396 701.137 274.396 701.137C279.921 703.068 287.287 705 292.812 705C296.495 705 298.337 705 302.02 705C305.703 705 307.545 703.068 311.228 703.068C318.594 701.137 324.119 697.274 327.802 693.411C331.485 691.479 333.327 689.548 337.01 687.616C340.693 685.685 342.535 683.753 344.376 681.822C346.218 679.89 348.059 677.959 351.743 676.027C360.95 670.233 362.792 668.301 364.634 666.37C366.475 662.507 368.317 660.575 370.158 658.644C372 656.712 373.842 652.849 375.683 648.986C377.525 647.055 379.366 643.192 379.366 639.329C381.208 635.466 383.049 631.603 383.049 627.74C383.049 623.877 384.891 620.014 384.891 618.082C384.891 614.219 384.891 612.288 384.891 608.425C384.891 604.562 384.891 600.699 384.891 598.767C384.891 594.904 384.891 591.041 384.891 589.11L384.891 587.178C384.891 585.247 384.891 581.384 384.891 579.452C384.891 575.589 384.891 573.658 383.049 569.795C383.049 565.931 381.208 564 381.208 560.137C381.208 556.274 379.366 552.411 379.366 550.479C379.366 546.616 377.525 544.685 377.525 540.822C377.525 538.89 375.683 535.027 375.683 533.096L375.683 531.164C375.683 527.301 373.842 525.37 373.842 521.507L373.842 519.575C373.842 517.644 372 513.781 372 511.849C370.158 507.986 370.158 506.055 368.317 502.192C366.475 498.329 366.475 496.397 364.634 492.534C364.634 490.603 362.792 486.74 362.792 484.808C360.95 482.877 360.95 479.014 359.109 477.082C359.109 475.151 357.267 475.151 357.267 473.219C355.426 471.288 355.426 467.425 353.584 465.493C353.584 463.562 351.743 461.63 351.743 461.63C351.743 459.699 351.743 459.699 349.901 457.767C348.059 453.904 348.059 451.973 346.218 448.11L344.376 444.247L344.376 442.315C344.376 440.384 342.535 438.452 342.535 438.452C342.535 436.521 340.693 434.589 340.693 432.658L340.693 430.726C338.851 426.863 338.851 423 337.01 419.137C337.01 417.205 335.168 415.274 335.168 413.342C335.168 409.479 333.327 407.548 333.327 403.685C333.327 401.753 331.485 397.89 329.644 394.027C329.644 394.027 329.644 394.027 329.644 392.096C329.644 390.164 327.802 390.164 327.802 388.233C329.644 390.164 331.485 392.096 331.485 394.027C333.327 395.959 333.327 397.89 335.168 399.822L335.168 401.753C335.168 403.685 337.01 405.616 337.01 405.616L338.851 407.548L338.851 409.479C338.851 411.411 340.693 411.411 340.693 413.342C342.535 415.274 342.535 417.205 344.376 421.068L346.218 423C348.059 426.863 349.901 430.726 351.743 434.589C353.584 436.521 353.584 440.384 355.426 442.315C359.109 448.11 360.95 455.836 364.634 463.562C368.317 473.219 373.842 482.877 379.366 492.534L381.208 494.466L381.208 496.397C383.049 500.26 384.891 504.123 386.733 507.986C388.574 509.918 388.574 511.849 390.416 513.781C392.257 517.644 394.099 519.575 395.941 523.438C397.782 525.37 397.782 529.233 399.624 531.164C401.465 533.096 401.465 535.027 403.307 536.959C405.149 540.822 408.832 546.616 410.673 550.479C414.356 556.274 418.04 560.137 419.881 564C421.723 565.931 423.564 567.863 425.406 569.795C427.248 571.726 429.089 573.658 430.931 575.589C434.614 579.452 438.297 583.315 441.98 587.178C447.505 591.041 451.188 594.904 454.871 596.836C462.238 602.63 471.446 606.493 482.495 612.288C484.337 614.219 488.02 614.219 489.861 614.219C491.703 614.219 493.545 614.219 493.545 616.151C495.386 616.151 495.386 616.151 497.228 616.151C499.069 616.151 502.752 616.151 504.594 616.151C506.436 616.151 506.436 616.151 508.277 616.151C510.119 616.151 510.119 616.151 511.96 616.151C513.802 616.151 517.485 614.219 519.327 614.219C521.168 614.219 524.851 612.288 526.693 612.288C528.535 612.288 532.218 610.356 534.059 608.425C535.901 606.493 539.584 606.493 541.426 604.562C543.267 602.63 545.109 600.699 546.95 598.767C548.792 591.041 550.634 589.11 552.475 587.178L554.317 585.247C556.158 583.315 558 581.384 559.842 579.452C561.683 577.521 563.525 575.589 565.366 573.657C565.366 571.726 567.208 569.795 569.05 567.863C570.891 565.931 570.891 562.068 572.733 560.137C572.733 558.205 574.574 554.342 574.574 552.411C574.574 550.479 576.416 546.616 576.416 544.685C576.416 542.753 576.416 540.822 576.416 538.89L576.416 536.959C576.416 535.027 576.416 533.096 576.416 531.164C576.416 531.164 576.416 531.164 576.416 529.233C576.416 527.301 576.416 523.438 574.574 521.507C574.574 519.575 574.574 519.575 574.574 517.644C574.574 515.712 574.574 515.712 574.574 513.781C572.733 509.918 570.891 504.123 569.05 498.329C567.208 492.534 563.525 488.671 559.842 484.808C558 482.877 556.158 480.945 554.317 479.014C556.158 479.014 556.158 479.014 556.158 479.014C559.842 479.014 563.525 479.014 565.366 477.082C569.049 477.082 570.891 475.151 574.574 475.151C578.257 475.151 580.099 473.219 583.782 471.288C589.307 469.356 594.832 465.493 600.356 461.63C602.198 459.699 605.881 457.767 607.723 455.836C609.564 453.904 613.247 451.973 615.089 448.11C620.614 442.315 624.297 436.521 627.98 432.658C627.98 430.726 629.822 430.726 629.822 428.794C629.822 426.863 631.663 424.931 631.663 423C633.505 419.137 633.505 417.205 635.347 413.342C637.188 409.479 637.188 407.548 639.03 403.685C639.03 399.822 640.871 397.89 640.871 394.027C640.871 392.096 640.871 392.096 640.871 390.164L640.871 388.233C640.871 386.301 640.871 384.37 640.871 382.438C640.871 378.575 639.03 376.644 639.03 372.781C639.03 368.918 637.188 366.986 635.347 363.123C633.505 359.26 633.505 357.329 631.663 353.466C629.822 351.534 627.98 347.671 626.139 345.74C624.297 343.808 622.455 339.945 620.614 338.014C616.931 334.151 613.248 330.288 611.406 328.356C607.723 326.425 605.881 324.493 600.356 320.63C598.515 318.699 594.832 318.699 592.99 316.767C589.307 314.836 587.465 314.836 583.782 314.836C580.099 314.836 578.257 312.904 574.574 312.904C570.891 312.904 569.049 312.904 567.208 310.973C565.366 310.973 563.525 310.973 561.683 310.973C559.842 310.973 558 310.973 556.158 310.973C552.475 310.973 548.792 310.973 546.95 310.973C543.267 310.973 541.426 310.973 537.743 310.973C534.059 310.973 530.376 310.973 528.535 312.904C521.168 312.904 515.644 316.767 510.119 316.767C506.436 318.699 502.752 318.699 499.069 320.63C497.228 320.63 493.545 322.562 491.703 322.562C484.337 324.493 478.812 326.425 473.287 328.356C471.446 328.356 467.762 330.288 464.079 330.288C460.396 330.288 458.554 332.219 454.871 332.219C453.03 332.219 451.188 334.151 449.347 334.151L447.505 334.151L443.822 336.082L441.98 336.082C440.139 336.082 438.297 338.014 436.455 338.014C430.931 339.945 423.564 341.877 418.04 343.808C414.356 345.74 412.515 345.74 408.832 347.671L405.149 347.671C403.307 347.671 401.465 349.603 399.624 349.603C395.941 351.534 390.416 351.534 386.733 353.466C384.891 353.466 384.891 353.466 383.049 353.466C384.891 351.534 386.733 351.534 388.574 349.603C390.416 349.603 392.257 347.671 392.257 347.671C392.257 347.671 394.099 347.671 394.099 345.74C395.941 343.808 397.782 343.808 397.782 343.808C399.624 341.877 401.465 341.877 403.307 339.945C405.149 338.014 406.99 338.014 408.832 336.082C410.673 334.151 412.515 334.151 414.356 332.219L416.198 332.219C418.04 330.288 419.881 330.288 419.881 328.356C421.723 326.425 423.564 326.425 423.564 324.493L425.406 324.493C429.089 322.562 432.772 320.63 434.614 318.699L436.455 316.767C438.297 316.767 438.297 314.836 440.139 314.836L441.98 312.904C443.822 310.973 445.663 310.973 447.505 309.041L449.347 309.041C453.03 307.11 456.713 305.178 458.554 303.247L460.396 301.315C462.238 299.384 465.921 297.452 469.604 295.521C471.446 295.521 471.446 293.589 473.287 293.589L475.129 293.589C476.97 291.658 478.812 291.658 480.653 289.726C482.495 287.794 484.337 287.794 486.178 285.863C486.178 285.863 488.02 285.863 488.02 283.931C488.02 283.931 489.861 283.931 489.861 282C493.545 280.068 497.228 278.137 500.911 274.274C502.752 272.342 504.594 272.342 506.436 270.411C508.277 268.479 510.119 268.479 511.96 266.548C513.802 264.616 515.644 264.616 517.485 262.685C519.327 260.753 521.168 260.753 523.01 258.822C528.535 254.959 530.376 253.027 534.059 251.096C537.743 249.164 541.426 245.301 545.109 243.37C548.792 241.438 552.475 237.575 554.317 235.644C556.158 233.712 558 233.712 558 231.781C559.842 229.849 559.842 229.849 561.683 227.918C563.525 227.918 563.525 225.986 565.366 225.986C567.208 224.055 569.049 222.123 570.891 220.192C572.733 220.192 572.733 218.26 574.574 218.26C576.416 216.329 578.257 214.397 581.941 212.466L583.782 210.534C585.624 208.603 589.307 206.671 591.148 204.74C592.99 202.808 594.832 202.808 594.832 200.877C596.673 198.945 598.515 197.014 600.356 197.014C607.723 191.219 615.089 185.425 620.614 179.63C627.98 173.836 633.505 168.041 639.03 164.178L640.871 164.178C642.713 162.247 646.396 158.384 650.079 154.52C653.762 150.658 657.446 148.726 659.287 144.863C662.97 141 664.812 139.068 666.653 135.205L668.495 133.274L670.337 131.342C672.178 129.411 674.02 125.548 677.703 123.616C681.386 119.753 683.228 115.89 686.911 112.027C688.752 110.096 688.752 110.096 690.594 108.164C692.436 106.233 694.277 104.301 696.119 102.37C699.802 98.5068 701.644 94.6438 703.485 90.7808L705.327 86.9178L705.327 84.9863C707.168 83.0548 707.168 81.1232 709.01 79.1917C710.852 75.3287 714.535 71.4657 716.376 67.6027C718.218 65.6712 718.218 63.7397 720.059 61.8082C720.059 59.8767 721.901 59.8767 721.901 57.9452C723.743 54.0822 725.584 52.1507 727.426 48.2876C727.426 46.3561 729.267 46.3561 729.267 44.4246C729.267 44.4246 729.267 42.4931 731.109 42.4931C731.109 40.5616 732.95 38.6301 732.95 38.6301L732.95 36.6986L732.95 34.7671C732.95 32.8356 734.792 32.8355 734.792 30.904C734.792 30.904 734.792 30.9041 736.634 28.9726L736.634 27.0411C744 17.3836 744 15.452 744 15.452Z" fill="#153226" fill-opacity="0.48"/>
</svg>
