<svg width="296" height="183" viewBox="0 0 296 183" fill="none" xmlns="http://www.w3.org/2000/svg">
<path d="M339.673 7.12618C339.674 6.29329 339.674 6.29329 339.673 7.12618C338.836 5.45952 338.836 5.45952 338.837 4.62664C337.999 3.79284 337.999 3.79284 337.161 2.95904C336.322 2.12527 335.484 1.29147 334.645 1.29056C333.806 1.28964 333.807 0.456787 332.968 0.455873C332.129 0.454959 332.129 0.454959 331.289 0.454045C330.45 0.453131 329.611 0.452217 329.611 0.452217C329.611 0.452217 328.772 0.451303 328.771 1.28416C328.771 1.28416 328.771 1.28419 328.77 2.11704C328.77 2.11704 328.77 2.11704 328.769 2.9499C328.768 3.78278 327.929 4.61475 327.928 5.44761L327.927 6.28052C327.926 7.11341 327.086 7.94538 327.086 7.94538C326.245 9.61021 325.404 11.275 324.563 12.9399C324.562 13.7727 323.723 13.7718 323.722 14.6047C322.882 15.4367 322.041 17.1015 322.04 17.9344C321.199 19.5992 320.358 21.2641 319.517 22.9289C317.837 25.4257 316.996 27.0905 315.316 28.7545C312.795 32.0832 310.274 35.412 307.754 37.9079C306.074 39.5718 305.233 41.2367 303.554 42.0677C301.873 43.7316 301.033 45.3965 299.353 46.2275C297.673 47.8914 296.833 48.7234 295.153 50.3873C294.312 52.0522 292.633 52.8832 291.792 54.548C290.952 56.2129 289.272 57.0439 288.432 57.8759C286.752 59.5398 285.072 61.2037 284.231 62.8686C282.551 64.5325 280.871 66.1964 280.03 67.8613C279.19 68.6932 278.35 69.5252 277.51 70.3571C276.67 71.1891 275.83 72.0211 274.99 72.853C272.47 75.3489 269.111 77.8439 266.591 80.3398C263.232 82.8348 259.873 85.3297 257.353 87.8256C256.513 88.6576 254.834 89.4886 253.994 90.3206L253.153 91.1525C252.313 91.9845 251.474 91.9836 251.473 92.8165C250.633 93.6484 249.794 93.6475 248.954 94.4795C248.114 95.3114 246.435 96.1425 244.756 96.9735C243.077 97.8046 242.237 98.6366 240.558 99.4676L233.84 103.625C232.161 104.456 231.321 105.288 230.481 106.12C228.802 106.951 227.962 107.783 225.443 109.446L224.603 110.278L223.764 110.277L222.925 110.276C222.085 111.108 221.246 111.107 220.406 111.939C219.566 112.771 218.726 113.603 217.047 113.601C216.208 113.6 216.207 114.433 215.368 114.432C213.689 115.263 212.849 116.095 211.17 116.926L210.33 117.758L208.651 118.589C207.811 119.421 206.132 120.252 205.292 121.084C204.452 121.916 202.773 122.747 201.933 123.579L201.092 124.411C199.413 125.242 197.734 126.073 196.054 127.737C195.214 128.569 194.375 128.568 193.535 129.4C192.695 130.232 191.856 130.231 191.016 131.063C190.176 131.895 188.497 132.726 187.658 132.725C187.658 132.725 186.819 132.724 186.818 133.557C185.979 133.556 185.978 134.389 185.139 134.388C184.299 135.22 182.62 135.218 181.78 136.05C180.101 136.881 178.422 137.712 176.743 138.543C175.904 138.542 175.064 139.374 174.225 139.373C174.225 139.373 174.225 139.373 173.386 139.373L172.546 139.372L171.707 139.371C170.028 140.202 167.51 141.032 166.67 141.864C165.83 142.696 164.991 142.695 164.151 143.527C164.991 142.695 165.83 142.696 165.831 141.863C167.511 140.199 170.03 138.536 171.71 136.872C172.55 136.04 173.389 136.041 173.39 135.208L174.23 134.376L175.069 134.377C175.909 133.545 176.749 132.713 177.588 132.714C178.428 131.882 179.268 131.05 180.947 131.052C181.787 130.22 183.466 129.389 184.305 129.39C185.145 128.558 185.984 128.559 186.824 127.727C187.664 126.895 189.343 126.064 190.182 126.065C191.022 125.233 191.861 125.234 193.541 124.403C194.381 123.571 195.22 123.572 196.899 122.741C197.739 121.909 198.579 121.077 200.258 120.246C201.098 119.414 201.938 118.582 202.777 118.583L203.616 118.584C205.295 117.752 206.135 116.921 207.815 115.257C208.655 114.425 209.494 114.426 210.334 113.594L211.174 112.762C212.014 111.93 212.854 111.931 212.855 111.098C213.694 111.099 213.695 110.266 214.535 109.434L215.375 108.602L217.054 107.771C217.894 106.939 218.734 106.107 219.574 105.275L220.414 104.443C221.253 104.444 221.254 103.611 222.093 103.612L222.933 102.78C223.772 102.781 223.773 101.948 224.613 101.116C225.453 100.284 225.453 100.284 226.293 99.4521L227.133 98.6201C227.133 98.6201 227.133 98.6201 227.973 97.7881L228.813 96.9562C229.653 96.1242 229.653 96.1242 230.493 95.2922C231.333 94.4603 231.334 93.6274 232.174 92.7954L232.175 91.9626C233.016 90.2977 233.856 89.4658 234.696 88.6338C235.536 87.8019 236.377 86.137 236.378 85.3041C237.218 84.4722 237.22 82.8064 238.06 81.9744C238.9 80.3096 238.901 79.4767 238.903 77.811C238.904 76.9781 239.745 75.3133 239.746 74.4804C239.748 72.8147 239.749 71.9818 240.59 70.3169C240.59 69.4841 240.592 67.8183 240.593 66.9854L240.594 66.1526C240.595 65.3197 240.597 63.6539 240.598 62.821C240.6 61.1553 240.6 60.3224 239.763 58.6558C239.765 56.99 238.927 56.1562 238.929 54.4905C238.929 53.6576 238.092 51.9909 237.254 51.1571C236.416 50.3233 235.578 48.6567 235.579 47.8238C234.741 46.99 233.903 46.1562 233.066 44.4895C231.389 42.822 229.714 40.3215 228.037 38.6539C226.361 36.9863 223.845 35.3178 221.329 34.4822C220.491 33.6484 219.652 33.6475 217.974 32.8128C217.974 32.8128 217.135 32.8119 217.136 31.979C216.297 31.9781 216.298 31.1452 215.459 31.1443C214.62 31.1434 214.62 31.1434 213.782 30.3096C212.943 30.3087 212.943 30.3087 212.103 30.3078C210.425 30.306 209.586 30.305 207.908 30.3032L207.069 30.3023L206.23 30.3014C205.391 30.3005 204.551 30.2996 204.551 30.2996C202.873 30.2977 202.034 30.2968 200.355 31.1279C199.516 31.127 197.837 31.958 196.998 31.9571C196.159 31.9562 194.479 32.7872 193.639 33.6192C192.799 34.4512 191.121 34.4493 190.281 35.2813C189.441 36.1132 187.763 36.1115 186.923 36.9434C186.083 37.7754 184.404 38.6064 183.565 38.6055C182.725 39.4374 181.885 40.2694 180.206 41.1004C179.365 41.9324 177.685 43.5963 176.845 44.4283L176.005 45.2603C176.006 44.4274 176.007 43.5945 175.17 41.9278C175.171 41.095 174.334 39.4283 173.496 37.7617C173.497 36.9288 172.659 36.095 172.659 36.095C172.66 35.2621 171.822 34.4283 170.983 34.4274C170.983 33.5945 170.144 33.5936 170.145 32.7607C169.307 31.9269 169.308 31.0941 168.469 31.0931C167.631 30.2593 166.792 29.4256 165.116 27.758C164.278 26.9242 162.601 26.0895 161.763 24.4228C160.925 23.589 160.086 23.5881 160.087 22.7552C159.248 22.7543 159.249 21.9214 158.41 21.9205C157.571 21.0867 155.894 20.252 155.056 19.4183C154.217 19.4173 153.379 18.5835 152.539 18.5826C151.7 18.5817 150.862 17.7479 150.023 17.747C148.346 16.9123 146.667 16.9105 145.828 16.9096C144.989 16.9087 144.15 16.9077 143.311 16.9068C142.472 16.9059 142.472 16.9059 141.633 16.905L140.794 16.9041C139.955 16.9032 138.276 16.9013 137.437 16.9004C135.759 16.8986 134.081 16.8968 132.403 16.895C130.724 16.8931 129.884 17.7251 128.205 18.5561C126.526 19.3872 125.687 19.3863 124.008 20.2173C122.329 21.0484 121.489 21.8803 120.649 22.7123C119.809 23.5443 118.13 24.3753 117.289 26.0401C116.449 26.8721 115.609 27.7041 114.768 29.3689C113.928 30.2009 113.087 31.8657 112.247 32.6977C111.407 33.5296 111.406 34.3625 111.406 34.3625C111.405 35.1954 110.565 36.0273 110.565 36.0273C109.724 37.6922 109.723 38.525 108.882 40.1899C108.041 41.8547 108.04 42.6876 107.199 44.3524C106.359 46.0173 106.358 46.8501 106.356 48.5159C106.355 49.3488 106.353 51.0145 106.352 51.8474L106.351 52.6803L106.35 53.5132C106.349 55.1789 106.348 56.0118 106.347 56.8447C106.346 57.6776 106.344 59.3433 106.343 60.1762C106.341 61.8419 107.178 64.3415 107.176 66.0072C107.175 66.8401 108.012 68.5068 108.011 69.3396L108.01 70.1725C108.01 71.0054 108.009 71.8383 108.847 72.6721L108.846 73.5049L108.845 74.3378L108.006 74.3369C108.842 76.8365 108.84 78.5022 109.677 81.0017C109.675 82.6675 110.513 83.5013 111.351 85.168C112.188 86.8346 112.187 87.6675 113.024 89.3342C113.862 90.168 113.861 91.8337 114.699 92.6675L114.698 93.5004C114.697 94.3332 115.535 95.167 115.534 95.9999C115.533 96.8328 115.533 96.8328 116.372 97.6666L117.209 99.3332L117.208 100.166C118.045 101.833 118.882 104.332 119.719 105.999C121.394 109.332 122.23 111.832 123.905 114.332C123.904 115.165 124.744 115.166 124.743 115.999C124.742 116.832 125.581 116.833 125.58 117.666L125.579 118.499C125.578 119.331 126.416 120.165 126.416 120.165C126.415 120.998 127.255 120.999 127.254 121.832L127.253 122.665L127.252 123.498C128.09 124.331 128.089 125.164 128.927 125.998L129.765 127.665L129.764 128.498C130.6 130.997 131.437 132.664 133.113 135.164C133.951 135.998 133.949 137.664 134.787 139.33C134.786 140.163 135.624 140.997 135.623 141.83C135.622 142.663 136.461 142.664 136.46 143.497C137.298 144.33 137.297 145.996 138.135 146.83C138.134 147.663 138.973 147.664 138.972 148.497L138.134 147.663C137.297 145.996 135.62 144.329 134.783 142.662L133.945 141.828C133.107 140.162 131.431 138.494 130.595 135.994L130.596 135.162C129.758 133.495 128.083 130.994 126.407 128.494C126.408 127.661 125.57 126.827 125.571 125.994C124.734 124.328 123.895 123.494 123.058 121.827C122.221 120.161 120.545 117.66 119.708 115.994C118.871 114.327 118.033 113.493 117.195 111.826L116.358 110.16C115.52 109.326 115.521 108.493 114.682 108.492C113.844 106.825 113.006 105.992 112.169 104.325C109.655 100.991 107.142 96.8236 103.79 92.6556C102.953 90.9889 101.277 89.3214 99.6012 86.8209C98.763 85.9871 97.9257 84.3204 97.0875 83.4867C96.2493 82.6529 95.4111 81.8191 94.5729 80.9853C92.8965 79.3177 91.2201 77.6501 89.5437 75.9825C88.7055 75.1487 87.8673 74.315 87.0291 73.4812C86.1909 72.6474 85.3518 72.6465 85.3527 71.8136L84.5145 70.9798C83.6763 70.146 82.8381 69.3122 81.9999 68.4784C81.1617 67.6446 80.3235 66.8108 78.6462 65.9761C76.1316 63.4748 75.2934 62.641 74.4552 61.8072C73.6169 60.9734 71.9387 60.9716 71.1005 60.1378C70.2623 59.304 68.5841 59.3022 67.745 59.3012C66.9059 59.3003 65.2286 58.4657 64.3895 58.4647C62.7113 58.4629 61.8722 58.462 60.1939 58.4602C58.5157 58.4583 57.6766 58.4574 56.8375 58.4565C55.9984 58.4556 54.3202 58.4538 53.4811 58.4529C51.8029 58.451 50.9628 59.283 50.1237 59.2821C49.2846 59.2811 47.6055 60.1122 46.7655 60.9442C44.2472 61.7743 43.4072 62.6063 42.5681 62.6053C40.889 63.4364 40.049 64.2684 39.2099 64.2674C38.3699 65.0994 37.5298 65.9314 35.8516 65.9295C34.1716 67.5934 31.6525 69.2565 29.9724 70.9204C29.1324 71.7524 28.2924 72.5843 27.4524 73.4163C26.6124 74.2482 25.7714 75.9131 25.7705 76.746C24.9305 77.5779 24.9296 78.4108 24.0887 80.0756C24.9251 82.5752 24.0851 83.4071 24.0832 85.0729C24.0823 85.9058 24.0805 87.5715 24.0796 88.4044C24.0778 90.0702 24.0769 90.903 24.076 91.7359C24.0751 92.5688 24.0742 93.4016 24.0733 94.2345L24.0724 95.0674L24.0714 95.9003C24.0705 96.7332 24.0705 96.7332 24.0696 97.566L24.0687 98.3989L24.0678 99.2318C24.0669 100.065 24.0669 100.065 24.066 100.898C24.0651 101.73 24.0651 101.73 24.0642 102.563C24.0633 103.396 24.9006 105.063 25.7388 105.897C25.7379 106.73 26.5761 107.563 26.5752 108.396C26.5752 108.396 26.5743 109.229 27.4134 109.23C28.2516 110.064 28.2507 110.897 29.088 112.563C29.9262 113.397 29.9252 114.23 30.7635 115.064C31.6017 115.898 32.4399 116.731 33.2781 117.565C34.1163 118.399 34.9545 119.233 35.7927 120.066C36.6309 120.9 37.47 120.901 38.3082 121.735C37.4691 121.734 36.63 121.733 35.7908 121.732C33.2735 121.73 29.9162 122.559 27.3979 123.389C26.5579 124.221 24.8797 124.219 23.2006 125.05C21.5215 125.881 20.6814 126.713 19.0023 127.544C18.1623 128.376 16.4832 129.207 15.6423 130.872C14.8022 131.704 13.1222 133.368 12.2822 134.2C11.4422 135.032 10.6022 135.864 9.76215 136.696C8.92214 137.528 8.92214 137.528 8.08212 138.36C8.0794 140.858 7.24029 140.857 7.23938 141.69C6.39937 142.522 6.39846 143.355 5.55844 144.187L4.71752 145.852L3.87751 146.684L3.8766 147.517L3.03658 148.349L3.03568 149.182C3.03477 150.014 2.19566 150.013 2.19475 150.846C2.19385 151.679 1.35383 152.511 1.35383 152.511C1.35292 153.344 0.512906 154.176 0.511999 155.009C0.511092 155.842 0.511092 155.842 0.510185 156.675C0.509278 157.508 0.50837 158.34 0.507463 159.173C0.505649 160.839 0.503834 162.505 0.50202 164.171C0.501113 165.003 0.501113 165.003 0.500206 165.836L0.499298 166.669C0.498391 167.502 0.497484 168.335 0.497484 168.335C0.496577 169.168 0.49567 170.001 1.33387 170.834C1.33296 171.667 2.17116 172.501 2.17026 173.334C3.00846 174.168 3.00664 175.834 3.84394 177.5C4.68123 179.167 5.51943 180.001 6.35764 180.834C7.19584 181.668 7.19584 181.668 8.03404 182.502C8.87224 183.336 8.87224 183.336 9.71044 184.17C10.5486 185.003 12.226 185.838 13.0642 186.672C13.9033 186.673 13.9024 187.506 14.7415 187.507C15.5806 187.508 16.4188 188.341 17.257 189.175C18.0952 190.009 19.7725 190.844 21.4507 190.845C23.128 191.68 23.9671 191.681 25.6444 192.516C27.3226 192.518 28.1608 193.351 29.8391 193.353C31.5173 193.355 33.1955 193.357 34.8737 193.359C36.5519 193.361 38.2302 193.362 39.9084 193.364C40.7475 193.365 42.4257 193.367 43.2657 192.535L44.1048 192.536C45.783 192.538 47.4622 191.707 48.3013 191.708C49.1404 191.708 49.9804 190.877 51.6586 190.878C52.4977 190.879 52.4977 190.879 52.4977 190.879C54.1759 190.881 55.0159 190.049 56.6942 190.051C58.3724 190.053 59.2124 189.221 60.0515 189.222L60.8906 189.223C63.4098 187.56 65.088 187.561 65.928 186.729C67.6071 185.898 69.2853 185.9 70.1253 185.068C70.9654 184.236 72.6436 184.238 73.4836 183.406L74.3227 183.407C76.0018 182.576 77.681 181.745 79.3592 181.747C80.1992 180.915 81.8774 180.917 82.7174 180.085C84.3965 179.254 86.0748 179.256 86.9148 178.424C88.5939 177.593 89.433 177.593 91.9512 176.763L92.7903 176.764C93.6294 176.765 95.3086 175.934 96.9877 175.103C97.8268 175.104 98.6668 174.272 99.5059 174.273C100.345 174.274 101.185 173.442 102.024 173.443L102.863 173.444L103.702 173.445C104.542 173.446 105.382 172.614 106.221 172.614L107.061 171.783C108.74 170.951 110.418 170.953 111.258 170.121C112.097 170.122 112.097 170.122 112.937 169.29C113.776 169.291 114.616 168.459 115.455 168.46C116.294 168.461 117.974 167.63 118.813 167.631C119.652 167.632 120.492 166.8 121.331 166.801C123.01 165.97 124.688 165.972 126.367 165.141C127.206 165.141 128.886 164.31 130.564 164.312L131.403 164.313C132.242 164.314 133.081 164.315 133.921 163.483C134.76 163.484 135.599 163.485 136.439 162.653C137.279 162.654 137.279 162.654 138.118 162.655C137.279 162.654 137.278 163.487 136.438 163.486C135.599 163.485 134.759 164.317 134.759 164.317L133.92 164.316C133.081 164.315 133.08 165.148 132.241 165.147L131.402 165.146L130.563 165.145L129.723 165.977C128.884 165.976 128.044 166.808 128.044 166.808C127.205 166.807 127.204 167.64 126.365 167.639C125.526 167.638 125.525 168.471 124.686 168.47C123.846 168.469 123.846 169.302 123.006 169.301L122.167 169.3C122.167 169.3 121.328 169.299 121.327 170.132C120.488 170.131 120.487 170.964 119.648 170.963C119.648 170.963 118.809 170.962 118.808 171.795C117.969 171.794 117.129 172.626 117.129 172.626L116.29 172.625L115.451 172.625C112.932 174.288 111.253 175.119 109.573 175.95C107.894 176.781 106.215 177.612 104.536 178.443L106.213 179.277C105.374 179.277 105.373 180.109 104.534 180.109C103.695 180.108 103.694 180.94 102.855 180.94C102.015 181.772 100.337 181.77 99.4969 182.602C97.8177 183.433 95.2986 185.096 93.6195 185.927C92.7795 186.759 91.9404 186.758 91.1003 187.59C89.4212 188.421 88.5812 189.253 86.9021 190.084C86.0621 190.916 85.223 190.915 83.5438 191.746L82.7038 192.578C81.8647 192.577 81.8638 193.41 81.0247 193.409C80.1856 193.408 80.1847 194.241 79.3456 194.24L78.5055 195.072L77.6655 195.904C76.8264 195.903 76.8255 196.736 75.9864 196.735L74.3073 197.566C73.4682 197.565 72.6282 198.397 72.6282 198.397C71.789 198.396 71.7881 199.229 70.949 199.228C70.1099 199.227 70.109 200.06 69.2699 200.059C68.4299 200.891 67.5908 200.89 66.7508 201.722C65.9108 202.554 65.0707 203.386 64.2307 204.218L63.3907 205.05C61.7116 205.881 60.0315 207.545 58.3515 209.209C57.5115 210.041 56.6715 210.873 55.8315 211.705C54.9915 212.537 54.1514 213.369 53.3114 214.201C52.4714 215.033 51.6314 215.865 50.7905 217.529C49.9505 218.361 49.1104 219.193 48.2695 220.858C47.4286 222.523 45.7477 225.02 44.9067 226.685C44.9049 228.35 44.0649 229.182 44.064 230.015C44.0631 230.848 43.2231 231.68 43.2213 233.346C43.2203 234.179 42.3794 235.844 42.3785 236.676L41.5385 237.508C41.5376 238.341 40.6976 239.173 40.6967 240.006C40.6949 241.672 40.694 242.505 40.693 243.338L40.6912 245.003C40.6903 245.836 40.6894 246.669 39.8494 247.501C39.8485 248.334 39.8467 250 39.8458 250.833C40.6831 252.499 40.6813 254.165 40.6803 254.998C40.6803 254.998 40.6803 254.998 40.6794 255.831C40.6785 256.664 40.6776 257.497 40.6767 258.329C41.514 259.996 41.5131 260.829 41.5113 262.495C41.5104 263.328 42.3477 264.994 43.1859 265.828C44.0241 266.662 44.0232 267.495 44.8605 269.161C45.6987 269.995 46.5369 270.829 46.536 271.662C47.3742 272.496 48.2124 273.329 49.0506 274.163C49.8888 274.997 50.727 275.831 52.4043 276.666C52.4043 276.666 53.2425 277.499 54.0816 277.5C54.9207 277.501 54.9198 278.334 55.7589 278.335C56.5971 279.169 57.4362 279.17 59.1144 279.171C59.9535 279.172 61.6308 280.007 62.4699 280.008C63.3091 280.009 64.9873 280.011 65.8255 280.845C66.6646 280.845 68.3428 280.847 69.1819 280.848C70.021 280.849 71.6992 280.851 72.5383 280.852C73.3774 280.853 74.2166 280.854 75.8948 280.855L76.7339 280.856C77.573 280.857 79.2512 280.859 80.0903 280.86C80.9294 280.861 82.6086 280.03 83.4477 280.031C84.2868 280.032 85.9659 279.201 86.805 279.202C87.645 278.37 89.3232 278.371 90.1632 277.54C91.8424 276.708 92.6824 275.876 93.5224 275.045C95.2015 274.213 96.8816 272.55 98.5607 271.719C99.4007 270.887 100.24 270.887 100.241 270.055C100.24 270.887 100.239 271.72 100.238 272.553C100.237 273.386 100.237 273.386 100.236 274.219C100.234 275.885 100.233 276.718 101.071 278.384C101.069 280.05 101.906 281.717 102.744 282.55C103.582 284.217 103.581 285.05 104.418 286.717C104.417 287.55 105.256 287.55 105.255 288.383C107.774 287.553 107.774 287.553 108.612 288.387C109.45 289.221 110.287 290.887 111.126 291.721C111.963 293.388 113.64 294.223 114.478 295.056C115.317 295.89 116.993 297.558 117.831 298.392C118.669 299.225 120.347 300.06 121.185 300.894C122.024 300.895 122.862 301.729 122.862 301.729L123.701 301.729C124.54 301.73 125.379 302.564 125.379 302.564C127.895 303.4 131.251 304.236 133.768 304.239C135.446 304.241 136.285 304.242 137.963 304.244C139.642 304.245 140.482 303.414 142.16 303.415C145.517 302.586 148.036 300.923 149.716 299.259C151.395 298.428 152.235 297.596 153.915 296.765C155.594 295.934 156.434 295.102 157.274 294.27C158.114 293.438 158.954 292.606 160.633 291.775C164.831 289.281 165.671 288.449 166.511 287.617C167.352 285.952 168.192 285.12 169.032 284.288C169.872 283.456 170.713 281.792 171.554 280.127C172.394 279.295 173.235 277.63 173.237 275.964C174.078 274.299 174.919 272.635 174.92 270.969C174.922 269.303 175.763 267.638 175.764 266.805C175.766 265.14 175.767 264.307 175.769 262.641C175.77 260.975 175.772 259.309 175.773 258.477C175.775 256.811 175.777 255.145 175.778 254.312L175.779 253.479C175.78 252.646 175.781 250.981 175.782 250.148C175.784 248.482 175.785 247.649 174.948 245.983C174.949 244.317 174.111 243.483 174.113 241.817C174.115 240.151 173.278 238.485 173.279 237.652C173.28 235.986 172.442 235.152 172.444 233.487C172.445 232.654 171.608 230.987 171.608 230.154L171.609 229.321C171.611 227.656 170.773 226.822 170.775 225.156L170.776 224.323C170.777 223.49 169.939 221.824 169.94 220.991C169.103 219.324 169.104 218.491 168.267 216.825C167.429 215.158 167.43 214.325 166.593 212.658C166.594 211.825 165.756 210.159 165.757 209.326C164.919 208.492 164.921 206.826 164.083 205.993C164.084 205.16 163.245 205.159 163.246 204.326C162.407 203.492 162.409 201.826 161.571 200.993C161.572 200.16 160.734 199.326 160.734 199.326C160.735 198.493 160.735 198.493 159.896 197.659C159.059 195.993 159.06 195.16 158.223 193.493L157.385 191.826L157.386 190.993C157.387 190.161 156.549 189.327 156.549 189.327C156.55 188.494 155.712 187.66 155.713 186.827L155.714 185.994C154.876 184.328 154.878 182.662 154.041 180.995C154.042 180.162 153.203 179.329 153.204 178.496C153.206 176.83 152.368 175.996 152.37 174.33C152.371 173.498 151.533 171.831 150.696 170.164C150.696 170.164 150.696 170.164 150.697 169.331C150.698 168.499 149.859 168.498 149.86 167.665C150.698 168.499 151.536 169.332 151.535 170.165C152.373 170.999 152.372 171.832 153.211 172.666L153.21 173.499C153.209 174.331 154.047 175.165 154.047 175.165L154.885 175.999L154.884 176.832C154.883 177.665 155.723 177.666 155.722 178.499C156.56 179.332 156.559 180.165 157.396 181.832L158.234 182.666C159.072 184.332 159.909 185.999 160.746 187.666C161.585 188.499 161.583 190.165 162.421 190.999C164.096 193.499 164.932 196.832 166.606 200.165C168.28 204.331 170.793 208.499 173.306 212.666L174.144 213.499L174.143 214.332C174.98 215.999 175.818 217.666 176.655 219.332C177.493 220.166 177.492 220.999 178.33 221.833C179.168 223.499 180.006 224.333 180.843 226C181.681 226.834 181.68 228.499 182.518 229.333C183.356 230.167 183.355 231 184.193 231.834C185.031 233.5 186.706 236.001 187.543 237.667C189.219 240.168 190.895 241.836 191.733 243.502C192.571 244.336 193.409 245.17 194.247 246.004C195.085 246.837 195.924 247.671 196.762 248.505C198.438 250.172 200.115 251.84 201.791 253.508C204.307 255.176 205.983 256.844 207.66 257.678C211.014 260.181 215.208 261.851 220.24 264.355C221.078 265.189 222.756 265.191 223.595 265.192C224.434 265.193 225.273 265.194 225.272 266.026C226.112 266.027 226.112 266.027 226.951 266.028C227.79 266.029 229.468 266.031 230.307 266.032C231.146 266.033 231.146 266.033 231.985 266.034C232.824 266.035 232.824 266.035 233.663 266.036C234.503 266.036 236.182 265.205 237.021 265.206C237.86 265.207 239.539 264.376 240.378 264.377C241.217 264.378 242.896 263.547 243.736 262.715C244.576 261.883 246.255 261.885 247.095 261.053C247.935 260.221 248.775 259.389 249.615 258.557C250.457 255.226 251.297 254.394 252.137 253.563L252.977 252.731C253.818 251.899 254.658 251.067 255.498 250.235C256.338 249.403 257.178 248.571 258.018 247.739C258.018 246.906 258.859 246.074 259.699 245.242C260.539 244.41 260.54 242.744 261.38 241.912C261.381 241.079 262.222 239.415 262.223 238.582C262.224 237.749 263.065 236.084 263.066 235.251C263.067 234.418 263.068 233.585 263.069 232.752L263.069 231.92C263.07 231.087 263.071 230.254 263.072 229.421C263.072 229.421 263.072 229.421 263.073 228.588C263.074 227.755 263.076 226.089 262.238 225.256C262.239 224.423 262.239 224.423 262.239 223.59C262.24 222.757 262.24 222.757 262.241 221.924C261.404 220.258 260.568 217.758 259.731 215.258C258.895 212.759 257.218 211.091 255.542 209.424C254.704 208.59 253.866 207.756 253.027 206.922C253.867 206.923 253.867 206.923 253.867 206.923C255.545 206.925 257.223 206.927 258.063 206.095C259.741 206.097 260.581 205.265 262.259 205.267C263.938 205.268 264.778 204.437 266.457 203.605C268.975 202.775 271.494 201.112 274.013 199.449C274.853 198.617 276.532 197.786 277.372 196.954C278.212 196.122 279.892 195.291 280.732 193.626C283.253 191.131 284.933 188.634 286.613 186.97C286.614 186.137 287.454 186.138 287.454 185.305C287.455 184.472 288.295 183.64 288.296 182.807C289.137 181.142 289.138 180.31 289.979 178.645C290.82 176.98 290.821 176.147 291.662 174.482C291.664 172.816 292.504 171.985 292.505 170.319C292.506 169.486 292.506 169.486 292.507 168.653L292.508 167.82C292.509 166.987 292.51 166.154 292.511 165.321C292.513 163.656 291.674 162.822 291.676 161.156C291.678 159.49 290.84 158.657 290.003 156.99C289.165 155.323 289.166 154.49 288.329 152.824C287.491 151.99 286.653 150.323 285.815 149.49C284.977 148.656 284.14 146.989 283.302 146.155C281.625 144.488 279.949 142.82 279.111 141.986C277.433 141.152 276.595 140.318 274.079 138.649C273.241 137.816 271.563 137.814 270.725 136.98C269.048 136.145 268.208 136.144 266.53 136.142C264.852 136.141 264.014 135.307 262.336 135.305C260.657 135.303 259.818 135.302 258.98 134.469C258.141 134.468 257.302 134.467 256.463 134.466C255.624 134.465 254.785 134.464 253.945 134.463C252.267 134.461 250.589 134.459 249.75 134.458C248.072 134.457 247.233 134.456 245.554 134.454C243.876 134.452 242.198 134.45 241.358 135.282C238.001 135.279 235.482 136.942 232.965 136.939C231.286 137.77 229.608 137.768 227.929 138.599C227.089 138.598 225.41 139.429 224.571 139.428C221.214 140.258 218.696 141.088 216.177 141.918C215.338 141.917 213.659 142.748 211.981 142.746C210.303 142.744 209.463 143.576 207.784 143.574C206.945 143.573 206.105 144.405 205.266 144.405L204.427 144.404L202.748 145.235L201.909 145.234C201.07 145.233 200.23 146.065 199.391 146.064C196.872 146.894 193.515 147.723 190.997 148.553C189.318 149.384 188.479 149.384 186.8 150.215L185.121 150.213C184.282 150.212 183.442 151.044 182.603 151.043C180.924 151.874 178.407 151.871 176.728 152.702C175.888 152.701 175.888 152.701 175.049 152.7C175.889 151.868 176.728 151.869 177.568 151.037C178.408 151.038 179.248 150.206 179.248 150.206C179.248 150.206 180.087 150.207 180.088 149.374C180.928 148.542 181.767 148.543 181.767 148.543C182.607 147.711 183.446 147.712 184.286 146.88C185.126 146.048 185.965 146.049 186.805 145.217C187.645 144.385 188.484 144.386 189.324 143.554L190.163 143.555C191.003 142.723 191.842 142.724 191.843 141.891C192.683 141.059 193.522 141.06 193.523 140.227L194.362 140.228C196.041 139.397 197.721 138.566 198.561 137.734L199.401 136.902C200.24 136.903 200.241 136.07 201.08 136.071L201.92 135.239C202.76 134.407 203.599 134.408 204.439 133.576L205.278 133.577C206.957 132.746 208.636 131.915 209.476 131.083L210.316 130.251C211.156 129.419 212.835 128.588 214.515 127.757C215.354 127.758 215.355 126.925 216.194 126.926L217.033 126.927C217.873 126.095 218.712 126.096 219.552 125.264C220.392 124.432 221.231 124.433 222.071 123.601C222.071 123.601 222.91 123.602 222.911 122.769C222.911 122.769 223.75 122.77 223.751 121.937C225.43 121.106 227.109 120.275 228.789 118.611C229.629 117.779 230.469 117.78 231.309 116.948C232.149 116.116 232.988 116.117 233.828 115.285C234.668 114.453 235.507 114.454 236.347 113.622C237.187 112.79 238.026 112.791 238.866 111.959C241.385 110.296 242.225 109.464 243.904 108.633C245.583 107.802 247.263 106.138 248.943 105.307C250.622 104.476 252.302 102.812 253.142 101.98C253.982 101.148 254.821 101.149 254.822 100.316C255.662 99.4841 255.662 99.484 256.502 98.6521C257.341 98.653 257.342 97.8201 258.181 97.821C259.021 96.9891 259.861 96.1571 260.701 95.3251C261.54 95.3261 261.541 94.4932 262.38 94.4941C263.22 93.6621 264.06 92.8302 265.739 91.9991L266.579 91.1672C267.419 90.3352 269.098 89.5042 269.938 88.6722C270.778 87.8403 271.618 87.8412 271.618 87.0083C272.458 86.1763 273.298 85.3444 274.138 85.3453C277.497 82.8503 280.856 80.3553 283.376 77.8594C286.735 75.3644 289.255 72.8686 291.774 71.2056L292.613 71.2065C293.453 70.3745 295.133 68.7106 296.813 67.0467C298.493 65.3827 300.173 64.5517 301.014 62.8868C302.694 61.2229 303.534 60.391 304.375 58.7261L305.215 57.8942L306.055 57.0622C306.895 56.2302 307.735 54.5654 309.415 53.7344C311.095 52.0704 311.936 50.4056 313.616 48.7416C314.456 47.9097 314.456 47.9097 315.296 47.0777C316.136 46.2458 316.976 45.4138 317.816 44.5819C319.496 42.9179 320.337 41.2531 321.178 39.5883L322.018 37.9234L322.019 37.0905C322.859 36.2586 322.86 35.4257 323.7 34.5937C324.541 32.9289 326.221 31.265 327.062 29.6002C327.902 28.7682 327.903 27.9353 328.743 27.1034C328.744 26.2705 329.583 26.2714 329.584 25.4385C330.425 23.7737 331.265 22.9417 332.106 21.2768C332.107 20.444 332.946 20.4449 332.947 19.612C332.947 19.612 332.948 18.7791 333.787 18.78C333.788 17.9472 334.628 17.1152 334.628 17.1152L334.629 16.2823L334.63 15.4495C334.63 14.6166 335.47 14.6175 335.47 13.7846C335.47 13.7846 335.47 13.7846 336.311 12.9527L336.311 12.1198C339.672 7.95909 339.673 7.12618 339.673 7.12618Z" fill="#FFFEE6"/>
</svg>
