<svg width="500" height="658" viewBox="0 0 500 658" fill="none" xmlns="http://www.w3.org/2000/svg">
<path d="M689.548 744.028C691.479 744.028 691.479 744.028 689.548 744.028C693.411 742.186 693.411 742.186 695.342 742.186C697.274 740.345 697.274 740.345 699.206 738.503C701.137 736.662 703.069 734.82 703.069 732.978C703.069 731.137 705 731.137 705 729.295C705 727.454 705 727.454 705 725.612C705 723.77 705 721.929 705 721.929C705 721.929 705 720.087 703.069 720.087C703.069 720.087 703.069 720.087 701.137 720.087C701.137 720.087 701.137 720.087 699.206 720.087C697.274 720.087 695.343 718.246 693.411 718.246H691.479C689.548 718.246 687.616 716.404 687.616 716.404C683.753 714.562 679.89 712.721 676.027 710.879C674.096 710.879 674.096 709.038 672.164 709.038C670.233 707.196 666.37 705.355 664.438 705.355C660.575 703.513 656.712 701.671 652.849 699.83C647.055 696.147 643.192 694.305 639.329 690.622C631.603 685.097 623.877 679.572 618.082 674.048C614.219 670.364 610.356 668.523 608.425 664.84C604.562 661.157 600.699 659.315 598.767 655.632C594.904 651.949 592.973 650.107 589.11 646.424C585.247 644.582 583.315 640.899 579.452 639.058C575.589 637.216 573.658 633.533 571.726 631.691C567.863 628.008 564 624.325 560.137 622.483C556.274 618.8 552.411 615.117 548.548 613.275C546.616 611.434 544.685 609.592 542.753 607.751C540.822 605.909 538.89 604.067 536.959 602.226C531.164 596.701 525.37 589.335 519.575 583.81C513.781 576.444 507.986 569.077 502.192 563.553C500.26 561.711 498.329 558.028 496.397 556.186L494.466 554.345C492.534 552.503 492.534 550.662 490.603 550.662C488.671 548.82 488.671 546.978 486.74 545.137C484.808 543.295 482.877 539.612 480.945 535.929C479.014 532.246 477.082 530.404 475.151 526.721L465.493 511.988C463.562 508.305 461.63 506.464 459.699 504.622C457.767 500.939 455.836 499.097 451.973 493.572L450.041 491.731V489.889V488.048C448.11 486.206 448.11 484.364 446.178 482.523C444.247 480.681 442.315 478.84 442.315 475.157C442.315 473.315 440.384 473.315 440.384 471.473C438.452 467.79 436.521 465.949 434.589 462.265L432.658 460.424L430.726 456.741C428.795 454.899 426.863 451.216 424.932 449.374C423 447.533 421.069 443.85 419.137 442.008L417.206 440.166C415.274 436.483 413.342 432.8 409.479 429.117C407.548 427.275 407.548 425.434 405.616 423.592C403.685 421.751 403.685 419.909 401.753 418.067C399.822 416.226 397.89 412.543 397.89 410.701C397.89 410.701 397.89 408.86 395.959 408.86C395.959 407.018 394.027 407.018 394.027 405.176C392.096 403.335 392.096 399.652 390.164 397.81C388.233 394.127 386.301 390.444 384.37 386.761C384.37 384.919 382.438 383.077 382.438 381.236C382.438 381.236 382.438 381.236 382.438 379.394V377.553V375.711C380.507 372.028 378.575 366.503 376.644 364.661C374.712 362.82 374.712 360.978 372.781 359.137C374.712 360.978 374.712 362.82 376.644 362.82C380.507 366.503 384.37 372.028 388.233 375.711C390.164 377.553 390.164 379.394 392.096 379.394L394.027 381.236V383.077C395.959 384.919 397.89 386.761 397.89 388.602C399.822 390.444 401.753 392.285 401.753 395.968C403.685 397.81 405.616 401.493 405.616 403.335C407.548 405.176 407.548 407.018 409.479 408.86C411.411 410.701 413.342 414.384 413.342 416.226C415.274 418.067 415.274 419.909 417.206 423.592C419.137 425.434 419.137 427.275 421.068 430.959C423 432.8 424.932 434.642 426.863 438.325C428.795 440.166 430.726 442.008 430.726 443.85V445.691C432.658 449.374 434.589 451.216 438.452 454.899C440.384 456.741 440.384 458.582 442.315 460.424L444.247 462.265C446.178 464.107 446.178 465.949 448.11 465.949C448.11 467.79 450.041 467.79 451.973 469.632L453.904 471.473L455.836 475.157C457.767 476.998 459.699 478.84 461.63 480.681L463.562 482.523C463.562 484.364 465.493 484.364 465.493 486.206L467.425 488.048C467.425 489.889 469.356 489.889 471.288 491.731C473.219 493.572 473.219 493.572 475.151 495.414L477.082 497.256C477.082 497.256 477.082 497.256 479.014 499.097L480.945 500.939C482.877 502.78 482.877 502.78 484.808 504.622C486.74 506.464 488.671 506.463 490.603 508.305H492.534C496.397 510.147 498.329 511.988 500.26 513.83C502.192 515.671 506.055 517.513 507.986 517.513C509.918 519.355 513.781 519.355 515.712 521.196C519.575 523.038 521.507 523.038 525.37 523.038C527.301 523.038 531.164 524.879 533.096 524.879C536.959 524.879 538.89 524.879 542.753 526.721C544.685 526.721 548.548 526.721 550.479 526.721H552.411C554.342 526.721 558.206 526.721 560.137 526.721C564 526.721 565.931 526.721 569.795 524.879C573.658 524.879 575.589 523.038 579.452 523.038C581.384 523.038 585.247 521.196 587.178 519.355C589.11 517.513 592.973 515.671 594.904 515.671C596.836 513.83 598.767 511.988 602.63 510.147C606.493 506.463 612.288 502.78 616.151 499.097C620.014 495.414 623.877 489.889 625.808 484.364C627.74 482.523 627.74 480.681 629.671 476.998C629.671 476.998 629.671 475.157 631.603 475.157C631.603 473.315 633.534 473.315 633.534 471.473C633.534 469.632 633.534 469.632 635.466 467.79C635.466 465.949 635.466 465.949 635.466 464.107C635.466 460.424 635.466 458.582 635.466 454.899V453.058V451.216C635.466 449.374 635.466 447.533 635.466 447.533C635.466 443.85 635.466 442.008 633.534 438.325C633.534 436.483 631.603 432.8 631.603 430.959C631.603 429.117 629.671 425.434 627.74 423.592C625.808 421.751 625.808 418.067 623.877 416.226C621.945 414.384 621.945 410.701 620.014 408.86C618.082 407.018 616.151 403.335 616.151 401.493C614.219 399.652 612.288 397.81 610.356 394.127C608.425 392.285 604.562 388.602 602.63 386.761L600.699 384.919C602.63 384.919 604.562 384.919 608.425 383.077C610.356 383.077 614.219 381.236 618.082 379.394C620.014 379.394 621.945 377.553 621.945 377.553C623.877 377.553 625.808 375.711 625.808 373.869C627.74 373.869 627.74 372.028 629.671 372.028C631.603 370.186 633.534 370.186 633.534 368.345C635.466 366.503 637.397 364.661 641.26 360.978C643.192 359.137 645.123 355.454 648.986 353.612C650.918 351.77 650.918 349.929 652.849 349.929C652.849 348.087 654.781 348.087 654.781 346.246C656.712 344.404 658.644 340.721 660.575 338.879C660.575 337.038 662.507 335.196 662.507 333.355C662.507 331.513 664.438 329.671 664.438 327.83C666.37 324.147 666.37 320.463 666.37 318.622C666.37 316.78 666.37 314.939 666.37 313.097C666.37 311.256 666.37 311.256 666.37 309.414V307.572C666.37 305.731 666.37 302.048 666.37 300.206C666.37 296.523 666.37 292.84 666.37 289.157C666.37 285.473 664.438 283.632 662.507 279.949C660.575 276.265 660.575 274.424 658.644 270.741C656.712 267.058 654.781 265.216 652.849 263.374C650.918 261.533 648.986 257.85 645.123 256.008C643.192 254.166 641.26 252.325 637.397 250.483C635.466 248.642 631.603 246.8 629.671 244.959C627.74 243.117 625.808 243.117 625.808 243.117C623.877 243.117 621.945 241.275 621.945 241.275C618.082 239.434 616.151 239.434 612.288 237.592C608.425 235.751 606.493 235.751 602.63 233.909C598.767 232.067 596.836 232.067 592.973 232.067C591.041 232.067 587.178 232.067 585.247 232.067H583.315H581.384C577.521 232.067 575.589 232.067 573.658 232.067C571.726 232.067 567.863 232.067 565.932 232.067C562.069 232.067 556.274 233.909 552.411 233.909C550.479 233.909 546.616 235.751 544.685 235.751H542.753C540.822 235.751 538.89 235.751 536.959 237.592H535.027H533.096V235.751C527.301 237.592 523.438 237.592 517.644 239.434C513.781 239.434 511.849 241.275 507.986 243.117C504.123 244.959 502.192 244.959 498.329 246.8C496.397 248.642 492.534 248.642 490.603 250.483H488.671C486.74 250.483 484.808 252.325 482.877 252.325C480.945 252.325 480.945 252.325 479.014 254.166L475.151 256.008H473.219C469.356 257.85 463.562 259.691 459.699 261.533C451.973 265.216 446.178 267.058 440.384 270.741C438.452 270.741 438.452 272.582 436.521 272.582C434.589 272.582 434.589 274.424 432.658 274.424H430.726C428.795 274.424 426.863 276.265 426.863 276.265C424.932 276.265 424.931 278.107 423 278.107H421.068H419.137C417.205 279.949 415.274 279.949 413.342 281.79L409.479 283.632H407.548C401.753 285.473 397.89 287.315 392.096 290.998C390.164 292.84 386.301 292.84 382.438 294.681C380.507 294.681 378.575 296.523 376.644 296.523C374.712 296.523 374.712 298.364 372.781 298.364C370.849 300.206 366.986 300.206 365.055 302.048C363.123 302.048 363.123 303.889 361.192 303.889L363.123 302.048C366.986 300.206 370.849 296.523 374.712 294.681L376.644 292.84C380.507 290.998 384.37 287.315 390.164 285.473H392.096C395.959 283.632 401.753 279.949 407.548 276.265C409.479 276.265 411.411 274.424 413.342 274.424C417.205 272.582 419.137 270.741 423 268.899C426.863 267.058 432.658 263.374 436.521 261.533C440.384 259.691 442.315 257.85 446.178 256.008L450.041 254.166C451.973 252.325 453.904 252.325 453.904 250.483C457.767 248.642 459.699 246.8 463.562 244.959C471.288 239.434 480.945 233.909 490.603 226.543C494.466 224.701 498.329 221.018 504.123 217.335C506.055 215.493 509.918 213.652 511.849 211.81C513.781 209.968 515.712 208.127 517.644 206.285C521.507 202.602 525.37 198.919 529.233 195.236C531.164 193.394 533.096 191.553 535.027 189.711C536.959 187.869 536.959 186.028 538.89 186.028L540.822 184.186C542.753 182.345 544.685 180.503 546.616 178.661C548.548 176.82 550.479 174.978 552.411 171.295C558.206 165.77 560.137 163.929 562.069 162.087C564 160.246 564 156.562 565.932 154.721C567.863 152.879 567.863 149.196 567.863 147.355C567.863 145.513 569.795 141.83 569.795 139.988C569.795 136.305 569.795 134.463 569.795 130.78C569.795 127.097 569.795 125.256 569.795 123.414C569.795 121.572 569.795 117.889 569.795 116.048C569.795 112.364 567.863 110.523 567.863 108.681C567.863 106.84 565.932 103.157 564 101.315C562.068 95.7902 560.137 93.9486 560.137 92.107C558.206 88.4239 556.274 86.5823 556.274 84.7407C554.342 82.8991 552.411 81.0575 552.411 77.3744C548.548 73.6912 544.685 68.1665 540.822 64.4833C538.89 62.6417 536.959 60.8001 535.027 58.9585C533.096 57.1169 529.233 55.2754 527.301 55.2754C525.37 53.4338 523.438 53.4338 519.575 51.5922C513.781 53.4338 511.849 51.5922 507.986 51.5922C506.055 51.5922 502.192 51.5922 500.26 51.5922C496.397 51.5922 494.466 51.5922 492.534 51.5922C490.603 51.5922 488.671 51.5922 486.74 51.5922H484.808H482.877C480.945 51.5922 480.945 51.5922 479.014 51.5922H477.082H475.151C473.219 51.5922 473.219 51.5922 471.288 51.5922C469.356 51.5922 469.356 51.5922 467.425 51.5922C465.493 51.5922 461.63 53.4338 459.699 55.2754C457.767 55.2754 455.836 57.1169 453.904 57.1169C453.904 57.1169 451.973 57.1169 451.973 58.9585C450.041 60.8001 448.11 60.8001 444.247 62.6417C442.315 64.4833 440.384 64.4833 438.452 66.3249C436.521 68.1664 434.589 70.008 432.658 71.8496C430.726 73.6912 428.795 75.5328 426.863 77.3744C424.932 79.216 424.931 81.0575 423 82.8991C423 81.0575 423 79.216 423 77.3744C423 71.8496 421.069 64.4833 419.137 58.9585C417.205 57.1169 417.205 53.4338 415.274 49.7506C413.342 46.0674 411.411 44.2259 409.479 40.5427C407.548 38.7011 405.616 35.0179 401.753 33.1763C399.822 31.3348 395.959 27.6516 394.027 25.81C392.096 23.9684 390.164 22.1268 388.233 20.2853C386.301 18.4437 386.301 18.4437 384.37 16.6021C378.575 16.6021 378.575 14.7605 376.644 14.7605C374.712 12.9189 372.781 12.9189 370.849 11.0773L366.986 9.23575L365.055 7.39417H363.123L361.192 5.55259H359.26C357.329 5.55259 357.329 3.711 355.397 3.711C353.466 3.711 351.534 1.86942 351.534 1.86942C349.603 1.86942 347.671 0.027832 345.74 0.027832C343.808 0.027832 343.808 0.027832 341.877 0.027832C339.945 0.027832 338.014 0.027832 336.082 0.027832C332.219 0.027832 328.356 0.027832 324.493 0.027832C322.562 0.027832 322.562 0.027832 320.63 0.027832H318.699C316.767 0.027832 314.836 0.027832 314.836 0.027832C312.904 0.027832 310.973 0.0278322 309.041 1.86942C307.11 1.86942 305.178 3.711 303.247 3.711C301.315 5.55258 297.452 5.55259 293.589 7.39417C289.726 9.23575 287.795 11.0773 285.863 12.9189C283.932 14.7605 283.932 14.7605 282 16.6021C280.068 18.4437 280.068 18.4437 278.137 20.2853C276.205 22.1268 274.274 25.81 272.342 27.6516C272.342 29.4932 270.411 29.4932 270.411 31.3348C270.411 33.1763 268.479 35.0179 266.548 36.8595C264.616 38.7011 262.685 42.3843 262.685 46.0674C260.753 49.7506 260.753 51.5922 258.822 55.2754C258.822 58.9585 256.89 60.8001 256.89 64.4833C256.89 68.1665 256.89 71.8496 256.89 75.5328C256.89 79.216 256.89 82.8991 256.89 86.5823C256.89 88.4239 256.89 92.1071 258.822 93.9486V95.7902C258.822 99.4734 260.753 103.157 260.753 104.998C260.753 106.84 262.685 108.681 262.685 112.364C262.685 114.206 262.685 114.206 262.685 114.206C262.685 117.889 264.616 119.731 264.616 123.414C264.616 127.097 266.548 128.939 266.548 130.78V132.622C270.411 138.147 270.411 141.83 272.342 143.671C274.274 147.355 274.274 151.038 276.205 152.879C278.137 154.721 278.137 158.404 280.069 160.246V162.087C282 165.77 283.932 169.454 283.932 173.137C285.863 174.978 285.863 178.662 287.795 180.503C289.726 184.186 289.726 187.869 291.658 189.711C293.589 193.394 293.589 195.236 295.521 200.761V202.602C295.521 204.444 297.452 208.127 299.384 211.81C299.384 213.652 301.315 215.493 301.315 217.335C301.315 219.176 303.247 221.018 303.247 222.86V224.701V226.543C303.247 228.384 305.178 230.226 305.178 232.067L307.11 233.909C309.041 237.592 309.041 241.275 310.973 243.117C310.973 244.959 310.973 244.959 312.904 246.8C312.904 248.642 314.836 250.483 314.836 252.325C314.836 254.166 316.767 257.85 316.767 259.691C316.767 261.533 318.699 263.374 318.699 265.216C320.63 268.899 320.63 272.582 322.562 276.265C322.562 278.107 324.493 281.79 324.493 285.473V287.315C324.493 289.157 324.493 290.998 326.425 292.84C326.425 294.681 326.425 296.523 328.356 298.364C328.356 300.206 328.356 300.206 328.356 302.048C328.356 300.206 326.425 300.206 326.425 298.364C326.425 296.523 324.493 294.681 324.493 294.681V292.84C324.493 290.998 322.562 290.998 322.562 289.157V287.315V285.473L320.63 283.632C320.63 281.79 318.699 279.949 318.699 279.949C318.699 278.107 316.767 278.107 316.767 276.265C316.767 274.424 314.836 274.424 314.836 272.582C314.836 270.741 312.904 270.741 312.904 268.899V267.058C312.904 267.058 312.904 265.216 310.973 265.216C310.973 263.374 309.041 263.374 309.041 261.533C309.041 261.533 309.041 259.691 307.11 259.691C307.11 257.85 305.178 256.008 305.178 256.008V254.166V252.325C301.315 246.8 299.384 243.117 297.452 239.434C295.521 235.751 293.589 232.067 291.658 228.384L289.726 232.067C289.726 230.226 287.795 230.226 287.795 228.384C287.795 226.543 285.863 226.543 285.863 224.701C283.932 222.86 283.932 219.176 282 217.335C280.068 213.652 276.205 208.127 274.274 204.444C272.342 202.602 272.342 200.761 270.411 198.919C268.479 195.236 266.548 193.394 264.616 189.711C262.685 187.869 262.685 186.028 260.753 182.345L258.822 180.503C258.822 178.662 256.89 178.662 256.89 176.82C256.89 174.978 254.959 174.978 254.959 173.137L253.027 171.295L251.096 169.454C251.096 167.612 249.164 167.612 249.164 165.77L247.233 162.087C247.233 160.246 245.301 158.404 245.301 158.404C245.301 156.562 243.37 156.562 243.37 154.721C243.37 152.879 241.438 152.879 241.438 151.038C239.507 149.196 239.507 147.355 237.575 145.513C235.644 143.671 233.712 141.83 231.781 139.988L229.849 138.147C227.918 134.463 224.055 130.78 220.192 127.097C218.26 125.256 216.329 123.414 214.397 121.572C212.466 119.731 210.534 117.889 208.603 116.048C206.671 114.206 204.74 112.364 200.877 110.523C198.945 108.681 197.014 106.84 193.151 104.998C189.288 103.157 183.493 99.4734 179.63 97.6318C175.767 97.6318 173.836 95.7902 171.904 95.7902C169.973 95.7902 168.041 93.9486 164.178 93.9486C162.247 93.9486 158.384 92.107 156.452 92.107L154.521 90.2655C152.589 90.2655 150.658 88.4239 148.726 88.4239C144.863 88.4239 142.932 88.4239 141 88.4239H137.137C135.205 88.4239 133.274 88.4239 131.342 86.5823C129.411 86.5823 125.548 86.5823 123.616 86.5823C119.753 88.4239 115.89 88.4239 113.959 88.4239C113.959 88.4239 113.959 88.4239 112.027 88.4239C110.096 88.4239 108.164 88.4239 106.233 88.4239C102.37 90.2655 100.438 90.2655 96.5753 90.2655C94.6438 90.2655 90.7808 92.1071 88.8493 93.9486C86.9178 95.7902 84.9863 95.7902 81.1233 97.6318C79.1918 99.4734 77.2603 101.315 75.3288 101.315C73.3973 103.157 71.4658 104.998 69.5342 106.84C67.6027 108.681 65.6712 110.523 63.7397 114.206C63.7397 114.206 61.8082 116.048 61.8082 117.889C61.8082 119.731 59.8767 119.731 59.8767 121.572C57.9452 123.414 57.9452 125.256 57.9452 128.939C57.9452 130.78 56.0137 134.463 56.0137 136.305C56.0137 138.147 56.0137 141.83 54.0822 143.671C54.0822 145.513 54.0822 149.196 54.0822 151.038C54.0822 152.879 54.0822 156.562 54.0822 158.404C54.0822 160.246 54.0822 162.087 54.0822 165.77V167.612C54.0822 169.454 54.0822 173.137 54.0822 174.978C54.0822 176.82 56.0137 180.503 56.0137 182.345C56.0137 184.186 57.9452 187.869 57.9452 189.711C59.8767 191.553 59.8767 195.236 61.8082 197.077C63.7397 200.761 65.6712 202.602 67.6027 204.444C69.5342 208.127 73.3973 211.81 75.3288 215.493C77.2603 217.335 77.2603 219.176 79.1918 219.176C77.2603 219.176 75.3288 219.176 73.3973 219.176C71.4658 219.176 71.4658 219.176 69.5342 219.176C65.6712 219.176 63.7397 219.176 59.8767 221.018C56.0137 221.018 52.1507 222.86 50.2192 224.701C46.3562 226.543 44.4247 226.543 40.5616 228.384C38.6301 228.384 38.6301 230.226 36.6986 230.226C38.6301 235.751 38.6301 235.751 36.6986 237.592C34.7671 239.434 30.9041 241.275 28.9726 243.117C25.1096 244.959 23.1781 248.642 21.2466 250.483C19.3151 252.325 15.4521 256.008 13.5205 257.85C11.589 259.691 9.65753 263.374 7.72603 265.216C7.72603 267.058 5.79452 268.899 5.79452 268.899V270.741C5.79452 272.582 3.86301 274.424 3.86301 274.424C1.93151 279.949 0 287.315 0 292.84C0 296.523 0 298.364 0 302.048C0 305.731 1.93151 307.572 1.93151 311.256C3.86301 318.622 7.72603 324.147 11.589 327.83C13.5205 331.513 15.4521 333.355 17.3836 337.038C19.3151 340.721 21.2466 342.562 23.1781 344.404C25.1096 346.246 27.0411 348.087 28.9726 351.77C34.7671 360.978 36.6986 362.82 38.6301 364.661C42.4932 366.503 44.4247 368.345 46.3562 370.186C48.2877 372.028 52.1507 373.869 56.0137 375.711C57.9452 377.553 61.8082 379.394 65.6712 379.394C69.5343 381.236 73.3973 383.077 77.2603 383.077C81.1233 383.077 84.9863 384.919 86.9178 384.919C90.7808 384.919 92.7123 384.919 96.5753 384.919C100.438 384.919 104.301 384.919 106.233 384.919C110.096 384.919 113.959 384.919 115.89 384.919H117.822C119.753 384.919 123.616 384.919 125.548 384.919C129.411 384.919 131.342 384.919 135.205 383.077C139.068 383.077 141 381.236 144.863 381.236C148.726 381.236 152.589 379.394 154.521 379.394C158.384 379.394 160.315 377.553 164.178 377.553C166.11 377.553 169.973 375.711 171.904 375.711H173.836C177.699 375.711 179.63 373.869 183.493 373.869H185.425C187.356 373.869 191.219 372.028 193.151 372.028C197.014 370.186 198.945 370.186 202.808 368.345C206.671 366.503 208.603 366.503 212.466 364.661C214.397 364.661 218.26 362.82 220.192 362.82C222.123 360.978 225.986 360.978 227.918 359.137C229.849 359.137 229.849 357.295 231.781 357.295C233.712 355.454 237.575 355.454 239.507 353.612C241.438 353.612 243.37 351.77 243.37 351.77C245.301 351.77 245.301 351.77 247.233 349.929C251.096 348.087 253.027 348.087 256.89 346.246L260.753 344.404H262.685C264.616 344.404 266.548 342.562 266.548 342.562C268.479 342.562 270.411 340.721 272.342 340.721H274.274C278.137 338.879 282 338.879 285.863 337.038C287.795 337.038 289.726 335.196 291.658 335.196C295.521 335.196 297.452 333.355 301.315 333.355C303.247 333.355 307.11 331.513 310.973 329.671C310.973 329.671 310.973 329.671 312.904 329.671C314.836 329.671 314.836 327.83 316.767 327.83C314.836 329.671 312.904 331.513 310.973 331.513C309.041 333.355 307.11 333.355 305.178 335.196H303.247C301.315 335.196 299.384 337.038 299.384 337.038L297.452 338.879H295.521C293.589 338.879 293.589 340.721 291.658 340.721C289.726 342.563 287.795 342.562 283.932 344.404L282 346.246C278.137 348.087 274.274 349.929 270.411 351.77C268.479 353.612 264.616 353.612 262.685 355.454C256.89 359.137 249.164 360.978 241.438 364.661C231.781 368.345 222.123 373.869 212.466 379.394L210.534 381.236H208.603C204.74 383.077 200.877 384.919 197.014 386.761C195.082 388.602 193.151 388.602 191.219 390.444C187.356 392.285 185.425 394.127 181.562 395.968C179.63 397.81 175.767 397.81 173.836 399.652C171.904 401.493 169.973 401.493 168.041 403.335C164.178 405.176 158.384 408.86 154.521 410.701C148.726 414.384 144.863 418.067 141 419.909C139.068 421.751 137.137 423.592 135.205 425.434C133.274 427.275 131.342 429.117 129.411 430.959C125.548 434.642 121.685 438.325 117.822 442.008C113.959 447.533 110.096 451.216 108.164 454.899C102.37 462.265 98.5069 471.473 92.7123 482.523C90.7808 484.364 90.7808 488.048 90.7808 489.889C90.7808 491.731 90.7808 493.572 88.8493 493.572C88.8493 495.414 88.8493 495.414 88.8493 497.256C88.8493 499.097 88.8493 502.78 88.8493 504.622C88.8493 506.464 88.8493 506.463 88.8493 508.305C88.8493 510.147 88.8493 510.147 88.8493 511.988C88.8493 513.83 90.7808 517.513 90.7808 519.355C90.7808 521.196 92.7123 524.879 92.7123 526.721C92.7123 528.562 94.6438 532.246 96.5753 534.087C98.5069 535.929 98.5068 539.612 100.438 541.454C102.37 543.295 104.301 545.137 106.233 546.978C113.959 548.82 115.89 550.662 117.822 552.503L119.753 554.345C121.685 556.186 123.616 558.028 125.548 559.869C127.479 561.711 129.411 563.553 131.342 565.394C133.274 565.394 135.205 567.236 137.137 569.077C139.068 570.919 142.932 570.919 144.863 572.761C146.795 572.761 150.658 574.602 152.589 574.602C154.521 574.602 158.384 576.444 160.315 576.444C162.247 576.444 164.178 576.444 166.11 576.444H168.041C169.973 576.444 171.904 576.444 173.836 576.444C173.836 576.444 173.836 576.444 175.767 576.444C177.699 576.444 181.562 576.444 183.493 574.602C185.425 574.602 185.425 574.602 187.356 574.602C189.288 574.602 189.288 574.602 191.219 574.602C195.082 572.76 200.877 570.919 206.671 569.077C212.466 567.236 216.329 563.553 220.192 559.869C222.123 558.028 224.055 556.186 225.986 554.345C225.986 556.186 225.986 556.186 225.986 556.186C225.986 559.869 225.986 563.553 227.918 565.394C227.918 569.077 229.849 570.919 229.849 574.602C229.849 578.285 231.781 580.127 233.712 583.81C235.644 589.335 239.507 594.859 243.37 600.384C245.301 602.226 247.233 605.909 249.164 607.751C251.096 609.592 253.027 613.275 256.89 615.117C262.685 620.642 268.479 624.325 272.342 628.008C274.274 628.008 274.274 629.85 276.205 629.85C278.137 629.85 280.068 631.691 282 631.691C285.863 633.533 287.795 633.533 291.658 635.374C295.521 637.216 297.452 637.216 301.315 639.058C305.178 639.058 307.11 640.899 310.973 640.899C312.904 640.899 312.904 640.899 314.836 640.899H316.767C318.699 640.899 320.63 640.899 322.562 640.899C326.425 640.899 328.356 639.058 332.219 639.058C336.082 639.058 338.014 637.216 341.877 635.374C345.74 633.533 347.671 633.533 351.534 631.691C353.466 629.85 357.329 628.008 359.26 626.166C361.192 624.325 365.055 622.483 366.986 620.642C370.849 616.959 374.712 613.275 376.644 611.434C378.575 607.751 380.507 605.909 384.37 600.384C386.301 598.543 386.301 594.86 388.233 593.018C390.164 589.335 390.164 587.493 390.164 583.81C390.164 580.127 392.096 578.285 392.096 574.602C392.096 570.919 392.096 569.077 394.027 567.236C394.027 565.394 394.027 563.553 394.027 561.711C394.027 559.869 394.027 558.028 394.027 556.186C394.027 552.503 394.027 548.82 394.027 546.978C394.027 543.295 394.027 541.454 394.027 537.77C394.027 534.087 394.027 530.404 392.096 528.562C392.096 521.196 388.233 515.671 388.233 510.147C386.301 506.463 386.301 502.78 384.37 499.097C384.37 497.256 382.438 493.572 382.438 491.731C380.507 484.364 378.575 478.84 376.644 473.315C376.644 471.473 374.712 467.79 374.712 464.107C374.712 460.424 372.781 458.582 372.781 454.899C372.781 453.058 370.849 451.216 370.849 449.374V447.533L368.918 443.85V442.008C368.918 440.166 366.986 438.325 366.986 436.483C365.055 430.959 363.123 423.592 361.192 418.067C359.26 414.384 359.26 412.543 357.329 408.86V405.176C357.329 403.335 355.397 401.493 355.397 399.652C353.466 395.968 353.466 390.444 351.534 386.761C351.534 384.919 351.534 384.919 351.534 383.077C353.466 384.919 353.466 386.761 355.397 388.602C355.397 390.444 357.329 392.285 357.329 392.285C357.329 392.285 357.329 394.127 359.26 394.127C361.192 395.968 361.192 397.81 361.192 397.81C363.123 399.652 363.123 401.493 365.055 403.335C366.986 405.176 366.986 407.018 368.918 408.86C370.849 410.701 370.849 412.543 372.781 414.384V416.226C374.712 418.067 374.712 419.909 376.644 419.909C378.575 421.751 378.575 423.592 380.507 423.592V425.434C382.438 429.117 384.37 432.8 386.301 434.642L388.233 436.483C388.233 438.325 390.164 438.325 390.164 440.166L392.096 442.008C394.027 443.85 394.027 445.691 395.959 447.533V449.374C397.89 453.058 399.822 456.741 401.753 458.582L403.685 460.424C405.616 462.265 407.548 465.949 409.479 469.632C409.479 471.473 411.411 471.473 411.411 473.315V475.157C413.342 476.998 413.342 478.84 415.274 480.681C417.205 482.523 417.205 484.364 419.137 486.206C419.137 486.206 419.137 488.048 421.068 488.048C421.068 488.048 421.068 489.889 423 489.889C424.931 493.572 426.863 497.256 430.726 500.939C432.658 502.78 432.658 504.622 434.589 506.463C436.521 508.305 436.521 510.147 438.452 511.988C440.384 513.83 440.384 515.671 442.315 517.513C444.247 519.355 444.247 521.196 446.178 523.038C450.041 528.562 451.973 530.404 453.904 534.087C455.836 537.77 459.699 541.454 461.63 545.137C463.562 548.82 467.425 552.503 469.356 554.345C471.288 556.186 471.288 558.028 473.219 558.028C475.151 559.869 475.151 559.869 477.082 561.711C477.082 563.553 479.014 563.553 479.014 565.394C480.945 567.236 482.877 569.077 484.808 570.919C484.808 572.761 486.74 572.76 486.74 574.602C488.671 576.444 490.603 578.285 492.534 581.968L494.466 583.81C496.397 585.652 498.329 589.335 500.26 591.176C502.192 593.018 502.192 594.86 504.123 594.86C506.055 596.701 507.986 598.543 507.986 600.384C513.781 607.751 519.575 615.117 525.37 620.642C531.164 628.008 536.959 633.533 540.822 639.058V640.899C542.753 642.741 546.616 646.424 550.479 650.107C554.342 653.79 556.274 657.473 560.137 659.315C564 662.998 565.931 664.84 569.795 666.681L571.726 668.523L573.658 670.364C575.589 672.206 579.452 674.048 581.384 677.731C585.247 681.414 589.11 683.256 592.973 686.939C594.904 688.78 594.904 688.78 596.836 690.622C598.767 692.464 600.699 694.305 602.63 696.147C606.493 699.83 610.356 701.671 614.219 703.513L618.082 705.355H620.014C621.945 707.196 623.877 707.196 625.808 709.038C629.671 710.879 633.534 714.562 637.397 716.404C639.329 718.246 641.26 718.246 643.192 720.087C645.123 720.087 645.123 721.929 647.055 721.929C650.918 723.77 652.849 725.612 656.712 727.454C658.644 727.454 658.644 729.295 660.575 729.295C660.575 729.295 662.507 729.295 662.507 731.137C664.438 731.137 666.37 732.978 666.37 732.978H668.301H670.233C672.164 732.978 672.164 734.82 674.096 734.82C674.096 734.82 674.096 734.82 676.027 736.662H677.959C687.616 744.028 689.548 744.028 689.548 744.028Z" fill="#153226" fill-opacity="0.48"/>
</svg>
