<svg width="1920" height="503" viewBox="0 0 1920 503" fill="none" xmlns="http://www.w3.org/2000/svg">
<path d="M-107 46.0685C-107 46.0685 85.9411 -60.984 265.295 51.2906C444.648 163.565 401.169 210.564 534.325 213.175C667.482 215.786 681.069 174.009 754.441 252.34C827.813 330.672 822.378 335.894 920.207 335.894C1018.04 335.894 1039.5 294.9 1099.56 356.782C1159.62 418.664 1230 503 1230 503L4.41667 500.389L-107 46.0685Z" fill="#366A23"/>
<path d="M2027 46.0685C2027 46.0685 1835.36 -60.984 1657.21 51.2906C1479.07 163.565 1522.25 210.564 1389.99 213.175C1257.73 215.786 1244.24 174.009 1171.36 252.34C1098.48 330.672 1103.88 335.894 1006.71 335.894C909.537 335.894 888.213 294.9 828.561 356.782C768.909 418.664 699 503 699 503L1916.33 500.389L2027 46.0685Z" fill="#366A23"/>
<path fill-rule="evenodd" clip-rule="evenodd" d="M992.678 410.572C996.648 410.618 1000.44 406.736 1000.34 402.626C1000.25 398.79 996.831 395.457 992.997 395.457C989.21 395.457 985.604 398.882 985.559 402.58C985.513 406.645 988.981 410.526 992.678 410.572ZM991.848 400.774C992.201 400.395 992.606 399.961 993.043 399.429C993.424 400.092 993.799 400.641 994.128 401.124C994.707 401.97 995.146 402.613 995.234 403.311C995.416 405.001 994.093 405.731 992.541 405.549C990.852 405.366 990.122 404.087 990.533 402.626C990.683 402.025 991.169 401.503 991.848 400.774Z" fill="#27253D"/>
</svg>
