<svg width="281" height="498" viewBox="0 0 281 498" fill="none" xmlns="http://www.w3.org/2000/svg">
<path d="M31.6464 353.476C27.6367 351.368 20.4007 355.844 17.6779 360.786C17.2303 361.588 16.7454 364.181 15.7943 369.346C15.7197 369.775 15.5519 370.727 16.0181 371.081C16.2606 371.267 16.5776 371.249 16.82 371.193C18.5544 370.913 19.8413 369.291 20.0091 369.402C20.2702 369.608 16.3911 373.524 17.3422 376.06C18.1255 378.112 21.7808 378.373 22.0046 378.391C27.2451 378.708 31.1615 373.431 31.6464 372.741C36.1223 366.512 36.2155 355.844 31.6464 353.457V353.476Z" fill="#D17233" stroke="#1E1E1C" stroke-width="0.75" stroke-miterlimit="10"/>
<path d="M257.958 351.872C260.065 354.893 264.205 357.653 268.681 357.541C269.576 357.523 271.758 357.448 272.765 356.273C274.033 354.781 272.765 352.394 272.411 351.704C272.411 351.704 272.131 351.182 270.061 348.608C270.49 347.471 270.975 347.191 271.329 347.135C272.15 347.023 274.164 348.571 273.493 348.161C273.866 348.459 274.966 349.298 275.843 349.037C276.961 348.72 277.185 346.781 276.738 345.363C276.439 344.394 275.898 343.927 272.392 341.093C268.961 338.314 268.364 337.848 267.506 337.269C265.679 335.983 264.765 335.349 263.534 334.77C261.37 333.745 258.443 332.197 256.839 332.999C256.13 333.353 255.925 334.043 255.757 336.971C255.477 341.745 255.328 344.151 256.111 347.135C256.708 349.373 257.007 350.492 257.939 351.853L257.958 351.872Z" fill="#D17233" stroke="#1E1E1C" stroke-width="0.75" stroke-miterlimit="10"/>
<path d="M101.75 126.81C106.3 125.542 114.916 123.397 126.367 122.465C154.024 120.208 183.061 117.392 209.618 135.501C212.471 137.44 238.599 155.791 248.707 189.081C250.927 196.391 251.635 203.124 253.053 216.589C255.403 238.931 253.444 246.073 254.507 281.023C254.918 294.599 255.57 305.342 255.962 311.421C256.055 312.951 256.26 314.797 257.417 328.486C258.125 336.766 258.312 339.097 258.554 342.342C259.188 350.828 259.524 357.355 259.58 358.474C259.804 362.838 260.121 376.601 257.678 393.703C257.323 396.22 256.354 402.543 254.526 410.599C254.358 411.327 253.071 416.959 251.785 421.36C251.169 423.505 247.271 436.522 240.035 447.525C228.137 465.634 210.159 473.653 203.837 476.488C192.591 481.523 183.639 482.791 166.911 485.178C159.47 486.241 152.495 487.23 144.625 487.51C142.275 487.603 136.624 487.752 129.257 487.361C121.76 486.95 113.611 486.521 103.391 483.948C93.5251 481.467 86.4383 478.204 84.3682 477.234C74.484 472.553 67.4904 467.2 63.7046 464.049C59.1728 460.263 56.1515 457.036 55.4056 456.253C53.8763 454.612 47.4982 447.6 41.7728 436.559C35.4879 424.456 33.194 413.695 32.2429 407.746C32.0564 406.571 31.6461 403.885 31.3477 400.23C29.8744 382.084 33.194 366.288 34.4062 359.239C35.3947 353.55 35.3014 339.526 35.1336 311.459C35.0403 295.644 34.9471 281.041 33.6789 261.515C32.4294 242.4 31.6275 242.661 31.5156 231.825C31.3291 214.817 31.1985 201.93 36.5882 186.209C43.8802 164.911 56.5245 152.434 59.0236 150.01C60.4596 148.63 65.439 143.949 72.9174 139.175C84.592 131.715 95.0171 128.731 101.731 126.847L101.75 126.81Z" fill="#81C9D4" stroke="#1E1E1C" stroke-miterlimit="10"/>
<path d="M52.7578 342.51C80.8626 373.785 139.254 371.939 174.371 355.397C218.365 334.677 223.102 293.219 240.166 297.061C259.599 301.444 269.036 359.873 255.067 407.97C250.965 422.106 243.99 446.108 223.084 464.813C178.064 505.078 88.3038 503.026 50.3894 453.045C17.2492 409.35 30.5836 338.705 42.7431 335.032C46.044 334.043 49.289 338.668 52.7392 342.491L52.7578 342.51Z" fill="#436652" stroke="#1E1E1C" stroke-miterlimit="10"/>
<path d="M72.3764 390.01C68.8703 390.607 54.044 393.572 45.0363 407.149C38.3598 417.201 38.4716 427.701 38.5462 431.431C39.143 457.95 63.5179 480.18 84.8902 489.99C97.2921 495.678 111.223 495.995 139.104 496.648C175.06 497.487 196.06 497.692 215.567 483.798C220.118 480.553 230.338 473.075 236.883 459.051C238.301 456.011 243.336 444.504 242.441 429.062C241.21 407.765 229.48 391.67 229.927 391.446C230.095 391.372 231.997 393.348 231.774 395.736C231.065 403.382 209.282 407.056 205.832 407.634C199.491 408.697 194.736 408.79 194.661 408.79C161.801 409.387 180.059 411.532 120.1 411.345C72.3951 411.196 64.5623 409.835 63.1076 405.266C61.653 400.696 67.0799 394.691 72.3764 390.029V390.01Z" fill="#3D3D3B" stroke="#010101" stroke-miterlimit="10"/>
<path d="M140.522 423.281C193.257 423.281 236.007 415.173 236.007 405.172C236.007 395.171 193.257 387.063 140.522 387.063C87.7869 387.063 45.0366 395.171 45.0366 405.172C45.0366 415.173 87.7869 423.281 140.522 423.281Z" fill="#1E1E1C" stroke="#010101" stroke-miterlimit="10"/>
<path d="M72.1714 149.805C37.3155 81.8834 24.9136 24.4803 42.929 10.8848C45.2415 9.1504 53.6897 5.4205 63.7418 3.12662C66.8936 2.39929 73.1038 1.16842 90.0003 1.14977C109.675 1.11247 110.813 2.77227 130.637 2.67902C130.637 2.67902 132.335 2.67903 153.446 2.26874C179.667 0.51569 201.3 0.851377 217.358 1.6533C227.708 2.17549 235.541 2.84687 241.154 8.59091C249.808 17.4681 247.346 32.2198 244.847 48.1092C236.865 98.6679 230.692 146.131 229.256 145.87C228.659 145.758 230.207 137.776 228.118 137.049C226.981 136.657 224.929 138.447 221.293 144.322" fill="#436652"/>
<path d="M72.1714 149.805C37.3155 81.8834 24.9136 24.4803 42.929 10.8848C45.2415 9.1504 53.6897 5.4205 63.7418 3.12662C66.8936 2.39929 73.1038 1.16842 90.0003 1.14977C109.675 1.11247 110.813 2.77227 130.637 2.67902C130.637 2.67902 132.335 2.67903 153.446 2.26874C179.667 0.51569 201.3 0.851377 217.358 1.6533C227.708 2.17549 235.541 2.84687 241.154 8.59091C249.808 17.4681 247.346 32.2198 244.847 48.1092C236.865 98.6679 230.692 146.131 229.256 145.87C228.659 145.758 230.207 137.776 228.118 137.049C226.981 136.657 224.929 138.447 221.293 144.322" stroke="#1E1E1C" stroke-miterlimit="10"/>
<path d="M248.707 99.7683H39.1805V138.914H248.707V99.7683Z" fill="#49D026" stroke="#1E1E1C" stroke-width="2" stroke-miterlimit="10"/>
<path d="M143.916 304.353C146.509 303.7 148.803 305.267 153.39 308.419C153.651 308.605 154.211 308.997 154.435 309.668C154.64 310.284 155.293 320.336 155.255 320.504C154.714 322.611 155.759 316.867 155.05 321.343C154.826 322.76 154.397 325.278 152.346 326.863C151.992 327.143 150.742 328.075 149.008 328.113C145.912 328.187 143.599 325.352 142.648 323.32C141.958 321.846 142.182 321.231 141.921 317.482C141.399 309.911 140.112 306.889 142.033 305.192C142.611 304.689 143.189 304.54 143.916 304.353Z" fill="white" stroke="#1E1E1C" stroke-width="0.75" stroke-miterlimit="10"/>
<path d="M126.535 309.556C125.603 318.937 127.953 326.024 131.589 327.012C133.081 327.422 134.965 326.826 135.636 326.62C138.583 325.688 139.627 324.625 141.063 322.443C141.343 322.014 141.753 319.776 141.753 319.198C141.641 314.536 141.846 311.235 141.623 314.853C141.585 315.393 141.585 315.766 141.716 312.95C141.79 311.347 141.809 308.549 141.436 304.316" fill="white"/>
<path d="M126.535 309.556C125.603 318.937 127.953 326.024 131.589 327.012C133.081 327.422 134.965 326.826 135.636 326.62C138.583 325.688 139.627 324.625 141.063 322.443C141.343 322.014 141.753 319.776 141.753 319.198C141.641 314.536 141.846 311.235 141.623 314.853C141.585 315.393 141.585 315.766 141.716 312.95C141.79 311.347 141.809 308.549 141.436 304.316" stroke="#1E1E1C" stroke-width="0.75" stroke-miterlimit="10"/>
<path d="M189.793 195.757C193.132 196.578 204.601 199.394 210.532 209.782C213.441 214.873 213.795 219.61 214.038 222.929C214.317 226.753 215.25 239.416 206.447 248.927C200.368 255.491 192.815 257.151 187.742 258.27C183.341 259.24 175.303 261.03 166.127 257.394C157.642 254.037 152.942 247.938 151.226 245.421C146.62 238.688 145.855 232.142 145.669 230.221C145.408 227.331 145.128 219.871 149.473 212.113C152.793 206.182 157.175 202.974 159.115 201.594C172.766 191.841 188.674 195.477 189.793 195.757Z" fill="white" stroke="#1E1E1C" stroke-width="0.75" stroke-miterlimit="10"/>
<path d="M108.128 199.655C111.466 200.475 122.936 203.291 128.866 213.679C131.776 218.77 132.13 223.507 132.372 226.827C132.578 229.587 133.081 234.492 131.384 240.497C130.545 243.481 129.09 248.442 124.782 252.843C122.115 255.566 119.467 256.946 116.875 258.307C115.084 259.258 111.243 261.086 106.077 262.186C101.47 263.175 93.4883 264.872 84.4619 261.31C75.9764 257.953 71.2768 251.855 69.561 249.337C64.9546 242.604 64.1899 236.059 64.0035 234.138C63.7424 231.247 63.4626 223.787 67.8079 216.029C71.1276 210.098 75.5102 206.891 77.4497 205.511C91.1011 195.757 107.009 199.394 108.128 199.673V199.655Z" fill="white" stroke="#1E1E1C" stroke-width="0.75" stroke-miterlimit="10"/>
<path d="M159.432 220.412C163.983 218.939 169.503 221.214 172.282 224.906C175.508 229.214 174.501 234.679 171.573 238.092C171.088 238.651 167.545 242.773 162.285 242.269C157.008 241.766 154.49 236.991 154.08 236.152C151.45 230.874 153.054 222.445 159.432 220.393V220.412Z" fill="#1E1E1C"/>
<path d="M74.596 223.358C79.1465 221.885 84.6667 224.16 87.4455 227.853C90.6719 232.161 89.6648 237.625 86.7368 241.038C86.2519 241.598 82.7085 245.719 77.4494 245.216C72.1716 244.712 69.6539 239.938 69.2436 239.099C66.614 233.821 68.2179 225.391 74.596 223.34V223.358Z" fill="#1E1E1C"/>
<path opacity="0.96" d="M124.223 290.291C127.934 292.734 133.566 295.55 140.112 294.935C147.423 294.245 149.959 289.825 155.74 290.813C161.801 291.858 168.105 298.236 166.949 303.719C166.091 307.729 161.205 311.309 157.456 310.75C156.598 310.619 156.169 310.339 154.957 309.724C154.957 309.724 150.798 307.673 145.427 306.367C138.359 304.651 130.787 307.467 128.326 308.381C125.659 309.37 123.7 310.47 121.09 309.836C117.77 309.034 116.11 306.125 115.961 305.864C113.667 301.723 116.129 297.192 116.632 296.259C118.982 291.932 123.272 290.571 124.241 290.291H124.223Z" fill="#F1E1B0" stroke="#1E1E1C" stroke-width="0.75" stroke-miterlimit="10"/>
<path d="M125.714 281.097C126.367 280.332 133.659 272.239 144.662 273.432C152.29 274.271 161.055 279.512 160.757 285.349C160.514 290.086 154.416 293.219 153.185 293.853C148.914 296.054 144.905 295.923 137.09 295.55C128.139 295.14 123.607 294.935 121.928 292.156C119.541 288.203 124.838 282.123 125.714 281.097Z" fill="#1E1E1C" stroke="#1E1E1C" stroke-miterlimit="10"/>
<path d="M219.931 144.993C217.041 140.461 215.94 139.025 216.649 137.608C219.148 132.554 242.162 133.151 255.925 146.355C265.996 156.015 267.301 168.883 267.618 172.669C268.084 178.04 268.756 185.91 263.888 193.463C258.946 201.091 249.621 206.425 246.6 204.336C245.183 203.347 246.488 201.632 245.295 195.981C243.598 190.852 241.956 186.843 240.856 184.288C232.184 164.202 219.913 144.975 219.913 144.975L219.931 144.993Z" fill="#D17233" stroke="#1E1E1C" stroke-width="0.75" stroke-miterlimit="10"/>
<path d="M38.0803 204.28C37.1478 209.353 36.98 211.068 35.5067 211.628C30.2475 213.642 13.7054 198.592 12.5118 180.465C11.6353 167.186 19.3562 157.227 21.6874 154.318C24.9697 150.215 29.7999 144.173 38.4906 141.897C47.2745 139.604 57.7555 141.748 58.5574 145.143C58.9304 146.746 56.8044 147.138 53.8764 151.912C51.6571 156.631 50.1652 160.528 49.2513 163.046C42.0526 182.833 38.0989 204.299 38.0989 204.299L38.0803 204.28Z" fill="#D17233" stroke="#1E1E1C" stroke-width="0.75" stroke-miterlimit="10"/>
<path d="M253.445 184.586C258.368 178.73 254.209 172.054 253.986 171.718C251.673 168.174 246.227 165.433 243.02 167.615C237.779 171.196 237.388 188.838 244.791 189.248C247.57 189.398 251.319 187.122 253.445 184.586Z" fill="#1E1E1C" stroke="#1E1E1C" stroke-miterlimit="10"/>
<path d="M31.6086 171.979C24.3353 174.329 24.3167 182.199 24.3353 182.609C24.4099 186.843 27.5804 192.065 31.4594 191.897C37.8003 191.654 47.4793 176.884 41.4183 172.613C39.143 171.009 34.7604 170.972 31.6086 171.979Z" fill="#1E1E1C" stroke="#1E1E1C" stroke-miterlimit="10"/>
<path d="M198.988 368.862C202.177 368.936 208.107 368.582 214.56 364.889C223.493 359.798 227.913 351.499 229.461 348.235" stroke="#F8B133" stroke-miterlimit="10"/>
<path d="M56.6361 357.504C57.3261 360.096 58.93 364.833 62.7531 369.384C68.0496 375.687 74.3158 377.758 76.7216 378.41" stroke="#F8B133" stroke-miterlimit="10"/>
<path d="M15.7008 229.792C14.5631 231.415 12.6609 234.623 12.1574 239.155C11.4673 245.421 13.8731 250.363 14.8802 252.209" stroke="#F8B133" stroke-miterlimit="10"/>
<path d="M85.4128 239.229C86.8342 239.229 87.9864 238.077 87.9864 236.655C87.9864 235.234 86.8342 234.082 85.4128 234.082C83.9914 234.082 82.8392 235.234 82.8392 236.655C82.8392 238.077 83.9914 239.229 85.4128 239.229Z" fill="white"/>
<path d="M167.097 236.021C168.519 236.021 169.671 234.869 169.671 233.448C169.671 232.026 168.519 230.874 167.097 230.874C165.676 230.874 164.524 232.026 164.524 233.448C164.524 234.869 165.676 236.021 167.097 236.021Z" fill="white"/>
<path d="M88.873 401.258C89.4912 396.612 83.2303 391.946 74.8889 390.836C66.5474 389.726 59.2842 392.592 58.666 397.238C58.0479 401.883 64.3088 406.549 72.6502 407.659C80.9916 408.769 88.2548 405.903 88.873 401.258Z" fill="#FEEB17"/>
<path d="M145.445 406.981C153.86 406.981 160.682 403.182 160.682 398.496C160.682 393.809 153.86 390.01 145.445 390.01C137.03 390.01 130.209 393.809 130.209 398.496C130.209 403.182 137.03 406.981 145.445 406.981Z" fill="#FEEB17"/>
<path d="M130.209 419.01C138.624 419.01 145.445 415.211 145.445 410.525C145.445 405.838 138.624 402.039 130.209 402.039C121.794 402.039 114.972 405.838 114.972 410.525C114.972 415.211 121.794 419.01 130.209 419.01Z" fill="#FFDD08"/>
<path d="M121.313 406.981C129.728 406.981 136.55 403.182 136.55 398.496C136.55 393.809 129.728 390.01 121.313 390.01C112.898 390.01 106.076 393.809 106.076 398.496C106.076 403.182 112.898 406.981 121.313 406.981Z" fill="#FEEB17" stroke="#FFDD08" stroke-width="0.75" stroke-miterlimit="10"/>
<path d="M101.656 415.448C110.071 415.448 116.893 411.649 116.893 406.963C116.893 402.276 110.071 398.477 101.656 398.477C93.2414 398.477 86.4197 402.276 86.4197 406.963C86.4197 411.649 93.2414 415.448 101.656 415.448Z" fill="#FEEB17" stroke="#FFDD08" stroke-width="0.75" stroke-miterlimit="10"/>
<path d="M78.1023 413.098C86.5172 413.098 93.3389 409.299 93.3389 404.613C93.3389 399.926 86.5172 396.127 78.1023 396.127C69.6873 396.127 62.8656 399.926 62.8656 404.613C62.8656 409.299 69.6873 413.098 78.1023 413.098Z" fill="#FFDD08"/>
<path d="M181.438 415.448C189.853 415.448 196.675 411.649 196.675 406.963C196.675 402.276 189.853 398.477 181.438 398.477C173.023 398.477 166.202 402.276 166.202 406.963C166.202 411.649 173.023 415.448 181.438 415.448Z" fill="#FFDD08" stroke="#1E1E1C" stroke-width="0.75" stroke-miterlimit="10"/>
<path d="M170.567 398.496H185.803C185.803 403.139 178.922 406.981 170.567 406.981C162.212 406.981 155.33 403.158 155.33 398.496C155.33 393.833 162.212 390.01 170.567 390.01C177.914 390.01 184.274 392.976 185.561 397.004L170.567 398.496Z" fill="#FEEB17" stroke="#FFDD08" stroke-width="0.75" stroke-miterlimit="10"/>
<path d="M155.329 415.448C163.744 415.448 170.566 411.649 170.566 406.963C170.566 402.276 163.744 398.477 155.329 398.477C146.914 398.477 140.093 402.276 140.093 406.963C140.093 411.649 146.914 415.448 155.329 415.448Z" fill="#FEEB17" stroke="#FFDD08" stroke-width="0.75" stroke-miterlimit="10"/>
<path d="M145.445 406.981C153.86 406.981 160.682 403.182 160.682 398.496C160.682 393.809 153.86 390.01 145.445 390.01C137.03 390.01 130.209 393.809 130.209 398.496C130.209 403.182 137.03 406.981 145.445 406.981Z" fill="#FEEB17"/>
<path d="M145.445 406.981C153.86 406.981 160.682 403.182 160.682 398.496C160.682 393.809 153.86 390.01 145.445 390.01C137.03 390.01 130.209 393.809 130.209 398.496C130.209 403.182 137.03 406.981 145.445 406.981Z" fill="#FEEB17"/>
<path d="M160.549 400.496C161.167 395.851 154.906 391.185 146.565 390.075C138.223 388.965 130.96 391.831 130.342 396.476C129.724 401.122 135.985 405.788 144.326 406.898C152.667 408.008 159.931 405.142 160.549 400.496Z" fill="#FFDD08"/>
<path d="M195.128 404.631C203.543 404.631 210.364 400.832 210.364 396.146C210.364 391.46 203.543 387.66 195.128 387.66C186.713 387.66 179.891 391.46 179.891 396.146C179.891 400.832 186.713 404.631 195.128 404.631Z" fill="#FFDD08"/>
<path d="M202.643 413.098C211.058 413.098 217.88 409.299 217.88 404.613C217.88 399.926 211.058 396.127 202.643 396.127C194.228 396.127 187.406 399.926 187.406 404.613C187.406 409.299 194.228 413.098 202.643 413.098Z" fill="#FEEB17" stroke="#FFDD08" stroke-miterlimit="10"/>
<path d="M216.537 406.981C224.952 406.981 231.774 403.182 231.774 398.496C231.774 393.809 224.952 390.01 216.537 390.01C208.122 390.01 201.301 393.809 201.301 398.496C201.301 403.182 208.122 406.981 216.537 406.981Z" fill="#FFDD08"/>
<path d="M216.537 402.058C224.952 402.058 231.774 398.259 231.774 393.572C231.774 388.886 224.952 385.087 216.537 385.087C208.122 385.087 201.301 388.886 201.301 393.572C201.301 398.259 208.122 402.058 216.537 402.058Z" fill="#FEEB17" stroke="#FFDD08" stroke-width="0.5" stroke-miterlimit="10"/>
<path d="M126.144 400.086C134.55 399.695 141.188 395.584 140.97 390.902C140.753 386.221 133.762 382.742 125.356 383.133C116.95 383.524 110.312 387.635 110.53 392.316C110.747 396.998 117.738 400.476 126.144 400.086Z" fill="#FEEB17" stroke="#FFDD08" stroke-miterlimit="10"/>
<path d="M152.504 400.093C160.91 399.702 167.548 395.591 167.331 390.909C167.113 386.228 160.123 382.75 151.717 383.14C143.311 383.531 136.673 387.642 136.89 392.324C137.108 397.005 144.098 400.483 152.504 400.093Z" fill="#FEEB17" stroke="#FFDD08" stroke-miterlimit="10"/>
<path d="M44.6632 179.868C33.5854 190.516 25.9018 200.382 20.8851 207.581C9.13593 224.421 -2.89298 241.653 3.72759 252.806C6.80476 257.972 17.2298 267.763 18.4793 268.676C21.7803 271.101 25.3983 274.495 25.1185 278.02C24.8388 281.507 20.9224 282.72 17.752 285.48C8.61376 293.462 6.87935 313.23 8.91215 326.546C9.65812 331.488 12.3623 349.168 23.6639 355.49C29.4266 358.716 35.3385 358.175 35.3385 358.175C38.1359 358.026 41.3436 357.84 44.2156 355.881C44.5513 355.639 44.7378 355.508 45.0362 355.471C47.5166 355.173 49.2137 362.558 53.876 372.405C55.0137 374.792 56.6921 378.242 59.042 381.599C60.3101 383.389 69.3924 396.015 81.1603 395.605C85.1326 395.474 88.0233 393.889 91.4734 391.875C117.732 376.489 127.56 363.323 137.183 367.612C140.204 368.955 139.403 370.316 143.822 374.139C150.07 379.548 159.152 383.315 196.172 376.937C201.766 375.967 209.916 376.359 219.39 371.995C220.994 371.249 222.411 370.615 224.202 369.477C237.518 361.01 241.527 344.58 247.793 338.668C251.076 335.572 253.668 333.707 255.85 332.29C260.456 329.306 263.142 328.448 266.238 322.797C271.292 313.528 272.579 300.213 269.93 289.191C266.648 275.558 259.468 274.383 258.871 263.044C258.759 261.049 258.908 259.445 259.207 258.009C260.475 252.023 264.652 242.586 265.51 240.646C269.762 230.949 268.55 220.579 266.406 214.276C264.541 208.774 262.825 208.905 255.16 198.032C244.175 182.404 241.191 172.855 238.954 173.452C237.238 173.9 237.667 181.882 238.506 197.846C238.73 202.116 238.842 202.825 238.954 205.194C239.476 216.421 238.077 225.41 237.48 232.273C236.268 246.036 233.769 274.234 222.728 294.823C207.063 324.028 178.287 330.35 161.54 334.024C148.727 336.84 122.432 342.137 93.7113 324.681C67.1172 308.53 53.8574 283.335 48.2999 270.318C47.9828 269.572 46.8825 266.998 45.7822 263.995C40.7841 250.269 34.2381 222.985 44.6819 179.849L44.6632 179.868Z" fill="#F29104" stroke="#1E1E1C" stroke-width="0.75" stroke-miterlimit="10"/>
<path d="M20.7739 107.265C11.9527 111.946 2.4601 123.378 1.15464 137.813C-0.318669 154.206 9.19257 166.179 10.3115 167.522C11.934 169.48 15.8131 174.03 22.1167 176.604C26.2195 178.283 27.7861 177.648 35.8986 178.693C45.1115 179.868 44.5893 180.856 54.6973 182.329C57.1031 182.684 62.1758 183.15 72.2092 184.064C78.1584 184.605 83.5854 185.09 84.7789 185.183C112.529 187.439 178.94 191.374 249.715 170.002C263.366 165.881 274.743 161.796 278.491 151.017C283.359 137.03 276.738 115.937 262.117 108.16C253.799 103.741 245.593 105.046 241.882 105.923C232.278 112.674 218.682 121.159 201.431 128.563C194.158 131.696 181.178 137.198 165.979 140.256C132.596 146.97 104.473 139.044 94.0291 135.295C56.152 121.737 40.9153 96.5419 20.7739 107.228V107.265Z" fill="#436652" stroke="#1E1E1C" stroke-miterlimit="10"/>
<path d="M83.9583 464.944C99.5679 470.464 132.876 479.789 173.42 471.546C197.907 466.566 216.593 456.924 228.66 449.334" fill="#3D3D3B"/>
<path d="M83.9583 464.944C99.5679 470.464 132.876 479.789 173.42 471.546C197.907 466.566 216.593 456.924 228.66 449.334" stroke="#010101" stroke-miterlimit="10"/>
<path d="M95.4349 396.104C96.0531 391.459 89.7922 386.793 81.4508 385.683C73.1094 384.573 65.8462 387.439 65.228 392.084C64.6098 396.73 70.8707 401.395 79.2121 402.505C87.5535 403.615 94.8167 400.749 95.4349 396.104Z" fill="#FEEB17" stroke="#FFDD08" stroke-width="0.75" stroke-miterlimit="10"/>
<path d="M98.076 402.058C107.418 402.058 114.991 398.259 114.991 393.572C114.991 388.886 107.418 385.087 98.076 385.087C88.734 385.087 81.1609 388.886 81.1609 393.572C81.1609 398.259 88.734 402.058 98.076 402.058Z" fill="#FFDD08"/>
<path d="M180.991 402.058C189.406 402.058 196.228 398.259 196.228 393.572C196.228 388.886 189.406 385.087 180.991 385.087C172.576 385.087 165.755 388.886 165.755 393.572C165.755 398.259 172.576 402.058 180.991 402.058Z" fill="#FEEB17" stroke="#FFDD08" stroke-miterlimit="10"/>
<path d="M14.153 322.592C20.4192 342.193 30.1915 353.83 37.3716 352.693C38.7703 352.469 42.4629 351.387 45.8757 343.424" fill="#F29104"/>
<path d="M182.596 69.4814H101.787V155.53H182.596V69.4814Z" fill="#E4924E" stroke="#1E1E1C" stroke-width="2" stroke-miterlimit="10"/>
<path d="M159.414 92.7747H124.968V136.153H159.414V92.7747Z" fill="#3A6D46" stroke="#1E1E1C" stroke-width="2" stroke-miterlimit="10"/>
<path d="M255.403 249.3C264.485 230.818 265.511 215.675 259.543 211.516C258.387 210.714 254.955 208.924 246.992 212.299" fill="#F29104"/>
<path d="M229.461 348.235C228.044 351.443 223.885 359.667 214.56 364.889C198.895 373.636 182.595 366.12 180.879 365.3" fill="#F29104"/>
<path opacity="0.25" d="M199.193 19.8365C202.196 14.2044 226.067 12.1716 234.664 19.8365C237.853 22.6899 239.998 27.8371 236.753 31.6416C233.322 35.6699 225.731 36.0242 224.239 36.0802C210.513 36.4718 196.377 25.1329 199.212 19.8365H199.193Z" fill="#244638"/>
<path opacity="0.6" d="M255.813 349.28C258.797 354.259 257.398 391.987 251.934 405.228C249.901 410.133 246.638 413.322 244.735 408.044C242.721 402.468 243.355 390.476 243.486 388.127C244.754 366.456 252.997 344.617 255.813 349.298V349.28Z" fill="#3B5D4B"/>
</svg>
