<svg width="1920" height="435" viewBox="0 0 1920 435" fill="none" xmlns="http://www.w3.org/2000/svg">
<path d="M672.729 420.227C672.729 418.639 672.729 417.321 672.729 416.003C672.729 395.627 672.763 375.216 672.763 354.84C672.763 353.724 672.763 352.575 672.864 351.46C673.033 349.162 673.743 348.284 675.637 347.811C677.462 347.338 678.646 348.284 679.592 349.703C679.897 350.142 680.1 350.649 680.336 351.089C697.512 351.089 714.485 351.089 731.627 351.089C733.183 344.161 734.704 337.369 736.192 330.746C739.607 330.273 739.708 330.239 740.351 332.841C742.075 340.174 743.799 347.507 745.287 354.907C745.794 357.408 745.659 360.01 745.862 363.051C748.127 361.598 750.054 360.348 752.049 359.131C754.957 357.408 757.831 355.651 760.806 354.062C762.294 353.285 763.004 352.305 762.903 350.616C762.835 349.399 762.903 348.149 762.936 346.898C762.97 345.749 762.903 344.769 761.787 343.958C760.773 343.249 760.536 342.235 761.618 341.12C763.545 339.16 763.41 337.977 761.313 336.051C761.077 335.848 760.975 335.51 760.604 334.97C762.835 334.193 763.038 332.368 762.903 330.408C762.463 324.055 764.052 318.141 766.52 312.363C767.23 310.707 767.636 308.916 768.346 307.294C768.718 306.449 769.496 305.199 770.071 305.199C770.95 305.233 771.829 306.145 772.674 306.753C773.012 306.99 773.147 307.497 773.485 308.037C774.804 308.037 776.157 308.037 777.509 308.037C807.939 308.004 838.369 308.037 868.799 307.936C870.996 307.936 873.194 307.328 875.392 307.024C876.947 306.787 878.502 306.618 880.058 306.382C882.222 306.044 884.385 305.638 886.448 304.895C885.907 304.726 885.366 304.591 884.588 304.354C884.656 303.306 884.69 302.225 884.757 300.975C886.482 300.671 888.003 300.434 889.728 300.13C889.829 299.116 889.897 298.136 889.998 297.156C890.167 295.771 890.336 294.318 891.959 293.98C893.65 293.608 895.34 293.777 896.591 295.264C897.234 296.041 898.011 296.717 898.485 297.562C899.567 299.522 901.46 300.062 903.658 300.434C903.793 302.833 903.894 305.165 904.03 307.902C954.847 308.24 1005.5 307.936 1056.62 308.071C1056.62 306.415 1056.62 305.097 1056.62 303.78C1056.65 278.435 1056.69 253.091 1056.69 227.747C1056.69 227.409 1056.72 227.071 1056.69 226.733C1056.45 223.456 1056.79 220.482 1060.54 218.927C1064.6 221.833 1067.07 226.531 1070.72 230.518C1072.14 227.882 1073.46 225.449 1074.74 223.05C1076.36 220.009 1076.43 219.941 1079.88 219.029C1080.79 213.284 1081.77 207.438 1082.65 201.524C1084.41 189.494 1086.14 177.464 1087.86 165.434C1088.6 160.197 1089.38 154.959 1089.99 149.721C1090.13 148.437 1089.58 147.085 1089.55 145.767C1089.48 142.76 1089.52 139.718 1089.52 136.441C1091.71 136.441 1093.57 136.441 1095.53 136.441C1097.66 140.462 1098.92 144.787 1099.56 149.417C1102.43 170.267 1105.61 191.083 1108.42 211.932C1109.16 217.542 1110.61 222.645 1114.67 226.767C1115.82 227.916 1116.77 229.302 1118.09 230.89C1120.28 226.429 1121.1 221.766 1125.19 219.029C1127.93 219.941 1129.38 221.833 1129.55 224.706C1129.58 225.483 1129.58 226.294 1129.58 227.071C1129.62 252.855 1129.62 278.638 1129.62 304.455C1129.65 330.036 1129.75 355.583 1129.72 381.164C1129.72 392.653 1129.48 404.142 1129.38 415.632C1129.38 416.95 1129.38 418.301 1129.38 420.025C1131.88 420.092 1134.08 420.194 1136.31 420.194C1138.54 420.227 1140.77 420.194 1143.38 420.194C1143.44 418.774 1143.55 417.592 1143.55 416.375C1143.55 406.474 1143.55 396.539 1143.55 386.638C1143.55 385.726 1143.61 384.847 1143.61 383.935C1143.61 382.076 1144.73 381.029 1146.32 380.42C1147.81 379.846 1148.92 380.522 1149.9 381.637C1150.85 382.718 1151.69 384.002 1153.86 384.036C1153.99 382.955 1154.26 381.806 1154.26 380.657C1154.3 373.662 1154.37 366.701 1154.26 359.706C1154.23 357.948 1154.77 356.698 1156.02 355.617C1157.61 354.231 1159.34 354.4 1160.62 356.022C1161.03 356.563 1161.36 357.137 1161.8 357.644C1162.78 358.726 1163.9 358.861 1165.08 358.016C1165.62 357.644 1166.03 357.104 1166.61 356.833C1167.08 356.597 1167.69 356.631 1168.57 356.495C1168.57 355.11 1168.57 353.792 1168.57 352.474C1168.6 334.902 1168.6 317.33 1168.67 299.758C1168.67 297.427 1168.23 295.331 1166.84 293.405C1165.62 291.75 1165.05 289.79 1165.08 287.694C1165.12 284.89 1165.02 282.051 1165.12 279.246C1165.19 276.915 1166.2 275.563 1168.53 275.428C1172.45 275.191 1176.41 275.259 1180.33 275.428C1181.18 275.462 1182.02 276.408 1182.83 276.949C1183.88 277.658 1184.93 278.402 1186.45 279.483C1186.62 277.827 1186.86 276.847 1186.76 275.935C1186.55 273.873 1188.04 272.826 1189.33 271.88C1190.51 271.035 1191.93 271.305 1192.88 272.623C1194.23 274.448 1195.89 275.563 1198.29 275.394C1199.44 275.327 1200.31 275.833 1201.03 276.949C1201.6 277.861 1202.78 278.435 1203.43 278.976C1209.92 272.758 1215.9 274.245 1221.75 278.976C1226.42 274.853 1226.82 274.684 1232.74 275.158C1234.77 275.327 1236.59 275.563 1237.91 277.692C1238.99 279.449 1240.28 279.28 1241.56 277.354C1242.58 275.833 1243.9 275.327 1245.55 275.327C1248.94 275.327 1252.32 275.259 1255.7 275.36C1258.03 275.428 1259.55 276.746 1259.65 279.077C1259.79 282.558 1259.96 286.106 1259.48 289.519C1259.18 291.783 1257.76 293.878 1256.91 296.075C1256.51 297.089 1256 298.136 1256 299.15C1255.93 315.37 1255.97 331.591 1255.97 347.811C1255.97 348.791 1256.14 349.771 1256.24 350.92C1257.25 350.987 1258.13 351.055 1259.38 351.19C1259.38 348.351 1259.38 345.716 1259.38 343.181C1263.51 342.134 1263.58 342.235 1263.98 347.878C1266.31 348.047 1266.25 352.474 1270 350.92C1270 346.831 1270.1 342.539 1269.9 338.281C1269.86 337.268 1268.75 336.321 1267.97 335.071C1268.28 334.835 1268.75 334.463 1269.19 334.024C1270.24 332.976 1270.3 331.185 1269.32 330.171C1269.26 330.104 1269.12 330.036 1269.05 329.969C1265.03 326.218 1265.16 324.9 1270 321.791C1270 315.269 1270.1 308.612 1269.93 301.989C1269.86 299.184 1271.12 297.528 1273.41 296.447C1277.3 294.622 1281.39 297.089 1281.56 301.448C1281.66 303.543 1281.56 305.672 1281.56 308.443C1283.15 307.835 1284.37 307.699 1284.94 307.024C1285.92 305.875 1286.8 305.706 1287.75 306.652C1289.41 308.308 1290.86 308.646 1292.55 306.618C1292.89 306.213 1294.48 306.213 1294.95 306.618C1296.81 308.24 1298.33 308.646 1300.09 306.517C1300.77 305.706 1301.61 306.044 1302.42 306.753C1304.45 308.51 1304.49 308.443 1306.72 306.753C1307.94 305.841 1309.05 305.773 1310.27 307.057C1310.88 307.699 1312.03 307.868 1313.31 308.409C1313.45 306.821 1313.58 305.875 1313.58 304.895C1313.78 291.276 1313.99 277.624 1314.16 264.006C1314.19 262.756 1314.29 261.674 1312.74 260.999C1312.09 260.695 1312.03 259.106 1311.59 257.856C1314.49 257.484 1314.26 255.49 1314.29 253.7C1314.43 240.521 1314.49 227.342 1314.66 214.163C1314.77 204.363 1314.97 194.563 1315.14 184.763C1315.17 183.412 1315.34 181.992 1313.65 181.384C1312.64 181.013 1311.86 180.37 1311.99 179.154C1312.16 177.802 1313.35 177.87 1314.29 177.633C1314.49 177.566 1314.73 177.498 1315.24 177.329C1315.31 176.349 1315.37 175.268 1315.41 174.187C1315.85 146.376 1316.29 118.565 1316.69 90.7536C1316.73 89.233 1317.13 87.6109 1315.54 86.4282C1315.2 86.1917 1315.24 84.7048 1315.61 84.3669C1317.13 83.049 1316.9 81.3256 1316.93 79.6698C1317.06 66.3894 1317.2 53.0753 1317.3 39.795C1317.33 33.8138 1317.33 27.8663 1317.33 21.8851C1317.33 20.3983 1317.71 18.8438 1315.81 17.8301C1314.8 17.2894 1314.87 15.6336 1315.98 14.9577C1317.4 14.1467 1317.23 12.964 1317.27 11.7475C1317.3 9.28064 1317.3 6.78002 1317.33 4.31319C1317.37 1.20431 1318.21 0.258126 1321.29 0.190542C1326.13 0.122957 1330.96 0.156749 1335.83 0.258126C1338.47 0.32571 1339.01 0.866386 1339.11 3.46838C1339.21 5.83384 1339.14 8.19929 1339.21 10.5647C1339.28 12.1868 1339.01 13.8764 1340.56 15.2281C1341 15.6336 1340.97 17.4921 1340.46 17.8976C1339.08 19.0804 1339.24 20.4659 1339.28 21.8851C1339.48 40.2343 1339.65 58.5834 1339.92 76.9664C1339.95 79.5008 1340.5 82.069 1340.77 84.6034C1340.83 85.0427 1340.97 85.5496 1340.83 85.9213C1339.55 89.5709 1340.33 93.288 1340.39 96.9714C1340.97 123.194 1341.64 149.451 1342.29 175.673C1342.29 176.113 1342.35 176.552 1342.39 176.856C1343.34 177.802 1344.76 178.613 1344.79 179.458C1344.82 180.303 1343.44 181.215 1342.52 182.263C1342.52 184.459 1342.46 186.926 1342.52 189.393C1343.23 217.981 1343.98 246.603 1344.69 275.191C1344.89 283.741 1345.09 292.29 1345.3 300.873C1345.33 301.786 1345.36 302.664 1345.4 303.577C1345.47 305.165 1345.6 306.855 1347.26 307.666C1349.02 308.51 1350.2 307.193 1351.45 306.077C1353.78 307.463 1356.15 308.206 1358.69 306.584C1359.02 306.348 1359.94 306.483 1360.24 306.787C1362.47 308.848 1364.3 307.936 1366.02 305.942C1366.63 306.314 1367.07 306.584 1367.51 306.888C1369.47 308.308 1370.01 308.375 1371.91 306.922C1372.82 306.213 1373.6 305.908 1374.64 306.517C1377.89 308.443 1377.92 308.443 1380.59 306.044C1381.03 306.246 1381.54 306.415 1381.98 306.719C1384.38 308.477 1384.38 308.544 1386.82 306.719C1387.7 306.044 1388.34 306.01 1389.22 306.618C1391.65 308.308 1391.72 308.341 1393.88 306.753C1395.03 305.908 1396.01 306.077 1396.86 307.024C1397.8 308.139 1398.89 308.24 1400.41 307.801C1400.51 306.077 1400.58 304.32 1400.68 302.462C1401.83 301.752 1402.94 301.042 1404.16 300.299C1407 301.11 1408.08 302.867 1408.05 305.976C1407.88 315.438 1408.02 324.9 1408.02 334.361C1408.02 335.713 1408.02 337.031 1408.02 338.552C1409.23 338.822 1410.28 339.025 1411.6 339.329C1411.73 340.816 1411.9 342.37 1412.07 344.161C1417.48 344.161 1422.79 344.161 1428.4 344.161C1428.51 343.384 1428.61 342.539 1428.74 341.559C1427.19 341.188 1425.8 340.85 1424.21 340.478C1424.28 339.43 1424.31 338.45 1424.38 337.301C1425.83 337.099 1427.15 336.896 1428.67 336.693C1428.78 335.916 1428.94 335.172 1428.94 334.429C1429.32 311.45 1429.69 288.472 1430.03 265.493C1430.06 263.837 1430.64 262.046 1428.44 260.83C1427.59 260.357 1427.46 258.295 1428.71 257.619C1430.47 256.673 1430.13 255.22 1430.13 253.835C1430.26 246.502 1430.3 239.203 1430.4 231.87C1430.64 216.325 1430.94 200.781 1431.21 185.237C1431.21 184.223 1431.11 183.243 1431.07 182.128C1429.76 181.418 1427.69 181.587 1427.93 179.255C1428.13 177.262 1430.09 178.039 1431.21 177.025C1431.28 175.978 1431.38 174.761 1431.38 173.544C1431.68 148.2 1432.02 122.856 1432.33 97.512C1432.36 95.248 1432.6 92.9839 1432.46 90.7536C1432.33 88.895 1431.48 87.0703 1431.51 85.2793C1431.55 83.4545 1432.66 81.6635 1432.7 79.8387C1432.97 60.4758 1433.1 41.0791 1433.27 21.7162C1433.27 20.3983 1433.44 19.148 1432.09 18.1004C1431.55 17.6949 1431.45 15.6674 1431.95 15.1605C1433.2 13.9102 1433 12.5247 1433.07 11.1054C1433.17 8.73997 1433.17 6.37451 1433.27 4.00906C1433.41 1.03535 1434.22 0.122957 1437.06 0.0553729C1441.69 -0.0122115 1446.29 -0.0460037 1450.92 0.122957C1454.44 0.258126 1455.11 1.17052 1455.15 4.75249C1455.15 7.01656 1455.42 9.28064 1455.11 11.5109C1454.84 13.5722 1456.77 14.7888 1456.64 16.4784C1456.53 18.0328 1455.22 19.5197 1455.25 21.0065C1455.35 41.1805 1455.55 61.3206 1455.82 81.4945C1455.86 82.88 1456.43 84.2655 1456.67 85.3469C1456.37 87.0365 1455.86 88.4895 1455.89 89.9088C1456.16 102.311 1456.57 114.678 1456.91 127.046C1457.31 142.591 1457.68 158.135 1458.06 173.646C1458.09 175.403 1457.68 177.16 1459.92 178.208C1461 178.715 1460.9 180.404 1459.75 181.046C1458.19 181.925 1458.39 183.175 1458.43 184.493C1459.04 210.851 1459.58 237.175 1460.22 263.533C1460.79 287.052 1461.47 310.606 1462.08 334.125C1462.11 335.477 1462.08 336.592 1463.67 337.437C1464.78 338.045 1464.92 339.734 1463.57 340.512C1462.15 341.356 1462.15 342.336 1462.55 343.891C1464.68 343.891 1466.85 343.891 1469.11 343.891C1469.28 342.235 1469.45 340.681 1469.62 338.923C1470.67 338.923 1471.61 338.923 1472.73 338.923C1473 340.613 1473.24 342.235 1473.51 343.992C1476.99 343.992 1480.3 343.992 1483.85 343.992C1483.99 342.303 1484.16 340.782 1484.29 338.957C1485.38 338.957 1486.39 338.957 1487.51 338.957C1487.64 340.647 1487.78 342.1 1487.91 343.992C1493.46 344.601 1499.07 343.958 1504.55 344.432C1504.82 344.871 1505.02 345.141 1505.12 345.445C1506.37 348.993 1506.88 349.129 1510.06 347.27C1525.31 338.349 1540.59 329.462 1555.87 320.54C1576.09 308.713 1596.24 296.785 1616.49 285.025C1629.75 277.354 1643.14 269.886 1656.49 262.418C1659.33 260.83 1662.38 259.546 1665.32 258.16C1666.33 257.687 1667.41 257.146 1668.39 258.261C1669.34 259.343 1668.83 260.357 1668.19 261.337C1666.37 264.141 1664.54 266.98 1662.48 270.123C1686.14 285.397 1709.64 300.535 1733.61 316.012C1733.68 314.289 1733.78 313.106 1733.78 311.923C1733.82 300.096 1733.82 288.269 1733.85 276.442C1733.85 272.556 1735 271.44 1738.79 271.407C1740.58 271.407 1742.41 271.407 1744.2 271.373C1747.27 271.339 1747.61 271.17 1748.32 268.095C1749.03 264.919 1749.47 261.674 1750.01 258.464C1750.15 257.687 1750.18 256.91 1750.35 256.133C1750.72 254.342 1751.81 253.395 1753.67 253.395C1756.61 253.362 1759.51 253.294 1762.46 253.26C1769.76 253.226 1777.1 253.26 1784.3 253.26C1790.05 243.393 1799.34 238.594 1809.18 234.81C1825.61 228.491 1842.66 226.091 1860.24 227.105C1873.39 227.882 1886.17 230.18 1898.44 234.979C1904.02 237.175 1909.47 239.676 1914.06 243.562C1916.7 245.792 1919 248.462 1921.13 251.199C1922.21 252.618 1923.16 253.328 1924.95 253.26C1928.1 253.125 1931.27 253.226 1934.42 253.193C1941.42 253.193 1948.38 253.193 1955.38 253.193C1959.54 253.193 1960.39 254.037 1960.72 258.295C1960.99 261.438 1961.26 264.581 1961.57 267.723C1961.67 268.805 1962.01 269.886 1962.31 271.238C1964.34 271.305 1966.23 271.407 1968.09 271.44C1972.15 271.508 1973.23 272.623 1973.23 276.678C1973.23 306.179 1973.2 335.713 1973.2 365.214C1973.2 382.211 1973.23 399.242 1973.23 416.24C1973.23 417.355 1973.23 418.436 1973.23 419.754C1974.38 419.822 1975.23 419.889 1976.41 419.957C1976.41 417.085 1976.41 414.415 1976.41 411.441C1977.76 411.34 1978.81 411.272 1980.1 411.205C1980.23 414.28 1980.37 417.017 1980.5 419.889C1983.48 419.889 1986.15 419.889 1989.12 419.889C1989.19 418.673 1989.29 417.558 1989.29 416.476C1989.6 370.283 1989.67 324.122 1990.31 277.929C1990.85 237.378 1991.9 196.861 1992.98 156.31C1993.62 131.98 1994.74 107.683 1995.65 83.3869C1995.82 78.7574 1996.09 74.1616 1996.22 69.5321C1996.26 67.9777 1996.6 66.7612 1998.02 65.815C2000.45 64.1929 2002.92 64.9026 2003.87 67.6735C2004.14 68.5183 2004.2 69.4307 2004.24 70.3431C2005.02 89.233 2005.86 108.157 2006.5 127.046C2007.35 152.931 2008.19 178.816 2008.7 204.735C2009.65 254.95 2010.43 305.199 2011.17 355.414C2011.47 376.264 2011.51 397.08 2011.68 417.93C2011.68 418.47 2011.78 419.011 2011.81 419.754C2013.23 419.754 2014.55 419.754 2016.24 419.754C2016.38 417.017 2016.51 414.28 2016.65 411.374C2017.9 411.374 2018.98 411.374 2020.4 411.374C2020.4 414.145 2020.4 416.814 2020.4 419.687C2021.58 419.788 2022.43 419.856 2023.51 419.957C2023.61 418.91 2023.81 418.065 2023.81 417.22C2023.81 396.167 2023.81 375.081 2023.78 354.029C2023.78 352.609 2023.78 351.291 2022.67 349.973C2021.04 348.047 2021.55 345.986 2023.81 344.6C2027.36 342.404 2031.02 340.444 2034.67 338.383C2038.79 336.051 2042.88 333.686 2047.04 331.455C2048.53 330.644 2049.17 329.664 2049.07 327.975C2048.97 326.184 2049.04 324.359 2049.07 322.568C2049.17 318.885 2051.71 317.533 2054.99 319.358C2055.26 319.527 2055.56 319.628 2056.31 319.966C2056.37 311.552 2056.48 303.442 2056.54 294.96C2058.03 295.163 2059.08 295.298 2060.36 295.5C2060.36 305.638 2060.36 315.505 2060.36 325.88C2065.06 326.082 2069.49 325.947 2074.29 325.913C2074.4 324.528 2074.43 323.311 2074.56 322.129C2074.77 319.797 2076.02 318.547 2078.11 318.479C2080.11 318.412 2081.29 319.425 2081.8 321.656C2081.94 322.298 2081.97 323.007 2082.04 323.649C2082.1 324.291 2082.17 324.967 2082.27 325.778C2101.34 325.778 2120.34 325.778 2139.55 325.778C2139.62 324.393 2139.62 323.278 2139.72 322.196C2139.96 320 2141.41 318.513 2143.34 318.412C2145.2 318.31 2146.79 319.763 2147.16 321.96C2147.36 323.142 2147.33 324.393 2147.43 325.812C2159.26 325.812 2170.93 325.812 2182.9 325.812C2183.03 324.359 2183.1 323.075 2183.3 321.757C2183.57 319.865 2185.16 318.378 2186.88 318.412C2188.54 318.445 2190.33 320 2190.57 321.757C2190.74 323.075 2190.77 324.393 2190.87 325.947C2195.03 325.947 2198.96 325.913 2202.88 325.981C2205.58 326.015 2208.25 326.285 2210.96 326.353C2211.7 326.387 2212.51 326.251 2213.19 325.947C2219.28 323.244 2219.24 323.21 2219.28 316.519C2219.31 305.942 2219.31 295.332 2219.38 284.755C2219.38 283.538 2219.48 282.322 2219.58 280.97C2220.86 280.97 2221.95 280.97 2223.33 280.97C2223.33 294.96 2223.33 308.781 2223.33 322.636C2226.98 324.494 2230.2 326.589 2234.46 326.082C2237.91 325.677 2241.42 325.981 2244.94 325.947C2245.92 325.947 2246.9 325.812 2248.05 325.744C2248.15 324.562 2248.22 323.582 2248.32 322.602C2248.52 320.372 2250.08 318.648 2252 318.581C2254.03 318.479 2255.79 320.304 2255.99 322.669C2256.06 323.649 2256.13 324.629 2256.23 325.778C2268.1 325.778 2279.76 325.778 2291.7 325.778C2291.8 324.562 2291.83 323.447 2291.97 322.365C2292.24 319.865 2293.59 318.479 2295.79 318.513C2297.92 318.513 2299.2 319.898 2299.48 322.5C2299.58 323.514 2299.58 324.494 2299.64 325.474C2302.15 326.218 2350.9 326.387 2357.02 325.677C2357.12 324.427 2357.22 323.109 2357.39 321.825C2357.66 319.932 2358.64 318.918 2360.33 318.614C2362.16 318.31 2363.68 319.054 2364.32 320.946C2364.8 322.399 2364.87 324.021 2365.14 325.812C2369.5 325.812 2373.93 325.812 2378.8 325.812C2379.1 315.674 2378.8 305.672 2379.03 295.5C2380.28 295.5 2381.3 295.5 2382.58 295.5C2382.75 305.638 2382.92 315.505 2383.09 324.9C2390.6 328.955 2397.73 332.807 2404.83 336.659C2408.48 338.653 2412.13 340.681 2415.75 342.742C2417 343.452 2418.29 344.263 2419.37 345.209C2421.84 347.338 2421.4 349.872 2418.39 351.258C2417.68 351.595 2416.9 351.764 2415.89 352.136C2415.89 374.54 2415.89 397.046 2415.89 419.923C2416.97 419.991 2418.15 420.092 2419.37 420.092C2429.95 420.126 2440.57 420.092 2451.15 420.126C2454.84 420.126 2457.68 422.221 2458.69 425.567C2459.67 428.878 2458.29 432.325 2455.01 434.184C2453.99 434.758 2452.64 434.927 2451.46 434.927C2445.81 435.028 2440.2 434.995 2434.55 434.995C2326.59 434.995 2218.67 434.961 2110.71 434.961C1980.3 434.961 1849.92 434.961 1719.52 434.961C1494.34 434.961 1269.15 434.961 1043.97 434.961C915.83 434.961 787.686 434.961 659.543 434.961C651.868 434.961 644.226 434.961 636.551 434.927C632.832 434.893 629.924 432.629 629.18 429.284C628.403 425.803 630.195 422.052 633.508 420.633C634.489 420.194 635.706 420.194 636.788 420.194C647.371 420.16 657.987 420.16 668.57 420.126C669.855 420.227 671.072 420.227 672.729 420.227ZM1733.95 398.803C1732.74 398.736 1731.86 398.634 1730.94 398.6C1723.61 398.465 1716.3 398.33 1708.97 398.195C1665.72 397.384 1622.44 397.925 1579.2 398.6C1577.34 398.634 1576.29 399.276 1575.41 400.763C1573.82 403.5 1572.17 406.17 1570.44 408.806C1568.41 411.915 1566.28 414.922 1562.63 416.476C1561.31 417.051 1560 417.997 1559.35 419.585C1564.29 420.43 1730.81 420.43 1733.92 419.585C1733.95 412.827 1733.95 406.001 1733.95 398.803ZM1502.65 376.568C1503.13 376.737 1503.33 376.872 1503.53 376.872C1503.97 376.872 1504.44 376.838 1504.88 376.771C1519.36 374.067 1531.93 367.883 1542.08 356.968C1548.06 350.514 1554.21 344.263 1560.37 337.977C1572.2 325.913 1584.17 314.019 1597.26 303.273C1599.12 301.718 1600.87 300.029 1602.67 298.407C1600.91 298.677 1599.45 299.42 1598.03 300.231C1573.28 314.762 1548.53 329.326 1523.78 343.891C1517.97 347.304 1512.19 350.818 1506.41 354.333C1504.38 355.583 1502.75 358.861 1502.75 361.226C1502.75 364.943 1502.69 368.661 1502.65 372.378C1502.65 373.831 1502.65 375.25 1502.65 376.568ZM1734.12 366.43C1734.12 362.139 1734.05 358.489 1734.16 354.806C1734.22 353.049 1733.65 351.866 1732.16 350.886C1726.99 347.473 1721.95 343.891 1716.81 340.444C1692.47 323.987 1668.09 307.564 1643.71 291.107C1641.85 289.857 1640.06 288.539 1638.13 287.188C1634.28 289.959 1630.53 292.459 1626.87 296.007C1662.75 319.527 1698.15 342.81 1734.12 366.43ZM1614.8 305.807C1615.45 306.348 1615.75 306.686 1616.09 306.888C1622.24 310.876 1628.36 314.863 1634.52 318.817C1651.93 330.036 1669.37 341.255 1686.79 352.474C1698.42 359.976 1710.08 367.478 1721.75 374.946C1722.69 375.554 1723.71 376.298 1724.72 376.365C1727.73 376.568 1730.74 376.433 1733.65 376.433C1734.8 371.6 1734.7 371.263 1731.32 368.998C1727.77 366.633 1724.18 364.301 1720.6 361.936C1690.78 342.303 1660.92 322.703 1631.1 303.07C1628.67 301.482 1626.23 299.893 1623.66 298.204C1620.75 300.738 1617.91 303.137 1614.8 305.807ZM1661.23 264.682C1659.87 265.223 1658.96 265.527 1658.12 265.966C1653.96 268.23 1649.8 270.427 1645.71 272.826C1616.63 289.688 1591.71 311.721 1568.14 335.409C1559.25 344.364 1550.56 353.488 1541.74 362.51C1536.33 368.052 1530.04 372.344 1522.87 375.318C1521.89 375.723 1521.01 376.264 1519.63 376.973C1530.85 376.973 1541.4 376.973 1551.95 376.973C1553.23 376.973 1554.08 376.399 1554.65 375.351C1555.13 374.473 1555.67 373.594 1556.11 372.682C1560.88 363.085 1566.69 354.096 1573.05 345.513C1591.54 320.473 1614.13 299.589 1639.45 281.612C1645.4 277.388 1651.66 273.536 1657.74 269.48C1659.33 268.433 1660.69 267.183 1661.23 264.682ZM1715.32 376.129C1715.42 375.892 1715.56 375.656 1715.66 375.419C1681.11 353.116 1646.52 330.813 1611.73 308.375C1609.06 311.011 1606.42 313.647 1603.41 316.621C1606.49 318.513 1609.06 320.067 1611.63 321.689C1639.55 339.261 1667.48 356.833 1695.44 374.338C1696.46 374.98 1697.67 375.588 1698.82 375.622C1704.3 375.892 1709.81 375.96 1715.32 376.129ZM1689.26 375.487C1689.32 375.318 1689.36 375.182 1689.42 375.013C1659.97 356.462 1630.49 337.876 1600.77 319.155C1598.03 321.926 1595.43 324.596 1592.86 327.198C1593.2 327.637 1593.23 327.738 1593.33 327.806C1618.79 343.316 1644.25 358.827 1669.71 374.304C1670.56 374.811 1671.54 375.419 1672.48 375.419C1678.06 375.52 1683.68 375.487 1689.26 375.487ZM1734.09 347.709C1734.09 344.364 1734.02 341.897 1734.09 339.43C1734.16 337.301 1733.24 335.815 1731.49 334.666C1728.48 332.706 1725.53 330.611 1722.53 328.617C1705.89 317.634 1689.29 306.652 1672.65 295.669C1664.67 290.398 1656.7 285.16 1648.51 279.753C1646.21 281.409 1643.88 283.065 1641.21 284.957C1672.25 305.942 1702.85 326.623 1734.09 347.709ZM1734.33 333.28C1734.33 330.07 1734.26 326.826 1734.36 323.616C1734.39 321.757 1733.78 320.54 1732.13 319.493C1725.26 315.168 1718.54 310.673 1711.74 306.28C1694.46 295.129 1677.18 283.977 1659.74 272.725C1657.3 274.279 1654.8 275.901 1652.13 277.624C1652.84 278.199 1653.18 278.503 1653.55 278.74C1673.03 291.513 1692.53 304.253 1711.91 317.127C1719.41 322.163 1727.56 326.454 1734.33 333.28ZM1663.22 375.554C1663.32 375.318 1663.39 375.115 1663.49 374.878C1639.11 360.044 1614.77 345.209 1590.16 330.239C1588.84 331.861 1587.48 333.449 1586 335.308C1587.55 336.288 1588.9 337.065 1590.19 337.943C1608.38 350.041 1626.54 362.172 1644.73 374.236C1645.64 374.845 1646.72 375.487 1647.74 375.52C1652.91 375.622 1658.05 375.554 1663.22 375.554ZM1577.98 345.31C1578.32 345.783 1578.39 345.885 1578.46 345.952C1592.25 355.448 1606.01 365.011 1619.84 374.439C1620.96 375.182 1622.51 375.554 1623.9 375.622C1628.29 375.757 1632.66 375.689 1637.05 375.689C1637.66 375.689 1638.27 375.588 1638.88 375.52C1638.91 375.318 1638.98 375.115 1639.01 374.946C1620.59 362.679 1602.16 350.379 1583.49 337.943C1581.5 340.613 1579.78 342.911 1577.98 345.31ZM1575.48 348.25C1573.72 350.953 1572.1 353.42 1570.54 355.786C1570.88 356.259 1571.02 356.462 1571.19 356.597C1579.27 362.713 1587.32 368.863 1595.46 374.878C1596.55 375.656 1598.13 376.027 1599.52 376.061C1604.02 376.196 1608.51 376.095 1613.01 376.061C1613.42 376.061 1613.82 375.858 1614.47 375.723C1614.06 375.182 1613.89 374.743 1613.59 374.507C1601.01 365.822 1588.43 357.137 1575.48 348.25ZM1589.95 376.331C1590.05 376.061 1590.12 375.791 1590.22 375.52C1583.09 370.147 1575.92 364.774 1568.79 359.401C1566.01 362.409 1559.22 374.101 1558.64 376.94C1569.12 376.737 1579.54 376.534 1589.95 376.331ZM1521.08 419.889C1521.05 417.862 1519.56 417.355 1518.51 416.781C1514.55 414.584 1511.78 411.272 1509.45 407.488C1508.1 405.291 1506.74 403.095 1505.29 400.966C1504.99 400.527 1504.34 400.29 1503.33 399.58C1503.33 406.677 1503.33 413.199 1503.33 419.889C1509.21 419.889 1514.99 419.889 1521.08 419.889Z" fill="#244638"/>
<path d="M-688.271 420.227C-688.271 418.639 -688.271 417.321 -688.271 416.003C-688.271 395.627 -688.237 375.216 -688.237 354.84C-688.237 353.724 -688.237 352.575 -688.136 351.46C-687.967 349.162 -687.257 348.284 -685.363 347.811C-683.538 347.338 -682.354 348.284 -681.408 349.703C-681.103 350.142 -680.9 350.649 -680.664 351.089C-663.488 351.089 -646.515 351.089 -629.373 351.089C-627.817 344.161 -626.296 337.369 -624.808 330.746C-621.393 330.273 -621.292 330.239 -620.649 332.841C-618.925 340.174 -617.201 347.507 -615.713 354.907C-615.206 357.408 -615.341 360.01 -615.138 363.051C-612.873 361.598 -610.946 360.348 -608.951 359.131C-606.043 357.408 -603.169 355.651 -600.194 354.062C-598.706 353.285 -597.996 352.305 -598.097 350.616C-598.165 349.399 -598.097 348.149 -598.064 346.898C-598.03 345.749 -598.097 344.769 -599.213 343.958C-600.227 343.249 -600.464 342.235 -599.382 341.12C-597.455 339.16 -597.59 337.977 -599.686 336.051C-599.923 335.848 -600.025 335.51 -600.397 334.97C-598.165 334.193 -597.962 332.368 -598.097 330.408C-598.537 324.055 -596.948 318.141 -594.48 312.363C-593.77 310.707 -593.364 308.916 -592.654 307.294C-592.282 306.449 -591.504 305.199 -590.929 305.199C-590.05 305.233 -589.171 306.145 -588.326 306.753C-587.988 306.99 -587.853 307.497 -587.515 308.037C-586.196 308.037 -584.843 308.037 -583.491 308.037C-553.061 308.004 -522.631 308.037 -492.201 307.936C-490.004 307.936 -487.806 307.328 -485.608 307.024C-484.053 306.787 -482.498 306.618 -480.942 306.382C-478.779 306.044 -476.615 305.638 -474.552 304.895C-475.093 304.726 -475.634 304.591 -476.412 304.354C-476.344 303.306 -476.31 302.225 -476.243 300.975C-474.518 300.671 -472.997 300.434 -471.272 300.13C-471.171 299.116 -471.103 298.136 -471.002 297.156C-470.833 295.771 -470.664 294.318 -469.041 293.98C-467.35 293.608 -465.66 293.777 -464.409 295.264C-463.766 296.041 -462.989 296.717 -462.515 297.562C-461.434 299.522 -459.54 300.062 -457.342 300.434C-457.207 302.833 -457.106 305.165 -456.97 307.902C-406.153 308.24 -355.504 307.936 -304.382 308.071C-304.382 306.415 -304.382 305.097 -304.382 303.78C-304.348 278.435 -304.314 253.091 -304.314 227.747C-304.314 227.409 -304.28 227.071 -304.314 226.733C-304.551 223.456 -304.213 220.482 -300.46 218.927C-296.402 221.833 -293.934 226.531 -290.282 230.518C-288.862 227.882 -287.544 225.449 -286.259 223.05C-284.636 220.009 -284.568 219.941 -281.12 219.029C-280.207 213.284 -279.226 207.438 -278.347 201.524C-276.589 189.494 -274.865 177.464 -273.14 165.434C-272.396 160.197 -271.619 154.959 -271.01 149.721C-270.875 148.437 -271.416 147.085 -271.45 145.767C-271.517 142.76 -271.484 139.718 -271.484 136.441C-269.286 136.441 -267.426 136.441 -265.465 136.441C-263.335 140.462 -262.084 144.787 -261.442 149.417C-258.568 170.267 -255.39 191.083 -252.583 211.932C-251.839 217.542 -250.385 222.645 -246.328 226.767C-245.179 227.916 -244.232 229.302 -242.913 230.89C-240.716 226.429 -239.904 221.766 -235.813 219.029C-233.074 219.941 -231.62 221.833 -231.451 224.706C-231.418 225.483 -231.418 226.294 -231.418 227.071C-231.384 252.855 -231.384 278.638 -231.384 304.455C-231.35 330.036 -231.249 355.583 -231.282 381.164C-231.282 392.653 -231.519 404.142 -231.62 415.632C-231.62 416.95 -231.62 418.301 -231.62 420.025C-229.118 420.092 -226.921 420.194 -224.689 420.194C-222.458 420.227 -220.226 420.194 -217.623 420.194C-217.555 418.774 -217.454 417.592 -217.454 416.375C-217.454 406.474 -217.454 396.539 -217.454 386.638C-217.454 385.726 -217.386 384.847 -217.386 383.935C-217.386 382.076 -216.27 381.029 -214.681 380.42C-213.193 379.846 -212.078 380.522 -211.097 381.637C-210.15 382.718 -209.305 384.002 -207.141 384.036C-207.006 382.955 -206.736 381.806 -206.736 380.657C-206.702 373.662 -206.634 366.701 -206.736 359.706C-206.769 357.948 -206.228 356.698 -204.977 355.617C-203.388 354.231 -201.664 354.4 -200.379 356.022C-199.973 356.563 -199.635 357.137 -199.196 357.644C-198.215 358.726 -197.099 358.861 -195.916 358.016C-195.375 357.644 -194.969 357.104 -194.395 356.833C-193.921 356.597 -193.313 356.631 -192.434 356.495C-192.434 355.11 -192.434 353.792 -192.434 352.474C-192.4 334.902 -192.4 317.33 -192.332 299.758C-192.332 297.427 -192.772 295.331 -194.158 293.405C-195.375 291.75 -195.95 289.79 -195.916 287.694C-195.882 284.89 -195.984 282.051 -195.882 279.246C-195.815 276.915 -194.8 275.563 -192.467 275.428C-188.545 275.191 -184.589 275.259 -180.667 275.428C-179.822 275.462 -178.977 276.408 -178.165 276.949C-177.117 277.658 -176.069 278.402 -174.548 279.483C-174.378 277.827 -174.142 276.847 -174.243 275.935C-174.446 273.873 -172.958 272.826 -171.674 271.88C-170.49 271.035 -169.07 271.305 -168.123 272.623C-166.771 274.448 -165.114 275.563 -162.714 275.394C-161.564 275.327 -160.685 275.833 -159.975 276.949C-159.4 277.861 -158.217 278.435 -157.574 278.976C-151.083 272.758 -145.098 274.245 -139.249 278.976C-134.583 274.853 -134.177 274.684 -128.26 275.158C-126.232 275.327 -124.406 275.563 -123.087 277.692C-122.005 279.449 -120.721 279.28 -119.436 277.354C-118.421 275.833 -117.103 275.327 -115.446 275.327C-112.065 275.327 -108.684 275.259 -105.303 275.36C-102.97 275.428 -101.448 276.746 -101.347 279.077C-101.212 282.558 -101.043 286.106 -101.516 289.519C-101.82 291.783 -103.24 293.878 -104.086 296.075C-104.491 297.089 -104.998 298.136 -104.998 299.15C-105.066 315.37 -105.032 331.591 -105.032 347.811C-105.032 348.791 -104.863 349.771 -104.762 350.92C-103.747 350.987 -102.868 351.055 -101.617 351.19C-101.617 348.351 -101.617 345.716 -101.617 343.181C-97.4924 342.134 -97.4247 342.235 -97.019 347.878C-94.686 348.047 -94.7537 352.474 -91.0007 350.92C-91.0007 346.831 -90.8993 342.539 -91.1021 338.281C-91.1359 337.268 -92.2517 336.321 -93.0294 335.071C-92.725 334.835 -92.2517 334.463 -91.8121 334.024C-90.764 332.976 -90.6964 331.185 -91.6769 330.171C-91.7446 330.104 -91.8798 330.036 -91.9474 329.969C-95.9709 326.218 -95.8356 324.9 -91.0007 321.791C-91.0007 315.269 -90.8992 308.612 -91.0683 301.989C-91.1359 299.184 -89.8849 297.528 -87.5858 296.447C-83.6975 294.622 -79.6064 297.089 -79.4374 301.448C-79.3359 303.543 -79.4374 305.672 -79.4374 308.443C-77.8482 307.835 -76.631 307.699 -76.0562 307.024C-75.0757 305.875 -74.1967 305.706 -73.2499 306.652C-71.5932 308.308 -70.1393 308.646 -68.4488 306.618C-68.1107 306.213 -66.5215 306.213 -66.0482 306.618C-64.1886 308.24 -62.6671 308.646 -60.9089 306.517C-60.2327 305.706 -59.3875 306.044 -58.576 306.753C-56.5473 308.51 -56.5135 308.443 -54.2819 306.753C-53.0648 305.841 -51.949 305.773 -50.7318 307.057C-50.1232 307.699 -48.9736 307.868 -47.6888 308.409C-47.5536 306.821 -47.4184 305.875 -47.4184 304.895C-47.2155 291.276 -47.0126 277.624 -46.8436 264.006C-46.8098 262.756 -46.7084 261.674 -48.2637 260.999C-48.9061 260.695 -48.9737 259.106 -49.4132 257.856C-46.5055 257.484 -46.7421 255.49 -46.7083 253.7C-46.5731 240.521 -46.5054 227.342 -46.3364 214.163C-46.2349 204.363 -46.0321 194.563 -45.8631 184.763C-45.8293 183.412 -45.6602 181.992 -47.3508 181.384C-48.3651 181.013 -49.1427 180.37 -49.0074 179.154C-48.8384 177.802 -47.655 177.87 -46.7083 177.633C-46.5055 177.566 -46.2688 177.498 -45.7616 177.329C-45.694 176.349 -45.6264 175.268 -45.5926 174.187C-45.153 146.376 -44.7135 118.565 -44.3077 90.7536C-44.2739 89.233 -43.8682 87.6109 -45.4573 86.4282C-45.7954 86.1917 -45.7617 84.7048 -45.3897 84.3669C-43.8682 83.049 -44.1049 81.3256 -44.0711 79.6698C-43.9359 66.3894 -43.8006 53.0753 -43.6992 39.795C-43.6654 33.8138 -43.6654 27.8663 -43.6654 21.8851C-43.6654 20.3983 -43.2935 18.8438 -45.1869 17.8301C-46.2012 17.2894 -46.1335 15.6336 -45.0178 14.9577C-43.5977 14.1467 -43.7668 12.964 -43.733 11.7475C-43.6992 9.28064 -43.6992 6.78002 -43.6654 4.31319C-43.6316 1.20431 -42.7863 0.258126 -39.7095 0.190542C-34.8745 0.122957 -30.0396 0.156749 -25.1708 0.258126C-22.5336 0.32571 -21.9925 0.866386 -21.8911 3.46838C-21.7896 5.83384 -21.8573 8.19929 -21.7897 10.5647C-21.722 12.1868 -21.9926 13.8764 -20.4373 15.2281C-19.9977 15.6336 -20.0314 17.4921 -20.5386 17.8976C-21.9249 19.0804 -21.7558 20.4659 -21.722 21.8851C-21.5191 40.2343 -21.3501 58.5834 -21.0797 76.9664C-21.0458 79.5008 -20.5049 82.069 -20.2344 84.6034C-20.1667 85.0427 -20.0316 85.5496 -20.1667 85.9213C-21.4516 89.5709 -20.674 93.288 -20.6063 96.9714C-20.0316 123.194 -19.3552 149.451 -18.7128 175.673C-18.7128 176.113 -18.6452 176.552 -18.6114 176.856C-17.6647 177.802 -16.2447 178.613 -16.2109 179.458C-16.1771 180.303 -17.5633 181.215 -18.4762 182.263C-18.4762 184.459 -18.5438 186.926 -18.4762 189.393C-17.7662 217.981 -17.0223 246.603 -16.3123 275.191C-16.1094 283.741 -15.9066 292.29 -15.7037 300.873C-15.6699 301.786 -15.6361 302.664 -15.6023 303.577C-15.5347 305.165 -15.3994 306.855 -13.7427 307.666C-11.9845 308.51 -10.801 307.193 -9.55005 306.077C-7.2171 307.463 -4.85034 308.206 -2.31451 306.584C-1.97644 306.348 -1.06348 306.483 -0.759216 306.787C1.47229 308.848 3.2981 307.936 5.02246 305.942C5.63104 306.314 6.07062 306.584 6.51013 306.888C8.47119 308.308 9.01215 308.375 10.9056 306.922C11.8185 306.213 12.5961 305.908 13.6442 306.517C16.8901 308.443 16.9239 308.443 19.595 306.044C20.0345 306.246 20.5416 306.415 20.9812 306.719C23.3818 308.477 23.3818 308.544 25.8162 306.719C26.6953 306.044 27.3376 306.01 28.2167 306.618C30.6511 308.308 30.7188 308.341 32.8827 306.753C34.0322 305.908 35.0127 306.077 35.858 307.024C36.8047 308.139 37.8866 308.24 39.4081 307.801C39.5095 306.077 39.5772 304.32 39.6786 302.462C40.8282 301.752 41.944 301.042 43.1612 300.299C46.0013 301.11 47.0833 302.867 47.0494 305.976C46.8804 315.438 47.0156 324.9 47.0156 334.361C47.0156 335.713 47.0156 337.031 47.0156 338.552C48.2328 338.822 49.2809 339.025 50.5996 339.329C50.7349 340.816 50.9039 342.37 51.0729 344.161C56.4827 344.161 61.791 344.161 67.4036 344.161C67.5051 343.384 67.6064 342.539 67.7417 341.559C66.1864 341.188 64.8002 340.85 63.2111 340.478C63.2787 339.43 63.3125 338.45 63.3801 337.301C64.834 337.099 66.1526 336.896 67.6741 336.693C67.7756 335.916 67.9446 335.172 67.9446 334.429C68.3165 311.45 68.6885 288.472 69.0266 265.493C69.0604 263.837 69.6352 262.046 67.4374 260.83C66.5922 260.357 66.457 258.295 67.7079 257.619C69.4661 256.673 69.128 255.22 69.128 253.835C69.2632 246.502 69.2971 239.203 69.3985 231.87C69.6352 216.325 69.9395 200.781 70.21 185.237C70.21 184.223 70.1086 183.243 70.0748 182.128C68.7561 181.418 66.6936 181.587 66.9303 179.255C67.1332 177.262 69.0942 178.039 70.21 177.025C70.2776 175.978 70.379 174.761 70.379 173.544C70.6833 148.2 71.0214 122.856 71.3257 97.512C71.3596 95.248 71.5962 92.9839 71.4609 90.7536C71.3257 88.895 70.4804 87.0703 70.5142 85.2793C70.548 83.4545 71.6638 81.6635 71.6976 79.8387C71.9681 60.4758 72.1034 41.0791 72.2725 21.7162C72.2725 20.3983 72.4415 19.148 71.0891 18.1004C70.5481 17.6949 70.4466 15.6674 70.9537 15.1605C72.2048 13.9102 72.0019 12.5247 72.0695 11.1054C72.171 8.73997 72.171 6.37451 72.2725 4.00906C72.4077 1.03535 73.2191 0.122957 76.0593 0.0553729C80.6913 -0.0122115 85.2897 -0.0460037 89.9218 0.122957C93.4381 0.258126 94.1143 1.17052 94.1481 4.75249C94.1481 7.01656 94.4186 9.28064 94.1143 11.5109C93.8438 13.5722 95.771 14.7888 95.6357 16.4784C95.5343 18.0328 94.2158 19.5197 94.2496 21.0065C94.351 41.1805 94.5538 61.3206 94.8243 81.4945C94.8582 82.88 95.4329 84.2655 95.6696 85.3469C95.3653 87.0365 94.8582 88.4895 94.892 89.9088C95.1624 102.311 95.5682 114.678 95.9062 127.046C96.312 142.591 96.6839 158.135 97.0558 173.646C97.0897 175.403 96.6839 177.16 98.9154 178.208C99.9974 178.715 99.8959 180.404 98.7463 181.046C97.191 181.925 97.394 183.175 97.4278 184.493C98.0364 210.851 98.5773 237.175 99.2198 263.533C99.7946 287.052 100.471 310.606 101.079 334.125C101.113 335.477 101.079 336.592 102.668 337.437C103.784 338.045 103.919 339.734 102.567 340.512C101.147 341.356 101.147 342.336 101.553 343.891C103.683 343.891 105.847 343.891 108.112 343.891C108.281 342.235 108.45 340.681 108.619 338.923C109.667 338.923 110.614 338.923 111.73 338.923C112 340.613 112.237 342.235 112.507 343.992C115.99 343.992 119.303 343.992 122.854 343.992C122.989 342.303 123.158 340.782 123.293 338.957C124.375 338.957 125.389 338.957 126.505 338.957C126.64 340.647 126.776 342.1 126.911 343.992C132.456 344.601 138.068 343.958 143.546 344.432C143.816 344.871 144.019 345.141 144.121 345.445C145.372 348.993 145.879 349.129 149.057 347.27C164.306 338.349 179.588 329.462 194.871 320.54C215.09 308.713 235.241 296.785 255.494 285.025C268.748 277.354 282.137 269.886 295.492 262.418C298.333 260.83 301.375 259.546 304.317 258.16C305.331 257.687 306.413 257.146 307.394 258.261C308.341 259.343 307.833 260.357 307.191 261.337C305.365 264.141 303.539 266.98 301.477 270.123C325.145 285.397 348.643 300.535 372.615 316.012C372.683 314.289 372.784 313.106 372.784 311.923C372.818 300.096 372.818 288.269 372.852 276.442C372.852 272.556 374.001 271.44 377.788 271.407C379.58 271.407 381.406 271.407 383.198 271.373C386.275 271.339 386.613 271.17 387.323 268.095C388.033 264.919 388.472 261.674 389.013 258.464C389.149 257.687 389.182 256.91 389.352 256.133C389.723 254.342 390.805 253.395 392.665 253.395C395.607 253.362 398.514 253.294 401.456 253.26C408.759 253.226 416.096 253.26 423.298 253.26C429.046 243.393 438.344 238.594 448.182 234.81C464.615 228.491 481.655 226.091 499.237 227.105C512.39 227.882 525.17 230.18 537.443 234.979C543.022 237.175 548.466 239.676 553.064 243.562C555.701 245.792 558.001 248.462 560.131 251.199C561.213 252.618 562.159 253.328 563.951 253.26C567.096 253.125 570.274 253.226 573.418 253.193C580.417 253.193 587.382 253.193 594.381 253.193C598.54 253.193 599.385 254.037 599.723 258.295C599.994 261.438 600.264 264.581 600.569 267.723C600.67 268.805 601.008 269.886 601.312 271.238C603.341 271.305 605.234 271.407 607.094 271.44C611.151 271.508 612.233 272.623 612.233 276.678C612.233 306.179 612.199 335.713 612.199 365.214C612.199 382.211 612.233 399.242 612.233 416.24C612.233 417.355 612.233 418.436 612.233 419.754C613.383 419.822 614.228 419.889 615.412 419.957C615.412 417.085 615.412 414.415 615.412 411.441C616.764 411.34 617.812 411.272 619.097 411.205C619.232 414.28 619.368 417.017 619.503 419.889C622.478 419.889 625.149 419.889 628.125 419.889C628.192 418.673 628.294 417.558 628.294 416.476C628.598 370.283 628.666 324.122 629.308 277.929C629.849 237.378 630.897 196.861 631.979 156.31C632.621 131.98 633.737 107.683 634.65 83.3869C634.819 78.7574 635.09 74.1616 635.225 69.5321C635.259 67.9777 635.597 66.7612 637.017 65.815C639.451 64.1929 641.919 64.9026 642.866 67.6735C643.137 68.5183 643.204 69.4307 643.238 70.3431C644.016 89.233 644.861 108.157 645.503 127.046C646.349 152.931 647.194 178.816 647.701 204.735C648.648 254.95 649.425 305.199 650.169 355.414C650.474 376.264 650.507 397.08 650.676 417.93C650.676 418.47 650.778 419.011 650.812 419.754C652.232 419.754 653.55 419.754 655.241 419.754C655.376 417.017 655.511 414.28 655.647 411.374C656.898 411.374 657.98 411.374 659.4 411.374C659.4 414.145 659.4 416.814 659.4 419.687C660.583 419.788 661.428 419.856 662.51 419.957C662.612 418.91 662.815 418.065 662.815 417.22C662.815 396.167 662.815 375.081 662.781 354.029C662.781 352.609 662.781 351.291 661.665 349.973C660.042 348.047 660.549 345.986 662.815 344.6C666.365 342.404 670.016 340.444 673.668 338.383C677.793 336.051 681.884 333.686 686.043 331.455C687.53 330.644 688.173 329.664 688.071 327.975C687.97 326.184 688.037 324.359 688.071 322.568C688.173 318.885 690.708 317.533 693.988 319.358C694.259 319.527 694.563 319.628 695.307 319.966C695.374 311.552 695.476 303.442 695.544 294.96C697.031 295.163 698.079 295.298 699.364 295.5C699.364 305.638 699.364 315.505 699.364 325.88C704.064 326.082 708.493 325.947 713.294 325.913C713.396 324.528 713.429 323.311 713.565 322.129C713.768 319.797 715.019 318.547 717.115 318.479C719.11 318.412 720.293 319.425 720.8 321.656C720.936 322.298 720.969 323.007 721.037 323.649C721.104 324.291 721.172 324.967 721.274 325.778C740.343 325.778 759.345 325.778 778.549 325.778C778.617 324.393 778.617 323.278 778.718 322.196C778.955 320 780.409 318.513 782.336 318.412C784.196 318.31 785.785 319.763 786.157 321.96C786.36 323.142 786.326 324.393 786.427 325.812C798.261 325.812 809.926 325.812 821.895 325.812C822.03 324.359 822.098 323.075 822.301 321.757C822.571 319.865 824.16 318.378 825.885 318.412C827.542 318.445 829.333 320 829.57 321.757C829.739 323.075 829.773 324.393 829.874 325.947C834.033 325.947 837.955 325.913 841.877 325.981C844.582 326.015 847.253 326.285 849.958 326.353C850.702 326.387 851.513 326.251 852.19 325.947C858.276 323.244 858.242 323.21 858.276 316.519C858.309 305.942 858.309 295.332 858.377 284.755C858.377 283.538 858.479 282.322 858.58 280.97C859.865 280.97 860.947 280.97 862.333 280.97C862.333 294.96 862.333 308.781 862.333 322.636C865.984 324.494 869.197 326.589 873.457 326.082C876.906 325.677 880.422 325.981 883.938 325.947C884.919 325.947 885.899 325.812 887.049 325.744C887.15 324.562 887.218 323.582 887.319 322.602C887.522 320.372 889.078 318.648 891.005 318.581C893.033 318.479 894.792 320.304 894.994 322.669C895.062 323.649 895.13 324.629 895.231 325.778C907.099 325.778 918.763 325.778 930.699 325.778C930.8 324.562 930.834 323.447 930.969 322.365C931.24 319.865 932.592 318.479 934.79 318.513C936.92 318.513 938.205 319.898 938.475 322.5C938.577 323.514 938.577 324.494 938.644 325.474C941.146 326.218 989.902 326.387 996.022 325.677C996.123 324.427 996.224 323.109 996.393 321.825C996.664 319.932 997.644 318.918 999.335 318.614C1001.16 318.31 1002.68 319.054 1003.32 320.946C1003.8 322.399 1003.87 324.021 1004.14 325.812C1008.5 325.812 1012.93 325.812 1017.8 325.812C1018.1 315.674 1017.8 305.672 1018.03 295.5C1019.28 295.5 1020.3 295.5 1021.58 295.5C1021.75 305.638 1021.92 315.505 1022.09 324.9C1029.6 328.955 1036.73 332.807 1043.83 336.659C1047.48 338.653 1051.13 340.681 1054.75 342.742C1056 343.452 1057.29 344.263 1058.37 345.209C1060.84 347.338 1060.4 349.872 1057.39 351.258C1056.68 351.595 1055.9 351.764 1054.89 352.136C1054.89 374.54 1054.89 397.046 1054.89 419.923C1055.97 419.991 1057.15 420.092 1058.37 420.092C1068.95 420.126 1079.57 420.092 1090.15 420.126C1093.84 420.126 1096.68 422.221 1097.69 425.567C1098.67 428.878 1097.29 432.325 1094.01 434.184C1092.99 434.758 1091.64 434.927 1090.46 434.927C1084.81 435.028 1079.2 434.995 1073.55 434.995C965.592 434.995 857.667 434.961 749.709 434.961C619.3 434.961 488.925 434.961 358.516 434.961C133.335 434.961 -91.846 434.961 -317.027 434.961C-445.17 434.961 -573.314 434.961 -701.457 434.961C-709.133 434.961 -716.774 434.961 -724.449 434.927C-728.168 434.893 -731.076 432.629 -731.82 429.284C-732.597 425.803 -730.805 422.052 -727.492 420.633C-726.511 420.194 -725.294 420.194 -724.212 420.194C-713.629 420.16 -703.013 420.16 -692.43 420.126C-691.145 420.227 -689.928 420.227 -688.271 420.227ZM372.953 398.803C371.736 398.736 370.857 398.634 369.944 398.6C362.607 398.465 355.304 398.33 347.967 398.195C304.723 397.384 261.445 397.925 218.2 398.6C216.341 398.634 215.293 399.276 214.414 400.763C212.825 403.5 211.168 406.17 209.443 408.806C207.415 411.915 205.285 414.922 201.633 416.476C200.315 417.051 198.996 417.997 198.353 419.585C203.29 420.43 369.809 420.43 372.919 419.585C372.953 412.827 372.953 406.001 372.953 398.803ZM141.653 376.568C142.126 376.737 142.329 376.872 142.532 376.872C142.971 376.872 143.444 376.838 143.884 376.771C158.355 374.067 170.933 367.883 181.076 356.968C187.061 350.514 193.214 344.263 199.368 337.977C211.202 325.913 223.171 314.019 236.256 303.273C238.115 301.718 239.873 300.029 241.665 298.407C239.907 298.677 238.453 299.42 237.033 300.231C212.284 314.762 187.534 329.326 162.784 343.891C156.969 347.304 151.187 350.818 145.405 354.333C143.377 355.583 141.754 358.861 141.754 361.226C141.754 364.943 141.686 368.661 141.653 372.378C141.653 373.831 141.653 375.25 141.653 376.568ZM373.122 366.43C373.122 362.139 373.055 358.489 373.156 354.806C373.224 353.049 372.649 351.866 371.161 350.886C365.988 347.473 360.95 343.891 355.811 340.444C331.467 323.987 307.089 307.564 282.712 291.107C280.852 289.857 279.06 288.539 277.133 287.188C273.279 289.959 269.525 292.459 265.874 296.007C301.747 319.527 337.147 342.81 373.122 366.43ZM253.803 305.807C254.446 306.348 254.75 306.686 255.088 306.888C261.242 310.876 267.362 314.863 273.515 318.817C290.928 330.036 308.374 341.255 325.787 352.474C337.418 359.976 349.083 367.478 360.747 374.946C361.694 375.554 362.708 376.298 363.723 376.365C366.732 376.568 369.741 376.433 372.649 376.433C373.799 371.6 373.697 371.263 370.316 368.998C366.766 366.633 363.182 364.301 359.598 361.936C329.777 342.303 299.922 322.703 270.1 303.07C267.666 301.482 265.232 299.893 262.662 298.204C259.754 300.738 256.914 303.137 253.803 305.807ZM300.226 264.682C298.874 265.223 297.961 265.527 297.115 265.966C292.957 268.23 288.798 270.427 284.707 272.826C255.629 289.688 230.711 311.721 207.144 335.409C198.252 344.364 189.563 353.488 180.738 362.51C175.328 368.052 169.039 372.344 161.872 375.318C160.891 375.723 160.012 376.264 158.626 376.973C169.851 376.973 180.4 376.973 190.949 376.973C192.234 376.973 193.079 376.399 193.654 375.351C194.127 374.473 194.668 373.594 195.108 372.682C199.875 363.085 205.69 354.096 212.047 345.513C230.542 320.473 253.127 299.589 278.452 281.612C284.402 277.388 290.657 273.536 296.743 269.48C298.333 268.433 299.685 267.183 300.226 264.682ZM354.323 376.129C354.425 375.892 354.56 375.656 354.661 375.419C320.107 353.116 285.518 330.813 250.727 308.375C248.056 311.011 245.418 313.647 242.409 316.621C245.486 318.513 248.056 320.067 250.625 321.689C278.553 339.261 306.481 356.833 334.443 374.338C335.457 374.98 336.674 375.588 337.824 375.622C343.301 375.892 348.812 375.96 354.323 376.129ZM328.255 375.487C328.323 375.318 328.357 375.182 328.424 375.013C298.975 356.462 269.492 337.876 239.772 319.155C237.033 321.926 234.43 324.596 231.86 327.198C232.198 327.637 232.232 327.738 232.333 327.806C257.793 343.316 283.253 358.827 308.712 374.304C309.558 374.811 310.538 375.419 311.485 375.419C317.064 375.52 322.676 375.487 328.255 375.487ZM373.089 347.709C373.089 344.364 373.021 341.897 373.089 339.43C373.156 337.301 372.243 335.815 370.485 334.666C367.476 332.706 364.534 330.611 361.525 328.617C344.89 317.634 328.289 306.652 311.654 295.669C303.675 290.398 295.695 285.16 287.513 279.753C285.214 281.409 282.881 283.065 280.21 284.957C311.248 305.942 341.847 326.623 373.089 347.709ZM373.325 333.28C373.325 330.07 373.258 326.826 373.359 323.616C373.393 321.757 372.784 320.54 371.127 319.493C364.264 315.168 357.535 310.673 350.739 306.28C333.462 295.129 316.185 283.977 298.738 272.725C296.304 274.279 293.802 275.901 291.131 277.624C291.841 278.199 292.179 278.503 292.551 278.74C312.026 291.513 331.535 304.253 350.909 317.127C358.415 322.163 366.563 326.454 373.325 333.28ZM302.221 375.554C302.322 375.318 302.39 375.115 302.491 374.878C278.113 360.044 253.77 345.209 229.155 330.239C227.837 331.861 226.484 333.449 224.997 335.308C226.552 336.288 227.904 337.065 229.189 337.943C247.379 350.041 265.536 362.172 283.726 374.236C284.639 374.845 285.721 375.487 286.735 375.52C291.908 375.622 297.048 375.554 302.221 375.554ZM216.983 345.31C217.321 345.783 217.389 345.885 217.457 345.952C231.251 355.448 245.013 365.011 258.841 374.439C259.957 375.182 261.512 375.554 262.899 375.622C267.294 375.757 271.656 375.689 276.051 375.689C276.66 375.689 277.268 375.588 277.877 375.52C277.911 375.318 277.978 375.115 278.012 374.946C259.585 362.679 241.158 350.379 222.495 337.943C220.5 340.613 218.775 342.911 216.983 345.31ZM214.481 348.25C212.723 350.953 211.1 353.42 209.545 355.786C209.883 356.259 210.018 356.462 210.187 356.597C218.268 362.713 226.315 368.863 234.464 374.878C235.546 375.656 237.135 376.027 238.521 376.061C243.018 376.196 247.515 376.095 252.011 376.061C252.417 376.061 252.823 375.858 253.465 375.723C253.06 375.182 252.89 374.743 252.586 374.507C240.008 365.822 227.431 357.137 214.481 348.25ZM228.952 376.331C229.054 376.061 229.121 375.791 229.223 375.52C222.089 370.147 214.921 364.774 207.787 359.401C205.014 362.409 198.218 374.101 197.643 376.94C208.125 376.737 218.539 376.534 228.952 376.331ZM160.079 419.889C160.046 417.862 158.558 417.355 157.51 416.781C153.554 414.584 150.781 411.272 148.448 407.488C147.096 405.291 145.744 403.095 144.29 400.966C143.985 400.527 143.343 400.29 142.329 399.58C142.329 406.677 142.329 413.199 142.329 419.889C148.212 419.889 153.993 419.889 160.079 419.889Z" fill="#244638"/>
</svg>
