<svg width="588" height="562" viewBox="0 0 588 562" fill="none" xmlns="http://www.w3.org/2000/svg">
<path d="M261.664 23.5198C271.842 -7.80477 316.158 -7.80485 326.336 23.5197L372.355 165.153C376.907 179.162 389.962 188.646 404.691 188.646H553.613C586.55 188.646 600.244 230.793 573.598 250.153L453.118 337.687C441.201 346.345 436.215 361.692 440.766 375.7L486.786 517.334C496.964 548.658 461.112 574.707 434.465 555.347L313.985 467.813C302.068 459.155 285.932 459.155 274.015 467.813L153.535 555.347C126.889 574.707 91.0362 548.658 101.214 517.334L147.234 375.7C151.785 361.692 146.799 346.345 134.882 337.687L14.4019 250.153C-12.2443 230.793 1.44997 188.646 34.3866 188.646H183.309C198.038 188.646 211.093 179.162 215.645 165.153L261.664 23.5198Z" fill="#FFFEE6"/>
</svg>
