<svg width="1920" height="1062" viewBox="0 0 1920 1062" fill="none" xmlns="http://www.w3.org/2000/svg">
<path d="M1054.31 880.752C1090.87 863.349 1148.5 833.587 1212.95 791.466C1312.1 726.393 1445.95 617.939 1521.86 471.651C1622.87 276.433 1854.32 151.584 1949.76 106.689L1959.36 160.664C1860.52 209.847 1665.63 323.598 1578.87 491.072C1498 647.196 1356.4 761.956 1251.68 830.56C1170.5 883.779 1098.92 918.585 1063.91 934.223L1054.31 880.752Z" fill="#7DA87B"/>
<path d="M1464.54 451.978C1362.91 647.953 1148.19 774.567 1044.39 826.525L1034.79 771.793C1137.97 717.061 1319.53 601.797 1407.53 432.305C1484.68 283.495 1625.04 173.023 1729.15 106.689C1823.65 46.1562 1905.76 10.341 1930.86 0L1940.15 52.9662C1906.07 68.0994 1841 99.1224 1767.26 146.288C1669.04 209.09 1536.73 313.005 1464.54 451.978Z" fill="#E28E33"/>
<path d="M1044.7 826.525C1148.19 774.568 1362.91 647.953 1464.85 451.978C1536.73 313.005 1669.04 209.09 1767.26 146.288C1841 99.3748 1906.07 68.0995 1940.15 52.9663L1949.76 106.689C1854.32 151.584 1622.87 276.685 1521.86 471.651C1445.95 618.191 1311.79 726.393 1212.95 791.466C1148.5 833.839 1090.87 863.601 1054.31 880.752L1044.7 826.525Z" fill="#FFFEE6"/>
<path d="M1213.25 961.892C1249.81 944.488 1307.44 914.726 1371.89 872.606C1471.04 807.533 1604.89 699.078 1680.81 552.791C1781.81 357.573 2013.27 232.724 2108.7 187.829L2118.31 241.804C2019.47 290.987 1824.57 404.738 1737.82 572.212C1656.95 728.336 1515.35 843.096 1410.62 911.7C1329.44 964.918 1257.87 999.725 1222.86 1015.36L1213.25 961.892Z" fill="#7DA87B"/>
<path d="M1623.49 533.118C1521.86 729.093 1307.13 855.707 1203.34 907.664L1193.73 852.933C1296.91 798.201 1479.5 678.492 1567.5 509C1644.65 360.19 1783.98 254.163 1888.09 187.829C1982.59 127.296 2064.7 91.4807 2089.8 81.1396L2099.1 134.106C2065.01 149.239 1999.95 180.262 1926.2 227.427C1827.98 290.23 1695.68 394.145 1623.49 533.118Z" fill="#E28E33"/>
<path d="M1203.65 907.664C1307.13 855.707 1521.86 729.093 1623.79 533.118C1695.68 394.145 1827.98 290.23 1926.2 227.427C1999.94 180.514 2065.01 149.239 2099.09 134.106L2108.7 187.829C2013.27 232.724 1781.81 357.825 1680.81 552.791C1604.89 699.331 1470.73 807.533 1371.89 872.606C1307.44 914.979 1249.81 944.741 1213.25 961.892L1203.65 907.664Z" fill="#FFFEE6"/>
<path d="M1373.54 1037.55C1410.11 1020.15 1467.74 990.383 1532.18 948.263C1631.33 883.19 1765.19 774.735 1841.1 628.448C1942.11 433.23 2173.56 308.381 2268.99 263.486L2278.6 317.461C2179.76 366.644 1984.87 480.395 1898.11 647.869C1817.24 803.993 1675.64 918.753 1570.91 987.357C1489.73 1040.58 1417.01 1045.86 1382 1061.5L1373.54 1037.55Z" fill="#7DA87B"/>
<path d="M1783.78 608.775C1682.15 804.75 1467.43 931.364 1363.63 983.321L1354.02 928.59C1457.2 873.858 1638.77 758.593 1726.77 589.102C1803.92 440.292 1944.28 329.819 2048.38 263.486C2142.89 202.953 2224.99 167.138 2250.09 156.797L2259.39 209.763C2225.3 224.896 2160.24 255.919 2086.49 303.084C1988.27 365.887 1855.97 469.802 1783.78 608.775Z" fill="#E28E33"/>
<path d="M1363.94 983.321C1467.43 931.364 1682.15 804.749 1784.09 608.775C1855.97 469.801 1988.27 365.887 2086.49 303.084C2160.24 256.171 2225.3 224.896 2259.39 209.763L2268.99 263.486C2173.56 308.381 1942.11 433.482 1841.1 628.448C1765.19 774.988 1631.02 883.19 1532.18 948.263C1467.74 990.636 1410.1 1020.4 1373.54 1037.55L1363.94 983.321Z" fill="#FFFEE6"/>
<path d="M866.29 880.752C829.728 863.349 772.097 833.587 707.65 791.466C608.5 726.393 474.648 617.939 398.736 471.651C297.727 276.433 66.2735 151.584 -29.1584 106.689L-38.7635 160.664C60.0766 209.847 254.968 323.598 341.725 491.072C422.594 647.196 564.192 761.956 668.92 830.56C750.099 883.779 821.672 918.585 856.685 934.223L866.29 880.752Z" fill="#7DA87B"/>
<path d="M456.057 451.978C557.685 647.953 772.407 774.567 876.205 826.525L885.81 771.793C782.632 717.061 601.064 601.797 513.068 432.305C435.917 283.495 295.558 173.023 191.45 106.689C96.9478 46.1562 14.8392 10.341 -10.2582 0L-19.5535 52.9662C14.5293 68.0994 79.5965 99.1224 153.339 146.288C251.56 209.09 383.863 313.005 456.057 451.978Z" fill="#E28E33"/>
<path d="M875.895 826.525C772.408 774.568 557.686 647.953 455.747 451.978C383.864 313.005 251.56 209.09 153.34 146.288C79.5971 99.3748 14.5299 68.0995 -19.5529 52.9663L-29.1581 106.689C66.2738 151.584 297.727 276.685 398.736 471.651C474.648 618.191 608.81 726.393 707.65 791.466C772.098 833.839 829.729 863.601 866.29 880.752L875.895 826.525Z" fill="#FFFEE6"/>
<path d="M707.345 961.892C670.784 944.488 613.153 914.726 548.705 872.606C449.555 807.533 315.703 699.078 239.791 552.791C138.782 357.573 -92.6714 232.724 -188.103 187.829L-197.708 241.804C-98.8682 290.987 96.0235 404.738 182.78 572.212C263.649 728.336 405.248 843.096 509.975 911.7C591.154 964.918 662.728 999.725 697.74 1015.36L707.345 961.892Z" fill="#7DA87B"/>
<path d="M297.112 533.118C398.741 729.093 613.463 855.707 717.26 907.664L726.865 852.933C623.687 798.201 440.495 676.492 352.5 507C275.348 358.19 136.613 254.163 32.5056 187.829C-61.9968 127.296 -144.105 91.4807 -169.203 81.1396L-178.498 134.106C-144.415 149.239 -79.3481 180.262 -5.60524 227.427C92.6152 290.23 224.919 394.145 297.112 533.118Z" fill="#E28E33"/>
<path d="M716.951 907.664C613.463 855.707 398.741 729.093 296.803 533.118C224.919 394.145 92.6155 290.23 -5.60494 227.427C-79.3477 180.514 -144.415 149.239 -178.498 134.106L-188.103 187.829C-92.671 232.724 138.782 357.825 239.791 552.791C315.703 699.331 449.865 807.533 548.705 872.606C613.153 914.979 670.784 944.741 707.345 961.892L716.951 907.664Z" fill="#FFFEE6"/>
<path d="M547.054 1037.55C510.492 1020.15 452.861 990.383 388.413 948.263C289.263 883.19 155.411 774.735 79.4993 628.448C-21.5098 433.23 -252.963 308.381 -348.395 263.486L-358 317.461C-259.16 366.644 -64.2682 480.395 22.488 647.869C103.357 803.993 244.956 918.753 349.683 987.357C430.862 1040.58 508.988 1038.86 544 1054.5L547.054 1037.55Z" fill="#7DA87B"/>
<path d="M136.82 608.775C238.449 804.75 453.171 931.364 556.968 983.321L566.573 928.59C463.395 873.858 281.827 758.593 193.831 589.102C116.68 440.292 -23.6789 329.819 -127.786 263.486C-222.289 202.953 -304.397 167.138 -329.495 156.797L-338.79 209.763C-304.707 224.896 -239.64 255.919 -165.897 303.084C-67.6768 365.887 64.6265 469.802 136.82 608.775Z" fill="#E28E33"/>
<path d="M556.659 983.321C453.171 931.364 238.449 804.749 136.511 608.775C64.627 469.801 -67.6762 365.887 -165.897 303.084C-239.639 256.171 -304.707 224.896 -338.789 209.763L-348.395 263.486C-252.963 308.381 -21.5095 433.482 79.4995 628.448C155.411 774.988 289.574 883.19 388.414 948.263C452.861 990.636 510.492 1020.4 547.054 1037.55L556.659 983.321Z" fill="#FFFEE6"/>
</svg>
